%TF.GenerationSoftware,KiCad,Pcbnew,9.0.0-9.0.0-2~ubuntu24.04.1*%
%TF.CreationDate,2025-03-03T15:41:28-05:00*%
%TF.ProjectId,nRF54L15-DK-Arduino-Shield,6e524635-344c-4313-952d-444b2d417264,rev?*%
%TF.SameCoordinates,Original*%
%TF.FileFunction,Paste,Top*%
%TF.FilePolarity,Positive*%
%FSLAX46Y46*%
G04 Gerber Fmt 4.6, Leading zero omitted, Abs format (unit mm)*
G04 Created by KiCad (PCBNEW 9.0.0-9.0.0-2~ubuntu24.04.1) date 2025-03-03 15:41:28*
%MOMM*%
%LPD*%
G01*
G04 APERTURE LIST*
%ADD10R,0.500000X1.850000*%
G04 APERTURE END LIST*
D10*
%TO.C,A1*%
X177770000Y-80246000D03*
X177770000Y-77196000D03*
X175230000Y-80246000D03*
X175230000Y-77196000D03*
X162530000Y-80246000D03*
X162530000Y-77196000D03*
X159990000Y-80246000D03*
X159990000Y-77196000D03*
X157450000Y-80246000D03*
X157450000Y-77196000D03*
X154910000Y-80246000D03*
X154910000Y-77196000D03*
X152370000Y-80246000D03*
X152370000Y-77196000D03*
X149830000Y-80246000D03*
X149830000Y-77196000D03*
X189454000Y-128506000D03*
X189454000Y-125456000D03*
X185390000Y-80246000D03*
X185390000Y-77196000D03*
X149830000Y-128506000D03*
X149830000Y-125456000D03*
X152370000Y-128506000D03*
X152370000Y-125456000D03*
X154910000Y-128506000D03*
X154910000Y-125456000D03*
X157450000Y-128506000D03*
X157450000Y-125456000D03*
X159990000Y-128506000D03*
X159990000Y-125456000D03*
X162530000Y-128506000D03*
X162530000Y-125456000D03*
X165070000Y-128506000D03*
X165070000Y-125456000D03*
X167610000Y-128506000D03*
X167610000Y-125456000D03*
X171674000Y-128506000D03*
X171674000Y-125456000D03*
X174214000Y-128506000D03*
X174214000Y-125456000D03*
X176754000Y-128506000D03*
X176754000Y-125456000D03*
X179294000Y-128506000D03*
X179294000Y-125456000D03*
X181834000Y-128506000D03*
X181834000Y-125456000D03*
X184374000Y-128506000D03*
X184374000Y-125456000D03*
X186914000Y-128506000D03*
X186914000Y-125456000D03*
X172690000Y-80246000D03*
X172690000Y-77196000D03*
X170150000Y-80246000D03*
X170150000Y-77196000D03*
X182850000Y-80246000D03*
X182850000Y-77196000D03*
X180310000Y-80246000D03*
X180310000Y-77196000D03*
X194557000Y-128460000D03*
X194557000Y-125410000D03*
X191994000Y-128506000D03*
X191994000Y-125456000D03*
X167610000Y-80246000D03*
X167610000Y-77196000D03*
%TD*%
M02*
