%TF.GenerationSoftware,KiCad,Pcbnew,9.0.0-9.0.0-2~ubuntu24.04.1*%
%TF.CreationDate,2025-03-21T11:37:35-04:00*%
%TF.ProjectId,nRF54L15-DK-Arduino-Shield,6e524635-344c-4313-952d-444b2d417264,rev?*%
%TF.SameCoordinates,Original*%
%TF.FileFunction,Copper,L2,Bot*%
%TF.FilePolarity,Positive*%
%FSLAX46Y46*%
G04 Gerber Fmt 4.6, Leading zero omitted, Abs format (unit mm)*
G04 Created by KiCad (PCBNEW 9.0.0-9.0.0-2~ubuntu24.04.1) date 2025-03-21 11:37:35*
%MOMM*%
%LPD*%
G01*
G04 APERTURE LIST*
G04 Aperture macros list*
%AMRoundRect*
0 Rectangle with rounded corners*
0 $1 Rounding radius*
0 $2 $3 $4 $5 $6 $7 $8 $9 X,Y pos of 4 corners*
0 Add a 4 corners polygon primitive as box body*
4,1,4,$2,$3,$4,$5,$6,$7,$8,$9,$2,$3,0*
0 Add four circle primitives for the rounded corners*
1,1,$1+$1,$2,$3*
1,1,$1+$1,$4,$5*
1,1,$1+$1,$6,$7*
1,1,$1+$1,$8,$9*
0 Add four rect primitives between the rounded corners*
20,1,$1+$1,$2,$3,$4,$5,0*
20,1,$1+$1,$4,$5,$6,$7,0*
20,1,$1+$1,$6,$7,$8,$9,0*
20,1,$1+$1,$8,$9,$2,$3,0*%
G04 Aperture macros list end*
%TA.AperFunction,ComponentPad*%
%ADD10RoundRect,0.250000X-0.500000X0.250000X-0.500000X-0.250000X0.500000X-0.250000X0.500000X0.250000X0*%
%TD*%
%TA.AperFunction,ComponentPad*%
%ADD11O,1.727200X1.727200*%
%TD*%
%TA.AperFunction,ComponentPad*%
%ADD12R,1.727200X1.727200*%
%TD*%
%TA.AperFunction,ComponentPad*%
%ADD13R,1.700000X1.700000*%
%TD*%
%TA.AperFunction,ComponentPad*%
%ADD14O,1.700000X1.700000*%
%TD*%
%TA.AperFunction,ViaPad*%
%ADD15C,0.600000*%
%TD*%
%TA.AperFunction,Conductor*%
%ADD16C,0.200000*%
%TD*%
G04 APERTURE END LIST*
D10*
%TO.P,A1,3V3,3.3V*%
%TO.N,+3.3V*%
X177770000Y-81666400D03*
D11*
X177770000Y-78720000D03*
D10*
%TO.P,A1,5V1,5V*%
%TO.N,VBUS*%
X175230000Y-81666400D03*
D11*
X175230000Y-78720000D03*
D10*
%TO.P,A1,A0,A0*%
%TO.N,/P1.04*%
X162530000Y-81666400D03*
D11*
X162530000Y-78720000D03*
D10*
%TO.P,A1,A1,A1*%
%TO.N,unconnected-(A1-PadA1)_3*%
X159990000Y-81666400D03*
D11*
%TO.N,unconnected-(A1-PadA1)*%
X159990000Y-78720000D03*
D10*
%TO.P,A1,A2,A2*%
%TO.N,unconnected-(A1-PadA2)_2*%
X157450000Y-81666400D03*
D11*
%TO.N,unconnected-(A1-PadA2)_1*%
X157450000Y-78720000D03*
D10*
%TO.P,A1,A3,A3*%
%TO.N,/P1.07*%
X154910000Y-81666400D03*
D11*
X154910000Y-78720000D03*
D10*
%TO.P,A1,A4,A4*%
%TO.N,/P1.11*%
X152370000Y-81666400D03*
D11*
X152370000Y-78720000D03*
D10*
%TO.P,A1,A5,A5*%
%TO.N,/P1.12*%
X149830000Y-81666400D03*
D11*
X149830000Y-78720000D03*
%TO.P,A1,AREF,AREF*%
%TO.N,unconnected-(A1-PadAREF)_3*%
X189454000Y-126980000D03*
D10*
%TO.N,unconnected-(A1-PadAREF)_2*%
X189454000Y-124033600D03*
%TO.P,A1,ATN,ATN*%
%TO.N,unconnected-(A1-PadATN)_2*%
X185390000Y-81666400D03*
D11*
%TO.N,unconnected-(A1-PadATN)_3*%
X185390000Y-78720000D03*
%TO.P,A1,D0,D0/RX*%
%TO.N,unconnected-(A1-D0{slash}RX-PadD0)_1*%
X149830000Y-126980000D03*
D10*
%TO.N,unconnected-(A1-D0{slash}RX-PadD0)*%
X149830000Y-124033600D03*
D11*
%TO.P,A1,D1,D1/TX*%
%TO.N,unconnected-(A1-D1{slash}TX-PadD1)_1*%
X152370000Y-126980000D03*
D10*
%TO.N,unconnected-(A1-D1{slash}TX-PadD1)_2*%
X152370000Y-124033600D03*
D11*
%TO.P,A1,D2,D2*%
%TO.N,unconnected-(A1-PadD2)_2*%
X154910000Y-126980000D03*
D10*
%TO.N,unconnected-(A1-PadD2)*%
X154910000Y-124033600D03*
D11*
%TO.P,A1,D3,D3*%
%TO.N,/P0.03*%
X157450000Y-126980000D03*
D10*
X157450000Y-124033600D03*
D11*
%TO.P,A1,D4,D4*%
%TO.N,/P0.02*%
X159990000Y-126980000D03*
D10*
X159990000Y-124033600D03*
D11*
%TO.P,A1,D5,D5*%
%TO.N,/P1.05*%
X162530000Y-126980000D03*
D10*
X162530000Y-124033600D03*
D11*
%TO.P,A1,D6,D6*%
%TO.N,unconnected-(A1-PadD6)*%
X165070000Y-126980000D03*
D10*
%TO.N,unconnected-(A1-PadD6)_2*%
X165070000Y-124033600D03*
D11*
%TO.P,A1,D7,D7*%
%TO.N,/P1.06*%
X167610000Y-126980000D03*
D10*
X167610000Y-124033600D03*
D11*
%TO.P,A1,D8,D8*%
%TO.N,unconnected-(A1-PadD8)_2*%
X171674000Y-126980000D03*
D10*
%TO.N,unconnected-(A1-PadD8)_1*%
X171674000Y-124033600D03*
D11*
%TO.P,A1,D9,D9*%
%TO.N,unconnected-(A1-PadD9)*%
X174214000Y-126980000D03*
D10*
%TO.N,unconnected-(A1-PadD9)_1*%
X174214000Y-124033600D03*
D11*
%TO.P,A1,D10,D10_CS*%
%TO.N,unconnected-(A1-D10_CS-PadD10)*%
X176754000Y-126980000D03*
D10*
%TO.N,unconnected-(A1-D10_CS-PadD10)_1*%
X176754000Y-124033600D03*
D11*
%TO.P,A1,D11,D11*%
%TO.N,/P2.08*%
X179294000Y-126980000D03*
D10*
X179294000Y-124033600D03*
D11*
%TO.P,A1,D12,D12*%
%TO.N,/P2.09*%
X181834000Y-126980000D03*
D10*
X181834000Y-124033600D03*
D11*
%TO.P,A1,D13,D13*%
%TO.N,/P2.06*%
X184374000Y-126980000D03*
D10*
X184374000Y-124033600D03*
D12*
%TO.P,A1,GND1,GND*%
%TO.N,GND*%
X186914000Y-126980000D03*
D10*
X186914000Y-124033600D03*
%TO.P,A1,GND2,GND*%
X172690000Y-81666400D03*
D12*
X172690000Y-78720000D03*
D10*
%TO.P,A1,GND3,GND*%
X170150000Y-81666400D03*
D12*
X170150000Y-78720000D03*
D10*
%TO.P,A1,IORF,IOREF*%
%TO.N,+3.3V*%
X182850000Y-81666400D03*
D11*
X182850000Y-78720000D03*
D10*
%TO.P,A1,RST1,RESET*%
%TO.N,unconnected-(A1-RESET-PadRST1)*%
X180310000Y-81666400D03*
D11*
%TO.N,unconnected-(A1-RESET-PadRST1)_3*%
X180310000Y-78720000D03*
D10*
%TO.P,A1,SCL,SCL*%
%TO.N,/P2.10*%
X194584800Y-124033600D03*
D11*
X194534000Y-126980000D03*
%TO.P,A1,SDA,SDA*%
%TO.N,/P2.07*%
X191994000Y-126980000D03*
D10*
X191994000Y-124033600D03*
%TO.P,A1,VIN,VIN*%
%TO.N,unconnected-(A1-PadVIN)*%
X167610000Y-81666400D03*
D11*
%TO.N,unconnected-(A1-PadVIN)_1*%
X167610000Y-78720000D03*
%TD*%
D13*
%TO.P,GPIO0,1,Pin_1*%
%TO.N,unconnected-(GPIO0-Pin_1-Pad1)*%
X173990000Y-88900000D03*
D14*
%TO.P,GPIO0,2,Pin_2*%
%TO.N,GND*%
X173990000Y-86360000D03*
%TO.P,GPIO0,3,Pin_3*%
%TO.N,/P0.00*%
X176530000Y-88900000D03*
%TO.P,GPIO0,4,Pin_4*%
%TO.N,/P0.01*%
X176530000Y-86360000D03*
%TO.P,GPIO0,5,Pin_5*%
%TO.N,/P0.02*%
X179070000Y-88900000D03*
%TO.P,GPIO0,6,Pin_6*%
%TO.N,/P0.03*%
X179070000Y-86360000D03*
%TO.P,GPIO0,7,Pin_7*%
%TO.N,/P0.04*%
X181610000Y-88900000D03*
%TO.P,GPIO0,8,Pin_8*%
%TO.N,unconnected-(GPIO0-Pin_8-Pad8)*%
X181610000Y-86360000D03*
%TO.P,GPIO0,9,Pin_9*%
%TO.N,unconnected-(GPIO0-Pin_9-Pad9)*%
X184150000Y-88900000D03*
%TO.P,GPIO0,10,Pin_10*%
%TO.N,unconnected-(GPIO0-Pin_10-Pad10)*%
X184150000Y-86360000D03*
%TO.P,GPIO0,11,Pin_11*%
%TO.N,unconnected-(GPIO0-Pin_11-Pad11)*%
X186690000Y-88900000D03*
%TO.P,GPIO0,12,Pin_12*%
%TO.N,unconnected-(GPIO0-Pin_12-Pad12)*%
X186690000Y-86360000D03*
%TO.P,GPIO0,13,Pin_13*%
%TO.N,unconnected-(GPIO0-Pin_13-Pad13)*%
X189230000Y-88900000D03*
%TO.P,GPIO0,14,Pin_14*%
%TO.N,unconnected-(GPIO0-Pin_14-Pad14)*%
X189230000Y-86360000D03*
%TO.P,GPIO0,15,Pin_15*%
%TO.N,unconnected-(GPIO0-Pin_15-Pad15)*%
X191770000Y-88900000D03*
%TO.P,GPIO0,16,Pin_16*%
%TO.N,unconnected-(GPIO0-Pin_16-Pad16)*%
X191770000Y-86360000D03*
%TO.P,GPIO0,17,Pin_17*%
%TO.N,unconnected-(GPIO0-Pin_17-Pad17)*%
X194310000Y-88900000D03*
%TO.P,GPIO0,18,Pin_18*%
%TO.N,unconnected-(GPIO0-Pin_18-Pad18)*%
X194310000Y-86360000D03*
%TO.P,GPIO0,19,Pin_19*%
%TO.N,GND*%
X196850000Y-88900000D03*
%TO.P,GPIO0,20,Pin_20*%
%TO.N,+3.3V*%
X196850000Y-86360000D03*
%TD*%
D13*
%TO.P,VSUP2,1,Pin_1*%
%TO.N,unconnected-(VSUP2-Pin_1-Pad1)*%
X165100000Y-114300000D03*
D14*
%TO.P,VSUP2,2,Pin_2*%
%TO.N,GND*%
X165100000Y-111760000D03*
%TO.P,VSUP2,3,Pin_3*%
%TO.N,unconnected-(VSUP2-Pin_3-Pad3)*%
X167640000Y-114300000D03*
%TO.P,VSUP2,4,Pin_4*%
%TO.N,GND*%
X167640000Y-111760000D03*
%TD*%
D13*
%TO.P,VSUP0,1,Pin_1*%
%TO.N,VBUS*%
X165100000Y-88900000D03*
D14*
%TO.P,VSUP0,2,Pin_2*%
%TO.N,GND*%
X165100000Y-86360000D03*
%TO.P,VSUP0,3,Pin_3*%
%TO.N,unconnected-(VSUP0-Pin_3-Pad3)*%
X167640000Y-88900000D03*
%TO.P,VSUP0,4,Pin_4*%
%TO.N,GND*%
X167640000Y-86360000D03*
%TD*%
D13*
%TO.P,VSUP1,1,Pin_1*%
%TO.N,unconnected-(VSUP1-Pin_1-Pad1)*%
X165100000Y-101600000D03*
D14*
%TO.P,VSUP1,2,Pin_2*%
%TO.N,GND*%
X165100000Y-99060000D03*
%TO.P,VSUP1,3,Pin_3*%
%TO.N,unconnected-(VSUP1-Pin_3-Pad3)*%
X167640000Y-101600000D03*
%TO.P,VSUP1,4,Pin_4*%
%TO.N,GND*%
X167640000Y-99060000D03*
%TD*%
D13*
%TO.P,GPIO2,1,Pin_1*%
%TO.N,unconnected-(GPIO2-Pin_1-Pad1)*%
X173990000Y-114300000D03*
D14*
%TO.P,GPIO2,2,Pin_2*%
%TO.N,GND*%
X173990000Y-111760000D03*
%TO.P,GPIO2,3,Pin_3*%
%TO.N,/P2.00*%
X176530000Y-114300000D03*
%TO.P,GPIO2,4,Pin_4*%
%TO.N,/P2.01*%
X176530000Y-111760000D03*
%TO.P,GPIO2,5,Pin_5*%
%TO.N,/P2.02*%
X179070000Y-114300000D03*
%TO.P,GPIO2,6,Pin_6*%
%TO.N,/P2.03*%
X179070000Y-111760000D03*
%TO.P,GPIO2,7,Pin_7*%
%TO.N,/P2.04*%
X181610000Y-114300000D03*
%TO.P,GPIO2,8,Pin_8*%
%TO.N,/P2.05*%
X181610000Y-111760000D03*
%TO.P,GPIO2,9,Pin_9*%
%TO.N,/P2.06*%
X184150000Y-114300000D03*
%TO.P,GPIO2,10,Pin_10*%
%TO.N,/P2.07*%
X184150000Y-111760000D03*
%TO.P,GPIO2,11,Pin_11*%
%TO.N,/P2.08*%
X186690000Y-114300000D03*
%TO.P,GPIO2,12,Pin_12*%
%TO.N,/P2.09*%
X186690000Y-111760000D03*
%TO.P,GPIO2,13,Pin_13*%
%TO.N,/P2.10*%
X189230000Y-114300000D03*
%TO.P,GPIO2,14,Pin_14*%
%TO.N,unconnected-(GPIO2-Pin_14-Pad14)*%
X189230000Y-111760000D03*
%TO.P,GPIO2,15,Pin_15*%
%TO.N,unconnected-(GPIO2-Pin_15-Pad15)*%
X191770000Y-114300000D03*
%TO.P,GPIO2,16,Pin_16*%
%TO.N,unconnected-(GPIO2-Pin_16-Pad16)*%
X191770000Y-111760000D03*
%TO.P,GPIO2,17,Pin_17*%
%TO.N,unconnected-(GPIO2-Pin_17-Pad17)*%
X194310000Y-114300000D03*
%TO.P,GPIO2,18,Pin_18*%
%TO.N,unconnected-(GPIO2-Pin_18-Pad18)*%
X194310000Y-111760000D03*
%TO.P,GPIO2,19,Pin_19*%
%TO.N,GND*%
X196850000Y-114300000D03*
%TO.P,GPIO2,20,Pin_20*%
%TO.N,unconnected-(GPIO2-Pin_20-Pad20)*%
X196850000Y-111760000D03*
%TD*%
D13*
%TO.P,GPIO1,1,Pin_1*%
%TO.N,unconnected-(GPIO1-Pin_1-Pad1)*%
X173990000Y-101600000D03*
D14*
%TO.P,GPIO1,2,Pin_2*%
%TO.N,GND*%
X173990000Y-99060000D03*
%TO.P,GPIO1,3,Pin_3*%
%TO.N,/P1.00*%
X176530000Y-101600000D03*
%TO.P,GPIO1,4,Pin_4*%
%TO.N,/P1.01*%
X176530000Y-99060000D03*
%TO.P,GPIO1,5,Pin_5*%
%TO.N,/P1.02*%
X179070000Y-101600000D03*
%TO.P,GPIO1,6,Pin_6*%
%TO.N,/P1.03*%
X179070000Y-99060000D03*
%TO.P,GPIO1,7,Pin_7*%
%TO.N,/P1.04*%
X181610000Y-101600000D03*
%TO.P,GPIO1,8,Pin_8*%
%TO.N,/P1.05*%
X181610000Y-99060000D03*
%TO.P,GPIO1,9,Pin_9*%
%TO.N,/P1.06*%
X184150000Y-101600000D03*
%TO.P,GPIO1,10,Pin_10*%
%TO.N,/P1.07*%
X184150000Y-99060000D03*
%TO.P,GPIO1,11,Pin_11*%
%TO.N,/P1.08*%
X186690000Y-101600000D03*
%TO.P,GPIO1,12,Pin_12*%
%TO.N,/P1.09*%
X186690000Y-99060000D03*
%TO.P,GPIO1,13,Pin_13*%
%TO.N,/P1.10*%
X189230000Y-101600000D03*
%TO.P,GPIO1,14,Pin_14*%
%TO.N,/P1.11*%
X189230000Y-99060000D03*
%TO.P,GPIO1,15,Pin_15*%
%TO.N,/P1.12*%
X191770000Y-101600000D03*
%TO.P,GPIO1,16,Pin_16*%
%TO.N,/P1.13*%
X191770000Y-99060000D03*
%TO.P,GPIO1,17,Pin_17*%
%TO.N,/P1.14*%
X194310000Y-101600000D03*
%TO.P,GPIO1,18,Pin_18*%
%TO.N,unconnected-(GPIO1-Pin_18-Pad18)*%
X194310000Y-99060000D03*
%TO.P,GPIO1,19,Pin_19*%
%TO.N,GND*%
X196850000Y-101600000D03*
%TO.P,GPIO1,20,Pin_20*%
%TO.N,unconnected-(GPIO1-Pin_20-Pad20)*%
X196850000Y-99060000D03*
%TD*%
D15*
%TO.N,GND*%
X165000000Y-80000000D03*
X145000000Y-77500000D03*
X192500000Y-82500000D03*
X165000000Y-77500000D03*
X147500000Y-82500000D03*
X165000000Y-82500000D03*
X190000000Y-77500000D03*
X147500000Y-77500000D03*
X195000000Y-82500000D03*
X190000000Y-82500000D03*
X147500000Y-85000000D03*
X145000000Y-85000000D03*
X145000000Y-80000000D03*
X197500000Y-82500000D03*
X147500000Y-80000000D03*
X145000000Y-90000000D03*
X147500000Y-90000000D03*
X187500000Y-82500000D03*
X145000000Y-82500000D03*
X147500000Y-87500000D03*
X187500000Y-77500000D03*
X145000000Y-87500000D03*
%TO.N,/P2.08*%
X179300000Y-117010000D03*
X186690000Y-117010000D03*
%TO.N,/P1.12*%
X150840000Y-95820000D03*
X191780000Y-95820000D03*
%TO.N,/P1.05*%
X181610000Y-96430000D03*
X162530000Y-96680000D03*
%TO.N,/P1.04*%
X180330000Y-92930000D03*
X162520000Y-92930000D03*
%TO.N,/P1.11*%
X152370000Y-94610000D03*
X189230000Y-94610000D03*
%TO.N,/P0.02*%
X179070000Y-91180000D03*
X159990000Y-91180000D03*
%TO.N,/P1.06*%
X170260000Y-104040000D03*
X170260000Y-117960000D03*
X167610000Y-117960000D03*
X184150000Y-104040000D03*
%TO.N,/P0.03*%
X180150000Y-91800000D03*
X157440000Y-91800000D03*
%TO.N,/P2.09*%
X181830000Y-118060000D03*
X185420000Y-118060000D03*
%TO.N,/P1.07*%
X154910000Y-93690000D03*
X184150000Y-93690000D03*
%TD*%
D16*
%TO.N,/P2.08*%
X179300000Y-117010000D02*
X186690000Y-117010000D01*
%TO.N,/P1.12*%
X150840000Y-95820000D02*
X191780000Y-95820000D01*
%TO.N,/P1.05*%
X181360000Y-96680000D02*
X181610000Y-96430000D01*
X162530000Y-96680000D02*
X181360000Y-96680000D01*
%TO.N,/P1.04*%
X162520000Y-92930000D02*
X180330000Y-92930000D01*
%TO.N,/P1.11*%
X152370000Y-94610000D02*
X189230000Y-94610000D01*
%TO.N,/P0.02*%
X159990000Y-91180000D02*
X179070000Y-91180000D01*
%TO.N,/P1.06*%
X170260000Y-104040000D02*
X184150000Y-104040000D01*
X167610000Y-117960000D02*
X170260000Y-117960000D01*
%TO.N,/P0.03*%
X157440000Y-91800000D02*
X180150000Y-91800000D01*
%TO.N,/P2.09*%
X181830000Y-118060000D02*
X185420000Y-118060000D01*
%TO.N,/P1.07*%
X154910000Y-93690000D02*
X184150000Y-93690000D01*
%TD*%
%TA.AperFunction,Conductor*%
%TO.N,GND*%
G36*
X167174075Y-111567007D02*
G01*
X167140000Y-111694174D01*
X167140000Y-111825826D01*
X167174075Y-111952993D01*
X167206988Y-112010000D01*
X165533012Y-112010000D01*
X165565925Y-111952993D01*
X165600000Y-111825826D01*
X165600000Y-111694174D01*
X165565925Y-111567007D01*
X165533012Y-111510000D01*
X167206988Y-111510000D01*
X167174075Y-111567007D01*
G37*
%TD.AperFunction*%
%TA.AperFunction,Conductor*%
G36*
X167174075Y-98867007D02*
G01*
X167140000Y-98994174D01*
X167140000Y-99125826D01*
X167174075Y-99252993D01*
X167206988Y-99310000D01*
X165533012Y-99310000D01*
X165565925Y-99252993D01*
X165600000Y-99125826D01*
X165600000Y-98994174D01*
X165565925Y-98867007D01*
X165533012Y-98810000D01*
X167206988Y-98810000D01*
X167174075Y-98867007D01*
G37*
%TD.AperFunction*%
%TA.AperFunction,Conductor*%
G36*
X167174075Y-86167007D02*
G01*
X167140000Y-86294174D01*
X167140000Y-86425826D01*
X167174075Y-86552993D01*
X167206988Y-86610000D01*
X165533012Y-86610000D01*
X165565925Y-86552993D01*
X165600000Y-86425826D01*
X165600000Y-86294174D01*
X165565925Y-86167007D01*
X165533012Y-86110000D01*
X167206988Y-86110000D01*
X167174075Y-86167007D01*
G37*
%TD.AperFunction*%
%TA.AperFunction,Conductor*%
G36*
X172216619Y-78523919D02*
G01*
X172182000Y-78653120D01*
X172182000Y-78786880D01*
X172216619Y-78916081D01*
X172247749Y-78970000D01*
X170592251Y-78970000D01*
X170623381Y-78916081D01*
X170658000Y-78786880D01*
X170658000Y-78653120D01*
X170623381Y-78523919D01*
X170592251Y-78470000D01*
X172247749Y-78470000D01*
X172216619Y-78523919D01*
G37*
%TD.AperFunction*%
%TA.AperFunction,Conductor*%
G36*
X198302702Y-76000617D02*
G01*
X198686771Y-76017386D01*
X198697506Y-76018326D01*
X199075971Y-76068152D01*
X199086597Y-76070025D01*
X199459284Y-76152648D01*
X199469710Y-76155442D01*
X199833765Y-76270227D01*
X199843911Y-76273920D01*
X200196578Y-76420000D01*
X200206369Y-76424566D01*
X200544942Y-76600816D01*
X200554310Y-76606224D01*
X200876244Y-76811318D01*
X200885105Y-76817523D01*
X201187930Y-77049889D01*
X201196217Y-77056843D01*
X201477635Y-77314715D01*
X201485284Y-77322364D01*
X201743156Y-77603782D01*
X201750110Y-77612069D01*
X201982476Y-77914894D01*
X201988681Y-77923755D01*
X202193775Y-78245689D01*
X202199183Y-78255057D01*
X202375430Y-78593623D01*
X202380002Y-78603427D01*
X202526075Y-78956078D01*
X202529775Y-78966244D01*
X202644554Y-79330278D01*
X202647354Y-79340727D01*
X202729971Y-79713389D01*
X202731849Y-79724042D01*
X202781671Y-80102473D01*
X202782614Y-80113249D01*
X202799382Y-80497297D01*
X202799500Y-80502706D01*
X202799500Y-125897293D01*
X202799382Y-125902702D01*
X202782614Y-126286750D01*
X202781671Y-126297526D01*
X202731849Y-126675957D01*
X202729971Y-126686610D01*
X202647354Y-127059272D01*
X202644554Y-127069721D01*
X202529775Y-127433755D01*
X202526075Y-127443921D01*
X202380002Y-127796572D01*
X202375430Y-127806376D01*
X202199183Y-128144942D01*
X202193775Y-128154310D01*
X201988681Y-128476244D01*
X201982476Y-128485105D01*
X201750110Y-128787930D01*
X201743156Y-128796217D01*
X201485284Y-129077635D01*
X201477635Y-129085284D01*
X201196217Y-129343156D01*
X201187930Y-129350110D01*
X200885105Y-129582476D01*
X200876244Y-129588681D01*
X200554310Y-129793775D01*
X200544942Y-129799183D01*
X200206376Y-129975430D01*
X200196572Y-129980002D01*
X199843921Y-130126075D01*
X199833755Y-130129775D01*
X199469721Y-130244554D01*
X199459272Y-130247354D01*
X199086610Y-130329971D01*
X199075957Y-130331849D01*
X198697526Y-130381671D01*
X198686750Y-130382614D01*
X198302703Y-130399382D01*
X198297294Y-130399500D01*
X146302706Y-130399500D01*
X146297297Y-130399382D01*
X145913249Y-130382614D01*
X145902473Y-130381671D01*
X145524042Y-130331849D01*
X145513389Y-130329971D01*
X145140727Y-130247354D01*
X145130278Y-130244554D01*
X144766244Y-130129775D01*
X144756078Y-130126075D01*
X144403427Y-129980002D01*
X144393623Y-129975430D01*
X144055057Y-129799183D01*
X144045689Y-129793775D01*
X143723755Y-129588681D01*
X143714894Y-129582476D01*
X143412069Y-129350110D01*
X143403782Y-129343156D01*
X143122364Y-129085284D01*
X143114715Y-129077635D01*
X142856843Y-128796217D01*
X142849889Y-128787930D01*
X142617523Y-128485105D01*
X142611318Y-128476244D01*
X142406224Y-128154310D01*
X142400816Y-128144942D01*
X142369968Y-128085684D01*
X142224566Y-127806369D01*
X142219997Y-127796572D01*
X142073920Y-127443911D01*
X142070224Y-127433755D01*
X141955442Y-127069710D01*
X141952649Y-127059290D01*
X141911270Y-126872643D01*
X148465900Y-126872643D01*
X148465900Y-127087356D01*
X148499489Y-127299428D01*
X148565837Y-127503630D01*
X148565838Y-127503633D01*
X148649652Y-127668125D01*
X148663317Y-127694944D01*
X148789523Y-127868651D01*
X148941349Y-128020477D01*
X149115056Y-128146683D01*
X149208888Y-128194492D01*
X149306366Y-128244161D01*
X149306369Y-128244162D01*
X149408470Y-128277336D01*
X149510573Y-128310511D01*
X149722643Y-128344100D01*
X149722644Y-128344100D01*
X149937356Y-128344100D01*
X149937357Y-128344100D01*
X150149427Y-128310511D01*
X150353633Y-128244161D01*
X150544944Y-128146683D01*
X150718651Y-128020477D01*
X150870477Y-127868651D01*
X150996683Y-127694944D01*
X150996683Y-127694943D01*
X150999547Y-127691002D01*
X151001478Y-127692405D01*
X151045927Y-127652078D01*
X151114840Y-127640558D01*
X151179042Y-127668125D01*
X151199478Y-127691709D01*
X151200453Y-127691002D01*
X151203316Y-127694943D01*
X151203317Y-127694944D01*
X151329523Y-127868651D01*
X151481349Y-128020477D01*
X151655056Y-128146683D01*
X151748888Y-128194492D01*
X151846366Y-128244161D01*
X151846369Y-128244162D01*
X151948470Y-128277336D01*
X152050573Y-128310511D01*
X152262643Y-128344100D01*
X152262644Y-128344100D01*
X152477356Y-128344100D01*
X152477357Y-128344100D01*
X152689427Y-128310511D01*
X152893633Y-128244161D01*
X153084944Y-128146683D01*
X153258651Y-128020477D01*
X153410477Y-127868651D01*
X153536683Y-127694944D01*
X153536683Y-127694943D01*
X153539547Y-127691002D01*
X153541478Y-127692405D01*
X153585927Y-127652078D01*
X153654840Y-127640558D01*
X153719042Y-127668125D01*
X153739478Y-127691709D01*
X153740453Y-127691002D01*
X153743316Y-127694943D01*
X153743317Y-127694944D01*
X153869523Y-127868651D01*
X154021349Y-128020477D01*
X154195056Y-128146683D01*
X154288888Y-128194492D01*
X154386366Y-128244161D01*
X154386369Y-128244162D01*
X154488470Y-128277336D01*
X154590573Y-128310511D01*
X154802643Y-128344100D01*
X154802644Y-128344100D01*
X155017356Y-128344100D01*
X155017357Y-128344100D01*
X155229427Y-128310511D01*
X155433633Y-128244161D01*
X155624944Y-128146683D01*
X155798651Y-128020477D01*
X155950477Y-127868651D01*
X156076683Y-127694944D01*
X156076683Y-127694943D01*
X156079547Y-127691002D01*
X156081478Y-127692405D01*
X156125927Y-127652078D01*
X156194840Y-127640558D01*
X156259042Y-127668125D01*
X156279478Y-127691709D01*
X156280453Y-127691002D01*
X156283316Y-127694943D01*
X156283317Y-127694944D01*
X156409523Y-127868651D01*
X156561349Y-128020477D01*
X156735056Y-128146683D01*
X156828888Y-128194492D01*
X156926366Y-128244161D01*
X156926369Y-128244162D01*
X157028470Y-128277336D01*
X157130573Y-128310511D01*
X157342643Y-128344100D01*
X157342644Y-128344100D01*
X157557356Y-128344100D01*
X157557357Y-128344100D01*
X157769427Y-128310511D01*
X157973633Y-128244161D01*
X158164944Y-128146683D01*
X158338651Y-128020477D01*
X158490477Y-127868651D01*
X158616683Y-127694944D01*
X158616683Y-127694943D01*
X158619547Y-127691002D01*
X158621478Y-127692405D01*
X158665927Y-127652078D01*
X158734840Y-127640558D01*
X158799042Y-127668125D01*
X158819478Y-127691709D01*
X158820453Y-127691002D01*
X158823316Y-127694943D01*
X158823317Y-127694944D01*
X158949523Y-127868651D01*
X159101349Y-128020477D01*
X159275056Y-128146683D01*
X159368888Y-128194492D01*
X159466366Y-128244161D01*
X159466369Y-128244162D01*
X159568470Y-128277336D01*
X159670573Y-128310511D01*
X159882643Y-128344100D01*
X159882644Y-128344100D01*
X160097356Y-128344100D01*
X160097357Y-128344100D01*
X160309427Y-128310511D01*
X160513633Y-128244161D01*
X160704944Y-128146683D01*
X160878651Y-128020477D01*
X161030477Y-127868651D01*
X161156683Y-127694944D01*
X161156683Y-127694943D01*
X161159547Y-127691002D01*
X161161478Y-127692405D01*
X161205927Y-127652078D01*
X161274840Y-127640558D01*
X161339042Y-127668125D01*
X161359478Y-127691709D01*
X161360453Y-127691002D01*
X161363316Y-127694943D01*
X161363317Y-127694944D01*
X161489523Y-127868651D01*
X161641349Y-128020477D01*
X161815056Y-128146683D01*
X161908888Y-128194492D01*
X162006366Y-128244161D01*
X162006369Y-128244162D01*
X162108470Y-128277336D01*
X162210573Y-128310511D01*
X162422643Y-128344100D01*
X162422644Y-128344100D01*
X162637356Y-128344100D01*
X162637357Y-128344100D01*
X162849427Y-128310511D01*
X163053633Y-128244161D01*
X163244944Y-128146683D01*
X163418651Y-128020477D01*
X163570477Y-127868651D01*
X163696683Y-127694944D01*
X163696683Y-127694943D01*
X163699547Y-127691002D01*
X163701478Y-127692405D01*
X163745927Y-127652078D01*
X163814840Y-127640558D01*
X163879042Y-127668125D01*
X163899478Y-127691709D01*
X163900453Y-127691002D01*
X163903316Y-127694943D01*
X163903317Y-127694944D01*
X164029523Y-127868651D01*
X164181349Y-128020477D01*
X164355056Y-128146683D01*
X164448888Y-128194492D01*
X164546366Y-128244161D01*
X164546369Y-128244162D01*
X164648470Y-128277336D01*
X164750573Y-128310511D01*
X164962643Y-128344100D01*
X164962644Y-128344100D01*
X165177356Y-128344100D01*
X165177357Y-128344100D01*
X165389427Y-128310511D01*
X165593633Y-128244161D01*
X165784944Y-128146683D01*
X165958651Y-128020477D01*
X166110477Y-127868651D01*
X166236683Y-127694944D01*
X166236683Y-127694943D01*
X166239547Y-127691002D01*
X166241478Y-127692405D01*
X166285927Y-127652078D01*
X166354840Y-127640558D01*
X166419042Y-127668125D01*
X166439478Y-127691709D01*
X166440453Y-127691002D01*
X166443316Y-127694943D01*
X166443317Y-127694944D01*
X166569523Y-127868651D01*
X166721349Y-128020477D01*
X166895056Y-128146683D01*
X166988888Y-128194492D01*
X167086366Y-128244161D01*
X167086369Y-128244162D01*
X167188470Y-128277336D01*
X167290573Y-128310511D01*
X167502643Y-128344100D01*
X167502644Y-128344100D01*
X167717356Y-128344100D01*
X167717357Y-128344100D01*
X167929427Y-128310511D01*
X168133633Y-128244161D01*
X168324944Y-128146683D01*
X168498651Y-128020477D01*
X168650477Y-127868651D01*
X168776683Y-127694944D01*
X168874161Y-127503633D01*
X168940511Y-127299427D01*
X168974100Y-127087357D01*
X168974100Y-126872643D01*
X170309900Y-126872643D01*
X170309900Y-127087356D01*
X170343489Y-127299428D01*
X170409837Y-127503630D01*
X170409838Y-127503633D01*
X170493652Y-127668125D01*
X170507317Y-127694944D01*
X170633523Y-127868651D01*
X170785349Y-128020477D01*
X170959056Y-128146683D01*
X171052888Y-128194492D01*
X171150366Y-128244161D01*
X171150369Y-128244162D01*
X171252470Y-128277336D01*
X171354573Y-128310511D01*
X171566643Y-128344100D01*
X171566644Y-128344100D01*
X171781356Y-128344100D01*
X171781357Y-128344100D01*
X171993427Y-128310511D01*
X172197633Y-128244161D01*
X172388944Y-128146683D01*
X172562651Y-128020477D01*
X172714477Y-127868651D01*
X172840683Y-127694944D01*
X172840683Y-127694943D01*
X172843547Y-127691002D01*
X172845478Y-127692405D01*
X172889927Y-127652078D01*
X172958840Y-127640558D01*
X173023042Y-127668125D01*
X173043478Y-127691709D01*
X173044453Y-127691002D01*
X173047316Y-127694943D01*
X173047317Y-127694944D01*
X173173523Y-127868651D01*
X173325349Y-128020477D01*
X173499056Y-128146683D01*
X173592888Y-128194492D01*
X173690366Y-128244161D01*
X173690369Y-128244162D01*
X173792470Y-128277336D01*
X173894573Y-128310511D01*
X174106643Y-128344100D01*
X174106644Y-128344100D01*
X174321356Y-128344100D01*
X174321357Y-128344100D01*
X174533427Y-128310511D01*
X174737633Y-128244161D01*
X174928944Y-128146683D01*
X175102651Y-128020477D01*
X175254477Y-127868651D01*
X175380683Y-127694944D01*
X175380683Y-127694943D01*
X175383547Y-127691002D01*
X175385478Y-127692405D01*
X175429927Y-127652078D01*
X175498840Y-127640558D01*
X175563042Y-127668125D01*
X175583478Y-127691709D01*
X175584453Y-127691002D01*
X175587316Y-127694943D01*
X175587317Y-127694944D01*
X175713523Y-127868651D01*
X175865349Y-128020477D01*
X176039056Y-128146683D01*
X176132888Y-128194492D01*
X176230366Y-128244161D01*
X176230369Y-128244162D01*
X176332470Y-128277336D01*
X176434573Y-128310511D01*
X176646643Y-128344100D01*
X176646644Y-128344100D01*
X176861356Y-128344100D01*
X176861357Y-128344100D01*
X177073427Y-128310511D01*
X177277633Y-128244161D01*
X177468944Y-128146683D01*
X177642651Y-128020477D01*
X177794477Y-127868651D01*
X177920683Y-127694944D01*
X177920683Y-127694943D01*
X177923547Y-127691002D01*
X177925478Y-127692405D01*
X177969927Y-127652078D01*
X178038840Y-127640558D01*
X178103042Y-127668125D01*
X178123478Y-127691709D01*
X178124453Y-127691002D01*
X178127316Y-127694943D01*
X178127317Y-127694944D01*
X178253523Y-127868651D01*
X178405349Y-128020477D01*
X178579056Y-128146683D01*
X178672888Y-128194492D01*
X178770366Y-128244161D01*
X178770369Y-128244162D01*
X178872470Y-128277336D01*
X178974573Y-128310511D01*
X179186643Y-128344100D01*
X179186644Y-128344100D01*
X179401356Y-128344100D01*
X179401357Y-128344100D01*
X179613427Y-128310511D01*
X179817633Y-128244161D01*
X180008944Y-128146683D01*
X180182651Y-128020477D01*
X180334477Y-127868651D01*
X180460683Y-127694944D01*
X180460683Y-127694943D01*
X180463547Y-127691002D01*
X180465478Y-127692405D01*
X180509927Y-127652078D01*
X180578840Y-127640558D01*
X180643042Y-127668125D01*
X180663478Y-127691709D01*
X180664453Y-127691002D01*
X180667316Y-127694943D01*
X180667317Y-127694944D01*
X180793523Y-127868651D01*
X180945349Y-128020477D01*
X181119056Y-128146683D01*
X181212888Y-128194492D01*
X181310366Y-128244161D01*
X181310369Y-128244162D01*
X181412470Y-128277336D01*
X181514573Y-128310511D01*
X181726643Y-128344100D01*
X181726644Y-128344100D01*
X181941356Y-128344100D01*
X181941357Y-128344100D01*
X182153427Y-128310511D01*
X182357633Y-128244161D01*
X182548944Y-128146683D01*
X182722651Y-128020477D01*
X182874477Y-127868651D01*
X183000683Y-127694944D01*
X183000683Y-127694943D01*
X183003547Y-127691002D01*
X183005478Y-127692405D01*
X183049927Y-127652078D01*
X183118840Y-127640558D01*
X183183042Y-127668125D01*
X183203478Y-127691709D01*
X183204453Y-127691002D01*
X183207316Y-127694943D01*
X183207317Y-127694944D01*
X183333523Y-127868651D01*
X183485349Y-128020477D01*
X183659056Y-128146683D01*
X183752888Y-128194492D01*
X183850366Y-128244161D01*
X183850369Y-128244162D01*
X183952470Y-128277336D01*
X184054573Y-128310511D01*
X184266643Y-128344100D01*
X184266644Y-128344100D01*
X184481356Y-128344100D01*
X184481357Y-128344100D01*
X184693427Y-128310511D01*
X184897633Y-128244161D01*
X185088944Y-128146683D01*
X185262651Y-128020477D01*
X185359342Y-127923785D01*
X185420661Y-127890303D01*
X185490353Y-127895287D01*
X185546287Y-127937158D01*
X185563202Y-127968136D01*
X185607045Y-128085686D01*
X185607049Y-128085693D01*
X185693209Y-128200787D01*
X185693212Y-128200790D01*
X185808306Y-128286950D01*
X185808313Y-128286954D01*
X185943020Y-128337196D01*
X185943027Y-128337198D01*
X186002555Y-128343599D01*
X186002572Y-128343600D01*
X186664000Y-128343600D01*
X186664000Y-127422251D01*
X186717919Y-127453381D01*
X186847120Y-127488000D01*
X186980880Y-127488000D01*
X187110081Y-127453381D01*
X187164000Y-127422251D01*
X187164000Y-128343600D01*
X187825428Y-128343600D01*
X187825444Y-128343599D01*
X187884972Y-128337198D01*
X187884979Y-128337196D01*
X188019686Y-128286954D01*
X188019693Y-128286950D01*
X188134787Y-128200790D01*
X188134790Y-128200787D01*
X188220950Y-128085693D01*
X188220955Y-128085684D01*
X188264797Y-127968137D01*
X188306668Y-127912203D01*
X188372132Y-127887785D01*
X188440405Y-127902636D01*
X188468660Y-127923788D01*
X188565349Y-128020477D01*
X188739056Y-128146683D01*
X188832888Y-128194492D01*
X188930366Y-128244161D01*
X188930369Y-128244162D01*
X189032470Y-128277336D01*
X189134573Y-128310511D01*
X189346643Y-128344100D01*
X189346644Y-128344100D01*
X189561356Y-128344100D01*
X189561357Y-128344100D01*
X189773427Y-128310511D01*
X189977633Y-128244161D01*
X190168944Y-128146683D01*
X190342651Y-128020477D01*
X190494477Y-127868651D01*
X190620683Y-127694944D01*
X190620683Y-127694943D01*
X190623547Y-127691002D01*
X190625478Y-127692405D01*
X190669927Y-127652078D01*
X190738840Y-127640558D01*
X190803042Y-127668125D01*
X190823478Y-127691709D01*
X190824453Y-127691002D01*
X190827316Y-127694943D01*
X190827317Y-127694944D01*
X190953523Y-127868651D01*
X191105349Y-128020477D01*
X191279056Y-128146683D01*
X191372888Y-128194492D01*
X191470366Y-128244161D01*
X191470369Y-128244162D01*
X191572470Y-128277336D01*
X191674573Y-128310511D01*
X191886643Y-128344100D01*
X191886644Y-128344100D01*
X192101356Y-128344100D01*
X192101357Y-128344100D01*
X192313427Y-128310511D01*
X192517633Y-128244161D01*
X192708944Y-128146683D01*
X192882651Y-128020477D01*
X193034477Y-127868651D01*
X193160683Y-127694944D01*
X193160683Y-127694943D01*
X193163547Y-127691002D01*
X193165478Y-127692405D01*
X193209927Y-127652078D01*
X193278840Y-127640558D01*
X193343042Y-127668125D01*
X193363478Y-127691709D01*
X193364453Y-127691002D01*
X193367316Y-127694943D01*
X193367317Y-127694944D01*
X193493523Y-127868651D01*
X193645349Y-128020477D01*
X193819056Y-128146683D01*
X193912888Y-128194492D01*
X194010366Y-128244161D01*
X194010369Y-128244162D01*
X194112470Y-128277336D01*
X194214573Y-128310511D01*
X194426643Y-128344100D01*
X194426644Y-128344100D01*
X194641356Y-128344100D01*
X194641357Y-128344100D01*
X194853427Y-128310511D01*
X195057633Y-128244161D01*
X195248944Y-128146683D01*
X195422651Y-128020477D01*
X195574477Y-127868651D01*
X195700683Y-127694944D01*
X195798161Y-127503633D01*
X195864511Y-127299427D01*
X195898100Y-127087357D01*
X195898100Y-126872643D01*
X195864511Y-126660573D01*
X195804000Y-126474337D01*
X195798162Y-126456369D01*
X195798161Y-126456366D01*
X195717227Y-126297526D01*
X195700683Y-126265056D01*
X195574477Y-126091349D01*
X195422651Y-125939523D01*
X195248944Y-125813317D01*
X195057633Y-125715838D01*
X195057630Y-125715837D01*
X194853428Y-125649489D01*
X194684940Y-125622803D01*
X194641357Y-125615900D01*
X194426643Y-125615900D01*
X194383060Y-125622803D01*
X194214571Y-125649489D01*
X194010369Y-125715837D01*
X194010366Y-125715838D01*
X193819055Y-125813317D01*
X193719949Y-125885322D01*
X193645349Y-125939523D01*
X193645347Y-125939525D01*
X193645346Y-125939525D01*
X193493525Y-126091346D01*
X193493525Y-126091347D01*
X193493523Y-126091349D01*
X193367318Y-126265055D01*
X193364453Y-126268998D01*
X193362562Y-126267624D01*
X193317848Y-126308030D01*
X193248911Y-126319411D01*
X193184765Y-126291715D01*
X193164488Y-126268314D01*
X193163547Y-126268998D01*
X193160682Y-126265055D01*
X193034477Y-126091349D01*
X192882651Y-125939523D01*
X192708944Y-125813317D01*
X192517633Y-125715838D01*
X192517630Y-125715837D01*
X192313428Y-125649489D01*
X192144940Y-125622803D01*
X192101357Y-125615900D01*
X191886643Y-125615900D01*
X191843060Y-125622803D01*
X191674571Y-125649489D01*
X191470369Y-125715837D01*
X191470366Y-125715838D01*
X191279055Y-125813317D01*
X191179949Y-125885322D01*
X191105349Y-125939523D01*
X191105347Y-125939525D01*
X191105346Y-125939525D01*
X190953525Y-126091346D01*
X190953525Y-126091347D01*
X190953523Y-126091349D01*
X190827318Y-126265055D01*
X190824453Y-126268998D01*
X190822562Y-126267624D01*
X190777848Y-126308030D01*
X190708911Y-126319411D01*
X190644765Y-126291715D01*
X190624488Y-126268314D01*
X190623547Y-126268998D01*
X190620682Y-126265055D01*
X190494477Y-126091349D01*
X190342651Y-125939523D01*
X190168944Y-125813317D01*
X189977633Y-125715838D01*
X189977630Y-125715837D01*
X189773428Y-125649489D01*
X189604940Y-125622803D01*
X189561357Y-125615900D01*
X189346643Y-125615900D01*
X189303060Y-125622803D01*
X189134571Y-125649489D01*
X188930369Y-125715837D01*
X188930366Y-125715838D01*
X188739055Y-125813317D01*
X188565350Y-125939522D01*
X188468660Y-126036212D01*
X188407336Y-126069696D01*
X188337645Y-126064712D01*
X188281712Y-126022840D01*
X188264797Y-125991863D01*
X188220954Y-125874313D01*
X188220950Y-125874306D01*
X188134790Y-125759212D01*
X188134787Y-125759209D01*
X188019693Y-125673049D01*
X188019686Y-125673045D01*
X187884979Y-125622803D01*
X187884972Y-125622801D01*
X187825444Y-125616400D01*
X187164000Y-125616400D01*
X187164000Y-126537748D01*
X187110081Y-126506619D01*
X186980880Y-126472000D01*
X186847120Y-126472000D01*
X186717919Y-126506619D01*
X186664000Y-126537748D01*
X186664000Y-125616400D01*
X186002555Y-125616400D01*
X185943027Y-125622801D01*
X185943020Y-125622803D01*
X185808313Y-125673045D01*
X185808306Y-125673049D01*
X185693212Y-125759209D01*
X185693209Y-125759212D01*
X185607049Y-125874306D01*
X185607045Y-125874313D01*
X185563202Y-125991863D01*
X185521330Y-126047797D01*
X185455866Y-126072214D01*
X185387593Y-126057362D01*
X185359339Y-126036211D01*
X185262653Y-125939525D01*
X185262651Y-125939523D01*
X185088944Y-125813317D01*
X184897633Y-125715838D01*
X184897630Y-125715837D01*
X184693428Y-125649489D01*
X184524940Y-125622803D01*
X184481357Y-125615900D01*
X184266643Y-125615900D01*
X184223060Y-125622803D01*
X184054571Y-125649489D01*
X183850369Y-125715837D01*
X183850366Y-125715838D01*
X183659055Y-125813317D01*
X183559949Y-125885322D01*
X183485349Y-125939523D01*
X183485347Y-125939525D01*
X183485346Y-125939525D01*
X183333525Y-126091346D01*
X183333525Y-126091347D01*
X183333523Y-126091349D01*
X183207318Y-126265055D01*
X183204453Y-126268998D01*
X183202562Y-126267624D01*
X183157848Y-126308030D01*
X183088911Y-126319411D01*
X183024765Y-126291715D01*
X183004488Y-126268314D01*
X183003547Y-126268998D01*
X183000682Y-126265055D01*
X182874477Y-126091349D01*
X182722651Y-125939523D01*
X182548944Y-125813317D01*
X182357633Y-125715838D01*
X182357630Y-125715837D01*
X182153428Y-125649489D01*
X181984940Y-125622803D01*
X181941357Y-125615900D01*
X181726643Y-125615900D01*
X181683060Y-125622803D01*
X181514571Y-125649489D01*
X181310369Y-125715837D01*
X181310366Y-125715838D01*
X181119055Y-125813317D01*
X181019949Y-125885322D01*
X180945349Y-125939523D01*
X180945347Y-125939525D01*
X180945346Y-125939525D01*
X180793525Y-126091346D01*
X180793525Y-126091347D01*
X180793523Y-126091349D01*
X180667318Y-126265055D01*
X180664453Y-126268998D01*
X180662562Y-126267624D01*
X180617848Y-126308030D01*
X180548911Y-126319411D01*
X180484765Y-126291715D01*
X180464488Y-126268314D01*
X180463547Y-126268998D01*
X180460682Y-126265055D01*
X180334477Y-126091349D01*
X180182651Y-125939523D01*
X180008944Y-125813317D01*
X179817633Y-125715838D01*
X179817630Y-125715837D01*
X179613428Y-125649489D01*
X179444940Y-125622803D01*
X179401357Y-125615900D01*
X179186643Y-125615900D01*
X179143060Y-125622803D01*
X178974571Y-125649489D01*
X178770369Y-125715837D01*
X178770366Y-125715838D01*
X178579055Y-125813317D01*
X178479949Y-125885322D01*
X178405349Y-125939523D01*
X178405347Y-125939525D01*
X178405346Y-125939525D01*
X178253525Y-126091346D01*
X178253525Y-126091347D01*
X178253523Y-126091349D01*
X178127318Y-126265055D01*
X178124453Y-126268998D01*
X178122562Y-126267624D01*
X178077848Y-126308030D01*
X178008911Y-126319411D01*
X177944765Y-126291715D01*
X177924488Y-126268314D01*
X177923547Y-126268998D01*
X177920682Y-126265055D01*
X177794477Y-126091349D01*
X177642651Y-125939523D01*
X177468944Y-125813317D01*
X177277633Y-125715838D01*
X177277630Y-125715837D01*
X177073428Y-125649489D01*
X176904940Y-125622803D01*
X176861357Y-125615900D01*
X176646643Y-125615900D01*
X176603060Y-125622803D01*
X176434571Y-125649489D01*
X176230369Y-125715837D01*
X176230366Y-125715838D01*
X176039055Y-125813317D01*
X175939949Y-125885322D01*
X175865349Y-125939523D01*
X175865347Y-125939525D01*
X175865346Y-125939525D01*
X175713525Y-126091346D01*
X175713525Y-126091347D01*
X175713523Y-126091349D01*
X175587318Y-126265055D01*
X175584453Y-126268998D01*
X175582562Y-126267624D01*
X175537848Y-126308030D01*
X175468911Y-126319411D01*
X175404765Y-126291715D01*
X175384488Y-126268314D01*
X175383547Y-126268998D01*
X175380682Y-126265055D01*
X175254477Y-126091349D01*
X175102651Y-125939523D01*
X174928944Y-125813317D01*
X174737633Y-125715838D01*
X174737630Y-125715837D01*
X174533428Y-125649489D01*
X174364940Y-125622803D01*
X174321357Y-125615900D01*
X174106643Y-125615900D01*
X174063060Y-125622803D01*
X173894571Y-125649489D01*
X173690369Y-125715837D01*
X173690366Y-125715838D01*
X173499055Y-125813317D01*
X173399949Y-125885322D01*
X173325349Y-125939523D01*
X173325347Y-125939525D01*
X173325346Y-125939525D01*
X173173525Y-126091346D01*
X173173525Y-126091347D01*
X173173523Y-126091349D01*
X173047318Y-126265055D01*
X173044453Y-126268998D01*
X173042562Y-126267624D01*
X172997848Y-126308030D01*
X172928911Y-126319411D01*
X172864765Y-126291715D01*
X172844488Y-126268314D01*
X172843547Y-126268998D01*
X172840682Y-126265055D01*
X172714477Y-126091349D01*
X172562651Y-125939523D01*
X172388944Y-125813317D01*
X172197633Y-125715838D01*
X172197630Y-125715837D01*
X171993428Y-125649489D01*
X171824940Y-125622803D01*
X171781357Y-125615900D01*
X171566643Y-125615900D01*
X171523060Y-125622803D01*
X171354571Y-125649489D01*
X171150369Y-125715837D01*
X171150366Y-125715838D01*
X170959055Y-125813317D01*
X170859949Y-125885322D01*
X170785349Y-125939523D01*
X170785347Y-125939525D01*
X170785346Y-125939525D01*
X170633525Y-126091346D01*
X170633525Y-126091347D01*
X170633523Y-126091349D01*
X170607256Y-126127502D01*
X170507317Y-126265055D01*
X170409838Y-126456366D01*
X170409837Y-126456369D01*
X170343489Y-126660571D01*
X170309900Y-126872643D01*
X168974100Y-126872643D01*
X168940511Y-126660573D01*
X168880000Y-126474337D01*
X168874162Y-126456369D01*
X168874161Y-126456366D01*
X168793227Y-126297526D01*
X168776683Y-126265056D01*
X168650477Y-126091349D01*
X168498651Y-125939523D01*
X168324944Y-125813317D01*
X168133633Y-125715838D01*
X168133630Y-125715837D01*
X167929428Y-125649489D01*
X167760940Y-125622803D01*
X167717357Y-125615900D01*
X167502643Y-125615900D01*
X167459060Y-125622803D01*
X167290571Y-125649489D01*
X167086369Y-125715837D01*
X167086366Y-125715838D01*
X166895055Y-125813317D01*
X166795949Y-125885322D01*
X166721349Y-125939523D01*
X166721347Y-125939525D01*
X166721346Y-125939525D01*
X166569525Y-126091346D01*
X166569525Y-126091347D01*
X166569523Y-126091349D01*
X166443318Y-126265055D01*
X166440453Y-126268998D01*
X166438562Y-126267624D01*
X166393848Y-126308030D01*
X166324911Y-126319411D01*
X166260765Y-126291715D01*
X166240488Y-126268314D01*
X166239547Y-126268998D01*
X166236682Y-126265055D01*
X166110477Y-126091349D01*
X165958651Y-125939523D01*
X165784944Y-125813317D01*
X165593633Y-125715838D01*
X165593630Y-125715837D01*
X165389428Y-125649489D01*
X165220940Y-125622803D01*
X165177357Y-125615900D01*
X164962643Y-125615900D01*
X164919060Y-125622803D01*
X164750571Y-125649489D01*
X164546369Y-125715837D01*
X164546366Y-125715838D01*
X164355055Y-125813317D01*
X164255949Y-125885322D01*
X164181349Y-125939523D01*
X164181347Y-125939525D01*
X164181346Y-125939525D01*
X164029525Y-126091346D01*
X164029525Y-126091347D01*
X164029523Y-126091349D01*
X163903318Y-126265055D01*
X163900453Y-126268998D01*
X163898562Y-126267624D01*
X163853848Y-126308030D01*
X163784911Y-126319411D01*
X163720765Y-126291715D01*
X163700488Y-126268314D01*
X163699547Y-126268998D01*
X163696682Y-126265055D01*
X163570477Y-126091349D01*
X163418651Y-125939523D01*
X163244944Y-125813317D01*
X163053633Y-125715838D01*
X163053630Y-125715837D01*
X162849428Y-125649489D01*
X162680940Y-125622803D01*
X162637357Y-125615900D01*
X162422643Y-125615900D01*
X162379060Y-125622803D01*
X162210571Y-125649489D01*
X162006369Y-125715837D01*
X162006366Y-125715838D01*
X161815055Y-125813317D01*
X161715949Y-125885322D01*
X161641349Y-125939523D01*
X161641347Y-125939525D01*
X161641346Y-125939525D01*
X161489525Y-126091346D01*
X161489525Y-126091347D01*
X161489523Y-126091349D01*
X161363318Y-126265055D01*
X161360453Y-126268998D01*
X161358562Y-126267624D01*
X161313848Y-126308030D01*
X161244911Y-126319411D01*
X161180765Y-126291715D01*
X161160488Y-126268314D01*
X161159547Y-126268998D01*
X161156682Y-126265055D01*
X161030477Y-126091349D01*
X160878651Y-125939523D01*
X160704944Y-125813317D01*
X160513633Y-125715838D01*
X160513630Y-125715837D01*
X160309428Y-125649489D01*
X160140940Y-125622803D01*
X160097357Y-125615900D01*
X159882643Y-125615900D01*
X159839060Y-125622803D01*
X159670571Y-125649489D01*
X159466369Y-125715837D01*
X159466366Y-125715838D01*
X159275055Y-125813317D01*
X159175949Y-125885322D01*
X159101349Y-125939523D01*
X159101347Y-125939525D01*
X159101346Y-125939525D01*
X158949525Y-126091346D01*
X158949525Y-126091347D01*
X158949523Y-126091349D01*
X158823318Y-126265055D01*
X158820453Y-126268998D01*
X158818562Y-126267624D01*
X158773848Y-126308030D01*
X158704911Y-126319411D01*
X158640765Y-126291715D01*
X158620488Y-126268314D01*
X158619547Y-126268998D01*
X158616682Y-126265055D01*
X158490477Y-126091349D01*
X158338651Y-125939523D01*
X158164944Y-125813317D01*
X157973633Y-125715838D01*
X157973630Y-125715837D01*
X157769428Y-125649489D01*
X157600940Y-125622803D01*
X157557357Y-125615900D01*
X157342643Y-125615900D01*
X157299060Y-125622803D01*
X157130571Y-125649489D01*
X156926369Y-125715837D01*
X156926366Y-125715838D01*
X156735055Y-125813317D01*
X156635949Y-125885322D01*
X156561349Y-125939523D01*
X156561347Y-125939525D01*
X156561346Y-125939525D01*
X156409525Y-126091346D01*
X156409525Y-126091347D01*
X156409523Y-126091349D01*
X156283318Y-126265055D01*
X156280453Y-126268998D01*
X156278562Y-126267624D01*
X156233848Y-126308030D01*
X156164911Y-126319411D01*
X156100765Y-126291715D01*
X156080488Y-126268314D01*
X156079547Y-126268998D01*
X156076682Y-126265055D01*
X155950477Y-126091349D01*
X155798651Y-125939523D01*
X155624944Y-125813317D01*
X155433633Y-125715838D01*
X155433630Y-125715837D01*
X155229428Y-125649489D01*
X155060940Y-125622803D01*
X155017357Y-125615900D01*
X154802643Y-125615900D01*
X154759060Y-125622803D01*
X154590571Y-125649489D01*
X154386369Y-125715837D01*
X154386366Y-125715838D01*
X154195055Y-125813317D01*
X154095949Y-125885322D01*
X154021349Y-125939523D01*
X154021347Y-125939525D01*
X154021346Y-125939525D01*
X153869525Y-126091346D01*
X153869525Y-126091347D01*
X153869523Y-126091349D01*
X153743318Y-126265055D01*
X153740453Y-126268998D01*
X153738562Y-126267624D01*
X153693848Y-126308030D01*
X153624911Y-126319411D01*
X153560765Y-126291715D01*
X153540488Y-126268314D01*
X153539547Y-126268998D01*
X153536682Y-126265055D01*
X153410477Y-126091349D01*
X153258651Y-125939523D01*
X153084944Y-125813317D01*
X152893633Y-125715838D01*
X152893630Y-125715837D01*
X152689428Y-125649489D01*
X152520940Y-125622803D01*
X152477357Y-125615900D01*
X152262643Y-125615900D01*
X152219060Y-125622803D01*
X152050571Y-125649489D01*
X151846369Y-125715837D01*
X151846366Y-125715838D01*
X151655055Y-125813317D01*
X151555949Y-125885322D01*
X151481349Y-125939523D01*
X151481347Y-125939525D01*
X151481346Y-125939525D01*
X151329525Y-126091346D01*
X151329525Y-126091347D01*
X151329523Y-126091349D01*
X151203318Y-126265055D01*
X151200453Y-126268998D01*
X151198562Y-126267624D01*
X151153848Y-126308030D01*
X151084911Y-126319411D01*
X151020765Y-126291715D01*
X151000488Y-126268314D01*
X150999547Y-126268998D01*
X150996682Y-126265055D01*
X150870477Y-126091349D01*
X150718651Y-125939523D01*
X150544944Y-125813317D01*
X150353633Y-125715838D01*
X150353630Y-125715837D01*
X150149428Y-125649489D01*
X149980940Y-125622803D01*
X149937357Y-125615900D01*
X149722643Y-125615900D01*
X149679060Y-125622803D01*
X149510571Y-125649489D01*
X149306369Y-125715837D01*
X149306366Y-125715838D01*
X149115055Y-125813317D01*
X149015949Y-125885322D01*
X148941349Y-125939523D01*
X148941347Y-125939525D01*
X148941346Y-125939525D01*
X148789525Y-126091346D01*
X148789525Y-126091347D01*
X148789523Y-126091349D01*
X148763256Y-126127502D01*
X148663317Y-126265055D01*
X148565838Y-126456366D01*
X148565837Y-126456369D01*
X148499489Y-126660571D01*
X148465900Y-126872643D01*
X141911270Y-126872643D01*
X141870025Y-126686597D01*
X141868152Y-126675971D01*
X141818326Y-126297506D01*
X141817386Y-126286771D01*
X141800618Y-125902702D01*
X141800500Y-125897293D01*
X141800500Y-123733583D01*
X148579500Y-123733583D01*
X148579500Y-124333601D01*
X148579501Y-124333619D01*
X148590000Y-124436396D01*
X148590001Y-124436399D01*
X148645185Y-124602931D01*
X148645187Y-124602936D01*
X148680069Y-124659488D01*
X148737288Y-124752256D01*
X148861344Y-124876312D01*
X149010666Y-124968414D01*
X149177203Y-125023599D01*
X149279991Y-125034100D01*
X150380008Y-125034099D01*
X150380016Y-125034098D01*
X150380019Y-125034098D01*
X150436302Y-125028348D01*
X150482797Y-125023599D01*
X150649334Y-124968414D01*
X150798656Y-124876312D01*
X150922712Y-124752256D01*
X150994461Y-124635930D01*
X151046409Y-124589206D01*
X151115371Y-124577983D01*
X151179453Y-124605826D01*
X151205539Y-124635931D01*
X151277095Y-124751944D01*
X151277288Y-124752256D01*
X151401344Y-124876312D01*
X151550666Y-124968414D01*
X151717203Y-125023599D01*
X151819991Y-125034100D01*
X152920008Y-125034099D01*
X152920016Y-125034098D01*
X152920019Y-125034098D01*
X152976302Y-125028348D01*
X153022797Y-125023599D01*
X153189334Y-124968414D01*
X153338656Y-124876312D01*
X153462712Y-124752256D01*
X153534461Y-124635930D01*
X153586409Y-124589206D01*
X153655371Y-124577983D01*
X153719453Y-124605826D01*
X153745539Y-124635931D01*
X153817095Y-124751944D01*
X153817288Y-124752256D01*
X153941344Y-124876312D01*
X154090666Y-124968414D01*
X154257203Y-125023599D01*
X154359991Y-125034100D01*
X155460008Y-125034099D01*
X155460016Y-125034098D01*
X155460019Y-125034098D01*
X155516302Y-125028348D01*
X155562797Y-125023599D01*
X155729334Y-124968414D01*
X155878656Y-124876312D01*
X156002712Y-124752256D01*
X156074461Y-124635930D01*
X156126409Y-124589206D01*
X156195371Y-124577983D01*
X156259453Y-124605826D01*
X156285539Y-124635931D01*
X156357095Y-124751944D01*
X156357288Y-124752256D01*
X156481344Y-124876312D01*
X156630666Y-124968414D01*
X156797203Y-125023599D01*
X156899991Y-125034100D01*
X158000008Y-125034099D01*
X158000016Y-125034098D01*
X158000019Y-125034098D01*
X158056302Y-125028348D01*
X158102797Y-125023599D01*
X158269334Y-124968414D01*
X158418656Y-124876312D01*
X158542712Y-124752256D01*
X158614461Y-124635930D01*
X158666409Y-124589206D01*
X158735371Y-124577983D01*
X158799453Y-124605826D01*
X158825539Y-124635931D01*
X158897095Y-124751944D01*
X158897288Y-124752256D01*
X159021344Y-124876312D01*
X159170666Y-124968414D01*
X159337203Y-125023599D01*
X159439991Y-125034100D01*
X160540008Y-125034099D01*
X160540016Y-125034098D01*
X160540019Y-125034098D01*
X160596302Y-125028348D01*
X160642797Y-125023599D01*
X160809334Y-124968414D01*
X160958656Y-124876312D01*
X161082712Y-124752256D01*
X161154461Y-124635930D01*
X161206409Y-124589206D01*
X161275371Y-124577983D01*
X161339453Y-124605826D01*
X161365539Y-124635931D01*
X161437095Y-124751944D01*
X161437288Y-124752256D01*
X161561344Y-124876312D01*
X161710666Y-124968414D01*
X161877203Y-125023599D01*
X161979991Y-125034100D01*
X163080008Y-125034099D01*
X163080016Y-125034098D01*
X163080019Y-125034098D01*
X163136302Y-125028348D01*
X163182797Y-125023599D01*
X163349334Y-124968414D01*
X163498656Y-124876312D01*
X163622712Y-124752256D01*
X163694461Y-124635930D01*
X163746409Y-124589206D01*
X163815371Y-124577983D01*
X163879453Y-124605826D01*
X163905539Y-124635931D01*
X163977095Y-124751944D01*
X163977288Y-124752256D01*
X164101344Y-124876312D01*
X164250666Y-124968414D01*
X164417203Y-125023599D01*
X164519991Y-125034100D01*
X165620008Y-125034099D01*
X165620016Y-125034098D01*
X165620019Y-125034098D01*
X165676302Y-125028348D01*
X165722797Y-125023599D01*
X165889334Y-124968414D01*
X166038656Y-124876312D01*
X166162712Y-124752256D01*
X166234461Y-124635930D01*
X166286409Y-124589206D01*
X166355371Y-124577983D01*
X166419453Y-124605826D01*
X166445539Y-124635931D01*
X166517095Y-124751944D01*
X166517288Y-124752256D01*
X166641344Y-124876312D01*
X166790666Y-124968414D01*
X166957203Y-125023599D01*
X167059991Y-125034100D01*
X168160008Y-125034099D01*
X168160016Y-125034098D01*
X168160019Y-125034098D01*
X168216302Y-125028348D01*
X168262797Y-125023599D01*
X168429334Y-124968414D01*
X168578656Y-124876312D01*
X168702712Y-124752256D01*
X168794814Y-124602934D01*
X168849999Y-124436397D01*
X168860500Y-124333609D01*
X168860499Y-123733592D01*
X168860498Y-123733583D01*
X170423500Y-123733583D01*
X170423500Y-124333601D01*
X170423501Y-124333619D01*
X170434000Y-124436396D01*
X170434001Y-124436399D01*
X170489185Y-124602931D01*
X170489187Y-124602936D01*
X170524069Y-124659488D01*
X170581288Y-124752256D01*
X170705344Y-124876312D01*
X170854666Y-124968414D01*
X171021203Y-125023599D01*
X171123991Y-125034100D01*
X172224008Y-125034099D01*
X172224016Y-125034098D01*
X172224019Y-125034098D01*
X172280302Y-125028348D01*
X172326797Y-125023599D01*
X172493334Y-124968414D01*
X172642656Y-124876312D01*
X172766712Y-124752256D01*
X172838461Y-124635930D01*
X172890409Y-124589206D01*
X172959371Y-124577983D01*
X173023453Y-124605826D01*
X173049539Y-124635931D01*
X173121095Y-124751944D01*
X173121288Y-124752256D01*
X173245344Y-124876312D01*
X173394666Y-124968414D01*
X173561203Y-125023599D01*
X173663991Y-125034100D01*
X174764008Y-125034099D01*
X174764016Y-125034098D01*
X174764019Y-125034098D01*
X174820302Y-125028348D01*
X174866797Y-125023599D01*
X175033334Y-124968414D01*
X175182656Y-124876312D01*
X175306712Y-124752256D01*
X175378461Y-124635930D01*
X175430409Y-124589206D01*
X175499371Y-124577983D01*
X175563453Y-124605826D01*
X175589539Y-124635931D01*
X175661095Y-124751944D01*
X175661288Y-124752256D01*
X175785344Y-124876312D01*
X175934666Y-124968414D01*
X176101203Y-125023599D01*
X176203991Y-125034100D01*
X177304008Y-125034099D01*
X177304016Y-125034098D01*
X177304019Y-125034098D01*
X177360302Y-125028348D01*
X177406797Y-125023599D01*
X177573334Y-124968414D01*
X177722656Y-124876312D01*
X177846712Y-124752256D01*
X177918461Y-124635930D01*
X177970409Y-124589206D01*
X178039371Y-124577983D01*
X178103453Y-124605826D01*
X178129539Y-124635931D01*
X178201095Y-124751944D01*
X178201288Y-124752256D01*
X178325344Y-124876312D01*
X178474666Y-124968414D01*
X178641203Y-125023599D01*
X178743991Y-125034100D01*
X179844008Y-125034099D01*
X179844016Y-125034098D01*
X179844019Y-125034098D01*
X179900302Y-125028348D01*
X179946797Y-125023599D01*
X180113334Y-124968414D01*
X180262656Y-124876312D01*
X180386712Y-124752256D01*
X180458461Y-124635930D01*
X180510409Y-124589206D01*
X180579371Y-124577983D01*
X180643453Y-124605826D01*
X180669539Y-124635931D01*
X180741095Y-124751944D01*
X180741288Y-124752256D01*
X180865344Y-124876312D01*
X181014666Y-124968414D01*
X181181203Y-125023599D01*
X181283991Y-125034100D01*
X182384008Y-125034099D01*
X182384016Y-125034098D01*
X182384019Y-125034098D01*
X182440302Y-125028348D01*
X182486797Y-125023599D01*
X182653334Y-124968414D01*
X182802656Y-124876312D01*
X182926712Y-124752256D01*
X182998461Y-124635930D01*
X183050409Y-124589206D01*
X183119371Y-124577983D01*
X183183453Y-124605826D01*
X183209539Y-124635931D01*
X183281095Y-124751944D01*
X183281288Y-124752256D01*
X183405344Y-124876312D01*
X183554666Y-124968414D01*
X183721203Y-125023599D01*
X183823991Y-125034100D01*
X184924008Y-125034099D01*
X184924016Y-125034098D01*
X184924019Y-125034098D01*
X184980302Y-125028348D01*
X185026797Y-125023599D01*
X185193334Y-124968414D01*
X185342656Y-124876312D01*
X185466712Y-124752256D01*
X185538754Y-124635455D01*
X185590702Y-124588731D01*
X185659664Y-124577508D01*
X185723746Y-124605351D01*
X185749831Y-124635455D01*
X185821680Y-124751940D01*
X185821683Y-124751944D01*
X185945654Y-124875915D01*
X186094875Y-124967956D01*
X186094880Y-124967958D01*
X186261302Y-125023105D01*
X186261309Y-125023106D01*
X186364019Y-125033599D01*
X186663999Y-125033599D01*
X186664000Y-125033598D01*
X186664000Y-124083328D01*
X186702060Y-124175214D01*
X186772386Y-124245540D01*
X186864272Y-124283600D01*
X186963728Y-124283600D01*
X187055614Y-124245540D01*
X187125940Y-124175214D01*
X187164000Y-124083328D01*
X187164000Y-125033599D01*
X187463972Y-125033599D01*
X187463986Y-125033598D01*
X187566697Y-125023105D01*
X187733119Y-124967958D01*
X187733124Y-124967956D01*
X187882345Y-124875915D01*
X188006317Y-124751943D01*
X188078167Y-124635456D01*
X188130115Y-124588731D01*
X188199077Y-124577508D01*
X188263160Y-124605352D01*
X188289244Y-124635454D01*
X188361288Y-124752256D01*
X188485344Y-124876312D01*
X188634666Y-124968414D01*
X188801203Y-125023599D01*
X188903991Y-125034100D01*
X190004008Y-125034099D01*
X190004016Y-125034098D01*
X190004019Y-125034098D01*
X190060302Y-125028348D01*
X190106797Y-125023599D01*
X190273334Y-124968414D01*
X190422656Y-124876312D01*
X190546712Y-124752256D01*
X190618461Y-124635930D01*
X190670409Y-124589206D01*
X190739371Y-124577983D01*
X190803453Y-124605826D01*
X190829539Y-124635931D01*
X190901095Y-124751944D01*
X190901288Y-124752256D01*
X191025344Y-124876312D01*
X191174666Y-124968414D01*
X191341203Y-125023599D01*
X191443991Y-125034100D01*
X192544008Y-125034099D01*
X192544016Y-125034098D01*
X192544019Y-125034098D01*
X192600302Y-125028348D01*
X192646797Y-125023599D01*
X192813334Y-124968414D01*
X192962656Y-124876312D01*
X193086712Y-124752256D01*
X193178814Y-124602934D01*
X193178815Y-124602931D01*
X193182605Y-124596787D01*
X193184690Y-124598073D01*
X193223183Y-124554351D01*
X193290375Y-124535194D01*
X193357258Y-124555405D01*
X193394188Y-124598024D01*
X193396195Y-124596787D01*
X193399985Y-124602931D01*
X193399986Y-124602934D01*
X193492088Y-124752256D01*
X193616144Y-124876312D01*
X193765466Y-124968414D01*
X193932003Y-125023599D01*
X194034791Y-125034100D01*
X195134808Y-125034099D01*
X195134816Y-125034098D01*
X195134819Y-125034098D01*
X195191102Y-125028348D01*
X195237597Y-125023599D01*
X195404134Y-124968414D01*
X195553456Y-124876312D01*
X195677512Y-124752256D01*
X195769614Y-124602934D01*
X195824799Y-124436397D01*
X195835300Y-124333609D01*
X195835299Y-123733592D01*
X195824799Y-123630803D01*
X195769614Y-123464266D01*
X195677512Y-123314944D01*
X195553456Y-123190888D01*
X195404134Y-123098786D01*
X195237597Y-123043601D01*
X195237595Y-123043600D01*
X195134810Y-123033100D01*
X194034798Y-123033100D01*
X194034780Y-123033101D01*
X193932003Y-123043600D01*
X193932000Y-123043601D01*
X193765468Y-123098785D01*
X193765463Y-123098787D01*
X193616142Y-123190889D01*
X193492089Y-123314942D01*
X193396195Y-123470413D01*
X193394111Y-123469127D01*
X193355602Y-123512858D01*
X193288407Y-123532005D01*
X193221528Y-123511784D01*
X193184608Y-123469177D01*
X193182605Y-123470413D01*
X193178812Y-123464263D01*
X193086712Y-123314944D01*
X192962656Y-123190888D01*
X192813334Y-123098786D01*
X192646797Y-123043601D01*
X192646795Y-123043600D01*
X192544010Y-123033100D01*
X191443998Y-123033100D01*
X191443980Y-123033101D01*
X191341203Y-123043600D01*
X191341200Y-123043601D01*
X191174668Y-123098785D01*
X191174663Y-123098787D01*
X191025342Y-123190889D01*
X190901289Y-123314942D01*
X190829539Y-123431269D01*
X190777591Y-123477993D01*
X190708628Y-123489216D01*
X190644546Y-123461372D01*
X190618461Y-123431269D01*
X190546906Y-123315259D01*
X190546712Y-123314944D01*
X190422656Y-123190888D01*
X190273334Y-123098786D01*
X190106797Y-123043601D01*
X190106795Y-123043600D01*
X190004010Y-123033100D01*
X188903998Y-123033100D01*
X188903980Y-123033101D01*
X188801203Y-123043600D01*
X188801200Y-123043601D01*
X188634668Y-123098785D01*
X188634663Y-123098787D01*
X188485342Y-123190889D01*
X188361288Y-123314943D01*
X188361285Y-123314947D01*
X188289244Y-123431744D01*
X188237296Y-123478469D01*
X188168334Y-123489690D01*
X188104252Y-123461847D01*
X188078167Y-123431744D01*
X188006315Y-123315254D01*
X187882345Y-123191284D01*
X187733124Y-123099243D01*
X187733119Y-123099241D01*
X187566697Y-123044094D01*
X187566690Y-123044093D01*
X187463986Y-123033600D01*
X187164000Y-123033600D01*
X187164000Y-123983872D01*
X187125940Y-123891986D01*
X187055614Y-123821660D01*
X186963728Y-123783600D01*
X186864272Y-123783600D01*
X186772386Y-123821660D01*
X186702060Y-123891986D01*
X186664000Y-123983872D01*
X186664000Y-123033600D01*
X186364028Y-123033600D01*
X186364012Y-123033601D01*
X186261302Y-123044094D01*
X186094880Y-123099241D01*
X186094875Y-123099243D01*
X185945654Y-123191284D01*
X185821683Y-123315255D01*
X185821680Y-123315259D01*
X185749831Y-123431744D01*
X185697883Y-123478469D01*
X185628920Y-123489690D01*
X185564838Y-123461847D01*
X185538754Y-123431744D01*
X185466906Y-123315259D01*
X185466712Y-123314944D01*
X185342656Y-123190888D01*
X185193334Y-123098786D01*
X185026797Y-123043601D01*
X185026795Y-123043600D01*
X184924010Y-123033100D01*
X183823998Y-123033100D01*
X183823980Y-123033101D01*
X183721203Y-123043600D01*
X183721200Y-123043601D01*
X183554668Y-123098785D01*
X183554663Y-123098787D01*
X183405342Y-123190889D01*
X183281289Y-123314942D01*
X183209539Y-123431269D01*
X183157591Y-123477993D01*
X183088628Y-123489216D01*
X183024546Y-123461372D01*
X182998461Y-123431269D01*
X182926906Y-123315259D01*
X182926712Y-123314944D01*
X182802656Y-123190888D01*
X182653334Y-123098786D01*
X182486797Y-123043601D01*
X182486795Y-123043600D01*
X182384010Y-123033100D01*
X181283998Y-123033100D01*
X181283980Y-123033101D01*
X181181203Y-123043600D01*
X181181200Y-123043601D01*
X181014668Y-123098785D01*
X181014663Y-123098787D01*
X180865342Y-123190889D01*
X180741289Y-123314942D01*
X180669539Y-123431269D01*
X180617591Y-123477993D01*
X180548628Y-123489216D01*
X180484546Y-123461372D01*
X180458461Y-123431269D01*
X180386906Y-123315259D01*
X180386712Y-123314944D01*
X180262656Y-123190888D01*
X180113334Y-123098786D01*
X179946797Y-123043601D01*
X179946795Y-123043600D01*
X179844010Y-123033100D01*
X178743998Y-123033100D01*
X178743980Y-123033101D01*
X178641203Y-123043600D01*
X178641200Y-123043601D01*
X178474668Y-123098785D01*
X178474663Y-123098787D01*
X178325342Y-123190889D01*
X178201289Y-123314942D01*
X178129539Y-123431269D01*
X178077591Y-123477993D01*
X178008628Y-123489216D01*
X177944546Y-123461372D01*
X177918461Y-123431269D01*
X177846906Y-123315259D01*
X177846712Y-123314944D01*
X177722656Y-123190888D01*
X177573334Y-123098786D01*
X177406797Y-123043601D01*
X177406795Y-123043600D01*
X177304010Y-123033100D01*
X176203998Y-123033100D01*
X176203980Y-123033101D01*
X176101203Y-123043600D01*
X176101200Y-123043601D01*
X175934668Y-123098785D01*
X175934663Y-123098787D01*
X175785342Y-123190889D01*
X175661289Y-123314942D01*
X175589539Y-123431269D01*
X175537591Y-123477993D01*
X175468628Y-123489216D01*
X175404546Y-123461372D01*
X175378461Y-123431269D01*
X175306906Y-123315259D01*
X175306712Y-123314944D01*
X175182656Y-123190888D01*
X175033334Y-123098786D01*
X174866797Y-123043601D01*
X174866795Y-123043600D01*
X174764010Y-123033100D01*
X173663998Y-123033100D01*
X173663980Y-123033101D01*
X173561203Y-123043600D01*
X173561200Y-123043601D01*
X173394668Y-123098785D01*
X173394663Y-123098787D01*
X173245342Y-123190889D01*
X173121289Y-123314942D01*
X173049539Y-123431269D01*
X172997591Y-123477993D01*
X172928628Y-123489216D01*
X172864546Y-123461372D01*
X172838461Y-123431269D01*
X172766906Y-123315259D01*
X172766712Y-123314944D01*
X172642656Y-123190888D01*
X172493334Y-123098786D01*
X172326797Y-123043601D01*
X172326795Y-123043600D01*
X172224010Y-123033100D01*
X171123998Y-123033100D01*
X171123980Y-123033101D01*
X171021203Y-123043600D01*
X171021200Y-123043601D01*
X170854668Y-123098785D01*
X170854663Y-123098787D01*
X170705342Y-123190889D01*
X170581289Y-123314942D01*
X170489187Y-123464263D01*
X170489185Y-123464268D01*
X170480918Y-123489216D01*
X170434001Y-123630803D01*
X170434001Y-123630804D01*
X170434000Y-123630804D01*
X170423500Y-123733583D01*
X168860498Y-123733583D01*
X168849999Y-123630803D01*
X168794814Y-123464266D01*
X168702712Y-123314944D01*
X168578656Y-123190888D01*
X168429334Y-123098786D01*
X168262797Y-123043601D01*
X168262795Y-123043600D01*
X168160010Y-123033100D01*
X167059998Y-123033100D01*
X167059980Y-123033101D01*
X166957203Y-123043600D01*
X166957200Y-123043601D01*
X166790668Y-123098785D01*
X166790663Y-123098787D01*
X166641342Y-123190889D01*
X166517289Y-123314942D01*
X166445539Y-123431269D01*
X166393591Y-123477993D01*
X166324628Y-123489216D01*
X166260546Y-123461372D01*
X166234461Y-123431269D01*
X166162906Y-123315259D01*
X166162712Y-123314944D01*
X166038656Y-123190888D01*
X165889334Y-123098786D01*
X165722797Y-123043601D01*
X165722795Y-123043600D01*
X165620010Y-123033100D01*
X164519998Y-123033100D01*
X164519980Y-123033101D01*
X164417203Y-123043600D01*
X164417200Y-123043601D01*
X164250668Y-123098785D01*
X164250663Y-123098787D01*
X164101342Y-123190889D01*
X163977289Y-123314942D01*
X163905539Y-123431269D01*
X163853591Y-123477993D01*
X163784628Y-123489216D01*
X163720546Y-123461372D01*
X163694461Y-123431269D01*
X163622906Y-123315259D01*
X163622712Y-123314944D01*
X163498656Y-123190888D01*
X163349334Y-123098786D01*
X163182797Y-123043601D01*
X163182795Y-123043600D01*
X163080010Y-123033100D01*
X161979998Y-123033100D01*
X161979980Y-123033101D01*
X161877203Y-123043600D01*
X161877200Y-123043601D01*
X161710668Y-123098785D01*
X161710663Y-123098787D01*
X161561342Y-123190889D01*
X161437289Y-123314942D01*
X161365539Y-123431269D01*
X161313591Y-123477993D01*
X161244628Y-123489216D01*
X161180546Y-123461372D01*
X161154461Y-123431269D01*
X161082906Y-123315259D01*
X161082712Y-123314944D01*
X160958656Y-123190888D01*
X160809334Y-123098786D01*
X160642797Y-123043601D01*
X160642795Y-123043600D01*
X160540010Y-123033100D01*
X159439998Y-123033100D01*
X159439980Y-123033101D01*
X159337203Y-123043600D01*
X159337200Y-123043601D01*
X159170668Y-123098785D01*
X159170663Y-123098787D01*
X159021342Y-123190889D01*
X158897289Y-123314942D01*
X158825539Y-123431269D01*
X158773591Y-123477993D01*
X158704628Y-123489216D01*
X158640546Y-123461372D01*
X158614461Y-123431269D01*
X158542906Y-123315259D01*
X158542712Y-123314944D01*
X158418656Y-123190888D01*
X158269334Y-123098786D01*
X158102797Y-123043601D01*
X158102795Y-123043600D01*
X158000010Y-123033100D01*
X156899998Y-123033100D01*
X156899980Y-123033101D01*
X156797203Y-123043600D01*
X156797200Y-123043601D01*
X156630668Y-123098785D01*
X156630663Y-123098787D01*
X156481342Y-123190889D01*
X156357289Y-123314942D01*
X156285539Y-123431269D01*
X156233591Y-123477993D01*
X156164628Y-123489216D01*
X156100546Y-123461372D01*
X156074461Y-123431269D01*
X156002906Y-123315259D01*
X156002712Y-123314944D01*
X155878656Y-123190888D01*
X155729334Y-123098786D01*
X155562797Y-123043601D01*
X155562795Y-123043600D01*
X155460010Y-123033100D01*
X154359998Y-123033100D01*
X154359980Y-123033101D01*
X154257203Y-123043600D01*
X154257200Y-123043601D01*
X154090668Y-123098785D01*
X154090663Y-123098787D01*
X153941342Y-123190889D01*
X153817289Y-123314942D01*
X153745539Y-123431269D01*
X153693591Y-123477993D01*
X153624628Y-123489216D01*
X153560546Y-123461372D01*
X153534461Y-123431269D01*
X153462906Y-123315259D01*
X153462712Y-123314944D01*
X153338656Y-123190888D01*
X153189334Y-123098786D01*
X153022797Y-123043601D01*
X153022795Y-123043600D01*
X152920010Y-123033100D01*
X151819998Y-123033100D01*
X151819980Y-123033101D01*
X151717203Y-123043600D01*
X151717200Y-123043601D01*
X151550668Y-123098785D01*
X151550663Y-123098787D01*
X151401342Y-123190889D01*
X151277289Y-123314942D01*
X151205539Y-123431269D01*
X151153591Y-123477993D01*
X151084628Y-123489216D01*
X151020546Y-123461372D01*
X150994461Y-123431269D01*
X150922906Y-123315259D01*
X150922712Y-123314944D01*
X150798656Y-123190888D01*
X150649334Y-123098786D01*
X150482797Y-123043601D01*
X150482795Y-123043600D01*
X150380010Y-123033100D01*
X149279998Y-123033100D01*
X149279980Y-123033101D01*
X149177203Y-123043600D01*
X149177200Y-123043601D01*
X149010668Y-123098785D01*
X149010663Y-123098787D01*
X148861342Y-123190889D01*
X148737289Y-123314942D01*
X148645187Y-123464263D01*
X148645185Y-123464268D01*
X148636918Y-123489216D01*
X148590001Y-123630803D01*
X148590001Y-123630804D01*
X148590000Y-123630804D01*
X148579500Y-123733583D01*
X141800500Y-123733583D01*
X141800500Y-117881153D01*
X166809500Y-117881153D01*
X166809500Y-118038846D01*
X166840261Y-118193489D01*
X166840264Y-118193501D01*
X166900602Y-118339172D01*
X166900609Y-118339185D01*
X166988210Y-118470288D01*
X166988213Y-118470292D01*
X167099707Y-118581786D01*
X167099711Y-118581789D01*
X167230814Y-118669390D01*
X167230827Y-118669397D01*
X167376498Y-118729735D01*
X167376503Y-118729737D01*
X167531153Y-118760499D01*
X167531156Y-118760500D01*
X167531158Y-118760500D01*
X167688844Y-118760500D01*
X167688845Y-118760499D01*
X167843497Y-118729737D01*
X167989179Y-118669394D01*
X168002490Y-118660500D01*
X168120875Y-118581398D01*
X168187553Y-118560520D01*
X168189766Y-118560500D01*
X169680234Y-118560500D01*
X169747273Y-118580185D01*
X169749125Y-118581398D01*
X169880814Y-118669390D01*
X169880827Y-118669397D01*
X170026498Y-118729735D01*
X170026503Y-118729737D01*
X170181153Y-118760499D01*
X170181156Y-118760500D01*
X170181158Y-118760500D01*
X170338844Y-118760500D01*
X170338845Y-118760499D01*
X170493497Y-118729737D01*
X170639179Y-118669394D01*
X170770289Y-118581789D01*
X170881789Y-118470289D01*
X170969394Y-118339179D01*
X171029737Y-118193497D01*
X171060500Y-118038842D01*
X171060500Y-117881158D01*
X171060500Y-117881155D01*
X171060499Y-117881153D01*
X171046445Y-117810499D01*
X171029737Y-117726503D01*
X171010815Y-117680821D01*
X170969397Y-117580827D01*
X170969390Y-117580814D01*
X170881789Y-117449711D01*
X170881786Y-117449707D01*
X170770292Y-117338213D01*
X170770288Y-117338210D01*
X170639185Y-117250609D01*
X170639172Y-117250602D01*
X170493501Y-117190264D01*
X170493489Y-117190261D01*
X170338845Y-117159500D01*
X170338842Y-117159500D01*
X170181158Y-117159500D01*
X170181155Y-117159500D01*
X170026510Y-117190261D01*
X170026498Y-117190264D01*
X169880827Y-117250602D01*
X169880814Y-117250609D01*
X169749125Y-117338602D01*
X169682447Y-117359480D01*
X169680234Y-117359500D01*
X168189766Y-117359500D01*
X168122727Y-117339815D01*
X168120875Y-117338602D01*
X167989185Y-117250609D01*
X167989172Y-117250602D01*
X167843501Y-117190264D01*
X167843489Y-117190261D01*
X167688845Y-117159500D01*
X167688842Y-117159500D01*
X167531158Y-117159500D01*
X167531155Y-117159500D01*
X167376510Y-117190261D01*
X167376498Y-117190264D01*
X167230827Y-117250602D01*
X167230814Y-117250609D01*
X167099711Y-117338210D01*
X167099707Y-117338213D01*
X166988213Y-117449707D01*
X166988210Y-117449711D01*
X166900609Y-117580814D01*
X166900602Y-117580827D01*
X166840264Y-117726498D01*
X166840261Y-117726510D01*
X166809500Y-117881153D01*
X141800500Y-117881153D01*
X141800500Y-116931153D01*
X178499500Y-116931153D01*
X178499500Y-117088846D01*
X178530261Y-117243489D01*
X178530264Y-117243501D01*
X178590602Y-117389172D01*
X178590609Y-117389185D01*
X178678210Y-117520288D01*
X178678213Y-117520292D01*
X178789707Y-117631786D01*
X178789711Y-117631789D01*
X178920814Y-117719390D01*
X178920827Y-117719397D01*
X178999894Y-117752147D01*
X179066503Y-117779737D01*
X179221153Y-117810499D01*
X179221156Y-117810500D01*
X179221158Y-117810500D01*
X179378844Y-117810500D01*
X179378845Y-117810499D01*
X179533497Y-117779737D01*
X179679179Y-117719394D01*
X179736908Y-117680821D01*
X179810875Y-117631398D01*
X179877553Y-117610520D01*
X179879766Y-117610500D01*
X180964155Y-117610500D01*
X181031194Y-117630185D01*
X181076949Y-117682989D01*
X181086893Y-117752147D01*
X181078716Y-117781952D01*
X181060264Y-117826498D01*
X181060261Y-117826510D01*
X181029500Y-117981153D01*
X181029500Y-118138846D01*
X181060261Y-118293489D01*
X181060264Y-118293501D01*
X181120602Y-118439172D01*
X181120609Y-118439185D01*
X181208210Y-118570288D01*
X181208213Y-118570292D01*
X181319707Y-118681786D01*
X181319711Y-118681789D01*
X181450814Y-118769390D01*
X181450827Y-118769397D01*
X181596498Y-118829735D01*
X181596503Y-118829737D01*
X181751153Y-118860499D01*
X181751156Y-118860500D01*
X181751158Y-118860500D01*
X181908844Y-118860500D01*
X181908845Y-118860499D01*
X182063497Y-118829737D01*
X182209179Y-118769394D01*
X182222491Y-118760499D01*
X182340875Y-118681398D01*
X182407553Y-118660520D01*
X182409766Y-118660500D01*
X184840234Y-118660500D01*
X184907273Y-118680185D01*
X184909125Y-118681398D01*
X185040814Y-118769390D01*
X185040827Y-118769397D01*
X185186498Y-118829735D01*
X185186503Y-118829737D01*
X185341153Y-118860499D01*
X185341156Y-118860500D01*
X185341158Y-118860500D01*
X185498844Y-118860500D01*
X185498845Y-118860499D01*
X185653497Y-118829737D01*
X185799179Y-118769394D01*
X185930289Y-118681789D01*
X186041789Y-118570289D01*
X186129394Y-118439179D01*
X186189737Y-118293497D01*
X186220500Y-118138842D01*
X186220500Y-117981158D01*
X186220500Y-117981155D01*
X186200905Y-117882649D01*
X186207132Y-117813058D01*
X186249994Y-117757880D01*
X186315884Y-117734635D01*
X186369974Y-117743896D01*
X186389894Y-117752147D01*
X186456503Y-117779737D01*
X186611153Y-117810499D01*
X186611156Y-117810500D01*
X186611158Y-117810500D01*
X186768844Y-117810500D01*
X186768845Y-117810499D01*
X186923497Y-117779737D01*
X187069179Y-117719394D01*
X187200289Y-117631789D01*
X187311789Y-117520289D01*
X187399394Y-117389179D01*
X187459737Y-117243497D01*
X187490500Y-117088842D01*
X187490500Y-116931158D01*
X187490500Y-116931155D01*
X187490499Y-116931153D01*
X187459738Y-116776510D01*
X187459737Y-116776503D01*
X187459735Y-116776498D01*
X187399397Y-116630827D01*
X187399390Y-116630814D01*
X187311789Y-116499711D01*
X187311786Y-116499707D01*
X187200292Y-116388213D01*
X187200288Y-116388210D01*
X187069185Y-116300609D01*
X187069172Y-116300602D01*
X186923501Y-116240264D01*
X186923489Y-116240261D01*
X186768845Y-116209500D01*
X186768842Y-116209500D01*
X186611158Y-116209500D01*
X186611155Y-116209500D01*
X186456510Y-116240261D01*
X186456498Y-116240264D01*
X186310827Y-116300602D01*
X186310814Y-116300609D01*
X186179125Y-116388602D01*
X186112447Y-116409480D01*
X186110234Y-116409500D01*
X179879766Y-116409500D01*
X179812727Y-116389815D01*
X179810875Y-116388602D01*
X179679185Y-116300609D01*
X179679172Y-116300602D01*
X179533501Y-116240264D01*
X179533489Y-116240261D01*
X179378845Y-116209500D01*
X179378842Y-116209500D01*
X179221158Y-116209500D01*
X179221155Y-116209500D01*
X179066510Y-116240261D01*
X179066498Y-116240264D01*
X178920827Y-116300602D01*
X178920814Y-116300609D01*
X178789711Y-116388210D01*
X178789707Y-116388213D01*
X178678213Y-116499707D01*
X178678210Y-116499711D01*
X178590609Y-116630814D01*
X178590602Y-116630827D01*
X178530264Y-116776498D01*
X178530261Y-116776510D01*
X178499500Y-116931153D01*
X141800500Y-116931153D01*
X141800500Y-113402135D01*
X163749500Y-113402135D01*
X163749500Y-115197870D01*
X163749501Y-115197876D01*
X163755908Y-115257483D01*
X163806202Y-115392328D01*
X163806206Y-115392335D01*
X163892452Y-115507544D01*
X163892455Y-115507547D01*
X164007664Y-115593793D01*
X164007671Y-115593797D01*
X164142517Y-115644091D01*
X164142516Y-115644091D01*
X164149444Y-115644835D01*
X164202127Y-115650500D01*
X165997872Y-115650499D01*
X166057483Y-115644091D01*
X166192331Y-115593796D01*
X166307546Y-115507546D01*
X166393796Y-115392331D01*
X166442810Y-115260916D01*
X166484681Y-115204984D01*
X166550145Y-115180566D01*
X166618418Y-115195417D01*
X166646673Y-115216569D01*
X166760213Y-115330109D01*
X166932179Y-115455048D01*
X166932181Y-115455049D01*
X166932184Y-115455051D01*
X167121588Y-115551557D01*
X167323757Y-115617246D01*
X167533713Y-115650500D01*
X167533714Y-115650500D01*
X167746286Y-115650500D01*
X167746287Y-115650500D01*
X167956243Y-115617246D01*
X168158412Y-115551557D01*
X168347816Y-115455051D01*
X168434138Y-115392335D01*
X168519786Y-115330109D01*
X168519788Y-115330106D01*
X168519792Y-115330104D01*
X168670104Y-115179792D01*
X168670106Y-115179788D01*
X168670109Y-115179786D01*
X168795048Y-115007820D01*
X168795047Y-115007820D01*
X168795051Y-115007816D01*
X168891557Y-114818412D01*
X168957246Y-114616243D01*
X168990500Y-114406287D01*
X168990500Y-114193713D01*
X168957246Y-113983757D01*
X168891557Y-113781588D01*
X168795051Y-113592184D01*
X168670104Y-113420208D01*
X168652031Y-113402135D01*
X172639500Y-113402135D01*
X172639500Y-115197870D01*
X172639501Y-115197876D01*
X172645908Y-115257483D01*
X172696202Y-115392328D01*
X172696206Y-115392335D01*
X172782452Y-115507544D01*
X172782455Y-115507547D01*
X172897664Y-115593793D01*
X172897671Y-115593797D01*
X173032517Y-115644091D01*
X173032516Y-115644091D01*
X173039444Y-115644835D01*
X173092127Y-115650500D01*
X174887872Y-115650499D01*
X174947483Y-115644091D01*
X175082331Y-115593796D01*
X175197546Y-115507546D01*
X175283796Y-115392331D01*
X175332810Y-115260916D01*
X175374681Y-115204984D01*
X175440145Y-115180566D01*
X175508418Y-115195417D01*
X175536673Y-115216569D01*
X175650213Y-115330109D01*
X175822179Y-115455048D01*
X175822181Y-115455049D01*
X175822184Y-115455051D01*
X176011588Y-115551557D01*
X176213757Y-115617246D01*
X176423713Y-115650500D01*
X176423714Y-115650500D01*
X176636286Y-115650500D01*
X176636287Y-115650500D01*
X176846243Y-115617246D01*
X177048412Y-115551557D01*
X177237816Y-115455051D01*
X177324138Y-115392335D01*
X177409786Y-115330109D01*
X177409788Y-115330106D01*
X177409792Y-115330104D01*
X177560104Y-115179792D01*
X177560106Y-115179788D01*
X177560109Y-115179786D01*
X177685048Y-115007820D01*
X177685047Y-115007820D01*
X177685051Y-115007816D01*
X177689514Y-114999054D01*
X177737488Y-114948259D01*
X177805308Y-114931463D01*
X177871444Y-114953999D01*
X177910486Y-114999056D01*
X177914951Y-115007820D01*
X178039890Y-115179786D01*
X178190213Y-115330109D01*
X178362179Y-115455048D01*
X178362181Y-115455049D01*
X178362184Y-115455051D01*
X178551588Y-115551557D01*
X178753757Y-115617246D01*
X178963713Y-115650500D01*
X178963714Y-115650500D01*
X179176286Y-115650500D01*
X179176287Y-115650500D01*
X179386243Y-115617246D01*
X179588412Y-115551557D01*
X179777816Y-115455051D01*
X179864138Y-115392335D01*
X179949786Y-115330109D01*
X179949788Y-115330106D01*
X179949792Y-115330104D01*
X180100104Y-115179792D01*
X180100106Y-115179788D01*
X180100109Y-115179786D01*
X180225048Y-115007820D01*
X180225047Y-115007820D01*
X180225051Y-115007816D01*
X180229514Y-114999054D01*
X180277488Y-114948259D01*
X180345308Y-114931463D01*
X180411444Y-114953999D01*
X180450486Y-114999056D01*
X180454951Y-115007820D01*
X180579890Y-115179786D01*
X180730213Y-115330109D01*
X180902179Y-115455048D01*
X180902181Y-115455049D01*
X180902184Y-115455051D01*
X181091588Y-115551557D01*
X181293757Y-115617246D01*
X181503713Y-115650500D01*
X181503714Y-115650500D01*
X181716286Y-115650500D01*
X181716287Y-115650500D01*
X181926243Y-115617246D01*
X182128412Y-115551557D01*
X182317816Y-115455051D01*
X182404138Y-115392335D01*
X182489786Y-115330109D01*
X182489788Y-115330106D01*
X182489792Y-115330104D01*
X182640104Y-115179792D01*
X182640106Y-115179788D01*
X182640109Y-115179786D01*
X182765048Y-115007820D01*
X182765047Y-115007820D01*
X182765051Y-115007816D01*
X182769514Y-114999054D01*
X182817488Y-114948259D01*
X182885308Y-114931463D01*
X182951444Y-114953999D01*
X182990486Y-114999056D01*
X182994951Y-115007820D01*
X183119890Y-115179786D01*
X183270213Y-115330109D01*
X183442179Y-115455048D01*
X183442181Y-115455049D01*
X183442184Y-115455051D01*
X183631588Y-115551557D01*
X183833757Y-115617246D01*
X184043713Y-115650500D01*
X184043714Y-115650500D01*
X184256286Y-115650500D01*
X184256287Y-115650500D01*
X184466243Y-115617246D01*
X184668412Y-115551557D01*
X184857816Y-115455051D01*
X184944138Y-115392335D01*
X185029786Y-115330109D01*
X185029788Y-115330106D01*
X185029792Y-115330104D01*
X185180104Y-115179792D01*
X185180106Y-115179788D01*
X185180109Y-115179786D01*
X185305048Y-115007820D01*
X185305047Y-115007820D01*
X185305051Y-115007816D01*
X185309514Y-114999054D01*
X185357488Y-114948259D01*
X185425308Y-114931463D01*
X185491444Y-114953999D01*
X185530486Y-114999056D01*
X185534951Y-115007820D01*
X185659890Y-115179786D01*
X185810213Y-115330109D01*
X185982179Y-115455048D01*
X185982181Y-115455049D01*
X185982184Y-115455051D01*
X186171588Y-115551557D01*
X186373757Y-115617246D01*
X186583713Y-115650500D01*
X186583714Y-115650500D01*
X186796286Y-115650500D01*
X186796287Y-115650500D01*
X187006243Y-115617246D01*
X187208412Y-115551557D01*
X187397816Y-115455051D01*
X187484138Y-115392335D01*
X187569786Y-115330109D01*
X187569788Y-115330106D01*
X187569792Y-115330104D01*
X187720104Y-115179792D01*
X187720106Y-115179788D01*
X187720109Y-115179786D01*
X187845048Y-115007820D01*
X187845047Y-115007820D01*
X187845051Y-115007816D01*
X187849514Y-114999054D01*
X187897488Y-114948259D01*
X187965308Y-114931463D01*
X188031444Y-114953999D01*
X188070486Y-114999056D01*
X188074951Y-115007820D01*
X188199890Y-115179786D01*
X188350213Y-115330109D01*
X188522179Y-115455048D01*
X188522181Y-115455049D01*
X188522184Y-115455051D01*
X188711588Y-115551557D01*
X188913757Y-115617246D01*
X189123713Y-115650500D01*
X189123714Y-115650500D01*
X189336286Y-115650500D01*
X189336287Y-115650500D01*
X189546243Y-115617246D01*
X189748412Y-115551557D01*
X189937816Y-115455051D01*
X190024138Y-115392335D01*
X190109786Y-115330109D01*
X190109788Y-115330106D01*
X190109792Y-115330104D01*
X190260104Y-115179792D01*
X190260106Y-115179788D01*
X190260109Y-115179786D01*
X190385048Y-115007820D01*
X190385047Y-115007820D01*
X190385051Y-115007816D01*
X190389514Y-114999054D01*
X190437488Y-114948259D01*
X190505308Y-114931463D01*
X190571444Y-114953999D01*
X190610486Y-114999056D01*
X190614951Y-115007820D01*
X190739890Y-115179786D01*
X190890213Y-115330109D01*
X191062179Y-115455048D01*
X191062181Y-115455049D01*
X191062184Y-115455051D01*
X191251588Y-115551557D01*
X191453757Y-115617246D01*
X191663713Y-115650500D01*
X191663714Y-115650500D01*
X191876286Y-115650500D01*
X191876287Y-115650500D01*
X192086243Y-115617246D01*
X192288412Y-115551557D01*
X192477816Y-115455051D01*
X192564138Y-115392335D01*
X192649786Y-115330109D01*
X192649788Y-115330106D01*
X192649792Y-115330104D01*
X192800104Y-115179792D01*
X192800106Y-115179788D01*
X192800109Y-115179786D01*
X192925048Y-115007820D01*
X192925047Y-115007820D01*
X192925051Y-115007816D01*
X192929514Y-114999054D01*
X192977488Y-114948259D01*
X193045308Y-114931463D01*
X193111444Y-114953999D01*
X193150486Y-114999056D01*
X193154951Y-115007820D01*
X193279890Y-115179786D01*
X193430213Y-115330109D01*
X193602179Y-115455048D01*
X193602181Y-115455049D01*
X193602184Y-115455051D01*
X193791588Y-115551557D01*
X193993757Y-115617246D01*
X194203713Y-115650500D01*
X194203714Y-115650500D01*
X194416286Y-115650500D01*
X194416287Y-115650500D01*
X194626243Y-115617246D01*
X194828412Y-115551557D01*
X195017816Y-115455051D01*
X195104138Y-115392335D01*
X195189786Y-115330109D01*
X195189788Y-115330106D01*
X195189792Y-115330104D01*
X195340104Y-115179792D01*
X195340106Y-115179788D01*
X195340109Y-115179786D01*
X195465048Y-115007820D01*
X195465051Y-115007816D01*
X195469793Y-114998508D01*
X195517763Y-114947711D01*
X195585583Y-114930911D01*
X195651719Y-114953445D01*
X195690763Y-114998500D01*
X195695377Y-115007555D01*
X195820272Y-115179459D01*
X195820276Y-115179464D01*
X195970535Y-115329723D01*
X195970540Y-115329727D01*
X196142442Y-115454620D01*
X196331782Y-115551095D01*
X196533871Y-115616757D01*
X196600000Y-115627231D01*
X196600000Y-114733012D01*
X196657007Y-114765925D01*
X196784174Y-114800000D01*
X196915826Y-114800000D01*
X197042993Y-114765925D01*
X197100000Y-114733012D01*
X197100000Y-115627230D01*
X197166126Y-115616757D01*
X197166129Y-115616757D01*
X197368217Y-115551095D01*
X197557557Y-115454620D01*
X197729459Y-115329727D01*
X197729464Y-115329723D01*
X197879723Y-115179464D01*
X197879727Y-115179459D01*
X198004620Y-115007557D01*
X198101095Y-114818217D01*
X198166757Y-114616129D01*
X198166757Y-114616126D01*
X198177231Y-114550000D01*
X197283012Y-114550000D01*
X197315925Y-114492993D01*
X197350000Y-114365826D01*
X197350000Y-114234174D01*
X197315925Y-114107007D01*
X197283012Y-114050000D01*
X198177231Y-114050000D01*
X198166757Y-113983873D01*
X198166757Y-113983870D01*
X198101095Y-113781782D01*
X198004620Y-113592442D01*
X197879727Y-113420540D01*
X197879723Y-113420535D01*
X197729464Y-113270276D01*
X197729459Y-113270272D01*
X197557555Y-113145377D01*
X197548500Y-113140763D01*
X197497706Y-113092788D01*
X197480912Y-113024966D01*
X197503451Y-112958832D01*
X197548508Y-112919793D01*
X197557816Y-112915051D01*
X197696273Y-112814457D01*
X197729786Y-112790109D01*
X197729788Y-112790106D01*
X197729792Y-112790104D01*
X197880104Y-112639792D01*
X197880106Y-112639788D01*
X197880109Y-112639786D01*
X198005048Y-112467820D01*
X198005050Y-112467817D01*
X198005051Y-112467816D01*
X198101557Y-112278412D01*
X198167246Y-112076243D01*
X198200500Y-111866287D01*
X198200500Y-111653713D01*
X198167246Y-111443757D01*
X198101557Y-111241588D01*
X198005051Y-111052184D01*
X198005049Y-111052181D01*
X198005048Y-111052179D01*
X197880109Y-110880213D01*
X197729786Y-110729890D01*
X197557820Y-110604951D01*
X197368414Y-110508444D01*
X197368413Y-110508443D01*
X197368412Y-110508443D01*
X197166243Y-110442754D01*
X197166241Y-110442753D01*
X197166240Y-110442753D01*
X197004957Y-110417208D01*
X196956287Y-110409500D01*
X196743713Y-110409500D01*
X196695042Y-110417208D01*
X196533760Y-110442753D01*
X196331585Y-110508444D01*
X196142179Y-110604951D01*
X195970213Y-110729890D01*
X195819890Y-110880213D01*
X195694949Y-111052182D01*
X195690484Y-111060946D01*
X195642509Y-111111742D01*
X195574688Y-111128536D01*
X195508553Y-111105998D01*
X195469516Y-111060946D01*
X195465050Y-111052182D01*
X195340109Y-110880213D01*
X195189786Y-110729890D01*
X195017820Y-110604951D01*
X194828414Y-110508444D01*
X194828413Y-110508443D01*
X194828412Y-110508443D01*
X194626243Y-110442754D01*
X194626241Y-110442753D01*
X194626240Y-110442753D01*
X194464957Y-110417208D01*
X194416287Y-110409500D01*
X194203713Y-110409500D01*
X194155042Y-110417208D01*
X193993760Y-110442753D01*
X193791585Y-110508444D01*
X193602179Y-110604951D01*
X193430213Y-110729890D01*
X193279890Y-110880213D01*
X193154949Y-111052182D01*
X193150484Y-111060946D01*
X193102509Y-111111742D01*
X193034688Y-111128536D01*
X192968553Y-111105998D01*
X192929516Y-111060946D01*
X192925050Y-111052182D01*
X192800109Y-110880213D01*
X192649786Y-110729890D01*
X192477820Y-110604951D01*
X192288414Y-110508444D01*
X192288413Y-110508443D01*
X192288412Y-110508443D01*
X192086243Y-110442754D01*
X192086241Y-110442753D01*
X192086240Y-110442753D01*
X191924957Y-110417208D01*
X191876287Y-110409500D01*
X191663713Y-110409500D01*
X191615042Y-110417208D01*
X191453760Y-110442753D01*
X191251585Y-110508444D01*
X191062179Y-110604951D01*
X190890213Y-110729890D01*
X190739890Y-110880213D01*
X190614949Y-111052182D01*
X190610484Y-111060946D01*
X190562509Y-111111742D01*
X190494688Y-111128536D01*
X190428553Y-111105998D01*
X190389516Y-111060946D01*
X190385050Y-111052182D01*
X190260109Y-110880213D01*
X190109786Y-110729890D01*
X189937820Y-110604951D01*
X189748414Y-110508444D01*
X189748413Y-110508443D01*
X189748412Y-110508443D01*
X189546243Y-110442754D01*
X189546241Y-110442753D01*
X189546240Y-110442753D01*
X189384957Y-110417208D01*
X189336287Y-110409500D01*
X189123713Y-110409500D01*
X189075042Y-110417208D01*
X188913760Y-110442753D01*
X188711585Y-110508444D01*
X188522179Y-110604951D01*
X188350213Y-110729890D01*
X188199890Y-110880213D01*
X188074949Y-111052182D01*
X188070484Y-111060946D01*
X188022509Y-111111742D01*
X187954688Y-111128536D01*
X187888553Y-111105998D01*
X187849516Y-111060946D01*
X187845050Y-111052182D01*
X187720109Y-110880213D01*
X187569786Y-110729890D01*
X187397820Y-110604951D01*
X187208414Y-110508444D01*
X187208413Y-110508443D01*
X187208412Y-110508443D01*
X187006243Y-110442754D01*
X187006241Y-110442753D01*
X187006240Y-110442753D01*
X186844957Y-110417208D01*
X186796287Y-110409500D01*
X186583713Y-110409500D01*
X186535042Y-110417208D01*
X186373760Y-110442753D01*
X186171585Y-110508444D01*
X185982179Y-110604951D01*
X185810213Y-110729890D01*
X185659890Y-110880213D01*
X185534949Y-111052182D01*
X185530484Y-111060946D01*
X185482509Y-111111742D01*
X185414688Y-111128536D01*
X185348553Y-111105998D01*
X185309516Y-111060946D01*
X185305050Y-111052182D01*
X185180109Y-110880213D01*
X185029786Y-110729890D01*
X184857820Y-110604951D01*
X184668414Y-110508444D01*
X184668413Y-110508443D01*
X184668412Y-110508443D01*
X184466243Y-110442754D01*
X184466241Y-110442753D01*
X184466240Y-110442753D01*
X184304957Y-110417208D01*
X184256287Y-110409500D01*
X184043713Y-110409500D01*
X183995042Y-110417208D01*
X183833760Y-110442753D01*
X183631585Y-110508444D01*
X183442179Y-110604951D01*
X183270213Y-110729890D01*
X183119890Y-110880213D01*
X182994949Y-111052182D01*
X182990484Y-111060946D01*
X182942509Y-111111742D01*
X182874688Y-111128536D01*
X182808553Y-111105998D01*
X182769516Y-111060946D01*
X182765050Y-111052182D01*
X182640109Y-110880213D01*
X182489786Y-110729890D01*
X182317820Y-110604951D01*
X182128414Y-110508444D01*
X182128413Y-110508443D01*
X182128412Y-110508443D01*
X181926243Y-110442754D01*
X181926241Y-110442753D01*
X181926240Y-110442753D01*
X181764957Y-110417208D01*
X181716287Y-110409500D01*
X181503713Y-110409500D01*
X181455042Y-110417208D01*
X181293760Y-110442753D01*
X181091585Y-110508444D01*
X180902179Y-110604951D01*
X180730213Y-110729890D01*
X180579890Y-110880213D01*
X180454949Y-111052182D01*
X180450484Y-111060946D01*
X180402509Y-111111742D01*
X180334688Y-111128536D01*
X180268553Y-111105998D01*
X180229516Y-111060946D01*
X180225050Y-111052182D01*
X180100109Y-110880213D01*
X179949786Y-110729890D01*
X179777820Y-110604951D01*
X179588414Y-110508444D01*
X179588413Y-110508443D01*
X179588412Y-110508443D01*
X179386243Y-110442754D01*
X179386241Y-110442753D01*
X179386240Y-110442753D01*
X179224957Y-110417208D01*
X179176287Y-110409500D01*
X178963713Y-110409500D01*
X178915042Y-110417208D01*
X178753760Y-110442753D01*
X178551585Y-110508444D01*
X178362179Y-110604951D01*
X178190213Y-110729890D01*
X178039890Y-110880213D01*
X177914949Y-111052182D01*
X177910484Y-111060946D01*
X177862509Y-111111742D01*
X177794688Y-111128536D01*
X177728553Y-111105998D01*
X177689516Y-111060946D01*
X177685050Y-111052182D01*
X177560109Y-110880213D01*
X177409786Y-110729890D01*
X177237820Y-110604951D01*
X177048414Y-110508444D01*
X177048413Y-110508443D01*
X177048412Y-110508443D01*
X176846243Y-110442754D01*
X176846241Y-110442753D01*
X176846240Y-110442753D01*
X176684957Y-110417208D01*
X176636287Y-110409500D01*
X176423713Y-110409500D01*
X176375042Y-110417208D01*
X176213760Y-110442753D01*
X176011585Y-110508444D01*
X175822179Y-110604951D01*
X175650213Y-110729890D01*
X175499890Y-110880213D01*
X175374949Y-111052182D01*
X175370202Y-111061499D01*
X175322227Y-111112293D01*
X175254405Y-111129087D01*
X175188271Y-111106548D01*
X175149234Y-111061495D01*
X175144622Y-111052444D01*
X175019727Y-110880540D01*
X175019723Y-110880535D01*
X174869464Y-110730276D01*
X174869459Y-110730272D01*
X174697557Y-110605379D01*
X174508215Y-110508903D01*
X174306124Y-110443241D01*
X174240000Y-110432768D01*
X174240000Y-111326988D01*
X174182993Y-111294075D01*
X174055826Y-111260000D01*
X173924174Y-111260000D01*
X173797007Y-111294075D01*
X173740000Y-111326988D01*
X173740000Y-110432768D01*
X173739999Y-110432768D01*
X173673875Y-110443241D01*
X173471784Y-110508903D01*
X173282442Y-110605379D01*
X173110540Y-110730272D01*
X173110535Y-110730276D01*
X172960276Y-110880535D01*
X172960272Y-110880540D01*
X172835379Y-111052442D01*
X172738904Y-111241782D01*
X172673242Y-111443870D01*
X172673242Y-111443873D01*
X172662769Y-111510000D01*
X173556988Y-111510000D01*
X173524075Y-111567007D01*
X173490000Y-111694174D01*
X173490000Y-111825826D01*
X173524075Y-111952993D01*
X173556988Y-112010000D01*
X172662769Y-112010000D01*
X172673242Y-112076126D01*
X172673242Y-112076129D01*
X172738904Y-112278217D01*
X172835379Y-112467557D01*
X172960272Y-112639459D01*
X172960276Y-112639464D01*
X173073946Y-112753134D01*
X173107431Y-112814457D01*
X173102447Y-112884149D01*
X173060575Y-112940082D01*
X173029598Y-112956997D01*
X172897671Y-113006202D01*
X172897664Y-113006206D01*
X172782455Y-113092452D01*
X172782452Y-113092455D01*
X172696206Y-113207664D01*
X172696202Y-113207671D01*
X172645908Y-113342517D01*
X172639501Y-113402116D01*
X172639500Y-113402135D01*
X168652031Y-113402135D01*
X168519792Y-113269896D01*
X168519786Y-113269890D01*
X168347817Y-113144949D01*
X168338504Y-113140204D01*
X168287707Y-113092230D01*
X168270912Y-113024409D01*
X168293449Y-112958274D01*
X168338507Y-112919232D01*
X168347558Y-112914620D01*
X168519459Y-112789727D01*
X168519464Y-112789723D01*
X168669723Y-112639464D01*
X168669727Y-112639459D01*
X168794620Y-112467557D01*
X168891095Y-112278217D01*
X168956757Y-112076129D01*
X168956757Y-112076126D01*
X168967231Y-112010000D01*
X168073012Y-112010000D01*
X168105925Y-111952993D01*
X168140000Y-111825826D01*
X168140000Y-111694174D01*
X168105925Y-111567007D01*
X168073012Y-111510000D01*
X168967231Y-111510000D01*
X168956757Y-111443873D01*
X168956757Y-111443870D01*
X168891095Y-111241782D01*
X168794620Y-111052442D01*
X168669727Y-110880540D01*
X168669723Y-110880535D01*
X168519464Y-110730276D01*
X168519459Y-110730272D01*
X168347557Y-110605379D01*
X168158215Y-110508903D01*
X167956124Y-110443241D01*
X167890000Y-110432768D01*
X167890000Y-111326988D01*
X167832993Y-111294075D01*
X167705826Y-111260000D01*
X167574174Y-111260000D01*
X167447007Y-111294075D01*
X167390000Y-111326988D01*
X167390000Y-110432768D01*
X167389999Y-110432768D01*
X167323875Y-110443241D01*
X167121784Y-110508903D01*
X166932442Y-110605379D01*
X166760540Y-110730272D01*
X166760535Y-110730276D01*
X166610276Y-110880535D01*
X166610272Y-110880540D01*
X166485377Y-111052444D01*
X166480484Y-111062048D01*
X166432509Y-111112844D01*
X166364688Y-111129638D01*
X166298553Y-111107100D01*
X166259516Y-111062048D01*
X166254622Y-111052444D01*
X166129727Y-110880540D01*
X166129723Y-110880535D01*
X165979464Y-110730276D01*
X165979459Y-110730272D01*
X165807557Y-110605379D01*
X165618215Y-110508903D01*
X165416124Y-110443241D01*
X165350000Y-110432768D01*
X165350000Y-111326988D01*
X165292993Y-111294075D01*
X165165826Y-111260000D01*
X165034174Y-111260000D01*
X164907007Y-111294075D01*
X164850000Y-111326988D01*
X164850000Y-110432768D01*
X164849999Y-110432768D01*
X164783875Y-110443241D01*
X164581784Y-110508903D01*
X164392442Y-110605379D01*
X164220540Y-110730272D01*
X164220535Y-110730276D01*
X164070276Y-110880535D01*
X164070272Y-110880540D01*
X163945379Y-111052442D01*
X163848904Y-111241782D01*
X163783242Y-111443870D01*
X163783242Y-111443873D01*
X163772769Y-111510000D01*
X164666988Y-111510000D01*
X164634075Y-111567007D01*
X164600000Y-111694174D01*
X164600000Y-111825826D01*
X164634075Y-111952993D01*
X164666988Y-112010000D01*
X163772769Y-112010000D01*
X163783242Y-112076126D01*
X163783242Y-112076129D01*
X163848904Y-112278217D01*
X163945379Y-112467557D01*
X164070272Y-112639459D01*
X164070276Y-112639464D01*
X164183946Y-112753134D01*
X164217431Y-112814457D01*
X164212447Y-112884149D01*
X164170575Y-112940082D01*
X164139598Y-112956997D01*
X164007671Y-113006202D01*
X164007664Y-113006206D01*
X163892455Y-113092452D01*
X163892452Y-113092455D01*
X163806206Y-113207664D01*
X163806202Y-113207671D01*
X163755908Y-113342517D01*
X163749501Y-113402116D01*
X163749500Y-113402135D01*
X141800500Y-113402135D01*
X141800500Y-103961153D01*
X169459500Y-103961153D01*
X169459500Y-104118846D01*
X169490261Y-104273489D01*
X169490264Y-104273501D01*
X169550602Y-104419172D01*
X169550609Y-104419185D01*
X169638210Y-104550288D01*
X169638213Y-104550292D01*
X169749707Y-104661786D01*
X169749711Y-104661789D01*
X169880814Y-104749390D01*
X169880827Y-104749397D01*
X170026498Y-104809735D01*
X170026503Y-104809737D01*
X170181153Y-104840499D01*
X170181156Y-104840500D01*
X170181158Y-104840500D01*
X170338844Y-104840500D01*
X170338845Y-104840499D01*
X170493497Y-104809737D01*
X170639179Y-104749394D01*
X170639185Y-104749390D01*
X170770875Y-104661398D01*
X170837553Y-104640520D01*
X170839766Y-104640500D01*
X183570234Y-104640500D01*
X183637273Y-104660185D01*
X183639125Y-104661398D01*
X183770814Y-104749390D01*
X183770827Y-104749397D01*
X183916498Y-104809735D01*
X183916503Y-104809737D01*
X184071153Y-104840499D01*
X184071156Y-104840500D01*
X184071158Y-104840500D01*
X184228844Y-104840500D01*
X184228845Y-104840499D01*
X184383497Y-104809737D01*
X184529179Y-104749394D01*
X184660289Y-104661789D01*
X184771789Y-104550289D01*
X184859394Y-104419179D01*
X184919737Y-104273497D01*
X184950500Y-104118842D01*
X184950500Y-103961158D01*
X184950500Y-103961155D01*
X184950499Y-103961153D01*
X184919738Y-103806510D01*
X184919737Y-103806503D01*
X184919735Y-103806498D01*
X184859397Y-103660827D01*
X184859390Y-103660814D01*
X184771789Y-103529711D01*
X184771786Y-103529707D01*
X184660292Y-103418213D01*
X184660288Y-103418210D01*
X184529185Y-103330609D01*
X184529172Y-103330602D01*
X184383501Y-103270264D01*
X184383489Y-103270261D01*
X184228845Y-103239500D01*
X184228842Y-103239500D01*
X184071158Y-103239500D01*
X184071155Y-103239500D01*
X183916510Y-103270261D01*
X183916498Y-103270264D01*
X183770827Y-103330602D01*
X183770814Y-103330609D01*
X183639125Y-103418602D01*
X183572447Y-103439480D01*
X183570234Y-103439500D01*
X170839766Y-103439500D01*
X170772727Y-103419815D01*
X170770875Y-103418602D01*
X170639185Y-103330609D01*
X170639172Y-103330602D01*
X170493501Y-103270264D01*
X170493489Y-103270261D01*
X170338845Y-103239500D01*
X170338842Y-103239500D01*
X170181158Y-103239500D01*
X170181155Y-103239500D01*
X170026510Y-103270261D01*
X170026498Y-103270264D01*
X169880827Y-103330602D01*
X169880814Y-103330609D01*
X169749711Y-103418210D01*
X169749707Y-103418213D01*
X169638213Y-103529707D01*
X169638210Y-103529711D01*
X169550609Y-103660814D01*
X169550602Y-103660827D01*
X169490264Y-103806498D01*
X169490261Y-103806510D01*
X169459500Y-103961153D01*
X141800500Y-103961153D01*
X141800500Y-100702135D01*
X163749500Y-100702135D01*
X163749500Y-102497870D01*
X163749501Y-102497876D01*
X163755908Y-102557483D01*
X163806202Y-102692328D01*
X163806206Y-102692335D01*
X163892452Y-102807544D01*
X163892455Y-102807547D01*
X164007664Y-102893793D01*
X164007671Y-102893797D01*
X164142517Y-102944091D01*
X164142516Y-102944091D01*
X164149444Y-102944835D01*
X164202127Y-102950500D01*
X165997872Y-102950499D01*
X166057483Y-102944091D01*
X166192331Y-102893796D01*
X166307546Y-102807546D01*
X166393796Y-102692331D01*
X166442810Y-102560916D01*
X166484681Y-102504984D01*
X166550145Y-102480566D01*
X166618418Y-102495417D01*
X166646673Y-102516569D01*
X166760213Y-102630109D01*
X166932179Y-102755048D01*
X166932181Y-102755049D01*
X166932184Y-102755051D01*
X167121588Y-102851557D01*
X167323757Y-102917246D01*
X167533713Y-102950500D01*
X167533714Y-102950500D01*
X167746286Y-102950500D01*
X167746287Y-102950500D01*
X167956243Y-102917246D01*
X168158412Y-102851557D01*
X168347816Y-102755051D01*
X168434138Y-102692335D01*
X168519786Y-102630109D01*
X168519788Y-102630106D01*
X168519792Y-102630104D01*
X168670104Y-102479792D01*
X168670106Y-102479788D01*
X168670109Y-102479786D01*
X168795048Y-102307820D01*
X168795047Y-102307820D01*
X168795051Y-102307816D01*
X168891557Y-102118412D01*
X168957246Y-101916243D01*
X168990500Y-101706287D01*
X168990500Y-101493713D01*
X168957246Y-101283757D01*
X168891557Y-101081588D01*
X168795051Y-100892184D01*
X168670104Y-100720208D01*
X168652031Y-100702135D01*
X172639500Y-100702135D01*
X172639500Y-102497870D01*
X172639501Y-102497876D01*
X172645908Y-102557483D01*
X172696202Y-102692328D01*
X172696206Y-102692335D01*
X172782452Y-102807544D01*
X172782455Y-102807547D01*
X172897664Y-102893793D01*
X172897671Y-102893797D01*
X173032517Y-102944091D01*
X173032516Y-102944091D01*
X173039444Y-102944835D01*
X173092127Y-102950500D01*
X174887872Y-102950499D01*
X174947483Y-102944091D01*
X175082331Y-102893796D01*
X175197546Y-102807546D01*
X175283796Y-102692331D01*
X175332810Y-102560916D01*
X175374681Y-102504984D01*
X175440145Y-102480566D01*
X175508418Y-102495417D01*
X175536673Y-102516569D01*
X175650213Y-102630109D01*
X175822179Y-102755048D01*
X175822181Y-102755049D01*
X175822184Y-102755051D01*
X176011588Y-102851557D01*
X176213757Y-102917246D01*
X176423713Y-102950500D01*
X176423714Y-102950500D01*
X176636286Y-102950500D01*
X176636287Y-102950500D01*
X176846243Y-102917246D01*
X177048412Y-102851557D01*
X177237816Y-102755051D01*
X177324138Y-102692335D01*
X177409786Y-102630109D01*
X177409788Y-102630106D01*
X177409792Y-102630104D01*
X177560104Y-102479792D01*
X177560106Y-102479788D01*
X177560109Y-102479786D01*
X177685048Y-102307820D01*
X177685047Y-102307820D01*
X177685051Y-102307816D01*
X177689514Y-102299054D01*
X177737488Y-102248259D01*
X177805308Y-102231463D01*
X177871444Y-102253999D01*
X177910486Y-102299056D01*
X177914951Y-102307820D01*
X178039890Y-102479786D01*
X178190213Y-102630109D01*
X178362179Y-102755048D01*
X178362181Y-102755049D01*
X178362184Y-102755051D01*
X178551588Y-102851557D01*
X178753757Y-102917246D01*
X178963713Y-102950500D01*
X178963714Y-102950500D01*
X179176286Y-102950500D01*
X179176287Y-102950500D01*
X179386243Y-102917246D01*
X179588412Y-102851557D01*
X179777816Y-102755051D01*
X179864138Y-102692335D01*
X179949786Y-102630109D01*
X179949788Y-102630106D01*
X179949792Y-102630104D01*
X180100104Y-102479792D01*
X180100106Y-102479788D01*
X180100109Y-102479786D01*
X180225048Y-102307820D01*
X180225047Y-102307820D01*
X180225051Y-102307816D01*
X180229514Y-102299054D01*
X180277488Y-102248259D01*
X180345308Y-102231463D01*
X180411444Y-102253999D01*
X180450486Y-102299056D01*
X180454951Y-102307820D01*
X180579890Y-102479786D01*
X180730213Y-102630109D01*
X180902179Y-102755048D01*
X180902181Y-102755049D01*
X180902184Y-102755051D01*
X181091588Y-102851557D01*
X181293757Y-102917246D01*
X181503713Y-102950500D01*
X181503714Y-102950500D01*
X181716286Y-102950500D01*
X181716287Y-102950500D01*
X181926243Y-102917246D01*
X182128412Y-102851557D01*
X182317816Y-102755051D01*
X182404138Y-102692335D01*
X182489786Y-102630109D01*
X182489788Y-102630106D01*
X182489792Y-102630104D01*
X182640104Y-102479792D01*
X182640106Y-102479788D01*
X182640109Y-102479786D01*
X182765048Y-102307820D01*
X182765047Y-102307820D01*
X182765051Y-102307816D01*
X182769514Y-102299054D01*
X182817488Y-102248259D01*
X182885308Y-102231463D01*
X182951444Y-102253999D01*
X182990486Y-102299056D01*
X182994951Y-102307820D01*
X183119890Y-102479786D01*
X183270213Y-102630109D01*
X183442179Y-102755048D01*
X183442181Y-102755049D01*
X183442184Y-102755051D01*
X183631588Y-102851557D01*
X183833757Y-102917246D01*
X184043713Y-102950500D01*
X184043714Y-102950500D01*
X184256286Y-102950500D01*
X184256287Y-102950500D01*
X184466243Y-102917246D01*
X184668412Y-102851557D01*
X184857816Y-102755051D01*
X184944138Y-102692335D01*
X185029786Y-102630109D01*
X185029788Y-102630106D01*
X185029792Y-102630104D01*
X185180104Y-102479792D01*
X185180106Y-102479788D01*
X185180109Y-102479786D01*
X185305048Y-102307820D01*
X185305047Y-102307820D01*
X185305051Y-102307816D01*
X185309514Y-102299054D01*
X185357488Y-102248259D01*
X185425308Y-102231463D01*
X185491444Y-102253999D01*
X185530486Y-102299056D01*
X185534951Y-102307820D01*
X185659890Y-102479786D01*
X185810213Y-102630109D01*
X185982179Y-102755048D01*
X185982181Y-102755049D01*
X185982184Y-102755051D01*
X186171588Y-102851557D01*
X186373757Y-102917246D01*
X186583713Y-102950500D01*
X186583714Y-102950500D01*
X186796286Y-102950500D01*
X186796287Y-102950500D01*
X187006243Y-102917246D01*
X187208412Y-102851557D01*
X187397816Y-102755051D01*
X187484138Y-102692335D01*
X187569786Y-102630109D01*
X187569788Y-102630106D01*
X187569792Y-102630104D01*
X187720104Y-102479792D01*
X187720106Y-102479788D01*
X187720109Y-102479786D01*
X187845048Y-102307820D01*
X187845047Y-102307820D01*
X187845051Y-102307816D01*
X187849514Y-102299054D01*
X187897488Y-102248259D01*
X187965308Y-102231463D01*
X188031444Y-102253999D01*
X188070486Y-102299056D01*
X188074951Y-102307820D01*
X188199890Y-102479786D01*
X188350213Y-102630109D01*
X188522179Y-102755048D01*
X188522181Y-102755049D01*
X188522184Y-102755051D01*
X188711588Y-102851557D01*
X188913757Y-102917246D01*
X189123713Y-102950500D01*
X189123714Y-102950500D01*
X189336286Y-102950500D01*
X189336287Y-102950500D01*
X189546243Y-102917246D01*
X189748412Y-102851557D01*
X189937816Y-102755051D01*
X190024138Y-102692335D01*
X190109786Y-102630109D01*
X190109788Y-102630106D01*
X190109792Y-102630104D01*
X190260104Y-102479792D01*
X190260106Y-102479788D01*
X190260109Y-102479786D01*
X190385048Y-102307820D01*
X190385047Y-102307820D01*
X190385051Y-102307816D01*
X190389514Y-102299054D01*
X190437488Y-102248259D01*
X190505308Y-102231463D01*
X190571444Y-102253999D01*
X190610486Y-102299056D01*
X190614951Y-102307820D01*
X190739890Y-102479786D01*
X190890213Y-102630109D01*
X191062179Y-102755048D01*
X191062181Y-102755049D01*
X191062184Y-102755051D01*
X191251588Y-102851557D01*
X191453757Y-102917246D01*
X191663713Y-102950500D01*
X191663714Y-102950500D01*
X191876286Y-102950500D01*
X191876287Y-102950500D01*
X192086243Y-102917246D01*
X192288412Y-102851557D01*
X192477816Y-102755051D01*
X192564138Y-102692335D01*
X192649786Y-102630109D01*
X192649788Y-102630106D01*
X192649792Y-102630104D01*
X192800104Y-102479792D01*
X192800106Y-102479788D01*
X192800109Y-102479786D01*
X192925048Y-102307820D01*
X192925047Y-102307820D01*
X192925051Y-102307816D01*
X192929514Y-102299054D01*
X192977488Y-102248259D01*
X193045308Y-102231463D01*
X193111444Y-102253999D01*
X193150486Y-102299056D01*
X193154951Y-102307820D01*
X193279890Y-102479786D01*
X193430213Y-102630109D01*
X193602179Y-102755048D01*
X193602181Y-102755049D01*
X193602184Y-102755051D01*
X193791588Y-102851557D01*
X193993757Y-102917246D01*
X194203713Y-102950500D01*
X194203714Y-102950500D01*
X194416286Y-102950500D01*
X194416287Y-102950500D01*
X194626243Y-102917246D01*
X194828412Y-102851557D01*
X195017816Y-102755051D01*
X195104138Y-102692335D01*
X195189786Y-102630109D01*
X195189788Y-102630106D01*
X195189792Y-102630104D01*
X195340104Y-102479792D01*
X195340106Y-102479788D01*
X195340109Y-102479786D01*
X195465048Y-102307820D01*
X195465051Y-102307816D01*
X195469793Y-102298508D01*
X195517763Y-102247711D01*
X195585583Y-102230911D01*
X195651719Y-102253445D01*
X195690763Y-102298500D01*
X195695377Y-102307555D01*
X195820272Y-102479459D01*
X195820276Y-102479464D01*
X195970535Y-102629723D01*
X195970540Y-102629727D01*
X196142442Y-102754620D01*
X196331782Y-102851095D01*
X196533871Y-102916757D01*
X196600000Y-102927231D01*
X196600000Y-102033012D01*
X196657007Y-102065925D01*
X196784174Y-102100000D01*
X196915826Y-102100000D01*
X197042993Y-102065925D01*
X197100000Y-102033012D01*
X197100000Y-102927230D01*
X197166126Y-102916757D01*
X197166129Y-102916757D01*
X197368217Y-102851095D01*
X197557557Y-102754620D01*
X197729459Y-102629727D01*
X197729464Y-102629723D01*
X197879723Y-102479464D01*
X197879727Y-102479459D01*
X198004620Y-102307557D01*
X198101095Y-102118217D01*
X198166757Y-101916129D01*
X198166757Y-101916126D01*
X198177231Y-101850000D01*
X197283012Y-101850000D01*
X197315925Y-101792993D01*
X197350000Y-101665826D01*
X197350000Y-101534174D01*
X197315925Y-101407007D01*
X197283012Y-101350000D01*
X198177231Y-101350000D01*
X198166757Y-101283873D01*
X198166757Y-101283870D01*
X198101095Y-101081782D01*
X198004620Y-100892442D01*
X197879727Y-100720540D01*
X197879723Y-100720535D01*
X197729464Y-100570276D01*
X197729459Y-100570272D01*
X197557555Y-100445377D01*
X197548500Y-100440763D01*
X197497706Y-100392788D01*
X197480912Y-100324966D01*
X197503451Y-100258832D01*
X197548508Y-100219793D01*
X197557816Y-100215051D01*
X197696273Y-100114457D01*
X197729786Y-100090109D01*
X197729788Y-100090106D01*
X197729792Y-100090104D01*
X197880104Y-99939792D01*
X197880106Y-99939788D01*
X197880109Y-99939786D01*
X198005048Y-99767820D01*
X198005050Y-99767817D01*
X198005051Y-99767816D01*
X198101557Y-99578412D01*
X198167246Y-99376243D01*
X198200500Y-99166287D01*
X198200500Y-98953713D01*
X198167246Y-98743757D01*
X198101557Y-98541588D01*
X198005051Y-98352184D01*
X198005049Y-98352181D01*
X198005048Y-98352179D01*
X197880109Y-98180213D01*
X197729786Y-98029890D01*
X197557820Y-97904951D01*
X197368414Y-97808444D01*
X197368413Y-97808443D01*
X197368412Y-97808443D01*
X197166243Y-97742754D01*
X197166241Y-97742753D01*
X197166240Y-97742753D01*
X197004957Y-97717208D01*
X196956287Y-97709500D01*
X196743713Y-97709500D01*
X196695042Y-97717208D01*
X196533760Y-97742753D01*
X196331585Y-97808444D01*
X196142179Y-97904951D01*
X195970213Y-98029890D01*
X195819890Y-98180213D01*
X195694949Y-98352182D01*
X195690484Y-98360946D01*
X195642509Y-98411742D01*
X195574688Y-98428536D01*
X195508553Y-98405998D01*
X195469516Y-98360946D01*
X195465050Y-98352182D01*
X195340109Y-98180213D01*
X195189786Y-98029890D01*
X195017820Y-97904951D01*
X194828414Y-97808444D01*
X194828413Y-97808443D01*
X194828412Y-97808443D01*
X194626243Y-97742754D01*
X194626241Y-97742753D01*
X194626240Y-97742753D01*
X194464957Y-97717208D01*
X194416287Y-97709500D01*
X194203713Y-97709500D01*
X194155042Y-97717208D01*
X193993760Y-97742753D01*
X193791585Y-97808444D01*
X193602179Y-97904951D01*
X193430213Y-98029890D01*
X193279890Y-98180213D01*
X193154949Y-98352182D01*
X193150484Y-98360946D01*
X193102509Y-98411742D01*
X193034688Y-98428536D01*
X192968553Y-98405998D01*
X192929516Y-98360946D01*
X192925050Y-98352182D01*
X192800109Y-98180213D01*
X192649786Y-98029890D01*
X192477820Y-97904951D01*
X192288414Y-97808444D01*
X192288413Y-97808443D01*
X192288412Y-97808443D01*
X192086243Y-97742754D01*
X192086241Y-97742753D01*
X192086240Y-97742753D01*
X191924957Y-97717208D01*
X191876287Y-97709500D01*
X191663713Y-97709500D01*
X191615042Y-97717208D01*
X191453760Y-97742753D01*
X191251585Y-97808444D01*
X191062179Y-97904951D01*
X190890213Y-98029890D01*
X190739890Y-98180213D01*
X190614949Y-98352182D01*
X190610484Y-98360946D01*
X190562509Y-98411742D01*
X190494688Y-98428536D01*
X190428553Y-98405998D01*
X190389516Y-98360946D01*
X190385050Y-98352182D01*
X190260109Y-98180213D01*
X190109786Y-98029890D01*
X189937820Y-97904951D01*
X189748414Y-97808444D01*
X189748413Y-97808443D01*
X189748412Y-97808443D01*
X189546243Y-97742754D01*
X189546241Y-97742753D01*
X189546240Y-97742753D01*
X189384957Y-97717208D01*
X189336287Y-97709500D01*
X189123713Y-97709500D01*
X189075042Y-97717208D01*
X188913760Y-97742753D01*
X188711585Y-97808444D01*
X188522179Y-97904951D01*
X188350213Y-98029890D01*
X188199890Y-98180213D01*
X188074949Y-98352182D01*
X188070484Y-98360946D01*
X188022509Y-98411742D01*
X187954688Y-98428536D01*
X187888553Y-98405998D01*
X187849516Y-98360946D01*
X187845050Y-98352182D01*
X187720109Y-98180213D01*
X187569786Y-98029890D01*
X187397820Y-97904951D01*
X187208414Y-97808444D01*
X187208413Y-97808443D01*
X187208412Y-97808443D01*
X187006243Y-97742754D01*
X187006241Y-97742753D01*
X187006240Y-97742753D01*
X186844957Y-97717208D01*
X186796287Y-97709500D01*
X186583713Y-97709500D01*
X186535042Y-97717208D01*
X186373760Y-97742753D01*
X186171585Y-97808444D01*
X185982179Y-97904951D01*
X185810213Y-98029890D01*
X185659890Y-98180213D01*
X185534949Y-98352182D01*
X185530484Y-98360946D01*
X185482509Y-98411742D01*
X185414688Y-98428536D01*
X185348553Y-98405998D01*
X185309516Y-98360946D01*
X185305050Y-98352182D01*
X185180109Y-98180213D01*
X185029786Y-98029890D01*
X184857820Y-97904951D01*
X184668414Y-97808444D01*
X184668413Y-97808443D01*
X184668412Y-97808443D01*
X184466243Y-97742754D01*
X184466241Y-97742753D01*
X184466240Y-97742753D01*
X184304957Y-97717208D01*
X184256287Y-97709500D01*
X184043713Y-97709500D01*
X183995042Y-97717208D01*
X183833760Y-97742753D01*
X183631585Y-97808444D01*
X183442179Y-97904951D01*
X183270213Y-98029890D01*
X183119890Y-98180213D01*
X182994949Y-98352182D01*
X182990484Y-98360946D01*
X182942509Y-98411742D01*
X182874688Y-98428536D01*
X182808553Y-98405998D01*
X182769516Y-98360946D01*
X182765050Y-98352182D01*
X182640109Y-98180213D01*
X182489786Y-98029890D01*
X182317820Y-97904951D01*
X182128414Y-97808444D01*
X182128413Y-97808443D01*
X182128412Y-97808443D01*
X181926243Y-97742754D01*
X181926241Y-97742753D01*
X181926240Y-97742753D01*
X181764957Y-97717208D01*
X181716287Y-97709500D01*
X181503713Y-97709500D01*
X181455042Y-97717208D01*
X181293760Y-97742753D01*
X181091585Y-97808444D01*
X180902179Y-97904951D01*
X180730213Y-98029890D01*
X180579890Y-98180213D01*
X180454949Y-98352182D01*
X180450484Y-98360946D01*
X180402509Y-98411742D01*
X180334688Y-98428536D01*
X180268553Y-98405998D01*
X180229516Y-98360946D01*
X180225050Y-98352182D01*
X180100109Y-98180213D01*
X179949786Y-98029890D01*
X179777820Y-97904951D01*
X179588414Y-97808444D01*
X179588413Y-97808443D01*
X179588412Y-97808443D01*
X179386243Y-97742754D01*
X179386241Y-97742753D01*
X179386240Y-97742753D01*
X179224957Y-97717208D01*
X179176287Y-97709500D01*
X178963713Y-97709500D01*
X178915042Y-97717208D01*
X178753760Y-97742753D01*
X178551585Y-97808444D01*
X178362179Y-97904951D01*
X178190213Y-98029890D01*
X178039890Y-98180213D01*
X177914949Y-98352182D01*
X177910484Y-98360946D01*
X177862509Y-98411742D01*
X177794688Y-98428536D01*
X177728553Y-98405998D01*
X177689516Y-98360946D01*
X177685050Y-98352182D01*
X177560109Y-98180213D01*
X177409786Y-98029890D01*
X177237820Y-97904951D01*
X177048414Y-97808444D01*
X177048413Y-97808443D01*
X177048412Y-97808443D01*
X176846243Y-97742754D01*
X176846241Y-97742753D01*
X176846240Y-97742753D01*
X176684957Y-97717208D01*
X176636287Y-97709500D01*
X176423713Y-97709500D01*
X176375042Y-97717208D01*
X176213760Y-97742753D01*
X176011585Y-97808444D01*
X175822179Y-97904951D01*
X175650213Y-98029890D01*
X175499890Y-98180213D01*
X175374949Y-98352182D01*
X175370202Y-98361499D01*
X175322227Y-98412293D01*
X175254405Y-98429087D01*
X175188271Y-98406548D01*
X175149234Y-98361495D01*
X175144622Y-98352444D01*
X175019727Y-98180540D01*
X175019723Y-98180535D01*
X174869464Y-98030276D01*
X174869459Y-98030272D01*
X174697557Y-97905379D01*
X174508215Y-97808903D01*
X174306124Y-97743241D01*
X174240000Y-97732768D01*
X174240000Y-98626988D01*
X174182993Y-98594075D01*
X174055826Y-98560000D01*
X173924174Y-98560000D01*
X173797007Y-98594075D01*
X173740000Y-98626988D01*
X173740000Y-97732768D01*
X173739999Y-97732768D01*
X173673875Y-97743241D01*
X173471784Y-97808903D01*
X173282442Y-97905379D01*
X173110540Y-98030272D01*
X173110535Y-98030276D01*
X172960276Y-98180535D01*
X172960272Y-98180540D01*
X172835379Y-98352442D01*
X172738904Y-98541782D01*
X172673242Y-98743870D01*
X172673242Y-98743873D01*
X172662769Y-98810000D01*
X173556988Y-98810000D01*
X173524075Y-98867007D01*
X173490000Y-98994174D01*
X173490000Y-99125826D01*
X173524075Y-99252993D01*
X173556988Y-99310000D01*
X172662769Y-99310000D01*
X172673242Y-99376126D01*
X172673242Y-99376129D01*
X172738904Y-99578217D01*
X172835379Y-99767557D01*
X172960272Y-99939459D01*
X172960276Y-99939464D01*
X173073946Y-100053134D01*
X173107431Y-100114457D01*
X173102447Y-100184149D01*
X173060575Y-100240082D01*
X173029598Y-100256997D01*
X172897671Y-100306202D01*
X172897664Y-100306206D01*
X172782455Y-100392452D01*
X172782452Y-100392455D01*
X172696206Y-100507664D01*
X172696202Y-100507671D01*
X172645908Y-100642517D01*
X172639501Y-100702116D01*
X172639500Y-100702135D01*
X168652031Y-100702135D01*
X168519792Y-100569896D01*
X168519786Y-100569890D01*
X168347817Y-100444949D01*
X168338504Y-100440204D01*
X168287707Y-100392230D01*
X168270912Y-100324409D01*
X168293449Y-100258274D01*
X168338507Y-100219232D01*
X168347558Y-100214620D01*
X168519459Y-100089727D01*
X168519464Y-100089723D01*
X168669723Y-99939464D01*
X168669727Y-99939459D01*
X168794620Y-99767557D01*
X168891095Y-99578217D01*
X168956757Y-99376129D01*
X168956757Y-99376126D01*
X168967231Y-99310000D01*
X168073012Y-99310000D01*
X168105925Y-99252993D01*
X168140000Y-99125826D01*
X168140000Y-98994174D01*
X168105925Y-98867007D01*
X168073012Y-98810000D01*
X168967231Y-98810000D01*
X168956757Y-98743873D01*
X168956757Y-98743870D01*
X168891095Y-98541782D01*
X168794620Y-98352442D01*
X168669727Y-98180540D01*
X168669723Y-98180535D01*
X168519464Y-98030276D01*
X168519459Y-98030272D01*
X168347557Y-97905379D01*
X168158215Y-97808903D01*
X167956124Y-97743241D01*
X167890000Y-97732768D01*
X167890000Y-98626988D01*
X167832993Y-98594075D01*
X167705826Y-98560000D01*
X167574174Y-98560000D01*
X167447007Y-98594075D01*
X167390000Y-98626988D01*
X167390000Y-97732768D01*
X167389999Y-97732768D01*
X167323875Y-97743241D01*
X167121784Y-97808903D01*
X166932442Y-97905379D01*
X166760540Y-98030272D01*
X166760535Y-98030276D01*
X166610276Y-98180535D01*
X166610272Y-98180540D01*
X166485377Y-98352444D01*
X166480484Y-98362048D01*
X166432509Y-98412844D01*
X166364688Y-98429638D01*
X166298553Y-98407100D01*
X166259516Y-98362048D01*
X166254622Y-98352444D01*
X166129727Y-98180540D01*
X166129723Y-98180535D01*
X165979464Y-98030276D01*
X165979459Y-98030272D01*
X165807557Y-97905379D01*
X165618215Y-97808903D01*
X165416124Y-97743241D01*
X165350000Y-97732768D01*
X165350000Y-98626988D01*
X165292993Y-98594075D01*
X165165826Y-98560000D01*
X165034174Y-98560000D01*
X164907007Y-98594075D01*
X164850000Y-98626988D01*
X164850000Y-97732768D01*
X164849999Y-97732768D01*
X164783875Y-97743241D01*
X164581784Y-97808903D01*
X164392442Y-97905379D01*
X164220540Y-98030272D01*
X164220535Y-98030276D01*
X164070276Y-98180535D01*
X164070272Y-98180540D01*
X163945379Y-98352442D01*
X163848904Y-98541782D01*
X163783242Y-98743870D01*
X163783242Y-98743873D01*
X163772769Y-98810000D01*
X164666988Y-98810000D01*
X164634075Y-98867007D01*
X164600000Y-98994174D01*
X164600000Y-99125826D01*
X164634075Y-99252993D01*
X164666988Y-99310000D01*
X163772769Y-99310000D01*
X163783242Y-99376126D01*
X163783242Y-99376129D01*
X163848904Y-99578217D01*
X163945379Y-99767557D01*
X164070272Y-99939459D01*
X164070276Y-99939464D01*
X164183946Y-100053134D01*
X164217431Y-100114457D01*
X164212447Y-100184149D01*
X164170575Y-100240082D01*
X164139598Y-100256997D01*
X164007671Y-100306202D01*
X164007664Y-100306206D01*
X163892455Y-100392452D01*
X163892452Y-100392455D01*
X163806206Y-100507664D01*
X163806202Y-100507671D01*
X163755908Y-100642517D01*
X163749501Y-100702116D01*
X163749500Y-100702135D01*
X141800500Y-100702135D01*
X141800500Y-95741153D01*
X150039500Y-95741153D01*
X150039500Y-95898846D01*
X150070261Y-96053489D01*
X150070264Y-96053501D01*
X150130602Y-96199172D01*
X150130609Y-96199185D01*
X150218210Y-96330288D01*
X150218213Y-96330292D01*
X150329707Y-96441786D01*
X150329711Y-96441789D01*
X150460814Y-96529390D01*
X150460827Y-96529397D01*
X150606498Y-96589735D01*
X150606503Y-96589737D01*
X150761153Y-96620499D01*
X150761156Y-96620500D01*
X150761158Y-96620500D01*
X150918844Y-96620500D01*
X150918845Y-96620499D01*
X151073497Y-96589737D01*
X151219179Y-96529394D01*
X151273663Y-96492989D01*
X151350875Y-96441398D01*
X151417553Y-96420520D01*
X151419766Y-96420500D01*
X161614340Y-96420500D01*
X161681379Y-96440185D01*
X161727134Y-96492989D01*
X161737078Y-96562147D01*
X161735958Y-96568690D01*
X161729500Y-96601158D01*
X161729500Y-96758846D01*
X161760261Y-96913489D01*
X161760264Y-96913501D01*
X161820602Y-97059172D01*
X161820609Y-97059185D01*
X161908210Y-97190288D01*
X161908213Y-97190292D01*
X162019707Y-97301786D01*
X162019711Y-97301789D01*
X162150814Y-97389390D01*
X162150827Y-97389397D01*
X162296498Y-97449735D01*
X162296503Y-97449737D01*
X162451153Y-97480499D01*
X162451156Y-97480500D01*
X162451158Y-97480500D01*
X162608844Y-97480500D01*
X162608845Y-97480499D01*
X162763497Y-97449737D01*
X162909179Y-97389394D01*
X162909185Y-97389390D01*
X163040875Y-97301398D01*
X163107553Y-97280520D01*
X163109766Y-97280500D01*
X181273331Y-97280500D01*
X181273347Y-97280501D01*
X181280943Y-97280501D01*
X181439054Y-97280501D01*
X181439057Y-97280501D01*
X181591785Y-97239577D01*
X181591786Y-97239575D01*
X181599635Y-97237473D01*
X181599820Y-97238165D01*
X181638364Y-97230500D01*
X181688844Y-97230500D01*
X181688845Y-97230499D01*
X181843497Y-97199737D01*
X181989179Y-97139394D01*
X182120289Y-97051789D01*
X182231789Y-96940289D01*
X182319394Y-96809179D01*
X182379737Y-96663497D01*
X182394409Y-96589737D01*
X182408220Y-96520308D01*
X182440605Y-96458397D01*
X182501321Y-96423823D01*
X182529837Y-96420500D01*
X191200234Y-96420500D01*
X191267273Y-96440185D01*
X191269125Y-96441398D01*
X191400814Y-96529390D01*
X191400827Y-96529397D01*
X191546498Y-96589735D01*
X191546503Y-96589737D01*
X191701153Y-96620499D01*
X191701156Y-96620500D01*
X191701158Y-96620500D01*
X191858844Y-96620500D01*
X191858845Y-96620499D01*
X192013497Y-96589737D01*
X192159179Y-96529394D01*
X192290289Y-96441789D01*
X192401789Y-96330289D01*
X192489394Y-96199179D01*
X192549737Y-96053497D01*
X192580500Y-95898842D01*
X192580500Y-95741158D01*
X192580500Y-95741155D01*
X192580499Y-95741153D01*
X192549738Y-95586510D01*
X192549737Y-95586503D01*
X192549735Y-95586498D01*
X192489397Y-95440827D01*
X192489390Y-95440814D01*
X192401789Y-95309711D01*
X192401786Y-95309707D01*
X192290292Y-95198213D01*
X192290288Y-95198210D01*
X192159185Y-95110609D01*
X192159172Y-95110602D01*
X192013501Y-95050264D01*
X192013489Y-95050261D01*
X191858845Y-95019500D01*
X191858842Y-95019500D01*
X191701158Y-95019500D01*
X191701155Y-95019500D01*
X191546510Y-95050261D01*
X191546498Y-95050264D01*
X191400827Y-95110602D01*
X191400814Y-95110609D01*
X191269125Y-95198602D01*
X191202447Y-95219480D01*
X191200234Y-95219500D01*
X190017487Y-95219500D01*
X189950448Y-95199815D01*
X189904693Y-95147011D01*
X189894749Y-95077853D01*
X189914384Y-95026610D01*
X189939391Y-94989183D01*
X189939394Y-94989179D01*
X189999737Y-94843497D01*
X190030500Y-94688842D01*
X190030500Y-94531158D01*
X190030500Y-94531155D01*
X190030499Y-94531153D01*
X189999738Y-94376510D01*
X189999737Y-94376503D01*
X189999735Y-94376498D01*
X189939397Y-94230827D01*
X189939390Y-94230814D01*
X189851789Y-94099711D01*
X189851786Y-94099707D01*
X189740292Y-93988213D01*
X189740288Y-93988210D01*
X189609185Y-93900609D01*
X189609172Y-93900602D01*
X189463501Y-93840264D01*
X189463489Y-93840261D01*
X189308845Y-93809500D01*
X189308842Y-93809500D01*
X189151158Y-93809500D01*
X189151155Y-93809500D01*
X188996510Y-93840261D01*
X188996498Y-93840264D01*
X188850827Y-93900602D01*
X188850814Y-93900609D01*
X188719125Y-93988602D01*
X188652447Y-94009480D01*
X188650234Y-94009500D01*
X185053725Y-94009500D01*
X184986686Y-93989815D01*
X184940931Y-93937011D01*
X184930987Y-93867853D01*
X184932108Y-93861309D01*
X184950499Y-93768846D01*
X184950500Y-93768844D01*
X184950500Y-93611155D01*
X184950499Y-93611153D01*
X184919738Y-93456510D01*
X184919737Y-93456503D01*
X184919735Y-93456498D01*
X184859397Y-93310827D01*
X184859390Y-93310814D01*
X184771789Y-93179711D01*
X184771786Y-93179707D01*
X184660292Y-93068213D01*
X184660288Y-93068210D01*
X184529185Y-92980609D01*
X184529172Y-92980602D01*
X184383501Y-92920264D01*
X184383489Y-92920261D01*
X184228845Y-92889500D01*
X184228842Y-92889500D01*
X184071158Y-92889500D01*
X184071155Y-92889500D01*
X183916510Y-92920261D01*
X183916498Y-92920264D01*
X183770827Y-92980602D01*
X183770814Y-92980609D01*
X183639125Y-93068602D01*
X183572447Y-93089480D01*
X183570234Y-93089500D01*
X181254500Y-93089500D01*
X181187461Y-93069815D01*
X181141706Y-93017011D01*
X181130500Y-92965500D01*
X181130500Y-92851155D01*
X181130499Y-92851153D01*
X181099738Y-92696510D01*
X181099737Y-92696503D01*
X181059972Y-92600500D01*
X181039397Y-92550827D01*
X181039390Y-92550814D01*
X180951789Y-92419711D01*
X180951786Y-92419707D01*
X180872017Y-92339938D01*
X180838532Y-92278615D01*
X180843516Y-92208923D01*
X180856601Y-92183359D01*
X180859391Y-92179183D01*
X180859394Y-92179179D01*
X180919737Y-92033497D01*
X180950500Y-91878842D01*
X180950500Y-91721158D01*
X180950500Y-91721155D01*
X180950499Y-91721153D01*
X180919738Y-91566510D01*
X180919737Y-91566503D01*
X180919735Y-91566498D01*
X180859397Y-91420827D01*
X180859390Y-91420814D01*
X180771789Y-91289711D01*
X180771786Y-91289707D01*
X180660292Y-91178213D01*
X180660288Y-91178210D01*
X180529185Y-91090609D01*
X180529172Y-91090602D01*
X180383501Y-91030264D01*
X180383489Y-91030261D01*
X180228845Y-90999500D01*
X180228842Y-90999500D01*
X180071158Y-90999500D01*
X180039895Y-91005718D01*
X179977442Y-91018141D01*
X179907850Y-91011913D01*
X179852673Y-90969049D01*
X179838690Y-90943975D01*
X179779397Y-90800827D01*
X179779390Y-90800814D01*
X179691789Y-90669711D01*
X179691786Y-90669707D01*
X179580292Y-90558213D01*
X179580288Y-90558210D01*
X179449185Y-90470609D01*
X179449172Y-90470602D01*
X179389264Y-90445788D01*
X179334860Y-90401947D01*
X179312795Y-90335653D01*
X179330074Y-90267954D01*
X179381211Y-90220343D01*
X179398391Y-90213298D01*
X179588412Y-90151557D01*
X179777816Y-90055051D01*
X179864138Y-89992335D01*
X179949786Y-89930109D01*
X179949788Y-89930106D01*
X179949792Y-89930104D01*
X180100104Y-89779792D01*
X180100106Y-89779788D01*
X180100109Y-89779786D01*
X180225048Y-89607820D01*
X180225047Y-89607820D01*
X180225051Y-89607816D01*
X180229514Y-89599054D01*
X180277488Y-89548259D01*
X180345308Y-89531463D01*
X180411444Y-89553999D01*
X180450486Y-89599056D01*
X180454951Y-89607820D01*
X180579890Y-89779786D01*
X180730213Y-89930109D01*
X180902179Y-90055048D01*
X180902181Y-90055049D01*
X180902184Y-90055051D01*
X181091588Y-90151557D01*
X181293757Y-90217246D01*
X181503713Y-90250500D01*
X181503714Y-90250500D01*
X181716286Y-90250500D01*
X181716287Y-90250500D01*
X181926243Y-90217246D01*
X182128412Y-90151557D01*
X182317816Y-90055051D01*
X182404138Y-89992335D01*
X182489786Y-89930109D01*
X182489788Y-89930106D01*
X182489792Y-89930104D01*
X182640104Y-89779792D01*
X182640106Y-89779788D01*
X182640109Y-89779786D01*
X182765048Y-89607820D01*
X182765047Y-89607820D01*
X182765051Y-89607816D01*
X182769514Y-89599054D01*
X182817488Y-89548259D01*
X182885308Y-89531463D01*
X182951444Y-89553999D01*
X182990486Y-89599056D01*
X182994951Y-89607820D01*
X183119890Y-89779786D01*
X183270213Y-89930109D01*
X183442179Y-90055048D01*
X183442181Y-90055049D01*
X183442184Y-90055051D01*
X183631588Y-90151557D01*
X183833757Y-90217246D01*
X184043713Y-90250500D01*
X184043714Y-90250500D01*
X184256286Y-90250500D01*
X184256287Y-90250500D01*
X184466243Y-90217246D01*
X184668412Y-90151557D01*
X184857816Y-90055051D01*
X184944138Y-89992335D01*
X185029786Y-89930109D01*
X185029788Y-89930106D01*
X185029792Y-89930104D01*
X185180104Y-89779792D01*
X185180106Y-89779788D01*
X185180109Y-89779786D01*
X185305048Y-89607820D01*
X185305047Y-89607820D01*
X185305051Y-89607816D01*
X185309514Y-89599054D01*
X185357488Y-89548259D01*
X185425308Y-89531463D01*
X185491444Y-89553999D01*
X185530486Y-89599056D01*
X185534951Y-89607820D01*
X185659890Y-89779786D01*
X185810213Y-89930109D01*
X185982179Y-90055048D01*
X185982181Y-90055049D01*
X185982184Y-90055051D01*
X186171588Y-90151557D01*
X186373757Y-90217246D01*
X186583713Y-90250500D01*
X186583714Y-90250500D01*
X186796286Y-90250500D01*
X186796287Y-90250500D01*
X187006243Y-90217246D01*
X187208412Y-90151557D01*
X187397816Y-90055051D01*
X187484138Y-89992335D01*
X187569786Y-89930109D01*
X187569788Y-89930106D01*
X187569792Y-89930104D01*
X187720104Y-89779792D01*
X187720106Y-89779788D01*
X187720109Y-89779786D01*
X187845048Y-89607820D01*
X187845047Y-89607820D01*
X187845051Y-89607816D01*
X187849514Y-89599054D01*
X187897488Y-89548259D01*
X187965308Y-89531463D01*
X188031444Y-89553999D01*
X188070486Y-89599056D01*
X188074951Y-89607820D01*
X188199890Y-89779786D01*
X188350213Y-89930109D01*
X188522179Y-90055048D01*
X188522181Y-90055049D01*
X188522184Y-90055051D01*
X188711588Y-90151557D01*
X188913757Y-90217246D01*
X189123713Y-90250500D01*
X189123714Y-90250500D01*
X189336286Y-90250500D01*
X189336287Y-90250500D01*
X189546243Y-90217246D01*
X189748412Y-90151557D01*
X189937816Y-90055051D01*
X190024138Y-89992335D01*
X190109786Y-89930109D01*
X190109788Y-89930106D01*
X190109792Y-89930104D01*
X190260104Y-89779792D01*
X190260106Y-89779788D01*
X190260109Y-89779786D01*
X190385048Y-89607820D01*
X190385047Y-89607820D01*
X190385051Y-89607816D01*
X190389514Y-89599054D01*
X190437488Y-89548259D01*
X190505308Y-89531463D01*
X190571444Y-89553999D01*
X190610486Y-89599056D01*
X190614951Y-89607820D01*
X190739890Y-89779786D01*
X190890213Y-89930109D01*
X191062179Y-90055048D01*
X191062181Y-90055049D01*
X191062184Y-90055051D01*
X191251588Y-90151557D01*
X191453757Y-90217246D01*
X191663713Y-90250500D01*
X191663714Y-90250500D01*
X191876286Y-90250500D01*
X191876287Y-90250500D01*
X192086243Y-90217246D01*
X192288412Y-90151557D01*
X192477816Y-90055051D01*
X192564138Y-89992335D01*
X192649786Y-89930109D01*
X192649788Y-89930106D01*
X192649792Y-89930104D01*
X192800104Y-89779792D01*
X192800106Y-89779788D01*
X192800109Y-89779786D01*
X192925048Y-89607820D01*
X192925047Y-89607820D01*
X192925051Y-89607816D01*
X192929514Y-89599054D01*
X192977488Y-89548259D01*
X193045308Y-89531463D01*
X193111444Y-89553999D01*
X193150486Y-89599056D01*
X193154951Y-89607820D01*
X193279890Y-89779786D01*
X193430213Y-89930109D01*
X193602179Y-90055048D01*
X193602181Y-90055049D01*
X193602184Y-90055051D01*
X193791588Y-90151557D01*
X193993757Y-90217246D01*
X194203713Y-90250500D01*
X194203714Y-90250500D01*
X194416286Y-90250500D01*
X194416287Y-90250500D01*
X194626243Y-90217246D01*
X194828412Y-90151557D01*
X195017816Y-90055051D01*
X195104138Y-89992335D01*
X195189786Y-89930109D01*
X195189788Y-89930106D01*
X195189792Y-89930104D01*
X195340104Y-89779792D01*
X195340106Y-89779788D01*
X195340109Y-89779786D01*
X195465048Y-89607820D01*
X195465051Y-89607816D01*
X195469793Y-89598508D01*
X195517763Y-89547711D01*
X195585583Y-89530911D01*
X195651719Y-89553445D01*
X195690763Y-89598500D01*
X195695377Y-89607555D01*
X195820272Y-89779459D01*
X195820276Y-89779464D01*
X195970535Y-89929723D01*
X195970540Y-89929727D01*
X196142442Y-90054620D01*
X196331782Y-90151095D01*
X196533871Y-90216757D01*
X196600000Y-90227231D01*
X196600000Y-89333012D01*
X196657007Y-89365925D01*
X196784174Y-89400000D01*
X196915826Y-89400000D01*
X197042993Y-89365925D01*
X197100000Y-89333012D01*
X197100000Y-90227230D01*
X197166126Y-90216757D01*
X197166129Y-90216757D01*
X197368217Y-90151095D01*
X197557557Y-90054620D01*
X197729459Y-89929727D01*
X197729464Y-89929723D01*
X197879723Y-89779464D01*
X197879727Y-89779459D01*
X198004620Y-89607557D01*
X198101095Y-89418217D01*
X198166757Y-89216129D01*
X198166757Y-89216126D01*
X198177231Y-89150000D01*
X197283012Y-89150000D01*
X197315925Y-89092993D01*
X197350000Y-88965826D01*
X197350000Y-88834174D01*
X197315925Y-88707007D01*
X197283012Y-88650000D01*
X198177231Y-88650000D01*
X198166757Y-88583873D01*
X198166757Y-88583870D01*
X198101095Y-88381782D01*
X198004620Y-88192442D01*
X197879727Y-88020540D01*
X197879723Y-88020535D01*
X197729464Y-87870276D01*
X197729459Y-87870272D01*
X197557555Y-87745377D01*
X197548500Y-87740763D01*
X197497706Y-87692788D01*
X197480912Y-87624966D01*
X197503451Y-87558832D01*
X197548508Y-87519793D01*
X197557816Y-87515051D01*
X197696273Y-87414457D01*
X197729786Y-87390109D01*
X197729788Y-87390106D01*
X197729792Y-87390104D01*
X197880104Y-87239792D01*
X197880106Y-87239788D01*
X197880109Y-87239786D01*
X198005048Y-87067820D01*
X198005050Y-87067817D01*
X198005051Y-87067816D01*
X198101557Y-86878412D01*
X198167246Y-86676243D01*
X198200500Y-86466287D01*
X198200500Y-86253713D01*
X198167246Y-86043757D01*
X198101557Y-85841588D01*
X198005051Y-85652184D01*
X198005049Y-85652181D01*
X198005048Y-85652179D01*
X197880109Y-85480213D01*
X197729786Y-85329890D01*
X197557820Y-85204951D01*
X197368414Y-85108444D01*
X197368413Y-85108443D01*
X197368412Y-85108443D01*
X197166243Y-85042754D01*
X197166241Y-85042753D01*
X197166240Y-85042753D01*
X197004957Y-85017208D01*
X196956287Y-85009500D01*
X196743713Y-85009500D01*
X196695042Y-85017208D01*
X196533760Y-85042753D01*
X196331585Y-85108444D01*
X196142179Y-85204951D01*
X195970213Y-85329890D01*
X195819890Y-85480213D01*
X195694949Y-85652182D01*
X195690484Y-85660946D01*
X195642509Y-85711742D01*
X195574688Y-85728536D01*
X195508553Y-85705998D01*
X195469516Y-85660946D01*
X195465050Y-85652182D01*
X195340109Y-85480213D01*
X195189786Y-85329890D01*
X195017820Y-85204951D01*
X194828414Y-85108444D01*
X194828413Y-85108443D01*
X194828412Y-85108443D01*
X194626243Y-85042754D01*
X194626241Y-85042753D01*
X194626240Y-85042753D01*
X194464957Y-85017208D01*
X194416287Y-85009500D01*
X194203713Y-85009500D01*
X194155042Y-85017208D01*
X193993760Y-85042753D01*
X193791585Y-85108444D01*
X193602179Y-85204951D01*
X193430213Y-85329890D01*
X193279890Y-85480213D01*
X193154949Y-85652182D01*
X193150484Y-85660946D01*
X193102509Y-85711742D01*
X193034688Y-85728536D01*
X192968553Y-85705998D01*
X192929516Y-85660946D01*
X192925050Y-85652182D01*
X192800109Y-85480213D01*
X192649786Y-85329890D01*
X192477820Y-85204951D01*
X192288414Y-85108444D01*
X192288413Y-85108443D01*
X192288412Y-85108443D01*
X192086243Y-85042754D01*
X192086241Y-85042753D01*
X192086240Y-85042753D01*
X191924957Y-85017208D01*
X191876287Y-85009500D01*
X191663713Y-85009500D01*
X191615042Y-85017208D01*
X191453760Y-85042753D01*
X191251585Y-85108444D01*
X191062179Y-85204951D01*
X190890213Y-85329890D01*
X190739890Y-85480213D01*
X190614949Y-85652182D01*
X190610484Y-85660946D01*
X190562509Y-85711742D01*
X190494688Y-85728536D01*
X190428553Y-85705998D01*
X190389516Y-85660946D01*
X190385050Y-85652182D01*
X190260109Y-85480213D01*
X190109786Y-85329890D01*
X189937820Y-85204951D01*
X189748414Y-85108444D01*
X189748413Y-85108443D01*
X189748412Y-85108443D01*
X189546243Y-85042754D01*
X189546241Y-85042753D01*
X189546240Y-85042753D01*
X189384957Y-85017208D01*
X189336287Y-85009500D01*
X189123713Y-85009500D01*
X189075042Y-85017208D01*
X188913760Y-85042753D01*
X188711585Y-85108444D01*
X188522179Y-85204951D01*
X188350213Y-85329890D01*
X188199890Y-85480213D01*
X188074949Y-85652182D01*
X188070484Y-85660946D01*
X188022509Y-85711742D01*
X187954688Y-85728536D01*
X187888553Y-85705998D01*
X187849516Y-85660946D01*
X187845050Y-85652182D01*
X187720109Y-85480213D01*
X187569786Y-85329890D01*
X187397820Y-85204951D01*
X187208414Y-85108444D01*
X187208413Y-85108443D01*
X187208412Y-85108443D01*
X187006243Y-85042754D01*
X187006241Y-85042753D01*
X187006240Y-85042753D01*
X186844957Y-85017208D01*
X186796287Y-85009500D01*
X186583713Y-85009500D01*
X186535042Y-85017208D01*
X186373760Y-85042753D01*
X186171585Y-85108444D01*
X185982179Y-85204951D01*
X185810213Y-85329890D01*
X185659890Y-85480213D01*
X185534949Y-85652182D01*
X185530484Y-85660946D01*
X185482509Y-85711742D01*
X185414688Y-85728536D01*
X185348553Y-85705998D01*
X185309516Y-85660946D01*
X185305050Y-85652182D01*
X185180109Y-85480213D01*
X185029786Y-85329890D01*
X184857820Y-85204951D01*
X184668414Y-85108444D01*
X184668413Y-85108443D01*
X184668412Y-85108443D01*
X184466243Y-85042754D01*
X184466241Y-85042753D01*
X184466240Y-85042753D01*
X184304957Y-85017208D01*
X184256287Y-85009500D01*
X184043713Y-85009500D01*
X183995042Y-85017208D01*
X183833760Y-85042753D01*
X183631585Y-85108444D01*
X183442179Y-85204951D01*
X183270213Y-85329890D01*
X183119890Y-85480213D01*
X182994949Y-85652182D01*
X182990484Y-85660946D01*
X182942509Y-85711742D01*
X182874688Y-85728536D01*
X182808553Y-85705998D01*
X182769516Y-85660946D01*
X182765050Y-85652182D01*
X182640109Y-85480213D01*
X182489786Y-85329890D01*
X182317820Y-85204951D01*
X182128414Y-85108444D01*
X182128413Y-85108443D01*
X182128412Y-85108443D01*
X181926243Y-85042754D01*
X181926241Y-85042753D01*
X181926240Y-85042753D01*
X181764957Y-85017208D01*
X181716287Y-85009500D01*
X181503713Y-85009500D01*
X181455042Y-85017208D01*
X181293760Y-85042753D01*
X181091585Y-85108444D01*
X180902179Y-85204951D01*
X180730213Y-85329890D01*
X180579890Y-85480213D01*
X180454949Y-85652182D01*
X180450484Y-85660946D01*
X180402509Y-85711742D01*
X180334688Y-85728536D01*
X180268553Y-85705998D01*
X180229516Y-85660946D01*
X180225050Y-85652182D01*
X180100109Y-85480213D01*
X179949786Y-85329890D01*
X179777820Y-85204951D01*
X179588414Y-85108444D01*
X179588413Y-85108443D01*
X179588412Y-85108443D01*
X179386243Y-85042754D01*
X179386241Y-85042753D01*
X179386240Y-85042753D01*
X179224957Y-85017208D01*
X179176287Y-85009500D01*
X178963713Y-85009500D01*
X178915042Y-85017208D01*
X178753760Y-85042753D01*
X178551585Y-85108444D01*
X178362179Y-85204951D01*
X178190213Y-85329890D01*
X178039890Y-85480213D01*
X177914949Y-85652182D01*
X177910484Y-85660946D01*
X177862509Y-85711742D01*
X177794688Y-85728536D01*
X177728553Y-85705998D01*
X177689516Y-85660946D01*
X177685050Y-85652182D01*
X177560109Y-85480213D01*
X177409786Y-85329890D01*
X177237820Y-85204951D01*
X177048414Y-85108444D01*
X177048413Y-85108443D01*
X177048412Y-85108443D01*
X176846243Y-85042754D01*
X176846241Y-85042753D01*
X176846240Y-85042753D01*
X176684957Y-85017208D01*
X176636287Y-85009500D01*
X176423713Y-85009500D01*
X176375042Y-85017208D01*
X176213760Y-85042753D01*
X176011585Y-85108444D01*
X175822179Y-85204951D01*
X175650213Y-85329890D01*
X175499890Y-85480213D01*
X175374949Y-85652182D01*
X175370202Y-85661499D01*
X175322227Y-85712293D01*
X175254405Y-85729087D01*
X175188271Y-85706548D01*
X175149234Y-85661495D01*
X175144622Y-85652444D01*
X175019727Y-85480540D01*
X175019723Y-85480535D01*
X174869464Y-85330276D01*
X174869459Y-85330272D01*
X174697557Y-85205379D01*
X174508215Y-85108903D01*
X174306124Y-85043241D01*
X174240000Y-85032768D01*
X174240000Y-85926988D01*
X174182993Y-85894075D01*
X174055826Y-85860000D01*
X173924174Y-85860000D01*
X173797007Y-85894075D01*
X173740000Y-85926988D01*
X173740000Y-85032768D01*
X173739999Y-85032768D01*
X173673875Y-85043241D01*
X173471784Y-85108903D01*
X173282442Y-85205379D01*
X173110540Y-85330272D01*
X173110535Y-85330276D01*
X172960276Y-85480535D01*
X172960272Y-85480540D01*
X172835379Y-85652442D01*
X172738904Y-85841782D01*
X172673242Y-86043870D01*
X172673242Y-86043873D01*
X172662769Y-86110000D01*
X173556988Y-86110000D01*
X173524075Y-86167007D01*
X173490000Y-86294174D01*
X173490000Y-86425826D01*
X173524075Y-86552993D01*
X173556988Y-86610000D01*
X172662769Y-86610000D01*
X172673242Y-86676126D01*
X172673242Y-86676129D01*
X172738904Y-86878217D01*
X172835379Y-87067557D01*
X172960272Y-87239459D01*
X172960276Y-87239464D01*
X173073946Y-87353134D01*
X173107431Y-87414457D01*
X173102447Y-87484149D01*
X173060575Y-87540082D01*
X173029598Y-87556997D01*
X172897671Y-87606202D01*
X172897664Y-87606206D01*
X172782455Y-87692452D01*
X172782452Y-87692455D01*
X172696206Y-87807664D01*
X172696202Y-87807671D01*
X172645908Y-87942517D01*
X172639501Y-88002116D01*
X172639500Y-88002135D01*
X172639500Y-89797870D01*
X172639501Y-89797876D01*
X172645908Y-89857483D01*
X172696202Y-89992328D01*
X172696206Y-89992335D01*
X172782452Y-90107544D01*
X172782455Y-90107547D01*
X172897664Y-90193793D01*
X172897671Y-90193797D01*
X173032517Y-90244091D01*
X173032516Y-90244091D01*
X173039444Y-90244835D01*
X173092127Y-90250500D01*
X174887872Y-90250499D01*
X174947483Y-90244091D01*
X175082331Y-90193796D01*
X175197546Y-90107546D01*
X175283796Y-89992331D01*
X175332810Y-89860916D01*
X175374681Y-89804984D01*
X175440145Y-89780566D01*
X175508418Y-89795417D01*
X175536673Y-89816569D01*
X175650213Y-89930109D01*
X175822179Y-90055048D01*
X175822181Y-90055049D01*
X175822184Y-90055051D01*
X176011588Y-90151557D01*
X176213757Y-90217246D01*
X176423713Y-90250500D01*
X176423714Y-90250500D01*
X176636286Y-90250500D01*
X176636287Y-90250500D01*
X176846243Y-90217246D01*
X177048412Y-90151557D01*
X177237816Y-90055051D01*
X177324138Y-89992335D01*
X177409786Y-89930109D01*
X177409788Y-89930106D01*
X177409792Y-89930104D01*
X177560104Y-89779792D01*
X177560106Y-89779788D01*
X177560109Y-89779786D01*
X177685048Y-89607820D01*
X177685047Y-89607820D01*
X177685051Y-89607816D01*
X177689514Y-89599054D01*
X177737488Y-89548259D01*
X177805308Y-89531463D01*
X177871444Y-89553999D01*
X177910486Y-89599056D01*
X177914951Y-89607820D01*
X178039890Y-89779786D01*
X178190213Y-89930109D01*
X178362179Y-90055048D01*
X178362181Y-90055049D01*
X178362184Y-90055051D01*
X178551588Y-90151557D01*
X178741601Y-90213296D01*
X178799277Y-90252734D01*
X178826475Y-90317092D01*
X178814560Y-90385939D01*
X178767316Y-90437414D01*
X178750736Y-90445788D01*
X178690824Y-90470604D01*
X178690814Y-90470609D01*
X178559125Y-90558602D01*
X178492447Y-90579480D01*
X178490234Y-90579500D01*
X160569766Y-90579500D01*
X160502727Y-90559815D01*
X160500875Y-90558602D01*
X160369185Y-90470609D01*
X160369172Y-90470602D01*
X160223501Y-90410264D01*
X160223489Y-90410261D01*
X160068845Y-90379500D01*
X160068842Y-90379500D01*
X159911158Y-90379500D01*
X159911155Y-90379500D01*
X159756510Y-90410261D01*
X159756498Y-90410264D01*
X159610827Y-90470602D01*
X159610814Y-90470609D01*
X159479711Y-90558210D01*
X159479707Y-90558213D01*
X159368213Y-90669707D01*
X159368210Y-90669711D01*
X159280609Y-90800814D01*
X159280602Y-90800827D01*
X159220264Y-90946498D01*
X159220261Y-90946508D01*
X159189791Y-91099692D01*
X159157406Y-91161603D01*
X159096690Y-91196177D01*
X159068174Y-91199500D01*
X158019766Y-91199500D01*
X157952727Y-91179815D01*
X157950875Y-91178602D01*
X157819185Y-91090609D01*
X157819172Y-91090602D01*
X157673501Y-91030264D01*
X157673489Y-91030261D01*
X157518845Y-90999500D01*
X157518842Y-90999500D01*
X157361158Y-90999500D01*
X157361155Y-90999500D01*
X157206510Y-91030261D01*
X157206498Y-91030264D01*
X157060827Y-91090602D01*
X157060814Y-91090609D01*
X156929711Y-91178210D01*
X156929707Y-91178213D01*
X156818213Y-91289707D01*
X156818210Y-91289711D01*
X156730609Y-91420814D01*
X156730602Y-91420827D01*
X156670264Y-91566498D01*
X156670261Y-91566510D01*
X156639500Y-91721153D01*
X156639500Y-91878846D01*
X156670261Y-92033489D01*
X156670264Y-92033501D01*
X156730602Y-92179172D01*
X156730609Y-92179185D01*
X156818210Y-92310288D01*
X156818213Y-92310292D01*
X156929707Y-92421786D01*
X156929711Y-92421789D01*
X157060814Y-92509390D01*
X157060827Y-92509397D01*
X157206498Y-92569735D01*
X157206503Y-92569737D01*
X157361153Y-92600499D01*
X157361156Y-92600500D01*
X157361158Y-92600500D01*
X157518844Y-92600500D01*
X157518845Y-92600499D01*
X157673497Y-92569737D01*
X157819179Y-92509394D01*
X157873663Y-92472989D01*
X157950875Y-92421398D01*
X158017553Y-92400520D01*
X158019766Y-92400500D01*
X161687292Y-92400500D01*
X161754331Y-92420185D01*
X161800086Y-92472989D01*
X161810030Y-92542147D01*
X161801853Y-92571952D01*
X161750264Y-92696498D01*
X161750261Y-92696510D01*
X161719500Y-92851153D01*
X161719500Y-92965500D01*
X161699815Y-93032539D01*
X161647011Y-93078294D01*
X161595500Y-93089500D01*
X155489766Y-93089500D01*
X155422727Y-93069815D01*
X155420875Y-93068602D01*
X155289185Y-92980609D01*
X155289172Y-92980602D01*
X155143501Y-92920264D01*
X155143489Y-92920261D01*
X154988845Y-92889500D01*
X154988842Y-92889500D01*
X154831158Y-92889500D01*
X154831155Y-92889500D01*
X154676510Y-92920261D01*
X154676498Y-92920264D01*
X154530827Y-92980602D01*
X154530814Y-92980609D01*
X154399711Y-93068210D01*
X154399707Y-93068213D01*
X154288213Y-93179707D01*
X154288210Y-93179711D01*
X154200609Y-93310814D01*
X154200602Y-93310827D01*
X154140264Y-93456498D01*
X154140261Y-93456510D01*
X154109500Y-93611153D01*
X154109500Y-93768846D01*
X154127892Y-93861309D01*
X154121665Y-93930901D01*
X154078802Y-93986078D01*
X154012912Y-94009322D01*
X154006275Y-94009500D01*
X152949766Y-94009500D01*
X152882727Y-93989815D01*
X152880875Y-93988602D01*
X152749185Y-93900609D01*
X152749172Y-93900602D01*
X152603501Y-93840264D01*
X152603489Y-93840261D01*
X152448845Y-93809500D01*
X152448842Y-93809500D01*
X152291158Y-93809500D01*
X152291155Y-93809500D01*
X152136510Y-93840261D01*
X152136498Y-93840264D01*
X151990827Y-93900602D01*
X151990814Y-93900609D01*
X151859711Y-93988210D01*
X151859707Y-93988213D01*
X151748213Y-94099707D01*
X151748210Y-94099711D01*
X151660609Y-94230814D01*
X151660602Y-94230827D01*
X151600264Y-94376498D01*
X151600261Y-94376510D01*
X151569500Y-94531153D01*
X151569500Y-94688846D01*
X151600261Y-94843489D01*
X151600264Y-94843501D01*
X151660602Y-94989172D01*
X151660608Y-94989183D01*
X151685616Y-95026610D01*
X151688653Y-95036310D01*
X151695307Y-95043989D01*
X151698915Y-95069086D01*
X151706493Y-95093287D01*
X151703804Y-95103086D01*
X151705251Y-95113147D01*
X151694716Y-95136215D01*
X151688008Y-95160667D01*
X151680448Y-95167457D01*
X151676226Y-95176703D01*
X151654891Y-95190413D01*
X151636029Y-95207357D01*
X151624432Y-95209988D01*
X151617448Y-95214477D01*
X151582513Y-95219500D01*
X151419766Y-95219500D01*
X151352727Y-95199815D01*
X151350875Y-95198602D01*
X151219185Y-95110609D01*
X151219172Y-95110602D01*
X151073501Y-95050264D01*
X151073489Y-95050261D01*
X150918845Y-95019500D01*
X150918842Y-95019500D01*
X150761158Y-95019500D01*
X150761155Y-95019500D01*
X150606510Y-95050261D01*
X150606498Y-95050264D01*
X150460827Y-95110602D01*
X150460814Y-95110609D01*
X150329711Y-95198210D01*
X150329707Y-95198213D01*
X150218213Y-95309707D01*
X150218210Y-95309711D01*
X150130609Y-95440814D01*
X150130602Y-95440827D01*
X150070264Y-95586498D01*
X150070261Y-95586510D01*
X150039500Y-95741153D01*
X141800500Y-95741153D01*
X141800500Y-88002135D01*
X163749500Y-88002135D01*
X163749500Y-89797870D01*
X163749501Y-89797876D01*
X163755908Y-89857483D01*
X163806202Y-89992328D01*
X163806206Y-89992335D01*
X163892452Y-90107544D01*
X163892455Y-90107547D01*
X164007664Y-90193793D01*
X164007671Y-90193797D01*
X164142517Y-90244091D01*
X164142516Y-90244091D01*
X164149444Y-90244835D01*
X164202127Y-90250500D01*
X165997872Y-90250499D01*
X166057483Y-90244091D01*
X166192331Y-90193796D01*
X166307546Y-90107546D01*
X166393796Y-89992331D01*
X166442810Y-89860916D01*
X166484681Y-89804984D01*
X166550145Y-89780566D01*
X166618418Y-89795417D01*
X166646673Y-89816569D01*
X166760213Y-89930109D01*
X166932179Y-90055048D01*
X166932181Y-90055049D01*
X166932184Y-90055051D01*
X167121588Y-90151557D01*
X167323757Y-90217246D01*
X167533713Y-90250500D01*
X167533714Y-90250500D01*
X167746286Y-90250500D01*
X167746287Y-90250500D01*
X167956243Y-90217246D01*
X168158412Y-90151557D01*
X168347816Y-90055051D01*
X168434138Y-89992335D01*
X168519786Y-89930109D01*
X168519788Y-89930106D01*
X168519792Y-89930104D01*
X168670104Y-89779792D01*
X168670106Y-89779788D01*
X168670109Y-89779786D01*
X168795048Y-89607820D01*
X168795047Y-89607820D01*
X168795051Y-89607816D01*
X168891557Y-89418412D01*
X168957246Y-89216243D01*
X168990500Y-89006287D01*
X168990500Y-88793713D01*
X168957246Y-88583757D01*
X168891557Y-88381588D01*
X168795051Y-88192184D01*
X168795049Y-88192181D01*
X168795048Y-88192179D01*
X168670109Y-88020213D01*
X168519786Y-87869890D01*
X168347817Y-87744949D01*
X168338504Y-87740204D01*
X168287707Y-87692230D01*
X168270912Y-87624409D01*
X168293449Y-87558274D01*
X168338507Y-87519232D01*
X168347558Y-87514620D01*
X168519459Y-87389727D01*
X168519464Y-87389723D01*
X168669723Y-87239464D01*
X168669727Y-87239459D01*
X168794620Y-87067557D01*
X168891095Y-86878217D01*
X168956757Y-86676129D01*
X168956757Y-86676126D01*
X168967231Y-86610000D01*
X168073012Y-86610000D01*
X168105925Y-86552993D01*
X168140000Y-86425826D01*
X168140000Y-86294174D01*
X168105925Y-86167007D01*
X168073012Y-86110000D01*
X168967231Y-86110000D01*
X168956757Y-86043873D01*
X168956757Y-86043870D01*
X168891095Y-85841782D01*
X168794620Y-85652442D01*
X168669727Y-85480540D01*
X168669723Y-85480535D01*
X168519464Y-85330276D01*
X168519459Y-85330272D01*
X168347557Y-85205379D01*
X168158215Y-85108903D01*
X167956124Y-85043241D01*
X167890000Y-85032768D01*
X167890000Y-85926988D01*
X167832993Y-85894075D01*
X167705826Y-85860000D01*
X167574174Y-85860000D01*
X167447007Y-85894075D01*
X167390000Y-85926988D01*
X167390000Y-85032768D01*
X167389999Y-85032768D01*
X167323875Y-85043241D01*
X167121784Y-85108903D01*
X166932442Y-85205379D01*
X166760540Y-85330272D01*
X166760535Y-85330276D01*
X166610276Y-85480535D01*
X166610272Y-85480540D01*
X166485377Y-85652444D01*
X166480484Y-85662048D01*
X166432509Y-85712844D01*
X166364688Y-85729638D01*
X166298553Y-85707100D01*
X166259516Y-85662048D01*
X166254622Y-85652444D01*
X166129727Y-85480540D01*
X166129723Y-85480535D01*
X165979464Y-85330276D01*
X165979459Y-85330272D01*
X165807557Y-85205379D01*
X165618215Y-85108903D01*
X165416124Y-85043241D01*
X165350000Y-85032768D01*
X165350000Y-85926988D01*
X165292993Y-85894075D01*
X165165826Y-85860000D01*
X165034174Y-85860000D01*
X164907007Y-85894075D01*
X164850000Y-85926988D01*
X164850000Y-85032768D01*
X164849999Y-85032768D01*
X164783875Y-85043241D01*
X164581784Y-85108903D01*
X164392442Y-85205379D01*
X164220540Y-85330272D01*
X164220535Y-85330276D01*
X164070276Y-85480535D01*
X164070272Y-85480540D01*
X163945379Y-85652442D01*
X163848904Y-85841782D01*
X163783242Y-86043870D01*
X163783242Y-86043873D01*
X163772769Y-86110000D01*
X164666988Y-86110000D01*
X164634075Y-86167007D01*
X164600000Y-86294174D01*
X164600000Y-86425826D01*
X164634075Y-86552993D01*
X164666988Y-86610000D01*
X163772769Y-86610000D01*
X163783242Y-86676126D01*
X163783242Y-86676129D01*
X163848904Y-86878217D01*
X163945379Y-87067557D01*
X164070272Y-87239459D01*
X164070276Y-87239464D01*
X164183946Y-87353134D01*
X164217431Y-87414457D01*
X164212447Y-87484149D01*
X164170575Y-87540082D01*
X164139598Y-87556997D01*
X164007671Y-87606202D01*
X164007664Y-87606206D01*
X163892455Y-87692452D01*
X163892452Y-87692455D01*
X163806206Y-87807664D01*
X163806202Y-87807671D01*
X163755908Y-87942517D01*
X163749501Y-88002116D01*
X163749500Y-88002135D01*
X141800500Y-88002135D01*
X141800500Y-81366383D01*
X148579500Y-81366383D01*
X148579500Y-81966401D01*
X148579501Y-81966419D01*
X148590000Y-82069196D01*
X148590001Y-82069199D01*
X148645185Y-82235731D01*
X148645187Y-82235736D01*
X148680069Y-82292288D01*
X148737288Y-82385056D01*
X148861344Y-82509112D01*
X149010666Y-82601214D01*
X149177203Y-82656399D01*
X149279991Y-82666900D01*
X150380008Y-82666899D01*
X150380016Y-82666898D01*
X150380019Y-82666898D01*
X150436302Y-82661148D01*
X150482797Y-82656399D01*
X150649334Y-82601214D01*
X150798656Y-82509112D01*
X150922712Y-82385056D01*
X150994461Y-82268730D01*
X151046409Y-82222006D01*
X151115371Y-82210783D01*
X151179453Y-82238626D01*
X151205539Y-82268731D01*
X151277095Y-82384744D01*
X151277288Y-82385056D01*
X151401344Y-82509112D01*
X151550666Y-82601214D01*
X151717203Y-82656399D01*
X151819991Y-82666900D01*
X152920008Y-82666899D01*
X152920016Y-82666898D01*
X152920019Y-82666898D01*
X152976302Y-82661148D01*
X153022797Y-82656399D01*
X153189334Y-82601214D01*
X153338656Y-82509112D01*
X153462712Y-82385056D01*
X153534461Y-82268730D01*
X153586409Y-82222006D01*
X153655371Y-82210783D01*
X153719453Y-82238626D01*
X153745539Y-82268731D01*
X153817095Y-82384744D01*
X153817288Y-82385056D01*
X153941344Y-82509112D01*
X154090666Y-82601214D01*
X154257203Y-82656399D01*
X154359991Y-82666900D01*
X155460008Y-82666899D01*
X155460016Y-82666898D01*
X155460019Y-82666898D01*
X155516302Y-82661148D01*
X155562797Y-82656399D01*
X155729334Y-82601214D01*
X155878656Y-82509112D01*
X156002712Y-82385056D01*
X156074461Y-82268730D01*
X156126409Y-82222006D01*
X156195371Y-82210783D01*
X156259453Y-82238626D01*
X156285539Y-82268731D01*
X156357095Y-82384744D01*
X156357288Y-82385056D01*
X156481344Y-82509112D01*
X156630666Y-82601214D01*
X156797203Y-82656399D01*
X156899991Y-82666900D01*
X158000008Y-82666899D01*
X158000016Y-82666898D01*
X158000019Y-82666898D01*
X158056302Y-82661148D01*
X158102797Y-82656399D01*
X158269334Y-82601214D01*
X158418656Y-82509112D01*
X158542712Y-82385056D01*
X158614461Y-82268730D01*
X158666409Y-82222006D01*
X158735371Y-82210783D01*
X158799453Y-82238626D01*
X158825539Y-82268731D01*
X158897095Y-82384744D01*
X158897288Y-82385056D01*
X159021344Y-82509112D01*
X159170666Y-82601214D01*
X159337203Y-82656399D01*
X159439991Y-82666900D01*
X160540008Y-82666899D01*
X160540016Y-82666898D01*
X160540019Y-82666898D01*
X160596302Y-82661148D01*
X160642797Y-82656399D01*
X160809334Y-82601214D01*
X160958656Y-82509112D01*
X161082712Y-82385056D01*
X161154461Y-82268730D01*
X161206409Y-82222006D01*
X161275371Y-82210783D01*
X161339453Y-82238626D01*
X161365539Y-82268731D01*
X161437095Y-82384744D01*
X161437288Y-82385056D01*
X161561344Y-82509112D01*
X161710666Y-82601214D01*
X161877203Y-82656399D01*
X161979991Y-82666900D01*
X163080008Y-82666899D01*
X163080016Y-82666898D01*
X163080019Y-82666898D01*
X163136302Y-82661148D01*
X163182797Y-82656399D01*
X163349334Y-82601214D01*
X163498656Y-82509112D01*
X163622712Y-82385056D01*
X163714814Y-82235734D01*
X163769999Y-82069197D01*
X163780500Y-81966409D01*
X163780499Y-81366392D01*
X163780498Y-81366383D01*
X166359500Y-81366383D01*
X166359500Y-81966401D01*
X166359501Y-81966419D01*
X166370000Y-82069196D01*
X166370001Y-82069199D01*
X166425185Y-82235731D01*
X166425187Y-82235736D01*
X166460069Y-82292288D01*
X166517288Y-82385056D01*
X166641344Y-82509112D01*
X166790666Y-82601214D01*
X166957203Y-82656399D01*
X167059991Y-82666900D01*
X168160008Y-82666899D01*
X168160016Y-82666898D01*
X168160019Y-82666898D01*
X168216302Y-82661148D01*
X168262797Y-82656399D01*
X168429334Y-82601214D01*
X168578656Y-82509112D01*
X168702712Y-82385056D01*
X168774754Y-82268255D01*
X168826702Y-82221531D01*
X168895664Y-82210308D01*
X168959746Y-82238151D01*
X168985831Y-82268255D01*
X169057680Y-82384740D01*
X169057683Y-82384744D01*
X169181654Y-82508715D01*
X169330875Y-82600756D01*
X169330880Y-82600758D01*
X169497302Y-82655905D01*
X169497309Y-82655906D01*
X169600019Y-82666399D01*
X169899999Y-82666399D01*
X170400000Y-82666399D01*
X170699972Y-82666399D01*
X170699986Y-82666398D01*
X170802697Y-82655905D01*
X170969119Y-82600758D01*
X170969124Y-82600756D01*
X171118345Y-82508715D01*
X171242315Y-82384745D01*
X171314461Y-82267779D01*
X171366409Y-82221055D01*
X171435372Y-82209832D01*
X171499454Y-82237676D01*
X171525539Y-82267779D01*
X171597684Y-82384745D01*
X171721654Y-82508715D01*
X171870875Y-82600756D01*
X171870880Y-82600758D01*
X172037302Y-82655905D01*
X172037309Y-82655906D01*
X172140019Y-82666399D01*
X172439999Y-82666399D01*
X172440000Y-82666398D01*
X172440000Y-81916400D01*
X170400000Y-81916400D01*
X170400000Y-82666399D01*
X169899999Y-82666399D01*
X169900000Y-82666398D01*
X169900000Y-81716128D01*
X169938060Y-81808014D01*
X170008386Y-81878340D01*
X170100272Y-81916400D01*
X170199728Y-81916400D01*
X170291614Y-81878340D01*
X170361940Y-81808014D01*
X170400000Y-81716128D01*
X170400000Y-81616672D01*
X172440000Y-81616672D01*
X172440000Y-81716128D01*
X172478060Y-81808014D01*
X172548386Y-81878340D01*
X172640272Y-81916400D01*
X172739728Y-81916400D01*
X172831614Y-81878340D01*
X172901940Y-81808014D01*
X172940000Y-81716128D01*
X172940000Y-82666399D01*
X173239972Y-82666399D01*
X173239986Y-82666398D01*
X173342697Y-82655905D01*
X173509119Y-82600758D01*
X173509124Y-82600756D01*
X173658345Y-82508715D01*
X173782317Y-82384743D01*
X173854167Y-82268256D01*
X173906115Y-82221531D01*
X173975077Y-82210308D01*
X174039160Y-82238152D01*
X174065244Y-82268254D01*
X174137288Y-82385056D01*
X174261344Y-82509112D01*
X174410666Y-82601214D01*
X174577203Y-82656399D01*
X174679991Y-82666900D01*
X175780008Y-82666899D01*
X175780016Y-82666898D01*
X175780019Y-82666898D01*
X175836302Y-82661148D01*
X175882797Y-82656399D01*
X176049334Y-82601214D01*
X176198656Y-82509112D01*
X176322712Y-82385056D01*
X176394461Y-82268730D01*
X176446409Y-82222006D01*
X176515371Y-82210783D01*
X176579453Y-82238626D01*
X176605539Y-82268731D01*
X176677095Y-82384744D01*
X176677288Y-82385056D01*
X176801344Y-82509112D01*
X176950666Y-82601214D01*
X177117203Y-82656399D01*
X177219991Y-82666900D01*
X178320008Y-82666899D01*
X178320016Y-82666898D01*
X178320019Y-82666898D01*
X178376302Y-82661148D01*
X178422797Y-82656399D01*
X178589334Y-82601214D01*
X178738656Y-82509112D01*
X178862712Y-82385056D01*
X178934461Y-82268730D01*
X178986409Y-82222006D01*
X179055371Y-82210783D01*
X179119453Y-82238626D01*
X179145539Y-82268731D01*
X179217095Y-82384744D01*
X179217288Y-82385056D01*
X179341344Y-82509112D01*
X179490666Y-82601214D01*
X179657203Y-82656399D01*
X179759991Y-82666900D01*
X180860008Y-82666899D01*
X180860016Y-82666898D01*
X180860019Y-82666898D01*
X180916302Y-82661148D01*
X180962797Y-82656399D01*
X181129334Y-82601214D01*
X181278656Y-82509112D01*
X181402712Y-82385056D01*
X181474461Y-82268730D01*
X181526409Y-82222006D01*
X181595371Y-82210783D01*
X181659453Y-82238626D01*
X181685539Y-82268731D01*
X181757095Y-82384744D01*
X181757288Y-82385056D01*
X181881344Y-82509112D01*
X182030666Y-82601214D01*
X182197203Y-82656399D01*
X182299991Y-82666900D01*
X183400008Y-82666899D01*
X183400016Y-82666898D01*
X183400019Y-82666898D01*
X183456302Y-82661148D01*
X183502797Y-82656399D01*
X183669334Y-82601214D01*
X183818656Y-82509112D01*
X183942712Y-82385056D01*
X184014461Y-82268730D01*
X184066409Y-82222006D01*
X184135371Y-82210783D01*
X184199453Y-82238626D01*
X184225539Y-82268731D01*
X184297095Y-82384744D01*
X184297288Y-82385056D01*
X184421344Y-82509112D01*
X184570666Y-82601214D01*
X184737203Y-82656399D01*
X184839991Y-82666900D01*
X185940008Y-82666899D01*
X185940016Y-82666898D01*
X185940019Y-82666898D01*
X185996302Y-82661148D01*
X186042797Y-82656399D01*
X186209334Y-82601214D01*
X186358656Y-82509112D01*
X186482712Y-82385056D01*
X186574814Y-82235734D01*
X186629999Y-82069197D01*
X186640500Y-81966409D01*
X186640499Y-81366392D01*
X186629999Y-81263603D01*
X186574814Y-81097066D01*
X186482712Y-80947744D01*
X186358656Y-80823688D01*
X186209334Y-80731586D01*
X186042797Y-80676401D01*
X186042795Y-80676400D01*
X185940010Y-80665900D01*
X184839998Y-80665900D01*
X184839980Y-80665901D01*
X184737203Y-80676400D01*
X184737200Y-80676401D01*
X184570668Y-80731585D01*
X184570663Y-80731587D01*
X184421342Y-80823689D01*
X184297289Y-80947742D01*
X184225539Y-81064069D01*
X184173591Y-81110793D01*
X184104628Y-81122016D01*
X184040546Y-81094172D01*
X184014461Y-81064069D01*
X183942906Y-80948059D01*
X183942712Y-80947744D01*
X183818656Y-80823688D01*
X183669334Y-80731586D01*
X183502797Y-80676401D01*
X183502795Y-80676400D01*
X183400010Y-80665900D01*
X182299998Y-80665900D01*
X182299980Y-80665901D01*
X182197203Y-80676400D01*
X182197200Y-80676401D01*
X182030668Y-80731585D01*
X182030663Y-80731587D01*
X181881342Y-80823689D01*
X181757289Y-80947742D01*
X181685539Y-81064069D01*
X181633591Y-81110793D01*
X181564628Y-81122016D01*
X181500546Y-81094172D01*
X181474461Y-81064069D01*
X181402906Y-80948059D01*
X181402712Y-80947744D01*
X181278656Y-80823688D01*
X181129334Y-80731586D01*
X180962797Y-80676401D01*
X180962795Y-80676400D01*
X180860010Y-80665900D01*
X179759998Y-80665900D01*
X179759980Y-80665901D01*
X179657203Y-80676400D01*
X179657200Y-80676401D01*
X179490668Y-80731585D01*
X179490663Y-80731587D01*
X179341342Y-80823689D01*
X179217289Y-80947742D01*
X179145539Y-81064069D01*
X179093591Y-81110793D01*
X179024628Y-81122016D01*
X178960546Y-81094172D01*
X178934461Y-81064069D01*
X178862906Y-80948059D01*
X178862712Y-80947744D01*
X178738656Y-80823688D01*
X178589334Y-80731586D01*
X178422797Y-80676401D01*
X178422795Y-80676400D01*
X178320010Y-80665900D01*
X177219998Y-80665900D01*
X177219980Y-80665901D01*
X177117203Y-80676400D01*
X177117200Y-80676401D01*
X176950668Y-80731585D01*
X176950663Y-80731587D01*
X176801342Y-80823689D01*
X176677289Y-80947742D01*
X176605539Y-81064069D01*
X176553591Y-81110793D01*
X176484628Y-81122016D01*
X176420546Y-81094172D01*
X176394461Y-81064069D01*
X176322906Y-80948059D01*
X176322712Y-80947744D01*
X176198656Y-80823688D01*
X176049334Y-80731586D01*
X175882797Y-80676401D01*
X175882795Y-80676400D01*
X175780010Y-80665900D01*
X174679998Y-80665900D01*
X174679980Y-80665901D01*
X174577203Y-80676400D01*
X174577200Y-80676401D01*
X174410668Y-80731585D01*
X174410663Y-80731587D01*
X174261342Y-80823689D01*
X174137288Y-80947743D01*
X174137285Y-80947747D01*
X174065244Y-81064544D01*
X174013296Y-81111269D01*
X173944334Y-81122490D01*
X173880252Y-81094647D01*
X173854167Y-81064544D01*
X173782315Y-80948054D01*
X173658345Y-80824084D01*
X173509124Y-80732043D01*
X173509119Y-80732041D01*
X173342697Y-80676894D01*
X173342690Y-80676893D01*
X173239986Y-80666400D01*
X172940000Y-80666400D01*
X172940000Y-81616672D01*
X172901940Y-81524786D01*
X172831614Y-81454460D01*
X172739728Y-81416400D01*
X172640272Y-81416400D01*
X172548386Y-81454460D01*
X172478060Y-81524786D01*
X172440000Y-81616672D01*
X170400000Y-81616672D01*
X170361940Y-81524786D01*
X170291614Y-81454460D01*
X170199728Y-81416400D01*
X170400000Y-81416400D01*
X172440000Y-81416400D01*
X172440000Y-80666400D01*
X172140028Y-80666400D01*
X172140012Y-80666401D01*
X172037302Y-80676894D01*
X171870880Y-80732041D01*
X171870875Y-80732043D01*
X171721654Y-80824084D01*
X171597683Y-80948055D01*
X171597680Y-80948059D01*
X171525538Y-81065020D01*
X171473590Y-81111745D01*
X171404628Y-81122966D01*
X171340546Y-81095123D01*
X171314462Y-81065020D01*
X171242319Y-80948059D01*
X171242316Y-80948055D01*
X171118345Y-80824084D01*
X170969124Y-80732043D01*
X170969119Y-80732041D01*
X170802697Y-80676894D01*
X170802690Y-80676893D01*
X170699986Y-80666400D01*
X170400000Y-80666400D01*
X170400000Y-81416400D01*
X170199728Y-81416400D01*
X170100272Y-81416400D01*
X170008386Y-81454460D01*
X169938060Y-81524786D01*
X169900000Y-81616672D01*
X169900000Y-80666400D01*
X169600028Y-80666400D01*
X169600012Y-80666401D01*
X169497302Y-80676894D01*
X169330880Y-80732041D01*
X169330875Y-80732043D01*
X169181654Y-80824084D01*
X169057683Y-80948055D01*
X169057680Y-80948059D01*
X168985831Y-81064544D01*
X168933883Y-81111269D01*
X168864920Y-81122490D01*
X168800838Y-81094647D01*
X168774754Y-81064544D01*
X168702906Y-80948059D01*
X168702712Y-80947744D01*
X168578656Y-80823688D01*
X168429334Y-80731586D01*
X168262797Y-80676401D01*
X168262795Y-80676400D01*
X168160010Y-80665900D01*
X167059998Y-80665900D01*
X167059980Y-80665901D01*
X166957203Y-80676400D01*
X166957200Y-80676401D01*
X166790668Y-80731585D01*
X166790663Y-80731587D01*
X166641342Y-80823689D01*
X166517289Y-80947742D01*
X166425187Y-81097063D01*
X166425185Y-81097068D01*
X166397349Y-81181070D01*
X166370001Y-81263603D01*
X166370001Y-81263604D01*
X166370000Y-81263604D01*
X166359500Y-81366383D01*
X163780498Y-81366383D01*
X163769999Y-81263603D01*
X163714814Y-81097066D01*
X163622712Y-80947744D01*
X163498656Y-80823688D01*
X163349334Y-80731586D01*
X163182797Y-80676401D01*
X163182795Y-80676400D01*
X163080010Y-80665900D01*
X161979998Y-80665900D01*
X161979980Y-80665901D01*
X161877203Y-80676400D01*
X161877200Y-80676401D01*
X161710668Y-80731585D01*
X161710663Y-80731587D01*
X161561342Y-80823689D01*
X161437289Y-80947742D01*
X161365539Y-81064069D01*
X161313591Y-81110793D01*
X161244628Y-81122016D01*
X161180546Y-81094172D01*
X161154461Y-81064069D01*
X161082906Y-80948059D01*
X161082712Y-80947744D01*
X160958656Y-80823688D01*
X160809334Y-80731586D01*
X160642797Y-80676401D01*
X160642795Y-80676400D01*
X160540010Y-80665900D01*
X159439998Y-80665900D01*
X159439980Y-80665901D01*
X159337203Y-80676400D01*
X159337200Y-80676401D01*
X159170668Y-80731585D01*
X159170663Y-80731587D01*
X159021342Y-80823689D01*
X158897289Y-80947742D01*
X158825539Y-81064069D01*
X158773591Y-81110793D01*
X158704628Y-81122016D01*
X158640546Y-81094172D01*
X158614461Y-81064069D01*
X158542906Y-80948059D01*
X158542712Y-80947744D01*
X158418656Y-80823688D01*
X158269334Y-80731586D01*
X158102797Y-80676401D01*
X158102795Y-80676400D01*
X158000010Y-80665900D01*
X156899998Y-80665900D01*
X156899980Y-80665901D01*
X156797203Y-80676400D01*
X156797200Y-80676401D01*
X156630668Y-80731585D01*
X156630663Y-80731587D01*
X156481342Y-80823689D01*
X156357289Y-80947742D01*
X156285539Y-81064069D01*
X156233591Y-81110793D01*
X156164628Y-81122016D01*
X156100546Y-81094172D01*
X156074461Y-81064069D01*
X156002906Y-80948059D01*
X156002712Y-80947744D01*
X155878656Y-80823688D01*
X155729334Y-80731586D01*
X155562797Y-80676401D01*
X155562795Y-80676400D01*
X155460010Y-80665900D01*
X154359998Y-80665900D01*
X154359980Y-80665901D01*
X154257203Y-80676400D01*
X154257200Y-80676401D01*
X154090668Y-80731585D01*
X154090663Y-80731587D01*
X153941342Y-80823689D01*
X153817289Y-80947742D01*
X153745539Y-81064069D01*
X153693591Y-81110793D01*
X153624628Y-81122016D01*
X153560546Y-81094172D01*
X153534461Y-81064069D01*
X153462906Y-80948059D01*
X153462712Y-80947744D01*
X153338656Y-80823688D01*
X153189334Y-80731586D01*
X153022797Y-80676401D01*
X153022795Y-80676400D01*
X152920010Y-80665900D01*
X151819998Y-80665900D01*
X151819980Y-80665901D01*
X151717203Y-80676400D01*
X151717200Y-80676401D01*
X151550668Y-80731585D01*
X151550663Y-80731587D01*
X151401342Y-80823689D01*
X151277289Y-80947742D01*
X151205539Y-81064069D01*
X151153591Y-81110793D01*
X151084628Y-81122016D01*
X151020546Y-81094172D01*
X150994461Y-81064069D01*
X150922906Y-80948059D01*
X150922712Y-80947744D01*
X150798656Y-80823688D01*
X150649334Y-80731586D01*
X150482797Y-80676401D01*
X150482795Y-80676400D01*
X150380010Y-80665900D01*
X149279998Y-80665900D01*
X149279980Y-80665901D01*
X149177203Y-80676400D01*
X149177200Y-80676401D01*
X149010668Y-80731585D01*
X149010663Y-80731587D01*
X148861342Y-80823689D01*
X148737289Y-80947742D01*
X148645187Y-81097063D01*
X148645185Y-81097068D01*
X148617349Y-81181070D01*
X148590001Y-81263603D01*
X148590001Y-81263604D01*
X148590000Y-81263604D01*
X148579500Y-81366383D01*
X141800500Y-81366383D01*
X141800500Y-80502706D01*
X141800618Y-80497297D01*
X141803377Y-80434108D01*
X141817386Y-80113226D01*
X141818326Y-80102495D01*
X141868152Y-79724025D01*
X141870025Y-79713405D01*
X141952649Y-79340709D01*
X141955440Y-79330295D01*
X142070230Y-78966227D01*
X142073917Y-78956095D01*
X142216179Y-78612643D01*
X148465900Y-78612643D01*
X148465900Y-78827356D01*
X148499489Y-79039428D01*
X148565837Y-79243630D01*
X148565838Y-79243633D01*
X148649652Y-79408125D01*
X148663317Y-79434944D01*
X148789523Y-79608651D01*
X148941349Y-79760477D01*
X149115056Y-79886683D01*
X149208888Y-79934492D01*
X149306366Y-79984161D01*
X149306369Y-79984162D01*
X149408470Y-80017336D01*
X149510573Y-80050511D01*
X149722643Y-80084100D01*
X149722644Y-80084100D01*
X149937356Y-80084100D01*
X149937357Y-80084100D01*
X150149427Y-80050511D01*
X150353633Y-79984161D01*
X150544944Y-79886683D01*
X150718651Y-79760477D01*
X150870477Y-79608651D01*
X150996683Y-79434944D01*
X150996683Y-79434943D01*
X150999547Y-79431002D01*
X151001478Y-79432405D01*
X151045927Y-79392078D01*
X151114840Y-79380558D01*
X151179042Y-79408125D01*
X151199478Y-79431709D01*
X151200453Y-79431002D01*
X151203316Y-79434943D01*
X151203317Y-79434944D01*
X151329523Y-79608651D01*
X151481349Y-79760477D01*
X151655056Y-79886683D01*
X151748888Y-79934492D01*
X151846366Y-79984161D01*
X151846369Y-79984162D01*
X151948470Y-80017336D01*
X152050573Y-80050511D01*
X152262643Y-80084100D01*
X152262644Y-80084100D01*
X152477356Y-80084100D01*
X152477357Y-80084100D01*
X152689427Y-80050511D01*
X152893633Y-79984161D01*
X153084944Y-79886683D01*
X153258651Y-79760477D01*
X153410477Y-79608651D01*
X153536683Y-79434944D01*
X153536683Y-79434943D01*
X153539547Y-79431002D01*
X153541478Y-79432405D01*
X153585927Y-79392078D01*
X153654840Y-79380558D01*
X153719042Y-79408125D01*
X153739478Y-79431709D01*
X153740453Y-79431002D01*
X153743316Y-79434943D01*
X153743317Y-79434944D01*
X153869523Y-79608651D01*
X154021349Y-79760477D01*
X154195056Y-79886683D01*
X154288888Y-79934492D01*
X154386366Y-79984161D01*
X154386369Y-79984162D01*
X154488470Y-80017336D01*
X154590573Y-80050511D01*
X154802643Y-80084100D01*
X154802644Y-80084100D01*
X155017356Y-80084100D01*
X155017357Y-80084100D01*
X155229427Y-80050511D01*
X155433633Y-79984161D01*
X155624944Y-79886683D01*
X155798651Y-79760477D01*
X155950477Y-79608651D01*
X156076683Y-79434944D01*
X156076683Y-79434943D01*
X156079547Y-79431002D01*
X156081478Y-79432405D01*
X156125927Y-79392078D01*
X156194840Y-79380558D01*
X156259042Y-79408125D01*
X156279478Y-79431709D01*
X156280453Y-79431002D01*
X156283316Y-79434943D01*
X156283317Y-79434944D01*
X156409523Y-79608651D01*
X156561349Y-79760477D01*
X156735056Y-79886683D01*
X156828888Y-79934492D01*
X156926366Y-79984161D01*
X156926369Y-79984162D01*
X157028470Y-80017336D01*
X157130573Y-80050511D01*
X157342643Y-80084100D01*
X157342644Y-80084100D01*
X157557356Y-80084100D01*
X157557357Y-80084100D01*
X157769427Y-80050511D01*
X157973633Y-79984161D01*
X158164944Y-79886683D01*
X158338651Y-79760477D01*
X158490477Y-79608651D01*
X158616683Y-79434944D01*
X158616683Y-79434943D01*
X158619547Y-79431002D01*
X158621478Y-79432405D01*
X158665927Y-79392078D01*
X158734840Y-79380558D01*
X158799042Y-79408125D01*
X158819478Y-79431709D01*
X158820453Y-79431002D01*
X158823316Y-79434943D01*
X158823317Y-79434944D01*
X158949523Y-79608651D01*
X159101349Y-79760477D01*
X159275056Y-79886683D01*
X159368888Y-79934492D01*
X159466366Y-79984161D01*
X159466369Y-79984162D01*
X159568470Y-80017336D01*
X159670573Y-80050511D01*
X159882643Y-80084100D01*
X159882644Y-80084100D01*
X160097356Y-80084100D01*
X160097357Y-80084100D01*
X160309427Y-80050511D01*
X160513633Y-79984161D01*
X160704944Y-79886683D01*
X160878651Y-79760477D01*
X161030477Y-79608651D01*
X161156683Y-79434944D01*
X161156683Y-79434943D01*
X161159547Y-79431002D01*
X161161478Y-79432405D01*
X161205927Y-79392078D01*
X161274840Y-79380558D01*
X161339042Y-79408125D01*
X161359478Y-79431709D01*
X161360453Y-79431002D01*
X161363316Y-79434943D01*
X161363317Y-79434944D01*
X161489523Y-79608651D01*
X161641349Y-79760477D01*
X161815056Y-79886683D01*
X161908888Y-79934492D01*
X162006366Y-79984161D01*
X162006369Y-79984162D01*
X162108470Y-80017336D01*
X162210573Y-80050511D01*
X162422643Y-80084100D01*
X162422644Y-80084100D01*
X162637356Y-80084100D01*
X162637357Y-80084100D01*
X162849427Y-80050511D01*
X163053633Y-79984161D01*
X163244944Y-79886683D01*
X163418651Y-79760477D01*
X163570477Y-79608651D01*
X163696683Y-79434944D01*
X163794161Y-79243633D01*
X163860511Y-79039427D01*
X163894100Y-78827357D01*
X163894100Y-78612643D01*
X166245900Y-78612643D01*
X166245900Y-78827356D01*
X166279489Y-79039428D01*
X166345837Y-79243630D01*
X166345838Y-79243633D01*
X166429652Y-79408125D01*
X166443317Y-79434944D01*
X166569523Y-79608651D01*
X166721349Y-79760477D01*
X166895056Y-79886683D01*
X166988888Y-79934492D01*
X167086366Y-79984161D01*
X167086369Y-79984162D01*
X167188470Y-80017336D01*
X167290573Y-80050511D01*
X167502643Y-80084100D01*
X167502644Y-80084100D01*
X167717356Y-80084100D01*
X167717357Y-80084100D01*
X167929427Y-80050511D01*
X168133633Y-79984161D01*
X168324944Y-79886683D01*
X168498651Y-79760477D01*
X168595342Y-79663785D01*
X168656661Y-79630303D01*
X168726353Y-79635287D01*
X168782287Y-79677158D01*
X168799202Y-79708136D01*
X168843045Y-79825686D01*
X168843049Y-79825693D01*
X168929209Y-79940787D01*
X168929212Y-79940790D01*
X169044306Y-80026950D01*
X169044313Y-80026954D01*
X169179020Y-80077196D01*
X169179027Y-80077198D01*
X169238555Y-80083599D01*
X169238572Y-80083600D01*
X169900000Y-80083600D01*
X169900000Y-79162251D01*
X169953919Y-79193381D01*
X170083120Y-79228000D01*
X170216880Y-79228000D01*
X170346081Y-79193381D01*
X170400000Y-79162251D01*
X170400000Y-80083600D01*
X171061428Y-80083600D01*
X171061444Y-80083599D01*
X171120972Y-80077198D01*
X171120979Y-80077196D01*
X171255686Y-80026954D01*
X171255689Y-80026952D01*
X171345688Y-79959579D01*
X171411152Y-79935161D01*
X171479426Y-79950012D01*
X171494312Y-79959579D01*
X171584310Y-80026952D01*
X171584313Y-80026954D01*
X171719020Y-80077196D01*
X171719027Y-80077198D01*
X171778555Y-80083599D01*
X171778572Y-80083600D01*
X172440000Y-80083600D01*
X172440000Y-79162251D01*
X172493919Y-79193381D01*
X172623120Y-79228000D01*
X172756880Y-79228000D01*
X172886081Y-79193381D01*
X172940000Y-79162251D01*
X172940000Y-80083600D01*
X173601428Y-80083600D01*
X173601444Y-80083599D01*
X173660972Y-80077198D01*
X173660979Y-80077196D01*
X173795686Y-80026954D01*
X173795693Y-80026950D01*
X173910787Y-79940790D01*
X173910790Y-79940787D01*
X173996950Y-79825693D01*
X173996955Y-79825684D01*
X174040797Y-79708137D01*
X174082668Y-79652203D01*
X174148132Y-79627785D01*
X174216405Y-79642636D01*
X174244660Y-79663788D01*
X174341349Y-79760477D01*
X174515056Y-79886683D01*
X174608888Y-79934492D01*
X174706366Y-79984161D01*
X174706369Y-79984162D01*
X174808470Y-80017336D01*
X174910573Y-80050511D01*
X175122643Y-80084100D01*
X175122644Y-80084100D01*
X175337356Y-80084100D01*
X175337357Y-80084100D01*
X175549427Y-80050511D01*
X175753633Y-79984161D01*
X175944944Y-79886683D01*
X176118651Y-79760477D01*
X176270477Y-79608651D01*
X176396683Y-79434944D01*
X176396683Y-79434943D01*
X176399547Y-79431002D01*
X176401478Y-79432405D01*
X176445927Y-79392078D01*
X176514840Y-79380558D01*
X176579042Y-79408125D01*
X176599478Y-79431709D01*
X176600453Y-79431002D01*
X176603316Y-79434943D01*
X176603317Y-79434944D01*
X176729523Y-79608651D01*
X176881349Y-79760477D01*
X177055056Y-79886683D01*
X177148888Y-79934492D01*
X177246366Y-79984161D01*
X177246369Y-79984162D01*
X177348470Y-80017336D01*
X177450573Y-80050511D01*
X177662643Y-80084100D01*
X177662644Y-80084100D01*
X177877356Y-80084100D01*
X177877357Y-80084100D01*
X178089427Y-80050511D01*
X178293633Y-79984161D01*
X178484944Y-79886683D01*
X178658651Y-79760477D01*
X178810477Y-79608651D01*
X178936683Y-79434944D01*
X178936683Y-79434943D01*
X178939547Y-79431002D01*
X178941478Y-79432405D01*
X178985927Y-79392078D01*
X179054840Y-79380558D01*
X179119042Y-79408125D01*
X179139478Y-79431709D01*
X179140453Y-79431002D01*
X179143316Y-79434943D01*
X179143317Y-79434944D01*
X179269523Y-79608651D01*
X179421349Y-79760477D01*
X179595056Y-79886683D01*
X179688888Y-79934492D01*
X179786366Y-79984161D01*
X179786369Y-79984162D01*
X179888470Y-80017336D01*
X179990573Y-80050511D01*
X180202643Y-80084100D01*
X180202644Y-80084100D01*
X180417356Y-80084100D01*
X180417357Y-80084100D01*
X180629427Y-80050511D01*
X180833633Y-79984161D01*
X181024944Y-79886683D01*
X181198651Y-79760477D01*
X181350477Y-79608651D01*
X181476683Y-79434944D01*
X181476683Y-79434943D01*
X181479547Y-79431002D01*
X181481478Y-79432405D01*
X181525927Y-79392078D01*
X181594840Y-79380558D01*
X181659042Y-79408125D01*
X181679478Y-79431709D01*
X181680453Y-79431002D01*
X181683316Y-79434943D01*
X181683317Y-79434944D01*
X181809523Y-79608651D01*
X181961349Y-79760477D01*
X182135056Y-79886683D01*
X182228888Y-79934492D01*
X182326366Y-79984161D01*
X182326369Y-79984162D01*
X182428470Y-80017336D01*
X182530573Y-80050511D01*
X182742643Y-80084100D01*
X182742644Y-80084100D01*
X182957356Y-80084100D01*
X182957357Y-80084100D01*
X183169427Y-80050511D01*
X183373633Y-79984161D01*
X183564944Y-79886683D01*
X183738651Y-79760477D01*
X183890477Y-79608651D01*
X184016683Y-79434944D01*
X184016683Y-79434943D01*
X184019547Y-79431002D01*
X184021478Y-79432405D01*
X184065927Y-79392078D01*
X184134840Y-79380558D01*
X184199042Y-79408125D01*
X184219478Y-79431709D01*
X184220453Y-79431002D01*
X184223316Y-79434943D01*
X184223317Y-79434944D01*
X184349523Y-79608651D01*
X184501349Y-79760477D01*
X184675056Y-79886683D01*
X184768888Y-79934492D01*
X184866366Y-79984161D01*
X184866369Y-79984162D01*
X184968470Y-80017336D01*
X185070573Y-80050511D01*
X185282643Y-80084100D01*
X185282644Y-80084100D01*
X185497356Y-80084100D01*
X185497357Y-80084100D01*
X185709427Y-80050511D01*
X185913633Y-79984161D01*
X186104944Y-79886683D01*
X186278651Y-79760477D01*
X186430477Y-79608651D01*
X186556683Y-79434944D01*
X186654161Y-79243633D01*
X186720511Y-79039427D01*
X186754100Y-78827357D01*
X186754100Y-78612643D01*
X186720511Y-78400573D01*
X186687336Y-78298470D01*
X186654162Y-78196369D01*
X186654161Y-78196366D01*
X186570266Y-78031715D01*
X186556683Y-78005056D01*
X186430477Y-77831349D01*
X186278651Y-77679523D01*
X186104944Y-77553317D01*
X185913633Y-77455838D01*
X185913630Y-77455837D01*
X185709428Y-77389489D01*
X185540940Y-77362803D01*
X185497357Y-77355900D01*
X185282643Y-77355900D01*
X185239060Y-77362803D01*
X185070571Y-77389489D01*
X184866369Y-77455837D01*
X184866366Y-77455838D01*
X184675055Y-77553317D01*
X184575949Y-77625322D01*
X184501349Y-77679523D01*
X184501347Y-77679525D01*
X184501346Y-77679525D01*
X184349525Y-77831346D01*
X184349525Y-77831347D01*
X184349523Y-77831349D01*
X184282386Y-77923755D01*
X184220453Y-78008998D01*
X184218562Y-78007624D01*
X184173848Y-78048030D01*
X184104911Y-78059411D01*
X184040765Y-78031715D01*
X184020488Y-78008314D01*
X184019547Y-78008998D01*
X184016682Y-78005055D01*
X183890477Y-77831349D01*
X183738651Y-77679523D01*
X183564944Y-77553317D01*
X183373633Y-77455838D01*
X183373630Y-77455837D01*
X183169428Y-77389489D01*
X183000940Y-77362803D01*
X182957357Y-77355900D01*
X182742643Y-77355900D01*
X182699060Y-77362803D01*
X182530571Y-77389489D01*
X182326369Y-77455837D01*
X182326366Y-77455838D01*
X182135055Y-77553317D01*
X182035949Y-77625322D01*
X181961349Y-77679523D01*
X181961347Y-77679525D01*
X181961346Y-77679525D01*
X181809525Y-77831346D01*
X181809525Y-77831347D01*
X181809523Y-77831349D01*
X181742386Y-77923755D01*
X181680453Y-78008998D01*
X181678562Y-78007624D01*
X181633848Y-78048030D01*
X181564911Y-78059411D01*
X181500765Y-78031715D01*
X181480488Y-78008314D01*
X181479547Y-78008998D01*
X181476682Y-78005055D01*
X181350477Y-77831349D01*
X181198651Y-77679523D01*
X181024944Y-77553317D01*
X180833633Y-77455838D01*
X180833630Y-77455837D01*
X180629428Y-77389489D01*
X180460940Y-77362803D01*
X180417357Y-77355900D01*
X180202643Y-77355900D01*
X180159060Y-77362803D01*
X179990571Y-77389489D01*
X179786369Y-77455837D01*
X179786366Y-77455838D01*
X179595055Y-77553317D01*
X179495949Y-77625322D01*
X179421349Y-77679523D01*
X179421347Y-77679525D01*
X179421346Y-77679525D01*
X179269525Y-77831346D01*
X179269525Y-77831347D01*
X179269523Y-77831349D01*
X179202386Y-77923755D01*
X179140453Y-78008998D01*
X179138562Y-78007624D01*
X179093848Y-78048030D01*
X179024911Y-78059411D01*
X178960765Y-78031715D01*
X178940488Y-78008314D01*
X178939547Y-78008998D01*
X178936682Y-78005055D01*
X178810477Y-77831349D01*
X178658651Y-77679523D01*
X178484944Y-77553317D01*
X178293633Y-77455838D01*
X178293630Y-77455837D01*
X178089428Y-77389489D01*
X177920940Y-77362803D01*
X177877357Y-77355900D01*
X177662643Y-77355900D01*
X177619060Y-77362803D01*
X177450571Y-77389489D01*
X177246369Y-77455837D01*
X177246366Y-77455838D01*
X177055055Y-77553317D01*
X176955949Y-77625322D01*
X176881349Y-77679523D01*
X176881347Y-77679525D01*
X176881346Y-77679525D01*
X176729525Y-77831346D01*
X176729525Y-77831347D01*
X176729523Y-77831349D01*
X176662386Y-77923755D01*
X176600453Y-78008998D01*
X176598562Y-78007624D01*
X176553848Y-78048030D01*
X176484911Y-78059411D01*
X176420765Y-78031715D01*
X176400488Y-78008314D01*
X176399547Y-78008998D01*
X176396682Y-78005055D01*
X176270477Y-77831349D01*
X176118651Y-77679523D01*
X175944944Y-77553317D01*
X175753633Y-77455838D01*
X175753630Y-77455837D01*
X175549428Y-77389489D01*
X175380940Y-77362803D01*
X175337357Y-77355900D01*
X175122643Y-77355900D01*
X175079060Y-77362803D01*
X174910571Y-77389489D01*
X174706369Y-77455837D01*
X174706366Y-77455838D01*
X174515055Y-77553317D01*
X174341350Y-77679522D01*
X174244660Y-77776212D01*
X174183336Y-77809696D01*
X174113645Y-77804712D01*
X174057712Y-77762840D01*
X174040797Y-77731863D01*
X173996954Y-77614313D01*
X173996950Y-77614306D01*
X173910790Y-77499212D01*
X173910787Y-77499209D01*
X173795693Y-77413049D01*
X173795686Y-77413045D01*
X173660979Y-77362803D01*
X173660972Y-77362801D01*
X173601444Y-77356400D01*
X172940000Y-77356400D01*
X172940000Y-78277748D01*
X172886081Y-78246619D01*
X172756880Y-78212000D01*
X172623120Y-78212000D01*
X172493919Y-78246619D01*
X172440000Y-78277748D01*
X172440000Y-77356400D01*
X171778555Y-77356400D01*
X171719027Y-77362801D01*
X171719020Y-77362803D01*
X171584313Y-77413045D01*
X171584311Y-77413047D01*
X171494311Y-77480421D01*
X171428847Y-77504838D01*
X171360574Y-77489987D01*
X171345689Y-77480421D01*
X171255688Y-77413047D01*
X171255686Y-77413045D01*
X171120979Y-77362803D01*
X171120972Y-77362801D01*
X171061444Y-77356400D01*
X170400000Y-77356400D01*
X170400000Y-78277748D01*
X170346081Y-78246619D01*
X170216880Y-78212000D01*
X170083120Y-78212000D01*
X169953919Y-78246619D01*
X169900000Y-78277748D01*
X169900000Y-77356400D01*
X169238555Y-77356400D01*
X169179027Y-77362801D01*
X169179020Y-77362803D01*
X169044313Y-77413045D01*
X169044306Y-77413049D01*
X168929212Y-77499209D01*
X168929209Y-77499212D01*
X168843049Y-77614306D01*
X168843045Y-77614313D01*
X168799202Y-77731863D01*
X168757330Y-77787797D01*
X168691866Y-77812214D01*
X168623593Y-77797362D01*
X168595339Y-77776211D01*
X168498653Y-77679525D01*
X168498651Y-77679523D01*
X168324944Y-77553317D01*
X168133633Y-77455838D01*
X168133630Y-77455837D01*
X167929428Y-77389489D01*
X167760940Y-77362803D01*
X167717357Y-77355900D01*
X167502643Y-77355900D01*
X167459060Y-77362803D01*
X167290571Y-77389489D01*
X167086369Y-77455837D01*
X167086366Y-77455838D01*
X166895055Y-77553317D01*
X166795949Y-77625322D01*
X166721349Y-77679523D01*
X166721347Y-77679525D01*
X166721346Y-77679525D01*
X166569525Y-77831346D01*
X166569525Y-77831347D01*
X166569523Y-77831349D01*
X166515322Y-77905949D01*
X166443317Y-78005055D01*
X166345838Y-78196366D01*
X166345837Y-78196369D01*
X166279489Y-78400571D01*
X166245900Y-78612643D01*
X163894100Y-78612643D01*
X163860511Y-78400573D01*
X163827336Y-78298470D01*
X163794162Y-78196369D01*
X163794161Y-78196366D01*
X163710266Y-78031715D01*
X163696683Y-78005056D01*
X163570477Y-77831349D01*
X163418651Y-77679523D01*
X163244944Y-77553317D01*
X163053633Y-77455838D01*
X163053630Y-77455837D01*
X162849428Y-77389489D01*
X162680940Y-77362803D01*
X162637357Y-77355900D01*
X162422643Y-77355900D01*
X162379060Y-77362803D01*
X162210571Y-77389489D01*
X162006369Y-77455837D01*
X162006366Y-77455838D01*
X161815055Y-77553317D01*
X161715949Y-77625322D01*
X161641349Y-77679523D01*
X161641347Y-77679525D01*
X161641346Y-77679525D01*
X161489525Y-77831346D01*
X161489525Y-77831347D01*
X161489523Y-77831349D01*
X161422386Y-77923755D01*
X161360453Y-78008998D01*
X161358562Y-78007624D01*
X161313848Y-78048030D01*
X161244911Y-78059411D01*
X161180765Y-78031715D01*
X161160488Y-78008314D01*
X161159547Y-78008998D01*
X161156682Y-78005055D01*
X161030477Y-77831349D01*
X160878651Y-77679523D01*
X160704944Y-77553317D01*
X160513633Y-77455838D01*
X160513630Y-77455837D01*
X160309428Y-77389489D01*
X160140940Y-77362803D01*
X160097357Y-77355900D01*
X159882643Y-77355900D01*
X159839060Y-77362803D01*
X159670571Y-77389489D01*
X159466369Y-77455837D01*
X159466366Y-77455838D01*
X159275055Y-77553317D01*
X159175949Y-77625322D01*
X159101349Y-77679523D01*
X159101347Y-77679525D01*
X159101346Y-77679525D01*
X158949525Y-77831346D01*
X158949525Y-77831347D01*
X158949523Y-77831349D01*
X158882386Y-77923755D01*
X158820453Y-78008998D01*
X158818562Y-78007624D01*
X158773848Y-78048030D01*
X158704911Y-78059411D01*
X158640765Y-78031715D01*
X158620488Y-78008314D01*
X158619547Y-78008998D01*
X158616682Y-78005055D01*
X158490477Y-77831349D01*
X158338651Y-77679523D01*
X158164944Y-77553317D01*
X157973633Y-77455838D01*
X157973630Y-77455837D01*
X157769428Y-77389489D01*
X157600940Y-77362803D01*
X157557357Y-77355900D01*
X157342643Y-77355900D01*
X157299060Y-77362803D01*
X157130571Y-77389489D01*
X156926369Y-77455837D01*
X156926366Y-77455838D01*
X156735055Y-77553317D01*
X156635949Y-77625322D01*
X156561349Y-77679523D01*
X156561347Y-77679525D01*
X156561346Y-77679525D01*
X156409525Y-77831346D01*
X156409525Y-77831347D01*
X156409523Y-77831349D01*
X156342386Y-77923755D01*
X156280453Y-78008998D01*
X156278562Y-78007624D01*
X156233848Y-78048030D01*
X156164911Y-78059411D01*
X156100765Y-78031715D01*
X156080488Y-78008314D01*
X156079547Y-78008998D01*
X156076682Y-78005055D01*
X155950477Y-77831349D01*
X155798651Y-77679523D01*
X155624944Y-77553317D01*
X155433633Y-77455838D01*
X155433630Y-77455837D01*
X155229428Y-77389489D01*
X155060940Y-77362803D01*
X155017357Y-77355900D01*
X154802643Y-77355900D01*
X154759060Y-77362803D01*
X154590571Y-77389489D01*
X154386369Y-77455837D01*
X154386366Y-77455838D01*
X154195055Y-77553317D01*
X154095949Y-77625322D01*
X154021349Y-77679523D01*
X154021347Y-77679525D01*
X154021346Y-77679525D01*
X153869525Y-77831346D01*
X153869525Y-77831347D01*
X153869523Y-77831349D01*
X153802386Y-77923755D01*
X153740453Y-78008998D01*
X153738562Y-78007624D01*
X153693848Y-78048030D01*
X153624911Y-78059411D01*
X153560765Y-78031715D01*
X153540488Y-78008314D01*
X153539547Y-78008998D01*
X153536682Y-78005055D01*
X153410477Y-77831349D01*
X153258651Y-77679523D01*
X153084944Y-77553317D01*
X152893633Y-77455838D01*
X152893630Y-77455837D01*
X152689428Y-77389489D01*
X152520940Y-77362803D01*
X152477357Y-77355900D01*
X152262643Y-77355900D01*
X152219060Y-77362803D01*
X152050571Y-77389489D01*
X151846369Y-77455837D01*
X151846366Y-77455838D01*
X151655055Y-77553317D01*
X151555949Y-77625322D01*
X151481349Y-77679523D01*
X151481347Y-77679525D01*
X151481346Y-77679525D01*
X151329525Y-77831346D01*
X151329525Y-77831347D01*
X151329523Y-77831349D01*
X151262386Y-77923755D01*
X151200453Y-78008998D01*
X151198562Y-78007624D01*
X151153848Y-78048030D01*
X151084911Y-78059411D01*
X151020765Y-78031715D01*
X151000488Y-78008314D01*
X150999547Y-78008998D01*
X150996682Y-78005055D01*
X150870477Y-77831349D01*
X150718651Y-77679523D01*
X150544944Y-77553317D01*
X150353633Y-77455838D01*
X150353630Y-77455837D01*
X150149428Y-77389489D01*
X149980940Y-77362803D01*
X149937357Y-77355900D01*
X149722643Y-77355900D01*
X149679060Y-77362803D01*
X149510571Y-77389489D01*
X149306369Y-77455837D01*
X149306366Y-77455838D01*
X149115055Y-77553317D01*
X149015949Y-77625322D01*
X148941349Y-77679523D01*
X148941347Y-77679525D01*
X148941346Y-77679525D01*
X148789525Y-77831346D01*
X148789525Y-77831347D01*
X148789523Y-77831349D01*
X148735322Y-77905949D01*
X148663317Y-78005055D01*
X148565838Y-78196366D01*
X148565837Y-78196369D01*
X148499489Y-78400571D01*
X148465900Y-78612643D01*
X142216179Y-78612643D01*
X142220003Y-78603412D01*
X142224561Y-78593638D01*
X142400822Y-78255045D01*
X142406217Y-78245700D01*
X142611325Y-77923744D01*
X142617515Y-77914905D01*
X142849896Y-77612060D01*
X142856834Y-77603791D01*
X143114726Y-77322352D01*
X143122352Y-77314726D01*
X143403791Y-77056834D01*
X143412060Y-77049896D01*
X143714905Y-76817515D01*
X143723744Y-76811325D01*
X144045700Y-76606217D01*
X144055045Y-76600822D01*
X144393638Y-76424561D01*
X144403412Y-76420003D01*
X144756095Y-76273917D01*
X144766227Y-76270230D01*
X145130295Y-76155440D01*
X145140709Y-76152649D01*
X145513405Y-76070025D01*
X145524025Y-76068152D01*
X145902495Y-76018326D01*
X145913226Y-76017386D01*
X146297297Y-76000617D01*
X146302706Y-76000500D01*
X146365892Y-76000500D01*
X198234108Y-76000500D01*
X198297294Y-76000500D01*
X198302702Y-76000617D01*
G37*
%TD.AperFunction*%
%TD*%
M02*
