%TF.GenerationSoftware,KiCad,Pcbnew,9.0.0-9.0.0-2~ubuntu24.04.1*%
%TF.CreationDate,2025-03-21T11:37:35-04:00*%
%TF.ProjectId,nRF54L15-DK-Arduino-Shield,6e524635-344c-4313-952d-444b2d417264,rev?*%
%TF.SameCoordinates,Original*%
%TF.FileFunction,Copper,L1,Top*%
%TF.FilePolarity,Positive*%
%FSLAX46Y46*%
G04 Gerber Fmt 4.6, Leading zero omitted, Abs format (unit mm)*
G04 Created by KiCad (PCBNEW 9.0.0-9.0.0-2~ubuntu24.04.1) date 2025-03-21 11:37:35*
%MOMM*%
%LPD*%
G01*
G04 APERTURE LIST*
G04 Aperture macros list*
%AMRoundRect*
0 Rectangle with rounded corners*
0 $1 Rounding radius*
0 $2 $3 $4 $5 $6 $7 $8 $9 X,Y pos of 4 corners*
0 Add a 4 corners polygon primitive as box body*
4,1,4,$2,$3,$4,$5,$6,$7,$8,$9,$2,$3,0*
0 Add four circle primitives for the rounded corners*
1,1,$1+$1,$2,$3*
1,1,$1+$1,$4,$5*
1,1,$1+$1,$6,$7*
1,1,$1+$1,$8,$9*
0 Add four rect primitives between the rounded corners*
20,1,$1+$1,$2,$3,$4,$5,0*
20,1,$1+$1,$4,$5,$6,$7,0*
20,1,$1+$1,$6,$7,$8,$9,0*
20,1,$1+$1,$8,$9,$2,$3,0*%
G04 Aperture macros list end*
%TA.AperFunction,ComponentPad*%
%ADD10RoundRect,0.250000X-0.500000X0.250000X-0.500000X-0.250000X0.500000X-0.250000X0.500000X0.250000X0*%
%TD*%
%TA.AperFunction,SMDPad,CuDef*%
%ADD11R,0.500000X1.850000*%
%TD*%
%TA.AperFunction,ComponentPad*%
%ADD12O,1.727200X1.727200*%
%TD*%
%TA.AperFunction,ComponentPad*%
%ADD13R,1.727200X1.727200*%
%TD*%
%TA.AperFunction,ComponentPad*%
%ADD14R,1.700000X1.700000*%
%TD*%
%TA.AperFunction,ComponentPad*%
%ADD15O,1.700000X1.700000*%
%TD*%
%TA.AperFunction,ViaPad*%
%ADD16C,0.600000*%
%TD*%
%TA.AperFunction,Conductor*%
%ADD17C,0.200000*%
%TD*%
G04 APERTURE END LIST*
D10*
%TO.P,A1,3V3,3.3V*%
%TO.N,+3.3V*%
X177770000Y-81666400D03*
D11*
X177770000Y-80246000D03*
D12*
X177770000Y-78720000D03*
D11*
X177770000Y-77196000D03*
D10*
%TO.P,A1,5V1,5V*%
%TO.N,VBUS*%
X175230000Y-81666400D03*
D11*
X175230000Y-80246000D03*
D12*
X175230000Y-78720000D03*
D11*
X175230000Y-77196000D03*
D10*
%TO.P,A1,A0,A0*%
%TO.N,/P1.04*%
X162530000Y-81666400D03*
D11*
X162530000Y-80246000D03*
D12*
X162530000Y-78720000D03*
D11*
X162530000Y-77196000D03*
D10*
%TO.P,A1,A1,A1*%
%TO.N,unconnected-(A1-PadA1)_3*%
X159990000Y-81666400D03*
D11*
%TO.N,unconnected-(A1-PadA1)_1*%
X159990000Y-80246000D03*
D12*
%TO.N,unconnected-(A1-PadA1)*%
X159990000Y-78720000D03*
D11*
%TO.N,unconnected-(A1-PadA1)_2*%
X159990000Y-77196000D03*
D10*
%TO.P,A1,A2,A2*%
%TO.N,unconnected-(A1-PadA2)_2*%
X157450000Y-81666400D03*
D11*
%TO.N,unconnected-(A1-PadA2)*%
X157450000Y-80246000D03*
D12*
%TO.N,unconnected-(A1-PadA2)_1*%
X157450000Y-78720000D03*
D11*
%TO.N,unconnected-(A1-PadA2)_3*%
X157450000Y-77196000D03*
D10*
%TO.P,A1,A3,A3*%
%TO.N,/P1.07*%
X154910000Y-81666400D03*
D11*
X154910000Y-80246000D03*
D12*
X154910000Y-78720000D03*
D11*
X154910000Y-77196000D03*
D10*
%TO.P,A1,A4,A4*%
%TO.N,/P1.11*%
X152370000Y-81666400D03*
D11*
X152370000Y-80246000D03*
D12*
X152370000Y-78720000D03*
D11*
X152370000Y-77196000D03*
D10*
%TO.P,A1,A5,A5*%
%TO.N,/P1.12*%
X149830000Y-81666400D03*
D11*
X149830000Y-80246000D03*
D12*
X149830000Y-78720000D03*
D11*
X149830000Y-77196000D03*
%TO.P,A1,AREF,AREF*%
%TO.N,unconnected-(A1-PadAREF)_1*%
X189454000Y-128506000D03*
D12*
%TO.N,unconnected-(A1-PadAREF)_3*%
X189454000Y-126980000D03*
D11*
%TO.N,unconnected-(A1-PadAREF)*%
X189454000Y-125456000D03*
D10*
%TO.N,unconnected-(A1-PadAREF)_2*%
X189454000Y-124033600D03*
%TO.P,A1,ATN,ATN*%
%TO.N,unconnected-(A1-PadATN)_2*%
X185390000Y-81666400D03*
D11*
%TO.N,unconnected-(A1-PadATN)*%
X185390000Y-80246000D03*
D12*
%TO.N,unconnected-(A1-PadATN)_3*%
X185390000Y-78720000D03*
D11*
%TO.N,unconnected-(A1-PadATN)_1*%
X185390000Y-77196000D03*
%TO.P,A1,D0,D0/RX*%
%TO.N,unconnected-(A1-D0{slash}RX-PadD0)_3*%
X149830000Y-128506000D03*
D12*
%TO.N,unconnected-(A1-D0{slash}RX-PadD0)_1*%
X149830000Y-126980000D03*
D11*
%TO.N,unconnected-(A1-D0{slash}RX-PadD0)_2*%
X149830000Y-125456000D03*
D10*
%TO.N,unconnected-(A1-D0{slash}RX-PadD0)*%
X149830000Y-124033600D03*
D11*
%TO.P,A1,D1,D1/TX*%
%TO.N,unconnected-(A1-D1{slash}TX-PadD1)*%
X152370000Y-128506000D03*
D12*
%TO.N,unconnected-(A1-D1{slash}TX-PadD1)_1*%
X152370000Y-126980000D03*
D11*
%TO.N,unconnected-(A1-D1{slash}TX-PadD1)_3*%
X152370000Y-125456000D03*
D10*
%TO.N,unconnected-(A1-D1{slash}TX-PadD1)_2*%
X152370000Y-124033600D03*
D11*
%TO.P,A1,D2,D2*%
%TO.N,unconnected-(A1-PadD2)_3*%
X154910000Y-128506000D03*
D12*
%TO.N,unconnected-(A1-PadD2)_2*%
X154910000Y-126980000D03*
D11*
%TO.N,unconnected-(A1-PadD2)_1*%
X154910000Y-125456000D03*
D10*
%TO.N,unconnected-(A1-PadD2)*%
X154910000Y-124033600D03*
D11*
%TO.P,A1,D3,D3*%
%TO.N,/P0.03*%
X157450000Y-128506000D03*
D12*
X157450000Y-126980000D03*
D11*
X157450000Y-125456000D03*
D10*
X157450000Y-124033600D03*
D11*
%TO.P,A1,D4,D4*%
%TO.N,/P0.02*%
X159990000Y-128506000D03*
D12*
X159990000Y-126980000D03*
D11*
X159990000Y-125456000D03*
D10*
X159990000Y-124033600D03*
D11*
%TO.P,A1,D5,D5*%
%TO.N,/P1.05*%
X162530000Y-128506000D03*
D12*
X162530000Y-126980000D03*
D11*
X162530000Y-125456000D03*
D10*
X162530000Y-124033600D03*
D11*
%TO.P,A1,D6,D6*%
%TO.N,unconnected-(A1-PadD6)_3*%
X165070000Y-128506000D03*
D12*
%TO.N,unconnected-(A1-PadD6)*%
X165070000Y-126980000D03*
D11*
%TO.N,unconnected-(A1-PadD6)_1*%
X165070000Y-125456000D03*
D10*
%TO.N,unconnected-(A1-PadD6)_2*%
X165070000Y-124033600D03*
D11*
%TO.P,A1,D7,D7*%
%TO.N,/P1.06*%
X167610000Y-128506000D03*
D12*
X167610000Y-126980000D03*
D11*
X167610000Y-125456000D03*
D10*
X167610000Y-124033600D03*
D11*
%TO.P,A1,D8,D8*%
%TO.N,unconnected-(A1-PadD8)_3*%
X171674000Y-128506000D03*
D12*
%TO.N,unconnected-(A1-PadD8)_2*%
X171674000Y-126980000D03*
D11*
%TO.N,unconnected-(A1-PadD8)*%
X171674000Y-125456000D03*
D10*
%TO.N,unconnected-(A1-PadD8)_1*%
X171674000Y-124033600D03*
D11*
%TO.P,A1,D9,D9*%
%TO.N,unconnected-(A1-PadD9)_3*%
X174214000Y-128506000D03*
D12*
%TO.N,unconnected-(A1-PadD9)*%
X174214000Y-126980000D03*
D11*
%TO.N,unconnected-(A1-PadD9)_2*%
X174214000Y-125456000D03*
D10*
%TO.N,unconnected-(A1-PadD9)_1*%
X174214000Y-124033600D03*
D11*
%TO.P,A1,D10,D10_CS*%
%TO.N,unconnected-(A1-D10_CS-PadD10)_2*%
X176754000Y-128506000D03*
D12*
%TO.N,unconnected-(A1-D10_CS-PadD10)*%
X176754000Y-126980000D03*
D11*
%TO.N,unconnected-(A1-D10_CS-PadD10)_3*%
X176754000Y-125456000D03*
D10*
%TO.N,unconnected-(A1-D10_CS-PadD10)_1*%
X176754000Y-124033600D03*
D11*
%TO.P,A1,D11,D11*%
%TO.N,/P2.08*%
X179294000Y-128506000D03*
D12*
X179294000Y-126980000D03*
D11*
X179294000Y-125456000D03*
D10*
X179294000Y-124033600D03*
D11*
%TO.P,A1,D12,D12*%
%TO.N,/P2.09*%
X181834000Y-128506000D03*
D12*
X181834000Y-126980000D03*
D11*
X181834000Y-125456000D03*
D10*
X181834000Y-124033600D03*
D11*
%TO.P,A1,D13,D13*%
%TO.N,/P2.06*%
X184374000Y-128506000D03*
D12*
X184374000Y-126980000D03*
D11*
X184374000Y-125456000D03*
D10*
X184374000Y-124033600D03*
D11*
%TO.P,A1,GND1,GND*%
%TO.N,GND*%
X186914000Y-128506000D03*
D13*
X186914000Y-126980000D03*
D11*
X186914000Y-125456000D03*
D10*
X186914000Y-124033600D03*
%TO.P,A1,GND2,GND*%
X172690000Y-81666400D03*
D11*
X172690000Y-80246000D03*
D13*
X172690000Y-78720000D03*
D11*
X172690000Y-77196000D03*
D10*
%TO.P,A1,GND3,GND*%
X170150000Y-81666400D03*
D11*
X170150000Y-80246000D03*
D13*
X170150000Y-78720000D03*
D11*
X170150000Y-77196000D03*
D10*
%TO.P,A1,IORF,IOREF*%
%TO.N,+3.3V*%
X182850000Y-81666400D03*
D11*
X182850000Y-80246000D03*
D12*
X182850000Y-78720000D03*
D11*
X182850000Y-77196000D03*
D10*
%TO.P,A1,RST1,RESET*%
%TO.N,unconnected-(A1-RESET-PadRST1)*%
X180310000Y-81666400D03*
D11*
%TO.N,unconnected-(A1-RESET-PadRST1)_1*%
X180310000Y-80246000D03*
D12*
%TO.N,unconnected-(A1-RESET-PadRST1)_3*%
X180310000Y-78720000D03*
D11*
%TO.N,unconnected-(A1-RESET-PadRST1)_2*%
X180310000Y-77196000D03*
D10*
%TO.P,A1,SCL,SCL*%
%TO.N,/P2.10*%
X194584800Y-124033600D03*
D11*
X194557000Y-128460000D03*
X194557000Y-125410000D03*
D12*
X194534000Y-126980000D03*
D11*
%TO.P,A1,SDA,SDA*%
%TO.N,/P2.07*%
X191994000Y-128506000D03*
D12*
X191994000Y-126980000D03*
D11*
X191994000Y-125456000D03*
D10*
X191994000Y-124033600D03*
%TO.P,A1,VIN,VIN*%
%TO.N,unconnected-(A1-PadVIN)*%
X167610000Y-81666400D03*
D11*
%TO.N,unconnected-(A1-PadVIN)_3*%
X167610000Y-80246000D03*
D12*
%TO.N,unconnected-(A1-PadVIN)_1*%
X167610000Y-78720000D03*
D11*
%TO.N,unconnected-(A1-PadVIN)_2*%
X167610000Y-77196000D03*
%TD*%
D14*
%TO.P,GPIO0,1,Pin_1*%
%TO.N,unconnected-(GPIO0-Pin_1-Pad1)*%
X173990000Y-88900000D03*
D15*
%TO.P,GPIO0,2,Pin_2*%
%TO.N,GND*%
X173990000Y-86360000D03*
%TO.P,GPIO0,3,Pin_3*%
%TO.N,/P0.00*%
X176530000Y-88900000D03*
%TO.P,GPIO0,4,Pin_4*%
%TO.N,/P0.01*%
X176530000Y-86360000D03*
%TO.P,GPIO0,5,Pin_5*%
%TO.N,/P0.02*%
X179070000Y-88900000D03*
%TO.P,GPIO0,6,Pin_6*%
%TO.N,/P0.03*%
X179070000Y-86360000D03*
%TO.P,GPIO0,7,Pin_7*%
%TO.N,/P0.04*%
X181610000Y-88900000D03*
%TO.P,GPIO0,8,Pin_8*%
%TO.N,unconnected-(GPIO0-Pin_8-Pad8)*%
X181610000Y-86360000D03*
%TO.P,GPIO0,9,Pin_9*%
%TO.N,unconnected-(GPIO0-Pin_9-Pad9)*%
X184150000Y-88900000D03*
%TO.P,GPIO0,10,Pin_10*%
%TO.N,unconnected-(GPIO0-Pin_10-Pad10)*%
X184150000Y-86360000D03*
%TO.P,GPIO0,11,Pin_11*%
%TO.N,unconnected-(GPIO0-Pin_11-Pad11)*%
X186690000Y-88900000D03*
%TO.P,GPIO0,12,Pin_12*%
%TO.N,unconnected-(GPIO0-Pin_12-Pad12)*%
X186690000Y-86360000D03*
%TO.P,GPIO0,13,Pin_13*%
%TO.N,unconnected-(GPIO0-Pin_13-Pad13)*%
X189230000Y-88900000D03*
%TO.P,GPIO0,14,Pin_14*%
%TO.N,unconnected-(GPIO0-Pin_14-Pad14)*%
X189230000Y-86360000D03*
%TO.P,GPIO0,15,Pin_15*%
%TO.N,unconnected-(GPIO0-Pin_15-Pad15)*%
X191770000Y-88900000D03*
%TO.P,GPIO0,16,Pin_16*%
%TO.N,unconnected-(GPIO0-Pin_16-Pad16)*%
X191770000Y-86360000D03*
%TO.P,GPIO0,17,Pin_17*%
%TO.N,unconnected-(GPIO0-Pin_17-Pad17)*%
X194310000Y-88900000D03*
%TO.P,GPIO0,18,Pin_18*%
%TO.N,unconnected-(GPIO0-Pin_18-Pad18)*%
X194310000Y-86360000D03*
%TO.P,GPIO0,19,Pin_19*%
%TO.N,GND*%
X196850000Y-88900000D03*
%TO.P,GPIO0,20,Pin_20*%
%TO.N,+3.3V*%
X196850000Y-86360000D03*
%TD*%
D14*
%TO.P,VSUP2,1,Pin_1*%
%TO.N,unconnected-(VSUP2-Pin_1-Pad1)*%
X165100000Y-114300000D03*
D15*
%TO.P,VSUP2,2,Pin_2*%
%TO.N,GND*%
X165100000Y-111760000D03*
%TO.P,VSUP2,3,Pin_3*%
%TO.N,unconnected-(VSUP2-Pin_3-Pad3)*%
X167640000Y-114300000D03*
%TO.P,VSUP2,4,Pin_4*%
%TO.N,GND*%
X167640000Y-111760000D03*
%TD*%
D14*
%TO.P,VSUP0,1,Pin_1*%
%TO.N,VBUS*%
X165100000Y-88900000D03*
D15*
%TO.P,VSUP0,2,Pin_2*%
%TO.N,GND*%
X165100000Y-86360000D03*
%TO.P,VSUP0,3,Pin_3*%
%TO.N,unconnected-(VSUP0-Pin_3-Pad3)*%
X167640000Y-88900000D03*
%TO.P,VSUP0,4,Pin_4*%
%TO.N,GND*%
X167640000Y-86360000D03*
%TD*%
D14*
%TO.P,VSUP1,1,Pin_1*%
%TO.N,unconnected-(VSUP1-Pin_1-Pad1)*%
X165100000Y-101600000D03*
D15*
%TO.P,VSUP1,2,Pin_2*%
%TO.N,GND*%
X165100000Y-99060000D03*
%TO.P,VSUP1,3,Pin_3*%
%TO.N,unconnected-(VSUP1-Pin_3-Pad3)*%
X167640000Y-101600000D03*
%TO.P,VSUP1,4,Pin_4*%
%TO.N,GND*%
X167640000Y-99060000D03*
%TD*%
D14*
%TO.P,GPIO2,1,Pin_1*%
%TO.N,unconnected-(GPIO2-Pin_1-Pad1)*%
X173990000Y-114300000D03*
D15*
%TO.P,GPIO2,2,Pin_2*%
%TO.N,GND*%
X173990000Y-111760000D03*
%TO.P,GPIO2,3,Pin_3*%
%TO.N,/P2.00*%
X176530000Y-114300000D03*
%TO.P,GPIO2,4,Pin_4*%
%TO.N,/P2.01*%
X176530000Y-111760000D03*
%TO.P,GPIO2,5,Pin_5*%
%TO.N,/P2.02*%
X179070000Y-114300000D03*
%TO.P,GPIO2,6,Pin_6*%
%TO.N,/P2.03*%
X179070000Y-111760000D03*
%TO.P,GPIO2,7,Pin_7*%
%TO.N,/P2.04*%
X181610000Y-114300000D03*
%TO.P,GPIO2,8,Pin_8*%
%TO.N,/P2.05*%
X181610000Y-111760000D03*
%TO.P,GPIO2,9,Pin_9*%
%TO.N,/P2.06*%
X184150000Y-114300000D03*
%TO.P,GPIO2,10,Pin_10*%
%TO.N,/P2.07*%
X184150000Y-111760000D03*
%TO.P,GPIO2,11,Pin_11*%
%TO.N,/P2.08*%
X186690000Y-114300000D03*
%TO.P,GPIO2,12,Pin_12*%
%TO.N,/P2.09*%
X186690000Y-111760000D03*
%TO.P,GPIO2,13,Pin_13*%
%TO.N,/P2.10*%
X189230000Y-114300000D03*
%TO.P,GPIO2,14,Pin_14*%
%TO.N,unconnected-(GPIO2-Pin_14-Pad14)*%
X189230000Y-111760000D03*
%TO.P,GPIO2,15,Pin_15*%
%TO.N,unconnected-(GPIO2-Pin_15-Pad15)*%
X191770000Y-114300000D03*
%TO.P,GPIO2,16,Pin_16*%
%TO.N,unconnected-(GPIO2-Pin_16-Pad16)*%
X191770000Y-111760000D03*
%TO.P,GPIO2,17,Pin_17*%
%TO.N,unconnected-(GPIO2-Pin_17-Pad17)*%
X194310000Y-114300000D03*
%TO.P,GPIO2,18,Pin_18*%
%TO.N,unconnected-(GPIO2-Pin_18-Pad18)*%
X194310000Y-111760000D03*
%TO.P,GPIO2,19,Pin_19*%
%TO.N,GND*%
X196850000Y-114300000D03*
%TO.P,GPIO2,20,Pin_20*%
%TO.N,unconnected-(GPIO2-Pin_20-Pad20)*%
X196850000Y-111760000D03*
%TD*%
D14*
%TO.P,GPIO1,1,Pin_1*%
%TO.N,unconnected-(GPIO1-Pin_1-Pad1)*%
X173990000Y-101600000D03*
D15*
%TO.P,GPIO1,2,Pin_2*%
%TO.N,GND*%
X173990000Y-99060000D03*
%TO.P,GPIO1,3,Pin_3*%
%TO.N,/P1.00*%
X176530000Y-101600000D03*
%TO.P,GPIO1,4,Pin_4*%
%TO.N,/P1.01*%
X176530000Y-99060000D03*
%TO.P,GPIO1,5,Pin_5*%
%TO.N,/P1.02*%
X179070000Y-101600000D03*
%TO.P,GPIO1,6,Pin_6*%
%TO.N,/P1.03*%
X179070000Y-99060000D03*
%TO.P,GPIO1,7,Pin_7*%
%TO.N,/P1.04*%
X181610000Y-101600000D03*
%TO.P,GPIO1,8,Pin_8*%
%TO.N,/P1.05*%
X181610000Y-99060000D03*
%TO.P,GPIO1,9,Pin_9*%
%TO.N,/P1.06*%
X184150000Y-101600000D03*
%TO.P,GPIO1,10,Pin_10*%
%TO.N,/P1.07*%
X184150000Y-99060000D03*
%TO.P,GPIO1,11,Pin_11*%
%TO.N,/P1.08*%
X186690000Y-101600000D03*
%TO.P,GPIO1,12,Pin_12*%
%TO.N,/P1.09*%
X186690000Y-99060000D03*
%TO.P,GPIO1,13,Pin_13*%
%TO.N,/P1.10*%
X189230000Y-101600000D03*
%TO.P,GPIO1,14,Pin_14*%
%TO.N,/P1.11*%
X189230000Y-99060000D03*
%TO.P,GPIO1,15,Pin_15*%
%TO.N,/P1.12*%
X191770000Y-101600000D03*
%TO.P,GPIO1,16,Pin_16*%
%TO.N,/P1.13*%
X191770000Y-99060000D03*
%TO.P,GPIO1,17,Pin_17*%
%TO.N,/P1.14*%
X194310000Y-101600000D03*
%TO.P,GPIO1,18,Pin_18*%
%TO.N,unconnected-(GPIO1-Pin_18-Pad18)*%
X194310000Y-99060000D03*
%TO.P,GPIO1,19,Pin_19*%
%TO.N,GND*%
X196850000Y-101600000D03*
%TO.P,GPIO1,20,Pin_20*%
%TO.N,unconnected-(GPIO1-Pin_20-Pad20)*%
X196850000Y-99060000D03*
%TD*%
D16*
%TO.N,GND*%
X165000000Y-80000000D03*
X145000000Y-77500000D03*
X192500000Y-82500000D03*
X165000000Y-77500000D03*
X147500000Y-82500000D03*
X165000000Y-82500000D03*
X190000000Y-77500000D03*
X147500000Y-77500000D03*
X195000000Y-82500000D03*
X190000000Y-82500000D03*
X147500000Y-85000000D03*
X145000000Y-85000000D03*
X145000000Y-80000000D03*
X197500000Y-82500000D03*
X147500000Y-80000000D03*
X145000000Y-90000000D03*
X147500000Y-90000000D03*
X187500000Y-82500000D03*
X145000000Y-82500000D03*
X147500000Y-87500000D03*
X187500000Y-77500000D03*
X145000000Y-87500000D03*
%TO.N,/P2.08*%
X179300000Y-117010000D03*
X186690000Y-117010000D03*
%TO.N,/P1.12*%
X150840000Y-95820000D03*
X191780000Y-95820000D03*
%TO.N,/P1.05*%
X181610000Y-96430000D03*
X162530000Y-96680000D03*
%TO.N,/P1.04*%
X180330000Y-92930000D03*
X162520000Y-92930000D03*
%TO.N,/P1.11*%
X152370000Y-94610000D03*
X189230000Y-94610000D03*
%TO.N,/P0.02*%
X179070000Y-91180000D03*
X159990000Y-91180000D03*
%TO.N,/P1.06*%
X170260000Y-104040000D03*
X170260000Y-117960000D03*
X167610000Y-117960000D03*
X184150000Y-104040000D03*
%TO.N,/P0.03*%
X180150000Y-91800000D03*
X157440000Y-91800000D03*
%TO.N,/P2.09*%
X181830000Y-118060000D03*
X185420000Y-118060000D03*
%TO.N,/P1.07*%
X154910000Y-93690000D03*
X184150000Y-93690000D03*
%TD*%
D17*
%TO.N,/P2.08*%
X179294000Y-117016000D02*
X179300000Y-117010000D01*
X186690000Y-117010000D02*
X186690000Y-114300000D01*
X179294000Y-124033600D02*
X179294000Y-117016000D01*
%TO.N,/P2.06*%
X184150000Y-114300000D02*
X184150000Y-115660000D01*
X184374000Y-115884000D02*
X184374000Y-124033600D01*
X184150000Y-115660000D02*
X184374000Y-115884000D01*
%TO.N,/P1.12*%
X193050000Y-100320000D02*
X191770000Y-101600000D01*
X149830000Y-82730000D02*
X150230000Y-83130000D01*
X150230000Y-83130000D02*
X150840000Y-83740000D01*
X150840000Y-83740000D02*
X150840000Y-95820000D01*
X149830000Y-81666400D02*
X149830000Y-82730000D01*
X191780000Y-95820000D02*
X193050000Y-97090000D01*
X193050000Y-97090000D02*
X193050000Y-100320000D01*
%TO.N,/P1.05*%
X181610000Y-96430000D02*
X181610000Y-99060000D01*
X162530000Y-124033600D02*
X162530000Y-96680000D01*
%TO.N,/P2.10*%
X189230000Y-116160000D02*
X189230000Y-114300000D01*
X194584800Y-121514800D02*
X189230000Y-116160000D01*
X194584800Y-124033600D02*
X194584800Y-121514800D01*
%TO.N,/P1.04*%
X162530000Y-92920000D02*
X162520000Y-92930000D01*
X162530000Y-81666400D02*
X162530000Y-92920000D01*
X180330000Y-93090000D02*
X180340000Y-93100000D01*
X180340000Y-100330000D02*
X181610000Y-101600000D01*
X180340000Y-93100000D02*
X180340000Y-100330000D01*
X180330000Y-92930000D02*
X180330000Y-93090000D01*
%TO.N,/P1.11*%
X152370000Y-81666400D02*
X152370000Y-94610000D01*
X189230000Y-94610000D02*
X189230000Y-99060000D01*
%TO.N,/P0.02*%
X159990000Y-124033600D02*
X159990000Y-91180000D01*
X179070000Y-91180000D02*
X179070000Y-88900000D01*
%TO.N,/P1.06*%
X184150000Y-104040000D02*
X184150000Y-101600000D01*
X170260000Y-117960000D02*
X170260000Y-104040000D01*
X167610000Y-124033600D02*
X167610000Y-117960000D01*
%TO.N,+3.3V*%
X183170000Y-83640000D02*
X183690000Y-83640000D01*
X183280000Y-83320000D02*
X183280000Y-83530000D01*
X196850000Y-86360000D02*
X196850000Y-84840000D01*
X178190000Y-83640000D02*
X183170000Y-83640000D01*
X196850000Y-84840000D02*
X195650000Y-83640000D01*
X177770000Y-83220000D02*
X178190000Y-83640000D01*
X183690000Y-83640000D02*
X183600000Y-83640000D01*
X183280000Y-83530000D02*
X183170000Y-83640000D01*
X183600000Y-83640000D02*
X183280000Y-83320000D01*
X182850000Y-82890000D02*
X182850000Y-81666400D01*
X177770000Y-81666400D02*
X177770000Y-83220000D01*
X183280000Y-83320000D02*
X182850000Y-82890000D01*
X195650000Y-83640000D02*
X183690000Y-83640000D01*
%TO.N,/P0.03*%
X180330000Y-87620000D02*
X179070000Y-86360000D01*
X180330000Y-91620000D02*
X180330000Y-87620000D01*
X157450000Y-91810000D02*
X157440000Y-91800000D01*
X157450000Y-124033600D02*
X157450000Y-91810000D01*
X180150000Y-91800000D02*
X180330000Y-91620000D01*
%TO.N,/P2.09*%
X181834000Y-124033600D02*
X181834000Y-118064000D01*
X185420000Y-113030000D02*
X186690000Y-111760000D01*
X185420000Y-118060000D02*
X185420000Y-113030000D01*
X181834000Y-118064000D02*
X181830000Y-118060000D01*
%TO.N,VBUS*%
X169650000Y-89730000D02*
X168520000Y-90860000D01*
X171030000Y-83890000D02*
X169650000Y-85270000D01*
X168520000Y-90860000D02*
X165440000Y-90860000D01*
X165100000Y-90520000D02*
X165100000Y-88900000D01*
X175230000Y-81666400D02*
X175230000Y-82910000D01*
X169650000Y-85270000D02*
X169650000Y-89730000D01*
X175230000Y-82910000D02*
X174250000Y-83890000D01*
X165440000Y-90860000D02*
X165100000Y-90520000D01*
X174250000Y-83890000D02*
X171030000Y-83890000D01*
%TO.N,/P1.07*%
X184150000Y-93690000D02*
X184150000Y-99060000D01*
X154910000Y-81666400D02*
X154910000Y-93690000D01*
%TO.N,/P2.07*%
X184150000Y-109690000D02*
X184730000Y-109110000D01*
X184150000Y-111760000D02*
X184150000Y-109690000D01*
X191994000Y-120874000D02*
X191994000Y-124033600D01*
X187970000Y-109990000D02*
X187970000Y-116850000D01*
X187970000Y-116850000D02*
X191994000Y-120874000D01*
X187090000Y-109110000D02*
X187970000Y-109990000D01*
X184730000Y-109110000D02*
X187090000Y-109110000D01*
%TD*%
%TA.AperFunction,Conductor*%
%TO.N,GND*%
G36*
X188263160Y-124605352D02*
G01*
X188289244Y-124635454D01*
X188361288Y-124752256D01*
X188485344Y-124876312D01*
X188634666Y-124968414D01*
X188634667Y-124968414D01*
X188640813Y-124972205D01*
X188639706Y-124973999D01*
X188684337Y-125013287D01*
X188703500Y-125079508D01*
X188703500Y-125775968D01*
X188683815Y-125843007D01*
X188652387Y-125876285D01*
X188565351Y-125939521D01*
X188468660Y-126036212D01*
X188407336Y-126069696D01*
X188337645Y-126064712D01*
X188281712Y-126022840D01*
X188264797Y-125991863D01*
X188220954Y-125874313D01*
X188220950Y-125874306D01*
X188134790Y-125759212D01*
X188134787Y-125759209D01*
X188019693Y-125673049D01*
X188019686Y-125673045D01*
X187884979Y-125622803D01*
X187884972Y-125622801D01*
X187825444Y-125616400D01*
X187794000Y-125616400D01*
X187779699Y-125630700D01*
X187774315Y-125649039D01*
X187721511Y-125694794D01*
X187670000Y-125706000D01*
X187164000Y-125706000D01*
X187164000Y-126537748D01*
X187110081Y-126506619D01*
X186980880Y-126472000D01*
X186847120Y-126472000D01*
X186717919Y-126506619D01*
X186664000Y-126537748D01*
X186664000Y-125706000D01*
X186158000Y-125706000D01*
X186090961Y-125686315D01*
X186045206Y-125633511D01*
X186043564Y-125625964D01*
X186034000Y-125616400D01*
X186002555Y-125616400D01*
X185943027Y-125622801D01*
X185943020Y-125622803D01*
X185808313Y-125673045D01*
X185808306Y-125673049D01*
X185693212Y-125759209D01*
X185693209Y-125759212D01*
X185607049Y-125874306D01*
X185607045Y-125874313D01*
X185563202Y-125991863D01*
X185521330Y-126047797D01*
X185455866Y-126072214D01*
X185387593Y-126057362D01*
X185359339Y-126036211D01*
X185262650Y-125939522D01*
X185175612Y-125876284D01*
X185132947Y-125820954D01*
X185124499Y-125775967D01*
X185124499Y-125079509D01*
X185144184Y-125012470D01*
X185188270Y-124973961D01*
X185187187Y-124972205D01*
X185193332Y-124968414D01*
X185193334Y-124968414D01*
X185342656Y-124876312D01*
X185466712Y-124752256D01*
X185538754Y-124635455D01*
X185590702Y-124588731D01*
X185659664Y-124577508D01*
X185723746Y-124605351D01*
X185749831Y-124635455D01*
X185821680Y-124751940D01*
X185821683Y-124751944D01*
X185945654Y-124875915D01*
X186101025Y-124971749D01*
X186099965Y-124973466D01*
X186144833Y-125012959D01*
X186164000Y-125079186D01*
X186164000Y-125206000D01*
X187664000Y-125206000D01*
X187664000Y-125079186D01*
X187683685Y-125012147D01*
X187728013Y-124973432D01*
X187726975Y-124971749D01*
X187882345Y-124875915D01*
X188006317Y-124751943D01*
X188078167Y-124635456D01*
X188130115Y-124588731D01*
X188199077Y-124577508D01*
X188263160Y-124605352D01*
G37*
%TD.AperFunction*%
%TA.AperFunction,Conductor*%
G36*
X187582521Y-117317205D02*
G01*
X187589236Y-117322421D01*
X187589454Y-117322095D01*
X187589457Y-117322097D01*
X187600988Y-117331550D01*
X187606931Y-117336167D01*
X187608349Y-117337585D01*
X187608355Y-117337590D01*
X191357181Y-121086416D01*
X191390666Y-121147739D01*
X191393500Y-121174097D01*
X191393500Y-122936730D01*
X191373815Y-123003769D01*
X191321011Y-123049524D01*
X191308505Y-123054436D01*
X191174666Y-123098786D01*
X191174663Y-123098787D01*
X191025342Y-123190889D01*
X190901289Y-123314942D01*
X190829539Y-123431269D01*
X190777591Y-123477993D01*
X190708628Y-123489216D01*
X190644546Y-123461372D01*
X190618461Y-123431269D01*
X190546906Y-123315259D01*
X190546712Y-123314944D01*
X190422656Y-123190888D01*
X190273334Y-123098786D01*
X190106797Y-123043601D01*
X190106795Y-123043600D01*
X190004010Y-123033100D01*
X188903998Y-123033100D01*
X188903980Y-123033101D01*
X188801203Y-123043600D01*
X188801200Y-123043601D01*
X188634668Y-123098785D01*
X188634663Y-123098787D01*
X188485342Y-123190889D01*
X188361288Y-123314943D01*
X188361285Y-123314947D01*
X188289244Y-123431744D01*
X188237296Y-123478469D01*
X188168334Y-123489690D01*
X188104252Y-123461847D01*
X188078167Y-123431744D01*
X188006315Y-123315254D01*
X187882345Y-123191284D01*
X187733124Y-123099243D01*
X187733119Y-123099241D01*
X187566697Y-123044094D01*
X187566690Y-123044093D01*
X187463986Y-123033600D01*
X187164000Y-123033600D01*
X187164000Y-123909600D01*
X187151238Y-123953061D01*
X187125940Y-123891986D01*
X187055614Y-123821660D01*
X186963728Y-123783600D01*
X186864272Y-123783600D01*
X186772386Y-123821660D01*
X186702060Y-123891986D01*
X186674593Y-123958296D01*
X186664000Y-123909600D01*
X186664000Y-123033600D01*
X186364028Y-123033600D01*
X186364012Y-123033601D01*
X186261302Y-123044094D01*
X186094880Y-123099241D01*
X186094875Y-123099243D01*
X185945654Y-123191284D01*
X185821683Y-123315255D01*
X185821680Y-123315259D01*
X185749831Y-123431744D01*
X185697883Y-123478469D01*
X185628920Y-123489690D01*
X185564838Y-123461847D01*
X185538754Y-123431744D01*
X185466906Y-123315259D01*
X185466712Y-123314944D01*
X185342656Y-123190888D01*
X185193334Y-123098786D01*
X185059495Y-123054436D01*
X185002051Y-123014663D01*
X184975228Y-122950147D01*
X184974500Y-122936730D01*
X184974500Y-118927501D01*
X184994185Y-118860462D01*
X185046989Y-118814707D01*
X185116147Y-118804763D01*
X185145945Y-118812937D01*
X185186503Y-118829737D01*
X185340967Y-118860462D01*
X185341153Y-118860499D01*
X185341156Y-118860500D01*
X185341158Y-118860500D01*
X185498844Y-118860500D01*
X185498845Y-118860499D01*
X185653497Y-118829737D01*
X185799179Y-118769394D01*
X185930289Y-118681789D01*
X186041789Y-118570289D01*
X186129394Y-118439179D01*
X186189737Y-118293497D01*
X186220500Y-118138842D01*
X186220500Y-117981158D01*
X186220500Y-117981155D01*
X186200905Y-117882649D01*
X186207132Y-117813058D01*
X186249994Y-117757880D01*
X186315884Y-117734635D01*
X186369974Y-117743896D01*
X186403735Y-117757880D01*
X186456503Y-117779737D01*
X186611153Y-117810499D01*
X186611156Y-117810500D01*
X186611158Y-117810500D01*
X186768844Y-117810500D01*
X186768845Y-117810499D01*
X186923497Y-117779737D01*
X187069179Y-117719394D01*
X187200289Y-117631789D01*
X187311789Y-117520289D01*
X187399394Y-117389179D01*
X187404688Y-117376397D01*
X187448528Y-117321993D01*
X187514821Y-117299927D01*
X187582521Y-117317205D01*
G37*
%TD.AperFunction*%
%TA.AperFunction,Conductor*%
G36*
X167174075Y-111567007D02*
G01*
X167140000Y-111694174D01*
X167140000Y-111825826D01*
X167174075Y-111952993D01*
X167206988Y-112010000D01*
X165533012Y-112010000D01*
X165565925Y-111952993D01*
X165600000Y-111825826D01*
X165600000Y-111694174D01*
X165565925Y-111567007D01*
X165533012Y-111510000D01*
X167206988Y-111510000D01*
X167174075Y-111567007D01*
G37*
%TD.AperFunction*%
%TA.AperFunction,Conductor*%
G36*
X167174075Y-98867007D02*
G01*
X167140000Y-98994174D01*
X167140000Y-99125826D01*
X167174075Y-99252993D01*
X167206988Y-99310000D01*
X165533012Y-99310000D01*
X165565925Y-99252993D01*
X165600000Y-99125826D01*
X165600000Y-98994174D01*
X165565925Y-98867007D01*
X165533012Y-98810000D01*
X167206988Y-98810000D01*
X167174075Y-98867007D01*
G37*
%TD.AperFunction*%
%TA.AperFunction,Conductor*%
G36*
X149035156Y-76020185D02*
G01*
X149080911Y-76072989D01*
X149090855Y-76142147D01*
X149087348Y-76155883D01*
X149087693Y-76155965D01*
X149085908Y-76163516D01*
X149079501Y-76223116D01*
X149079501Y-76223123D01*
X149079500Y-76223135D01*
X149079500Y-77515968D01*
X149059815Y-77583007D01*
X149028387Y-77616285D01*
X148941349Y-77679522D01*
X148789525Y-77831346D01*
X148789525Y-77831347D01*
X148789523Y-77831349D01*
X148735322Y-77905949D01*
X148663317Y-78005055D01*
X148565838Y-78196366D01*
X148565837Y-78196369D01*
X148499489Y-78400571D01*
X148465900Y-78612643D01*
X148465900Y-78827356D01*
X148499489Y-79039428D01*
X148565837Y-79243630D01*
X148565838Y-79243633D01*
X148649652Y-79408125D01*
X148663317Y-79434944D01*
X148789523Y-79608651D01*
X148941349Y-79760477D01*
X149028386Y-79823713D01*
X149071051Y-79879043D01*
X149079500Y-79924031D01*
X149079500Y-80620491D01*
X149059815Y-80687530D01*
X149015731Y-80726041D01*
X149016813Y-80727795D01*
X149010667Y-80731585D01*
X149010666Y-80731586D01*
X148912419Y-80792184D01*
X148861342Y-80823689D01*
X148737289Y-80947742D01*
X148645187Y-81097063D01*
X148645185Y-81097068D01*
X148617349Y-81181070D01*
X148590001Y-81263603D01*
X148590001Y-81263604D01*
X148590000Y-81263604D01*
X148579500Y-81366383D01*
X148579500Y-81966401D01*
X148579501Y-81966419D01*
X148590000Y-82069196D01*
X148590001Y-82069199D01*
X148645185Y-82235731D01*
X148645187Y-82235736D01*
X148680069Y-82292288D01*
X148737288Y-82385056D01*
X148861344Y-82509112D01*
X149010666Y-82601214D01*
X149144503Y-82645563D01*
X149201948Y-82685336D01*
X149228771Y-82749852D01*
X149229499Y-82763269D01*
X149229499Y-82809054D01*
X149229498Y-82809054D01*
X149229499Y-82809057D01*
X149270423Y-82961785D01*
X149297806Y-83009213D01*
X149299358Y-83011900D01*
X149299359Y-83011904D01*
X149299360Y-83011904D01*
X149349480Y-83098716D01*
X149468349Y-83217585D01*
X149468355Y-83217590D01*
X150203181Y-83952416D01*
X150236666Y-84013739D01*
X150239500Y-84040097D01*
X150239500Y-95240234D01*
X150219815Y-95307273D01*
X150218602Y-95309125D01*
X150130609Y-95440814D01*
X150130602Y-95440827D01*
X150070264Y-95586498D01*
X150070261Y-95586510D01*
X150039500Y-95741153D01*
X150039500Y-95898846D01*
X150070261Y-96053489D01*
X150070264Y-96053501D01*
X150130602Y-96199172D01*
X150130609Y-96199185D01*
X150218210Y-96330288D01*
X150218213Y-96330292D01*
X150329707Y-96441786D01*
X150329711Y-96441789D01*
X150460814Y-96529390D01*
X150460827Y-96529397D01*
X150606498Y-96589735D01*
X150606503Y-96589737D01*
X150761153Y-96620499D01*
X150761156Y-96620500D01*
X150761158Y-96620500D01*
X150918844Y-96620500D01*
X150918845Y-96620499D01*
X151073497Y-96589737D01*
X151219179Y-96529394D01*
X151350289Y-96441789D01*
X151461789Y-96330289D01*
X151549394Y-96199179D01*
X151550503Y-96196503D01*
X151563067Y-96166166D01*
X151609737Y-96053497D01*
X151640500Y-95898842D01*
X151640500Y-95741158D01*
X151640500Y-95741155D01*
X151640499Y-95741153D01*
X151639498Y-95736121D01*
X151609737Y-95586503D01*
X151609735Y-95586498D01*
X151549397Y-95440827D01*
X151549390Y-95440814D01*
X151461398Y-95309125D01*
X151455747Y-95291078D01*
X151445523Y-95275169D01*
X151441071Y-95244207D01*
X151440520Y-95242447D01*
X151440500Y-95240234D01*
X151440500Y-95068541D01*
X151460185Y-95001502D01*
X151512989Y-94955747D01*
X151582147Y-94945803D01*
X151645703Y-94974828D01*
X151667602Y-94999650D01*
X151748210Y-95120288D01*
X151748213Y-95120292D01*
X151859707Y-95231786D01*
X151859711Y-95231789D01*
X151990814Y-95319390D01*
X151990827Y-95319397D01*
X152136498Y-95379735D01*
X152136503Y-95379737D01*
X152291153Y-95410499D01*
X152291156Y-95410500D01*
X152291158Y-95410500D01*
X152448844Y-95410500D01*
X152448845Y-95410499D01*
X152603497Y-95379737D01*
X152749179Y-95319394D01*
X152880289Y-95231789D01*
X152991789Y-95120289D01*
X153079394Y-94989179D01*
X153139737Y-94843497D01*
X153170500Y-94688842D01*
X153170500Y-94531158D01*
X153170500Y-94531155D01*
X153170499Y-94531153D01*
X153139737Y-94376503D01*
X153093615Y-94265154D01*
X153079397Y-94230827D01*
X153079390Y-94230814D01*
X152991398Y-94099125D01*
X152970520Y-94032447D01*
X152970500Y-94030234D01*
X152970500Y-82763269D01*
X152990185Y-82696230D01*
X153042989Y-82650475D01*
X153055486Y-82645566D01*
X153189334Y-82601214D01*
X153338656Y-82509112D01*
X153462712Y-82385056D01*
X153534461Y-82268730D01*
X153586409Y-82222006D01*
X153655371Y-82210783D01*
X153719453Y-82238626D01*
X153745539Y-82268731D01*
X153817095Y-82384744D01*
X153817288Y-82385056D01*
X153941344Y-82509112D01*
X154090666Y-82601214D01*
X154224505Y-82645564D01*
X154281949Y-82685336D01*
X154308772Y-82749851D01*
X154309500Y-82763269D01*
X154309500Y-93110234D01*
X154289815Y-93177273D01*
X154288602Y-93179125D01*
X154200609Y-93310814D01*
X154200602Y-93310827D01*
X154140264Y-93456498D01*
X154140261Y-93456510D01*
X154109500Y-93611153D01*
X154109500Y-93768846D01*
X154140261Y-93923489D01*
X154140264Y-93923501D01*
X154200602Y-94069172D01*
X154200609Y-94069185D01*
X154288210Y-94200288D01*
X154288213Y-94200292D01*
X154399707Y-94311786D01*
X154399711Y-94311789D01*
X154530814Y-94399390D01*
X154530827Y-94399397D01*
X154676498Y-94459735D01*
X154676503Y-94459737D01*
X154831153Y-94490499D01*
X154831156Y-94490500D01*
X154831158Y-94490500D01*
X154988844Y-94490500D01*
X154988845Y-94490499D01*
X155143497Y-94459737D01*
X155289179Y-94399394D01*
X155420289Y-94311789D01*
X155531789Y-94200289D01*
X155619394Y-94069179D01*
X155679737Y-93923497D01*
X155710500Y-93768842D01*
X155710500Y-93611158D01*
X155710500Y-93611155D01*
X155710499Y-93611153D01*
X155692921Y-93522783D01*
X155679737Y-93456503D01*
X155673021Y-93440288D01*
X155619397Y-93310827D01*
X155619390Y-93310814D01*
X155531398Y-93179125D01*
X155510520Y-93112447D01*
X155510500Y-93110234D01*
X155510500Y-82763269D01*
X155530185Y-82696230D01*
X155582989Y-82650475D01*
X155595486Y-82645566D01*
X155729334Y-82601214D01*
X155878656Y-82509112D01*
X156002712Y-82385056D01*
X156074461Y-82268730D01*
X156126409Y-82222006D01*
X156195371Y-82210783D01*
X156259453Y-82238626D01*
X156285539Y-82268731D01*
X156357095Y-82384744D01*
X156357288Y-82385056D01*
X156481344Y-82509112D01*
X156630666Y-82601214D01*
X156797203Y-82656399D01*
X156899991Y-82666900D01*
X158000008Y-82666899D01*
X158000016Y-82666898D01*
X158000019Y-82666898D01*
X158073096Y-82659433D01*
X158102797Y-82656399D01*
X158269334Y-82601214D01*
X158418656Y-82509112D01*
X158542712Y-82385056D01*
X158614461Y-82268730D01*
X158666409Y-82222006D01*
X158735371Y-82210783D01*
X158799453Y-82238626D01*
X158825539Y-82268731D01*
X158897095Y-82384744D01*
X158897288Y-82385056D01*
X159021344Y-82509112D01*
X159170666Y-82601214D01*
X159337203Y-82656399D01*
X159439991Y-82666900D01*
X160540008Y-82666899D01*
X160540016Y-82666898D01*
X160540019Y-82666898D01*
X160613096Y-82659433D01*
X160642797Y-82656399D01*
X160809334Y-82601214D01*
X160958656Y-82509112D01*
X161082712Y-82385056D01*
X161154461Y-82268730D01*
X161206409Y-82222006D01*
X161275371Y-82210783D01*
X161339453Y-82238626D01*
X161365539Y-82268731D01*
X161437095Y-82384744D01*
X161437288Y-82385056D01*
X161561344Y-82509112D01*
X161710666Y-82601214D01*
X161844505Y-82645564D01*
X161901949Y-82685336D01*
X161928772Y-82749851D01*
X161929500Y-82763269D01*
X161929500Y-92337216D01*
X161909815Y-92404255D01*
X161901358Y-92415876D01*
X161898208Y-92419713D01*
X161810609Y-92550814D01*
X161810602Y-92550827D01*
X161750264Y-92696498D01*
X161750261Y-92696510D01*
X161719500Y-92851153D01*
X161719500Y-93008846D01*
X161750261Y-93163489D01*
X161750264Y-93163501D01*
X161810602Y-93309172D01*
X161810609Y-93309185D01*
X161898210Y-93440288D01*
X161898213Y-93440292D01*
X162009707Y-93551786D01*
X162009711Y-93551789D01*
X162140814Y-93639390D01*
X162140827Y-93639397D01*
X162286498Y-93699735D01*
X162286503Y-93699737D01*
X162441153Y-93730499D01*
X162441156Y-93730500D01*
X162441158Y-93730500D01*
X162598844Y-93730500D01*
X162598845Y-93730499D01*
X162753497Y-93699737D01*
X162899179Y-93639394D01*
X163030289Y-93551789D01*
X163141789Y-93440289D01*
X163229394Y-93309179D01*
X163289737Y-93163497D01*
X163320500Y-93008842D01*
X163320500Y-92851158D01*
X163320500Y-92851155D01*
X163320499Y-92851153D01*
X163289738Y-92696510D01*
X163289737Y-92696503D01*
X163229397Y-92550828D01*
X163229397Y-92550827D01*
X163229390Y-92550814D01*
X163151398Y-92434091D01*
X163130520Y-92367413D01*
X163130500Y-92365200D01*
X163130500Y-82763269D01*
X163150185Y-82696230D01*
X163202989Y-82650475D01*
X163215486Y-82645566D01*
X163349334Y-82601214D01*
X163498656Y-82509112D01*
X163622712Y-82385056D01*
X163714814Y-82235734D01*
X163769999Y-82069197D01*
X163780500Y-81966409D01*
X163780499Y-81366392D01*
X163769999Y-81263603D01*
X163714814Y-81097066D01*
X163622712Y-80947744D01*
X163498656Y-80823688D01*
X163349334Y-80731586D01*
X163349332Y-80731585D01*
X163343187Y-80727795D01*
X163344292Y-80726003D01*
X163299655Y-80686700D01*
X163280499Y-80620491D01*
X163280499Y-79924031D01*
X163300184Y-79856992D01*
X163331611Y-79823714D01*
X163418651Y-79760477D01*
X163570477Y-79608651D01*
X163696683Y-79434944D01*
X163794161Y-79243633D01*
X163860511Y-79039427D01*
X163894100Y-78827357D01*
X163894100Y-78612643D01*
X163860511Y-78400573D01*
X163827336Y-78298470D01*
X163794162Y-78196369D01*
X163794161Y-78196366D01*
X163710266Y-78031715D01*
X163696683Y-78005056D01*
X163570477Y-77831349D01*
X163418651Y-77679523D01*
X163418650Y-77679522D01*
X163331612Y-77616284D01*
X163288947Y-77560954D01*
X163280499Y-77515967D01*
X163280499Y-76223129D01*
X163280498Y-76223123D01*
X163280498Y-76223116D01*
X163274091Y-76163517D01*
X163274090Y-76163515D01*
X163274090Y-76163512D01*
X163272308Y-76155969D01*
X163274810Y-76155377D01*
X163270717Y-76098140D01*
X163304203Y-76036818D01*
X163365526Y-76003333D01*
X163391883Y-76000500D01*
X166748117Y-76000500D01*
X166815156Y-76020185D01*
X166860911Y-76072989D01*
X166870855Y-76142147D01*
X166867348Y-76155883D01*
X166867693Y-76155965D01*
X166865908Y-76163516D01*
X166859501Y-76223116D01*
X166859501Y-76223123D01*
X166859500Y-76223135D01*
X166859500Y-77515968D01*
X166839815Y-77583007D01*
X166808387Y-77616285D01*
X166721349Y-77679522D01*
X166569525Y-77831346D01*
X166569525Y-77831347D01*
X166569523Y-77831349D01*
X166515322Y-77905949D01*
X166443317Y-78005055D01*
X166345838Y-78196366D01*
X166345837Y-78196369D01*
X166279489Y-78400571D01*
X166245900Y-78612643D01*
X166245900Y-78827356D01*
X166279489Y-79039428D01*
X166345837Y-79243630D01*
X166345838Y-79243633D01*
X166429652Y-79408125D01*
X166443317Y-79434944D01*
X166569523Y-79608651D01*
X166721349Y-79760477D01*
X166808386Y-79823713D01*
X166851051Y-79879043D01*
X166859500Y-79924031D01*
X166859500Y-80620491D01*
X166839815Y-80687530D01*
X166795731Y-80726041D01*
X166796813Y-80727795D01*
X166790667Y-80731585D01*
X166790666Y-80731586D01*
X166692419Y-80792184D01*
X166641342Y-80823689D01*
X166517289Y-80947742D01*
X166425187Y-81097063D01*
X166425185Y-81097068D01*
X166397349Y-81181070D01*
X166370001Y-81263603D01*
X166370001Y-81263604D01*
X166370000Y-81263604D01*
X166359500Y-81366383D01*
X166359500Y-81966401D01*
X166359501Y-81966419D01*
X166370000Y-82069196D01*
X166370001Y-82069199D01*
X166425185Y-82235731D01*
X166425187Y-82235736D01*
X166460069Y-82292288D01*
X166517288Y-82385056D01*
X166641344Y-82509112D01*
X166790666Y-82601214D01*
X166957203Y-82656399D01*
X167059991Y-82666900D01*
X168160008Y-82666899D01*
X168160016Y-82666898D01*
X168160019Y-82666898D01*
X168233096Y-82659433D01*
X168262797Y-82656399D01*
X168429334Y-82601214D01*
X168578656Y-82509112D01*
X168702712Y-82385056D01*
X168774754Y-82268255D01*
X168826702Y-82221531D01*
X168895664Y-82210308D01*
X168959746Y-82238151D01*
X168985831Y-82268255D01*
X169057680Y-82384740D01*
X169057683Y-82384744D01*
X169181654Y-82508715D01*
X169330875Y-82600756D01*
X169330880Y-82600758D01*
X169497302Y-82655905D01*
X169497309Y-82655906D01*
X169600019Y-82666399D01*
X169899999Y-82666399D01*
X170400000Y-82666399D01*
X170699972Y-82666399D01*
X170699986Y-82666398D01*
X170802697Y-82655905D01*
X170969119Y-82600758D01*
X170969124Y-82600756D01*
X171118345Y-82508715D01*
X171242315Y-82384745D01*
X171314461Y-82267779D01*
X171366409Y-82221055D01*
X171435372Y-82209832D01*
X171499454Y-82237676D01*
X171525539Y-82267779D01*
X171597684Y-82384745D01*
X171721654Y-82508715D01*
X171870875Y-82600756D01*
X171870880Y-82600758D01*
X172037302Y-82655905D01*
X172037309Y-82655906D01*
X172140019Y-82666399D01*
X172439999Y-82666399D01*
X172440000Y-82666398D01*
X172440000Y-81916400D01*
X170400000Y-81916400D01*
X170400000Y-82666399D01*
X169899999Y-82666399D01*
X169900000Y-82666398D01*
X169900000Y-81790400D01*
X169912761Y-81746938D01*
X169938060Y-81808014D01*
X170008386Y-81878340D01*
X170100272Y-81916400D01*
X170199728Y-81916400D01*
X170291614Y-81878340D01*
X170361940Y-81808014D01*
X170400000Y-81716128D01*
X170400000Y-81616672D01*
X170361940Y-81524786D01*
X170291614Y-81454460D01*
X170225303Y-81426993D01*
X170274000Y-81416400D01*
X172566000Y-81416400D01*
X172609461Y-81429161D01*
X172548386Y-81454460D01*
X172478060Y-81524786D01*
X172440000Y-81616672D01*
X172440000Y-81716128D01*
X172478060Y-81808014D01*
X172548386Y-81878340D01*
X172640272Y-81916400D01*
X172739728Y-81916400D01*
X172831614Y-81878340D01*
X172901940Y-81808014D01*
X172929406Y-81741703D01*
X172940000Y-81790400D01*
X172940000Y-82666399D01*
X173239972Y-82666399D01*
X173239986Y-82666398D01*
X173342697Y-82655905D01*
X173509119Y-82600758D01*
X173509124Y-82600756D01*
X173658345Y-82508715D01*
X173782317Y-82384743D01*
X173854167Y-82268256D01*
X173906115Y-82221531D01*
X173975077Y-82210308D01*
X174039160Y-82238152D01*
X174065244Y-82268254D01*
X174137288Y-82385056D01*
X174261344Y-82509112D01*
X174410666Y-82601214D01*
X174429308Y-82607391D01*
X174486753Y-82647164D01*
X174513576Y-82711680D01*
X174501261Y-82780456D01*
X174477985Y-82812778D01*
X174037584Y-83253181D01*
X173976261Y-83286666D01*
X173949903Y-83289500D01*
X171116670Y-83289500D01*
X171116654Y-83289499D01*
X171109058Y-83289499D01*
X170950943Y-83289499D01*
X170874579Y-83309961D01*
X170798214Y-83330423D01*
X170798209Y-83330426D01*
X170661290Y-83409475D01*
X170661282Y-83409481D01*
X169169481Y-84901282D01*
X169169479Y-84901285D01*
X169119361Y-84988094D01*
X169119359Y-84988096D01*
X169090425Y-85038209D01*
X169090424Y-85038210D01*
X169089076Y-85043241D01*
X169049499Y-85190943D01*
X169049499Y-85190945D01*
X169049499Y-85359046D01*
X169049500Y-85359059D01*
X169049500Y-85636172D01*
X169029815Y-85703211D01*
X168977011Y-85748966D01*
X168907853Y-85758910D01*
X168844297Y-85729885D01*
X168815016Y-85692468D01*
X168794622Y-85652444D01*
X168669727Y-85480540D01*
X168669723Y-85480535D01*
X168519464Y-85330276D01*
X168519459Y-85330272D01*
X168347557Y-85205379D01*
X168158215Y-85108903D01*
X167956124Y-85043241D01*
X167890000Y-85032768D01*
X167890000Y-85926988D01*
X167832993Y-85894075D01*
X167705826Y-85860000D01*
X167574174Y-85860000D01*
X167447007Y-85894075D01*
X167390000Y-85926988D01*
X167390000Y-85032768D01*
X167389999Y-85032768D01*
X167323875Y-85043241D01*
X167121784Y-85108903D01*
X166932442Y-85205379D01*
X166760540Y-85330272D01*
X166760535Y-85330276D01*
X166610276Y-85480535D01*
X166610272Y-85480540D01*
X166485377Y-85652444D01*
X166480484Y-85662048D01*
X166432509Y-85712844D01*
X166364688Y-85729638D01*
X166298553Y-85707100D01*
X166259516Y-85662048D01*
X166254622Y-85652444D01*
X166129727Y-85480540D01*
X166129723Y-85480535D01*
X165979464Y-85330276D01*
X165979459Y-85330272D01*
X165807557Y-85205379D01*
X165618215Y-85108903D01*
X165416124Y-85043241D01*
X165350000Y-85032768D01*
X165350000Y-85926988D01*
X165292993Y-85894075D01*
X165165826Y-85860000D01*
X165034174Y-85860000D01*
X164907007Y-85894075D01*
X164850000Y-85926988D01*
X164850000Y-85032768D01*
X164849999Y-85032768D01*
X164783875Y-85043241D01*
X164581784Y-85108903D01*
X164392442Y-85205379D01*
X164220540Y-85330272D01*
X164220535Y-85330276D01*
X164070276Y-85480535D01*
X164070272Y-85480540D01*
X163945379Y-85652442D01*
X163848904Y-85841782D01*
X163783242Y-86043870D01*
X163783242Y-86043873D01*
X163772769Y-86110000D01*
X164666988Y-86110000D01*
X164634075Y-86167007D01*
X164600000Y-86294174D01*
X164600000Y-86425826D01*
X164634075Y-86552993D01*
X164666988Y-86610000D01*
X163772769Y-86610000D01*
X163783242Y-86676126D01*
X163783242Y-86676129D01*
X163848904Y-86878217D01*
X163945379Y-87067557D01*
X164070272Y-87239459D01*
X164070276Y-87239464D01*
X164183946Y-87353134D01*
X164217431Y-87414457D01*
X164212447Y-87484149D01*
X164170575Y-87540082D01*
X164139598Y-87556997D01*
X164007671Y-87606202D01*
X164007664Y-87606206D01*
X163892455Y-87692452D01*
X163892452Y-87692455D01*
X163806206Y-87807664D01*
X163806202Y-87807671D01*
X163755908Y-87942517D01*
X163749501Y-88002116D01*
X163749500Y-88002135D01*
X163749500Y-89797870D01*
X163749501Y-89797876D01*
X163755908Y-89857483D01*
X163806202Y-89992328D01*
X163806206Y-89992335D01*
X163892452Y-90107544D01*
X163892455Y-90107547D01*
X164007664Y-90193793D01*
X164007671Y-90193797D01*
X164052508Y-90210520D01*
X164142517Y-90244091D01*
X164202127Y-90250500D01*
X164375500Y-90250499D01*
X164384185Y-90253049D01*
X164393147Y-90251761D01*
X164417184Y-90262738D01*
X164442539Y-90270183D01*
X164448467Y-90277025D01*
X164456703Y-90280786D01*
X164470989Y-90303017D01*
X164488294Y-90322987D01*
X164490581Y-90333502D01*
X164494477Y-90339564D01*
X164499500Y-90374499D01*
X164499500Y-90433330D01*
X164499499Y-90433348D01*
X164499499Y-90599054D01*
X164499498Y-90599054D01*
X164516794Y-90663602D01*
X164540423Y-90751785D01*
X164548242Y-90765328D01*
X164548243Y-90765331D01*
X164548244Y-90765331D01*
X164619477Y-90888712D01*
X164619479Y-90888715D01*
X164619480Y-90888716D01*
X164731284Y-91000520D01*
X164731285Y-91000521D01*
X165071284Y-91340520D01*
X165071286Y-91340521D01*
X165071290Y-91340524D01*
X165197671Y-91413489D01*
X165208216Y-91419577D01*
X165360943Y-91460501D01*
X165360945Y-91460501D01*
X165526654Y-91460501D01*
X165526670Y-91460500D01*
X168433331Y-91460500D01*
X168433347Y-91460501D01*
X168440943Y-91460501D01*
X168599054Y-91460501D01*
X168599057Y-91460501D01*
X168751785Y-91419577D01*
X168811100Y-91385331D01*
X168888716Y-91340520D01*
X169000520Y-91228716D01*
X169000520Y-91228714D01*
X169010724Y-91218511D01*
X169010728Y-91218506D01*
X170008506Y-90220728D01*
X170008511Y-90220724D01*
X170018714Y-90210520D01*
X170018716Y-90210520D01*
X170130520Y-90098716D01*
X170209577Y-89961784D01*
X170250500Y-89809057D01*
X170250500Y-85570097D01*
X170270185Y-85503058D01*
X170286819Y-85482416D01*
X171242417Y-84526819D01*
X171303740Y-84493334D01*
X171330098Y-84490500D01*
X174163331Y-84490500D01*
X174163347Y-84490501D01*
X174170943Y-84490501D01*
X174329054Y-84490501D01*
X174329057Y-84490501D01*
X174481785Y-84449577D01*
X174531904Y-84420639D01*
X174618716Y-84370520D01*
X174730520Y-84258716D01*
X174730520Y-84258714D01*
X174740728Y-84248507D01*
X174740730Y-84248504D01*
X175588506Y-83400728D01*
X175588511Y-83400724D01*
X175598714Y-83390520D01*
X175598716Y-83390520D01*
X175710520Y-83278716D01*
X175779360Y-83159481D01*
X175789577Y-83141785D01*
X175830500Y-82989058D01*
X175830500Y-82830943D01*
X175830500Y-82763269D01*
X175850185Y-82696230D01*
X175902989Y-82650475D01*
X175915486Y-82645566D01*
X176049334Y-82601214D01*
X176198656Y-82509112D01*
X176322712Y-82385056D01*
X176394461Y-82268730D01*
X176446409Y-82222006D01*
X176515371Y-82210783D01*
X176579453Y-82238626D01*
X176605539Y-82268731D01*
X176677095Y-82384744D01*
X176677288Y-82385056D01*
X176801344Y-82509112D01*
X176950666Y-82601214D01*
X177084505Y-82645564D01*
X177141949Y-82685336D01*
X177168772Y-82749851D01*
X177169500Y-82763269D01*
X177169500Y-83133330D01*
X177169499Y-83133348D01*
X177169499Y-83299054D01*
X177169498Y-83299054D01*
X177210423Y-83451786D01*
X177210424Y-83451787D01*
X177232775Y-83490500D01*
X177289480Y-83588716D01*
X177401284Y-83700520D01*
X177401285Y-83700521D01*
X177821284Y-84120520D01*
X177821286Y-84120521D01*
X177821290Y-84120524D01*
X177958209Y-84199573D01*
X177958216Y-84199577D01*
X178110943Y-84240501D01*
X178110945Y-84240501D01*
X178276654Y-84240501D01*
X178276670Y-84240500D01*
X183090939Y-84240500D01*
X183090943Y-84240501D01*
X183249057Y-84240501D01*
X183249061Y-84240500D01*
X183520942Y-84240500D01*
X183520943Y-84240500D01*
X183610943Y-84240500D01*
X195349903Y-84240500D01*
X195416942Y-84260185D01*
X195437584Y-84276819D01*
X196169580Y-85008815D01*
X196203065Y-85070138D01*
X196198081Y-85139830D01*
X196156209Y-85195763D01*
X196146125Y-85202060D01*
X196146336Y-85202404D01*
X196142184Y-85204948D01*
X195970213Y-85329890D01*
X195819890Y-85480213D01*
X195694949Y-85652182D01*
X195690484Y-85660946D01*
X195642509Y-85711742D01*
X195574688Y-85728536D01*
X195508553Y-85705998D01*
X195469516Y-85660946D01*
X195465050Y-85652182D01*
X195340109Y-85480213D01*
X195189786Y-85329890D01*
X195017820Y-85204951D01*
X194828414Y-85108444D01*
X194828413Y-85108443D01*
X194828412Y-85108443D01*
X194626243Y-85042754D01*
X194626241Y-85042753D01*
X194626240Y-85042753D01*
X194464957Y-85017208D01*
X194416287Y-85009500D01*
X194203713Y-85009500D01*
X194155042Y-85017208D01*
X193993760Y-85042753D01*
X193791585Y-85108444D01*
X193602179Y-85204951D01*
X193430213Y-85329890D01*
X193279890Y-85480213D01*
X193154949Y-85652182D01*
X193150484Y-85660946D01*
X193102509Y-85711742D01*
X193034688Y-85728536D01*
X192968553Y-85705998D01*
X192929516Y-85660946D01*
X192925050Y-85652182D01*
X192800109Y-85480213D01*
X192649786Y-85329890D01*
X192477820Y-85204951D01*
X192288414Y-85108444D01*
X192288413Y-85108443D01*
X192288412Y-85108443D01*
X192086243Y-85042754D01*
X192086241Y-85042753D01*
X192086240Y-85042753D01*
X191924957Y-85017208D01*
X191876287Y-85009500D01*
X191663713Y-85009500D01*
X191615042Y-85017208D01*
X191453760Y-85042753D01*
X191251585Y-85108444D01*
X191062179Y-85204951D01*
X190890213Y-85329890D01*
X190739890Y-85480213D01*
X190614949Y-85652182D01*
X190610484Y-85660946D01*
X190562509Y-85711742D01*
X190494688Y-85728536D01*
X190428553Y-85705998D01*
X190389516Y-85660946D01*
X190385050Y-85652182D01*
X190260109Y-85480213D01*
X190109786Y-85329890D01*
X189937820Y-85204951D01*
X189748414Y-85108444D01*
X189748413Y-85108443D01*
X189748412Y-85108443D01*
X189546243Y-85042754D01*
X189546241Y-85042753D01*
X189546240Y-85042753D01*
X189384957Y-85017208D01*
X189336287Y-85009500D01*
X189123713Y-85009500D01*
X189075042Y-85017208D01*
X188913760Y-85042753D01*
X188711585Y-85108444D01*
X188522179Y-85204951D01*
X188350213Y-85329890D01*
X188199890Y-85480213D01*
X188074949Y-85652182D01*
X188070484Y-85660946D01*
X188022509Y-85711742D01*
X187954688Y-85728536D01*
X187888553Y-85705998D01*
X187849516Y-85660946D01*
X187845050Y-85652182D01*
X187720109Y-85480213D01*
X187569786Y-85329890D01*
X187397820Y-85204951D01*
X187208414Y-85108444D01*
X187208413Y-85108443D01*
X187208412Y-85108443D01*
X187006243Y-85042754D01*
X187006241Y-85042753D01*
X187006240Y-85042753D01*
X186844957Y-85017208D01*
X186796287Y-85009500D01*
X186583713Y-85009500D01*
X186535042Y-85017208D01*
X186373760Y-85042753D01*
X186171585Y-85108444D01*
X185982179Y-85204951D01*
X185810213Y-85329890D01*
X185659890Y-85480213D01*
X185534949Y-85652182D01*
X185530484Y-85660946D01*
X185482509Y-85711742D01*
X185414688Y-85728536D01*
X185348553Y-85705998D01*
X185309516Y-85660946D01*
X185305050Y-85652182D01*
X185180109Y-85480213D01*
X185029786Y-85329890D01*
X184857820Y-85204951D01*
X184668414Y-85108444D01*
X184668413Y-85108443D01*
X184668412Y-85108443D01*
X184466243Y-85042754D01*
X184466241Y-85042753D01*
X184466240Y-85042753D01*
X184304957Y-85017208D01*
X184256287Y-85009500D01*
X184043713Y-85009500D01*
X183995042Y-85017208D01*
X183833760Y-85042753D01*
X183631585Y-85108444D01*
X183442179Y-85204951D01*
X183270213Y-85329890D01*
X183119890Y-85480213D01*
X182994949Y-85652182D01*
X182990484Y-85660946D01*
X182942509Y-85711742D01*
X182874688Y-85728536D01*
X182808553Y-85705998D01*
X182769516Y-85660946D01*
X182765050Y-85652182D01*
X182640109Y-85480213D01*
X182489786Y-85329890D01*
X182317820Y-85204951D01*
X182128414Y-85108444D01*
X182128413Y-85108443D01*
X182128412Y-85108443D01*
X181926243Y-85042754D01*
X181926241Y-85042753D01*
X181926240Y-85042753D01*
X181764957Y-85017208D01*
X181716287Y-85009500D01*
X181503713Y-85009500D01*
X181455042Y-85017208D01*
X181293760Y-85042753D01*
X181091585Y-85108444D01*
X180902179Y-85204951D01*
X180730213Y-85329890D01*
X180579890Y-85480213D01*
X180454949Y-85652182D01*
X180450484Y-85660946D01*
X180402509Y-85711742D01*
X180334688Y-85728536D01*
X180268553Y-85705998D01*
X180229516Y-85660946D01*
X180225050Y-85652182D01*
X180100109Y-85480213D01*
X179949786Y-85329890D01*
X179777820Y-85204951D01*
X179588414Y-85108444D01*
X179588413Y-85108443D01*
X179588412Y-85108443D01*
X179386243Y-85042754D01*
X179386241Y-85042753D01*
X179386240Y-85042753D01*
X179224957Y-85017208D01*
X179176287Y-85009500D01*
X178963713Y-85009500D01*
X178915042Y-85017208D01*
X178753760Y-85042753D01*
X178551585Y-85108444D01*
X178362179Y-85204951D01*
X178190213Y-85329890D01*
X178039890Y-85480213D01*
X177914949Y-85652182D01*
X177910484Y-85660946D01*
X177862509Y-85711742D01*
X177794688Y-85728536D01*
X177728553Y-85705998D01*
X177689516Y-85660946D01*
X177685050Y-85652182D01*
X177560109Y-85480213D01*
X177409786Y-85329890D01*
X177237820Y-85204951D01*
X177048414Y-85108444D01*
X177048413Y-85108443D01*
X177048412Y-85108443D01*
X176846243Y-85042754D01*
X176846241Y-85042753D01*
X176846240Y-85042753D01*
X176684957Y-85017208D01*
X176636287Y-85009500D01*
X176423713Y-85009500D01*
X176375042Y-85017208D01*
X176213760Y-85042753D01*
X176011585Y-85108444D01*
X175822179Y-85204951D01*
X175650213Y-85329890D01*
X175499890Y-85480213D01*
X175374949Y-85652182D01*
X175370202Y-85661499D01*
X175322227Y-85712293D01*
X175254405Y-85729087D01*
X175188271Y-85706548D01*
X175149234Y-85661495D01*
X175144622Y-85652444D01*
X175019727Y-85480540D01*
X175019723Y-85480535D01*
X174869464Y-85330276D01*
X174869459Y-85330272D01*
X174697557Y-85205379D01*
X174508215Y-85108903D01*
X174306124Y-85043241D01*
X174240000Y-85032768D01*
X174240000Y-85926988D01*
X174182993Y-85894075D01*
X174055826Y-85860000D01*
X173924174Y-85860000D01*
X173797007Y-85894075D01*
X173740000Y-85926988D01*
X173740000Y-85032768D01*
X173739999Y-85032768D01*
X173673875Y-85043241D01*
X173471784Y-85108903D01*
X173282442Y-85205379D01*
X173110540Y-85330272D01*
X173110535Y-85330276D01*
X172960276Y-85480535D01*
X172960272Y-85480540D01*
X172835379Y-85652442D01*
X172738904Y-85841782D01*
X172673242Y-86043870D01*
X172673242Y-86043873D01*
X172662769Y-86110000D01*
X173556988Y-86110000D01*
X173524075Y-86167007D01*
X173490000Y-86294174D01*
X173490000Y-86425826D01*
X173524075Y-86552993D01*
X173556988Y-86610000D01*
X172662769Y-86610000D01*
X172673242Y-86676126D01*
X172673242Y-86676129D01*
X172738904Y-86878217D01*
X172835379Y-87067557D01*
X172960272Y-87239459D01*
X172960276Y-87239464D01*
X173073946Y-87353134D01*
X173107431Y-87414457D01*
X173102447Y-87484149D01*
X173060575Y-87540082D01*
X173029598Y-87556997D01*
X172897671Y-87606202D01*
X172897664Y-87606206D01*
X172782455Y-87692452D01*
X172782452Y-87692455D01*
X172696206Y-87807664D01*
X172696202Y-87807671D01*
X172645908Y-87942517D01*
X172639501Y-88002116D01*
X172639500Y-88002135D01*
X172639500Y-89797870D01*
X172639501Y-89797876D01*
X172645908Y-89857483D01*
X172696202Y-89992328D01*
X172696206Y-89992335D01*
X172782452Y-90107544D01*
X172782455Y-90107547D01*
X172897664Y-90193793D01*
X172897671Y-90193797D01*
X173032517Y-90244091D01*
X173032516Y-90244091D01*
X173039444Y-90244835D01*
X173092127Y-90250500D01*
X174887872Y-90250499D01*
X174947483Y-90244091D01*
X175082331Y-90193796D01*
X175197546Y-90107546D01*
X175283796Y-89992331D01*
X175332810Y-89860916D01*
X175374681Y-89804984D01*
X175440145Y-89780566D01*
X175508418Y-89795417D01*
X175536673Y-89816569D01*
X175650213Y-89930109D01*
X175822179Y-90055048D01*
X175822181Y-90055049D01*
X175822184Y-90055051D01*
X176011588Y-90151557D01*
X176213757Y-90217246D01*
X176423713Y-90250500D01*
X176423714Y-90250500D01*
X176636286Y-90250500D01*
X176636287Y-90250500D01*
X176846243Y-90217246D01*
X177048412Y-90151557D01*
X177237816Y-90055051D01*
X177324138Y-89992335D01*
X177409786Y-89930109D01*
X177409788Y-89930106D01*
X177409792Y-89930104D01*
X177560104Y-89779792D01*
X177560106Y-89779788D01*
X177560109Y-89779786D01*
X177685048Y-89607820D01*
X177685047Y-89607820D01*
X177685051Y-89607816D01*
X177689514Y-89599054D01*
X177737488Y-89548259D01*
X177805308Y-89531463D01*
X177871444Y-89553999D01*
X177910486Y-89599056D01*
X177914951Y-89607820D01*
X178039890Y-89779786D01*
X178190213Y-89930109D01*
X178362184Y-90055051D01*
X178362184Y-90055052D01*
X178401793Y-90075233D01*
X178452590Y-90123206D01*
X178469500Y-90185718D01*
X178469500Y-90600234D01*
X178449815Y-90667273D01*
X178448602Y-90669125D01*
X178360609Y-90800814D01*
X178360602Y-90800827D01*
X178300264Y-90946498D01*
X178300261Y-90946510D01*
X178269500Y-91101153D01*
X178269500Y-91258846D01*
X178300261Y-91413489D01*
X178300264Y-91413501D01*
X178360602Y-91559172D01*
X178360609Y-91559185D01*
X178448210Y-91690288D01*
X178448213Y-91690292D01*
X178559707Y-91801786D01*
X178559711Y-91801789D01*
X178690814Y-91889390D01*
X178690827Y-91889397D01*
X178836498Y-91949735D01*
X178836503Y-91949737D01*
X178991153Y-91980499D01*
X178991156Y-91980500D01*
X178991158Y-91980500D01*
X179148844Y-91980500D01*
X179242556Y-91961859D01*
X179312148Y-91968086D01*
X179367325Y-92010949D01*
X179381309Y-92036023D01*
X179440604Y-92179176D01*
X179440609Y-92179185D01*
X179528210Y-92310288D01*
X179528213Y-92310292D01*
X179607982Y-92390061D01*
X179641467Y-92451384D01*
X179636483Y-92521076D01*
X179623410Y-92546623D01*
X179620611Y-92550812D01*
X179620602Y-92550828D01*
X179560264Y-92696498D01*
X179560261Y-92696510D01*
X179529500Y-92851153D01*
X179529500Y-93008846D01*
X179560261Y-93163489D01*
X179560264Y-93163501D01*
X179620602Y-93309172D01*
X179620609Y-93309185D01*
X179708210Y-93440289D01*
X179711353Y-93444118D01*
X179738666Y-93508428D01*
X179739500Y-93522783D01*
X179739500Y-97686863D01*
X179719815Y-97753902D01*
X179667011Y-97799657D01*
X179597853Y-97809601D01*
X179577182Y-97804794D01*
X179386240Y-97742753D01*
X179224957Y-97717208D01*
X179176287Y-97709500D01*
X178963713Y-97709500D01*
X178915042Y-97717208D01*
X178753760Y-97742753D01*
X178551585Y-97808444D01*
X178362179Y-97904951D01*
X178190213Y-98029890D01*
X178039890Y-98180213D01*
X177914949Y-98352182D01*
X177910484Y-98360946D01*
X177862509Y-98411742D01*
X177794688Y-98428536D01*
X177728553Y-98405998D01*
X177689516Y-98360946D01*
X177685050Y-98352182D01*
X177560109Y-98180213D01*
X177409786Y-98029890D01*
X177237820Y-97904951D01*
X177048414Y-97808444D01*
X177048413Y-97808443D01*
X177048412Y-97808443D01*
X176846243Y-97742754D01*
X176846241Y-97742753D01*
X176846240Y-97742753D01*
X176684957Y-97717208D01*
X176636287Y-97709500D01*
X176423713Y-97709500D01*
X176375042Y-97717208D01*
X176213760Y-97742753D01*
X176011585Y-97808444D01*
X175822179Y-97904951D01*
X175650213Y-98029890D01*
X175499890Y-98180213D01*
X175374949Y-98352182D01*
X175370202Y-98361499D01*
X175322227Y-98412293D01*
X175254405Y-98429087D01*
X175188271Y-98406548D01*
X175149234Y-98361495D01*
X175144622Y-98352444D01*
X175019727Y-98180540D01*
X175019723Y-98180535D01*
X174869464Y-98030276D01*
X174869459Y-98030272D01*
X174697557Y-97905379D01*
X174508215Y-97808903D01*
X174306124Y-97743241D01*
X174240000Y-97732768D01*
X174240000Y-98626988D01*
X174182993Y-98594075D01*
X174055826Y-98560000D01*
X173924174Y-98560000D01*
X173797007Y-98594075D01*
X173740000Y-98626988D01*
X173740000Y-97732768D01*
X173739999Y-97732768D01*
X173673875Y-97743241D01*
X173471784Y-97808903D01*
X173282442Y-97905379D01*
X173110540Y-98030272D01*
X173110535Y-98030276D01*
X172960276Y-98180535D01*
X172960272Y-98180540D01*
X172835379Y-98352442D01*
X172738904Y-98541782D01*
X172673242Y-98743870D01*
X172673242Y-98743873D01*
X172662769Y-98810000D01*
X173556988Y-98810000D01*
X173524075Y-98867007D01*
X173490000Y-98994174D01*
X173490000Y-99125826D01*
X173524075Y-99252993D01*
X173556988Y-99310000D01*
X172662769Y-99310000D01*
X172673242Y-99376126D01*
X172673242Y-99376129D01*
X172738904Y-99578217D01*
X172835379Y-99767557D01*
X172960272Y-99939459D01*
X172960276Y-99939464D01*
X173073946Y-100053134D01*
X173107431Y-100114457D01*
X173102447Y-100184149D01*
X173060575Y-100240082D01*
X173029598Y-100256997D01*
X172897671Y-100306202D01*
X172897664Y-100306206D01*
X172782455Y-100392452D01*
X172782452Y-100392455D01*
X172696206Y-100507664D01*
X172696202Y-100507671D01*
X172645908Y-100642517D01*
X172639501Y-100702116D01*
X172639500Y-100702135D01*
X172639500Y-102497870D01*
X172639501Y-102497876D01*
X172645908Y-102557483D01*
X172696202Y-102692328D01*
X172696206Y-102692335D01*
X172782452Y-102807544D01*
X172782455Y-102807547D01*
X172897664Y-102893793D01*
X172897671Y-102893797D01*
X173032517Y-102944091D01*
X173032516Y-102944091D01*
X173039444Y-102944835D01*
X173092127Y-102950500D01*
X174887872Y-102950499D01*
X174947483Y-102944091D01*
X175082331Y-102893796D01*
X175197546Y-102807546D01*
X175283796Y-102692331D01*
X175332810Y-102560916D01*
X175374681Y-102504984D01*
X175440145Y-102480566D01*
X175508418Y-102495417D01*
X175536673Y-102516569D01*
X175650213Y-102630109D01*
X175822179Y-102755048D01*
X175822181Y-102755049D01*
X175822184Y-102755051D01*
X176011588Y-102851557D01*
X176213757Y-102917246D01*
X176423713Y-102950500D01*
X176423714Y-102950500D01*
X176636286Y-102950500D01*
X176636287Y-102950500D01*
X176846243Y-102917246D01*
X177048412Y-102851557D01*
X177237816Y-102755051D01*
X177324138Y-102692335D01*
X177409786Y-102630109D01*
X177409788Y-102630106D01*
X177409792Y-102630104D01*
X177560104Y-102479792D01*
X177560106Y-102479788D01*
X177560109Y-102479786D01*
X177685048Y-102307820D01*
X177685047Y-102307820D01*
X177685051Y-102307816D01*
X177689514Y-102299054D01*
X177737488Y-102248259D01*
X177805308Y-102231463D01*
X177871444Y-102253999D01*
X177910486Y-102299056D01*
X177914951Y-102307820D01*
X178039890Y-102479786D01*
X178190213Y-102630109D01*
X178362179Y-102755048D01*
X178362181Y-102755049D01*
X178362184Y-102755051D01*
X178551588Y-102851557D01*
X178753757Y-102917246D01*
X178963713Y-102950500D01*
X178963714Y-102950500D01*
X179176286Y-102950500D01*
X179176287Y-102950500D01*
X179386243Y-102917246D01*
X179588412Y-102851557D01*
X179777816Y-102755051D01*
X179864138Y-102692335D01*
X179949786Y-102630109D01*
X179949788Y-102630106D01*
X179949792Y-102630104D01*
X180100104Y-102479792D01*
X180100106Y-102479788D01*
X180100109Y-102479786D01*
X180225048Y-102307820D01*
X180225047Y-102307820D01*
X180225051Y-102307816D01*
X180229514Y-102299054D01*
X180277488Y-102248259D01*
X180345308Y-102231463D01*
X180411444Y-102253999D01*
X180450486Y-102299056D01*
X180454951Y-102307820D01*
X180579890Y-102479786D01*
X180730213Y-102630109D01*
X180902179Y-102755048D01*
X180902181Y-102755049D01*
X180902184Y-102755051D01*
X181091588Y-102851557D01*
X181293757Y-102917246D01*
X181503713Y-102950500D01*
X181503714Y-102950500D01*
X181716286Y-102950500D01*
X181716287Y-102950500D01*
X181926243Y-102917246D01*
X182128412Y-102851557D01*
X182317816Y-102755051D01*
X182404138Y-102692335D01*
X182489786Y-102630109D01*
X182489788Y-102630106D01*
X182489792Y-102630104D01*
X182640104Y-102479792D01*
X182640106Y-102479788D01*
X182640109Y-102479786D01*
X182765048Y-102307820D01*
X182765047Y-102307820D01*
X182765051Y-102307816D01*
X182769514Y-102299054D01*
X182817488Y-102248259D01*
X182885308Y-102231463D01*
X182951444Y-102253999D01*
X182990486Y-102299056D01*
X182994951Y-102307820D01*
X183119890Y-102479786D01*
X183270213Y-102630109D01*
X183442184Y-102755051D01*
X183442184Y-102755052D01*
X183481793Y-102775233D01*
X183532590Y-102823206D01*
X183549500Y-102885718D01*
X183549500Y-103460234D01*
X183529815Y-103527273D01*
X183528602Y-103529125D01*
X183440609Y-103660814D01*
X183440602Y-103660827D01*
X183380264Y-103806498D01*
X183380261Y-103806510D01*
X183349500Y-103961153D01*
X183349500Y-104118846D01*
X183380261Y-104273489D01*
X183380264Y-104273501D01*
X183440602Y-104419172D01*
X183440609Y-104419185D01*
X183528210Y-104550288D01*
X183528213Y-104550292D01*
X183639707Y-104661786D01*
X183639711Y-104661789D01*
X183770814Y-104749390D01*
X183770827Y-104749397D01*
X183916498Y-104809735D01*
X183916503Y-104809737D01*
X184071153Y-104840499D01*
X184071156Y-104840500D01*
X184071158Y-104840500D01*
X184228844Y-104840500D01*
X184228845Y-104840499D01*
X184383497Y-104809737D01*
X184529179Y-104749394D01*
X184660289Y-104661789D01*
X184771789Y-104550289D01*
X184859394Y-104419179D01*
X184919737Y-104273497D01*
X184950500Y-104118842D01*
X184950500Y-103961158D01*
X184950500Y-103961155D01*
X184950499Y-103961153D01*
X184919738Y-103806510D01*
X184919737Y-103806503D01*
X184919735Y-103806498D01*
X184859397Y-103660827D01*
X184859390Y-103660814D01*
X184771398Y-103529125D01*
X184750520Y-103462447D01*
X184750500Y-103460234D01*
X184750500Y-102885718D01*
X184770185Y-102818679D01*
X184818207Y-102775233D01*
X184857815Y-102755052D01*
X184857815Y-102755051D01*
X184857816Y-102755051D01*
X184949193Y-102688661D01*
X185029786Y-102630109D01*
X185029788Y-102630106D01*
X185029792Y-102630104D01*
X185180104Y-102479792D01*
X185180106Y-102479788D01*
X185180109Y-102479786D01*
X185305048Y-102307820D01*
X185305047Y-102307820D01*
X185305051Y-102307816D01*
X185309514Y-102299054D01*
X185357488Y-102248259D01*
X185425308Y-102231463D01*
X185491444Y-102253999D01*
X185530486Y-102299056D01*
X185534951Y-102307820D01*
X185659890Y-102479786D01*
X185810213Y-102630109D01*
X185982179Y-102755048D01*
X185982181Y-102755049D01*
X185982184Y-102755051D01*
X186171588Y-102851557D01*
X186373757Y-102917246D01*
X186583713Y-102950500D01*
X186583714Y-102950500D01*
X186796286Y-102950500D01*
X186796287Y-102950500D01*
X187006243Y-102917246D01*
X187208412Y-102851557D01*
X187397816Y-102755051D01*
X187484138Y-102692335D01*
X187569786Y-102630109D01*
X187569788Y-102630106D01*
X187569792Y-102630104D01*
X187720104Y-102479792D01*
X187720106Y-102479788D01*
X187720109Y-102479786D01*
X187845048Y-102307820D01*
X187845047Y-102307820D01*
X187845051Y-102307816D01*
X187849514Y-102299054D01*
X187897488Y-102248259D01*
X187965308Y-102231463D01*
X188031444Y-102253999D01*
X188070486Y-102299056D01*
X188074951Y-102307820D01*
X188199890Y-102479786D01*
X188350213Y-102630109D01*
X188522179Y-102755048D01*
X188522181Y-102755049D01*
X188522184Y-102755051D01*
X188711588Y-102851557D01*
X188913757Y-102917246D01*
X189123713Y-102950500D01*
X189123714Y-102950500D01*
X189336286Y-102950500D01*
X189336287Y-102950500D01*
X189546243Y-102917246D01*
X189748412Y-102851557D01*
X189937816Y-102755051D01*
X190024138Y-102692335D01*
X190109786Y-102630109D01*
X190109788Y-102630106D01*
X190109792Y-102630104D01*
X190260104Y-102479792D01*
X190260106Y-102479788D01*
X190260109Y-102479786D01*
X190385048Y-102307820D01*
X190385047Y-102307820D01*
X190385051Y-102307816D01*
X190389514Y-102299054D01*
X190437488Y-102248259D01*
X190505308Y-102231463D01*
X190571444Y-102253999D01*
X190610486Y-102299056D01*
X190614951Y-102307820D01*
X190739890Y-102479786D01*
X190890213Y-102630109D01*
X191062179Y-102755048D01*
X191062181Y-102755049D01*
X191062184Y-102755051D01*
X191251588Y-102851557D01*
X191453757Y-102917246D01*
X191663713Y-102950500D01*
X191663714Y-102950500D01*
X191876286Y-102950500D01*
X191876287Y-102950500D01*
X192086243Y-102917246D01*
X192288412Y-102851557D01*
X192477816Y-102755051D01*
X192564138Y-102692335D01*
X192649786Y-102630109D01*
X192649788Y-102630106D01*
X192649792Y-102630104D01*
X192800104Y-102479792D01*
X192800106Y-102479788D01*
X192800109Y-102479786D01*
X192925048Y-102307820D01*
X192925047Y-102307820D01*
X192925051Y-102307816D01*
X192929514Y-102299054D01*
X192977488Y-102248259D01*
X193045308Y-102231463D01*
X193111444Y-102253999D01*
X193150486Y-102299056D01*
X193154951Y-102307820D01*
X193279890Y-102479786D01*
X193430213Y-102630109D01*
X193602179Y-102755048D01*
X193602181Y-102755049D01*
X193602184Y-102755051D01*
X193791588Y-102851557D01*
X193993757Y-102917246D01*
X194203713Y-102950500D01*
X194203714Y-102950500D01*
X194416286Y-102950500D01*
X194416287Y-102950500D01*
X194626243Y-102917246D01*
X194828412Y-102851557D01*
X195017816Y-102755051D01*
X195104138Y-102692335D01*
X195189786Y-102630109D01*
X195189788Y-102630106D01*
X195189792Y-102630104D01*
X195340104Y-102479792D01*
X195340106Y-102479788D01*
X195340109Y-102479786D01*
X195465048Y-102307820D01*
X195465051Y-102307816D01*
X195469793Y-102298508D01*
X195517763Y-102247711D01*
X195585583Y-102230911D01*
X195651719Y-102253445D01*
X195690763Y-102298500D01*
X195695377Y-102307555D01*
X195820272Y-102479459D01*
X195820276Y-102479464D01*
X195970535Y-102629723D01*
X195970540Y-102629727D01*
X196142442Y-102754620D01*
X196331782Y-102851095D01*
X196533871Y-102916757D01*
X196600000Y-102927231D01*
X196600000Y-102033012D01*
X196657007Y-102065925D01*
X196784174Y-102100000D01*
X196915826Y-102100000D01*
X197042993Y-102065925D01*
X197100000Y-102033012D01*
X197100000Y-102927230D01*
X197166126Y-102916757D01*
X197166129Y-102916757D01*
X197368217Y-102851095D01*
X197557557Y-102754620D01*
X197729459Y-102629727D01*
X197729464Y-102629723D01*
X197879723Y-102479464D01*
X197879727Y-102479459D01*
X198004620Y-102307557D01*
X198101095Y-102118217D01*
X198166757Y-101916129D01*
X198166757Y-101916126D01*
X198177231Y-101850000D01*
X197283012Y-101850000D01*
X197315925Y-101792993D01*
X197350000Y-101665826D01*
X197350000Y-101534174D01*
X197315925Y-101407007D01*
X197283012Y-101350000D01*
X198177231Y-101350000D01*
X198166757Y-101283873D01*
X198166757Y-101283870D01*
X198101095Y-101081782D01*
X198004620Y-100892442D01*
X197879727Y-100720540D01*
X197879723Y-100720535D01*
X197729464Y-100570276D01*
X197729459Y-100570272D01*
X197557555Y-100445377D01*
X197548500Y-100440763D01*
X197497706Y-100392788D01*
X197480912Y-100324966D01*
X197503451Y-100258832D01*
X197548508Y-100219793D01*
X197557816Y-100215051D01*
X197696273Y-100114457D01*
X197729786Y-100090109D01*
X197729788Y-100090106D01*
X197729792Y-100090104D01*
X197880104Y-99939792D01*
X197880106Y-99939788D01*
X197880109Y-99939786D01*
X198005048Y-99767820D01*
X198005050Y-99767817D01*
X198005051Y-99767816D01*
X198101557Y-99578412D01*
X198167246Y-99376243D01*
X198200500Y-99166287D01*
X198200500Y-98953713D01*
X198167246Y-98743757D01*
X198101557Y-98541588D01*
X198005051Y-98352184D01*
X198005049Y-98352181D01*
X198005048Y-98352179D01*
X197880109Y-98180213D01*
X197729786Y-98029890D01*
X197557820Y-97904951D01*
X197368414Y-97808444D01*
X197368413Y-97808443D01*
X197368412Y-97808443D01*
X197166243Y-97742754D01*
X197166241Y-97742753D01*
X197166240Y-97742753D01*
X197004957Y-97717208D01*
X196956287Y-97709500D01*
X196743713Y-97709500D01*
X196695042Y-97717208D01*
X196533760Y-97742753D01*
X196331585Y-97808444D01*
X196142179Y-97904951D01*
X195970213Y-98029890D01*
X195819890Y-98180213D01*
X195694949Y-98352182D01*
X195690484Y-98360946D01*
X195642509Y-98411742D01*
X195574688Y-98428536D01*
X195508553Y-98405998D01*
X195469516Y-98360946D01*
X195465050Y-98352182D01*
X195340109Y-98180213D01*
X195189786Y-98029890D01*
X195017820Y-97904951D01*
X194828414Y-97808444D01*
X194828413Y-97808443D01*
X194828412Y-97808443D01*
X194626243Y-97742754D01*
X194626241Y-97742753D01*
X194626240Y-97742753D01*
X194464957Y-97717208D01*
X194416287Y-97709500D01*
X194203713Y-97709500D01*
X194164202Y-97715757D01*
X193993759Y-97742753D01*
X193917720Y-97767460D01*
X193818629Y-97799657D01*
X193812818Y-97801545D01*
X193742977Y-97803540D01*
X193683144Y-97767460D01*
X193652316Y-97704759D01*
X193650500Y-97683614D01*
X193650500Y-97010944D01*
X193650499Y-97010940D01*
X193650184Y-97009765D01*
X193644387Y-96988127D01*
X193609577Y-96858215D01*
X193580639Y-96808095D01*
X193530520Y-96721284D01*
X193418716Y-96609480D01*
X193418715Y-96609479D01*
X193414385Y-96605149D01*
X193414374Y-96605139D01*
X192614574Y-95805339D01*
X192581089Y-95744016D01*
X192580638Y-95741849D01*
X192549738Y-95586510D01*
X192549737Y-95586503D01*
X192549735Y-95586498D01*
X192489397Y-95440827D01*
X192489390Y-95440814D01*
X192401789Y-95309711D01*
X192401786Y-95309707D01*
X192290292Y-95198213D01*
X192290288Y-95198210D01*
X192159185Y-95110609D01*
X192159172Y-95110602D01*
X192013501Y-95050264D01*
X192013489Y-95050261D01*
X191858845Y-95019500D01*
X191858842Y-95019500D01*
X191701158Y-95019500D01*
X191701155Y-95019500D01*
X191546510Y-95050261D01*
X191546498Y-95050264D01*
X191400827Y-95110602D01*
X191400814Y-95110609D01*
X191269711Y-95198210D01*
X191269707Y-95198213D01*
X191158213Y-95309707D01*
X191158210Y-95309711D01*
X191070609Y-95440814D01*
X191070602Y-95440827D01*
X191010264Y-95586498D01*
X191010261Y-95586510D01*
X190979500Y-95741153D01*
X190979500Y-95898846D01*
X191010261Y-96053489D01*
X191010264Y-96053501D01*
X191070602Y-96199172D01*
X191070609Y-96199185D01*
X191158210Y-96330288D01*
X191158213Y-96330292D01*
X191269707Y-96441786D01*
X191269711Y-96441789D01*
X191400814Y-96529390D01*
X191400827Y-96529397D01*
X191546498Y-96589735D01*
X191546503Y-96589737D01*
X191603895Y-96601153D01*
X191701849Y-96620638D01*
X191763760Y-96653023D01*
X191765339Y-96654574D01*
X192413181Y-97302416D01*
X192446666Y-97363739D01*
X192449500Y-97390097D01*
X192449500Y-97690112D01*
X192429815Y-97757151D01*
X192377011Y-97802906D01*
X192307853Y-97812850D01*
X192287182Y-97808043D01*
X192086240Y-97742753D01*
X191924957Y-97717208D01*
X191876287Y-97709500D01*
X191663713Y-97709500D01*
X191615042Y-97717208D01*
X191453760Y-97742753D01*
X191251585Y-97808444D01*
X191062179Y-97904951D01*
X190890213Y-98029890D01*
X190739890Y-98180213D01*
X190614949Y-98352182D01*
X190610484Y-98360946D01*
X190562509Y-98411742D01*
X190494688Y-98428536D01*
X190428553Y-98405998D01*
X190389516Y-98360946D01*
X190385050Y-98352182D01*
X190260109Y-98180213D01*
X190109786Y-98029890D01*
X189937815Y-97904948D01*
X189937814Y-97904947D01*
X189898205Y-97884765D01*
X189847409Y-97836791D01*
X189830500Y-97774281D01*
X189830500Y-95189765D01*
X189850185Y-95122726D01*
X189851398Y-95120874D01*
X189939390Y-94989185D01*
X189939390Y-94989184D01*
X189939394Y-94989179D01*
X189999737Y-94843497D01*
X190030500Y-94688842D01*
X190030500Y-94531158D01*
X190030500Y-94531155D01*
X190030499Y-94531153D01*
X189999737Y-94376503D01*
X189953615Y-94265154D01*
X189939397Y-94230827D01*
X189939390Y-94230814D01*
X189851789Y-94099711D01*
X189851786Y-94099707D01*
X189740292Y-93988213D01*
X189740288Y-93988210D01*
X189609185Y-93900609D01*
X189609172Y-93900602D01*
X189463501Y-93840264D01*
X189463489Y-93840261D01*
X189308845Y-93809500D01*
X189308842Y-93809500D01*
X189151158Y-93809500D01*
X189151155Y-93809500D01*
X188996510Y-93840261D01*
X188996498Y-93840264D01*
X188850827Y-93900602D01*
X188850814Y-93900609D01*
X188719711Y-93988210D01*
X188719707Y-93988213D01*
X188608213Y-94099707D01*
X188608210Y-94099711D01*
X188520609Y-94230814D01*
X188520602Y-94230827D01*
X188460264Y-94376498D01*
X188460261Y-94376510D01*
X188429500Y-94531153D01*
X188429500Y-94688846D01*
X188460261Y-94843489D01*
X188460264Y-94843501D01*
X188520602Y-94989172D01*
X188520609Y-94989185D01*
X188608602Y-95120874D01*
X188629480Y-95187551D01*
X188629500Y-95189765D01*
X188629500Y-97774281D01*
X188609815Y-97841320D01*
X188561795Y-97884765D01*
X188522185Y-97904947D01*
X188522184Y-97904948D01*
X188350213Y-98029890D01*
X188199890Y-98180213D01*
X188074949Y-98352182D01*
X188070484Y-98360946D01*
X188022509Y-98411742D01*
X187954688Y-98428536D01*
X187888553Y-98405998D01*
X187849516Y-98360946D01*
X187845050Y-98352182D01*
X187720109Y-98180213D01*
X187569786Y-98029890D01*
X187397820Y-97904951D01*
X187208414Y-97808444D01*
X187208413Y-97808443D01*
X187208412Y-97808443D01*
X187006243Y-97742754D01*
X187006241Y-97742753D01*
X187006240Y-97742753D01*
X186844957Y-97717208D01*
X186796287Y-97709500D01*
X186583713Y-97709500D01*
X186535042Y-97717208D01*
X186373760Y-97742753D01*
X186171585Y-97808444D01*
X185982179Y-97904951D01*
X185810213Y-98029890D01*
X185659890Y-98180213D01*
X185534949Y-98352182D01*
X185530484Y-98360946D01*
X185482509Y-98411742D01*
X185414688Y-98428536D01*
X185348553Y-98405998D01*
X185309516Y-98360946D01*
X185305050Y-98352182D01*
X185180109Y-98180213D01*
X185029786Y-98029890D01*
X184857815Y-97904948D01*
X184857814Y-97904947D01*
X184818205Y-97884765D01*
X184767409Y-97836791D01*
X184750500Y-97774281D01*
X184750500Y-94269765D01*
X184770185Y-94202726D01*
X184771398Y-94200874D01*
X184859390Y-94069185D01*
X184859390Y-94069184D01*
X184859394Y-94069179D01*
X184919737Y-93923497D01*
X184950500Y-93768842D01*
X184950500Y-93611158D01*
X184950500Y-93611155D01*
X184950499Y-93611153D01*
X184932921Y-93522783D01*
X184919737Y-93456503D01*
X184913021Y-93440288D01*
X184859397Y-93310827D01*
X184859390Y-93310814D01*
X184771789Y-93179711D01*
X184771786Y-93179707D01*
X184660292Y-93068213D01*
X184660288Y-93068210D01*
X184529185Y-92980609D01*
X184529172Y-92980602D01*
X184383501Y-92920264D01*
X184383489Y-92920261D01*
X184228845Y-92889500D01*
X184228842Y-92889500D01*
X184071158Y-92889500D01*
X184071155Y-92889500D01*
X183916510Y-92920261D01*
X183916498Y-92920264D01*
X183770827Y-92980602D01*
X183770814Y-92980609D01*
X183639711Y-93068210D01*
X183639707Y-93068213D01*
X183528213Y-93179707D01*
X183528210Y-93179711D01*
X183440609Y-93310814D01*
X183440602Y-93310827D01*
X183380264Y-93456498D01*
X183380261Y-93456510D01*
X183349500Y-93611153D01*
X183349500Y-93768846D01*
X183380261Y-93923489D01*
X183380264Y-93923501D01*
X183440602Y-94069172D01*
X183440609Y-94069185D01*
X183528602Y-94200874D01*
X183549480Y-94267551D01*
X183549500Y-94269765D01*
X183549500Y-97774281D01*
X183529815Y-97841320D01*
X183481795Y-97884765D01*
X183442185Y-97904947D01*
X183442184Y-97904948D01*
X183270213Y-98029890D01*
X183119890Y-98180213D01*
X182994949Y-98352182D01*
X182990484Y-98360946D01*
X182942509Y-98411742D01*
X182874688Y-98428536D01*
X182808553Y-98405998D01*
X182769516Y-98360946D01*
X182765050Y-98352182D01*
X182640109Y-98180213D01*
X182489786Y-98029890D01*
X182317815Y-97904948D01*
X182317814Y-97904947D01*
X182278205Y-97884765D01*
X182227409Y-97836791D01*
X182210500Y-97774281D01*
X182210500Y-97009765D01*
X182230185Y-96942726D01*
X182231398Y-96940874D01*
X182319390Y-96809185D01*
X182319390Y-96809184D01*
X182319394Y-96809179D01*
X182379737Y-96663497D01*
X182410500Y-96508842D01*
X182410500Y-96351158D01*
X182410500Y-96351155D01*
X182410499Y-96351153D01*
X182379738Y-96196510D01*
X182379737Y-96196503D01*
X182379735Y-96196498D01*
X182319397Y-96050827D01*
X182319390Y-96050814D01*
X182231789Y-95919711D01*
X182231786Y-95919707D01*
X182120292Y-95808213D01*
X182120288Y-95808210D01*
X181989185Y-95720609D01*
X181989172Y-95720602D01*
X181843501Y-95660264D01*
X181843489Y-95660261D01*
X181688845Y-95629500D01*
X181688842Y-95629500D01*
X181531158Y-95629500D01*
X181531155Y-95629500D01*
X181376510Y-95660261D01*
X181376498Y-95660264D01*
X181230827Y-95720602D01*
X181230814Y-95720609D01*
X181133391Y-95785706D01*
X181066713Y-95806584D01*
X180999333Y-95788099D01*
X180952643Y-95736121D01*
X180940500Y-95682604D01*
X180940500Y-93494799D01*
X180960185Y-93427760D01*
X180961398Y-93425908D01*
X181039390Y-93309185D01*
X181039390Y-93309184D01*
X181039394Y-93309179D01*
X181099737Y-93163497D01*
X181130500Y-93008842D01*
X181130500Y-92851158D01*
X181130500Y-92851155D01*
X181130499Y-92851153D01*
X181099738Y-92696510D01*
X181099737Y-92696503D01*
X181039397Y-92550828D01*
X181039397Y-92550827D01*
X181039390Y-92550814D01*
X180951789Y-92419711D01*
X180951786Y-92419707D01*
X180872017Y-92339938D01*
X180838532Y-92278615D01*
X180843516Y-92208923D01*
X180856601Y-92183359D01*
X180859391Y-92179183D01*
X180859394Y-92179179D01*
X180919737Y-92033497D01*
X180950500Y-91878842D01*
X180950500Y-91721158D01*
X180932883Y-91632590D01*
X180930500Y-91608399D01*
X180930500Y-90269887D01*
X180950185Y-90202848D01*
X181002989Y-90157093D01*
X181072147Y-90147149D01*
X181092810Y-90151954D01*
X181293757Y-90217246D01*
X181503713Y-90250500D01*
X181503714Y-90250500D01*
X181716286Y-90250500D01*
X181716287Y-90250500D01*
X181926243Y-90217246D01*
X182128412Y-90151557D01*
X182317816Y-90055051D01*
X182404138Y-89992335D01*
X182489786Y-89930109D01*
X182489788Y-89930106D01*
X182489792Y-89930104D01*
X182640104Y-89779792D01*
X182640106Y-89779788D01*
X182640109Y-89779786D01*
X182765048Y-89607820D01*
X182765047Y-89607820D01*
X182765051Y-89607816D01*
X182769514Y-89599054D01*
X182817488Y-89548259D01*
X182885308Y-89531463D01*
X182951444Y-89553999D01*
X182990486Y-89599056D01*
X182994951Y-89607820D01*
X183119890Y-89779786D01*
X183270213Y-89930109D01*
X183442179Y-90055048D01*
X183442181Y-90055049D01*
X183442184Y-90055051D01*
X183631588Y-90151557D01*
X183833757Y-90217246D01*
X184043713Y-90250500D01*
X184043714Y-90250500D01*
X184256286Y-90250500D01*
X184256287Y-90250500D01*
X184466243Y-90217246D01*
X184668412Y-90151557D01*
X184857816Y-90055051D01*
X184944138Y-89992335D01*
X185029786Y-89930109D01*
X185029788Y-89930106D01*
X185029792Y-89930104D01*
X185180104Y-89779792D01*
X185180106Y-89779788D01*
X185180109Y-89779786D01*
X185305048Y-89607820D01*
X185305047Y-89607820D01*
X185305051Y-89607816D01*
X185309514Y-89599054D01*
X185357488Y-89548259D01*
X185425308Y-89531463D01*
X185491444Y-89553999D01*
X185530486Y-89599056D01*
X185534951Y-89607820D01*
X185659890Y-89779786D01*
X185810213Y-89930109D01*
X185982179Y-90055048D01*
X185982181Y-90055049D01*
X185982184Y-90055051D01*
X186171588Y-90151557D01*
X186373757Y-90217246D01*
X186583713Y-90250500D01*
X186583714Y-90250500D01*
X186796286Y-90250500D01*
X186796287Y-90250500D01*
X187006243Y-90217246D01*
X187208412Y-90151557D01*
X187397816Y-90055051D01*
X187484138Y-89992335D01*
X187569786Y-89930109D01*
X187569788Y-89930106D01*
X187569792Y-89930104D01*
X187720104Y-89779792D01*
X187720106Y-89779788D01*
X187720109Y-89779786D01*
X187845048Y-89607820D01*
X187845047Y-89607820D01*
X187845051Y-89607816D01*
X187849514Y-89599054D01*
X187897488Y-89548259D01*
X187965308Y-89531463D01*
X188031444Y-89553999D01*
X188070486Y-89599056D01*
X188074951Y-89607820D01*
X188199890Y-89779786D01*
X188350213Y-89930109D01*
X188522179Y-90055048D01*
X188522181Y-90055049D01*
X188522184Y-90055051D01*
X188711588Y-90151557D01*
X188913757Y-90217246D01*
X189123713Y-90250500D01*
X189123714Y-90250500D01*
X189336286Y-90250500D01*
X189336287Y-90250500D01*
X189546243Y-90217246D01*
X189748412Y-90151557D01*
X189937816Y-90055051D01*
X190024138Y-89992335D01*
X190109786Y-89930109D01*
X190109788Y-89930106D01*
X190109792Y-89930104D01*
X190260104Y-89779792D01*
X190260106Y-89779788D01*
X190260109Y-89779786D01*
X190385048Y-89607820D01*
X190385047Y-89607820D01*
X190385051Y-89607816D01*
X190389514Y-89599054D01*
X190437488Y-89548259D01*
X190505308Y-89531463D01*
X190571444Y-89553999D01*
X190610486Y-89599056D01*
X190614951Y-89607820D01*
X190739890Y-89779786D01*
X190890213Y-89930109D01*
X191062179Y-90055048D01*
X191062181Y-90055049D01*
X191062184Y-90055051D01*
X191251588Y-90151557D01*
X191453757Y-90217246D01*
X191663713Y-90250500D01*
X191663714Y-90250500D01*
X191876286Y-90250500D01*
X191876287Y-90250500D01*
X192086243Y-90217246D01*
X192288412Y-90151557D01*
X192477816Y-90055051D01*
X192564138Y-89992335D01*
X192649786Y-89930109D01*
X192649788Y-89930106D01*
X192649792Y-89930104D01*
X192800104Y-89779792D01*
X192800106Y-89779788D01*
X192800109Y-89779786D01*
X192925048Y-89607820D01*
X192925047Y-89607820D01*
X192925051Y-89607816D01*
X192929514Y-89599054D01*
X192977488Y-89548259D01*
X193045308Y-89531463D01*
X193111444Y-89553999D01*
X193150486Y-89599056D01*
X193154951Y-89607820D01*
X193279890Y-89779786D01*
X193430213Y-89930109D01*
X193602179Y-90055048D01*
X193602181Y-90055049D01*
X193602184Y-90055051D01*
X193791588Y-90151557D01*
X193993757Y-90217246D01*
X194203713Y-90250500D01*
X194203714Y-90250500D01*
X194416286Y-90250500D01*
X194416287Y-90250500D01*
X194626243Y-90217246D01*
X194828412Y-90151557D01*
X195017816Y-90055051D01*
X195104138Y-89992335D01*
X195189786Y-89930109D01*
X195189788Y-89930106D01*
X195189792Y-89930104D01*
X195340104Y-89779792D01*
X195340106Y-89779788D01*
X195340109Y-89779786D01*
X195465048Y-89607820D01*
X195465051Y-89607816D01*
X195469793Y-89598508D01*
X195517763Y-89547711D01*
X195585583Y-89530911D01*
X195651719Y-89553445D01*
X195690763Y-89598500D01*
X195695377Y-89607555D01*
X195820272Y-89779459D01*
X195820276Y-89779464D01*
X195970535Y-89929723D01*
X195970540Y-89929727D01*
X196142442Y-90054620D01*
X196331782Y-90151095D01*
X196533871Y-90216757D01*
X196600000Y-90227231D01*
X196600000Y-89333012D01*
X196657007Y-89365925D01*
X196784174Y-89400000D01*
X196915826Y-89400000D01*
X197042993Y-89365925D01*
X197100000Y-89333012D01*
X197100000Y-90227230D01*
X197166126Y-90216757D01*
X197166129Y-90216757D01*
X197368217Y-90151095D01*
X197557557Y-90054620D01*
X197729459Y-89929727D01*
X197729464Y-89929723D01*
X197879723Y-89779464D01*
X197879727Y-89779459D01*
X198004620Y-89607557D01*
X198101095Y-89418217D01*
X198166757Y-89216129D01*
X198166757Y-89216126D01*
X198177231Y-89150000D01*
X197283012Y-89150000D01*
X197315925Y-89092993D01*
X197350000Y-88965826D01*
X197350000Y-88834174D01*
X197315925Y-88707007D01*
X197283012Y-88650000D01*
X198177231Y-88650000D01*
X198166757Y-88583873D01*
X198166757Y-88583870D01*
X198101095Y-88381782D01*
X198004620Y-88192442D01*
X197879727Y-88020540D01*
X197879723Y-88020535D01*
X197729464Y-87870276D01*
X197729459Y-87870272D01*
X197557555Y-87745377D01*
X197548500Y-87740763D01*
X197497706Y-87692788D01*
X197480912Y-87624966D01*
X197503451Y-87558832D01*
X197548508Y-87519793D01*
X197557816Y-87515051D01*
X197696273Y-87414457D01*
X197729786Y-87390109D01*
X197729788Y-87390106D01*
X197729792Y-87390104D01*
X197880104Y-87239792D01*
X197880106Y-87239788D01*
X197880109Y-87239786D01*
X198005048Y-87067820D01*
X198005050Y-87067817D01*
X198005051Y-87067816D01*
X198101557Y-86878412D01*
X198167246Y-86676243D01*
X198200500Y-86466287D01*
X198200500Y-86253713D01*
X198167246Y-86043757D01*
X198101557Y-85841588D01*
X198005051Y-85652184D01*
X198005049Y-85652181D01*
X198005048Y-85652179D01*
X197880109Y-85480213D01*
X197729786Y-85329890D01*
X197557815Y-85204948D01*
X197557814Y-85204947D01*
X197518205Y-85184765D01*
X197467409Y-85136791D01*
X197450500Y-85074281D01*
X197450500Y-84760945D01*
X197450500Y-84760943D01*
X197409577Y-84608216D01*
X197409577Y-84608215D01*
X197409577Y-84608214D01*
X197380639Y-84558095D01*
X197380637Y-84558092D01*
X197343250Y-84493334D01*
X197330520Y-84471284D01*
X197218716Y-84359480D01*
X197218715Y-84359479D01*
X197214385Y-84355149D01*
X197214374Y-84355139D01*
X196137590Y-83278355D01*
X196137588Y-83278352D01*
X196018717Y-83159481D01*
X196018709Y-83159475D01*
X195913470Y-83098716D01*
X195913469Y-83098715D01*
X195913469Y-83098716D01*
X195881785Y-83080423D01*
X195729057Y-83039499D01*
X195570943Y-83039499D01*
X195563347Y-83039499D01*
X195563331Y-83039500D01*
X183900097Y-83039500D01*
X183870656Y-83030855D01*
X183840670Y-83024332D01*
X183835654Y-83020577D01*
X183833058Y-83019815D01*
X183812416Y-83003181D01*
X183767590Y-82958355D01*
X183767588Y-82958352D01*
X183767587Y-82958351D01*
X183767587Y-82958352D01*
X183760520Y-82951285D01*
X183760520Y-82951284D01*
X183648716Y-82839480D01*
X183648715Y-82839479D01*
X183644385Y-82835149D01*
X183644374Y-82835139D01*
X183617035Y-82807800D01*
X183583550Y-82746477D01*
X183588534Y-82676785D01*
X183630406Y-82620852D01*
X183665717Y-82602412D01*
X183669334Y-82601214D01*
X183818656Y-82509112D01*
X183942712Y-82385056D01*
X184014461Y-82268730D01*
X184066409Y-82222006D01*
X184135371Y-82210783D01*
X184199453Y-82238626D01*
X184225539Y-82268731D01*
X184297095Y-82384744D01*
X184297288Y-82385056D01*
X184421344Y-82509112D01*
X184570666Y-82601214D01*
X184737203Y-82656399D01*
X184839991Y-82666900D01*
X185940008Y-82666899D01*
X185940016Y-82666898D01*
X185940019Y-82666898D01*
X186013096Y-82659433D01*
X186042797Y-82656399D01*
X186209334Y-82601214D01*
X186358656Y-82509112D01*
X186482712Y-82385056D01*
X186574814Y-82235734D01*
X186629999Y-82069197D01*
X186640500Y-81966409D01*
X186640499Y-81366392D01*
X186629999Y-81263603D01*
X186574814Y-81097066D01*
X186482712Y-80947744D01*
X186358656Y-80823688D01*
X186209334Y-80731586D01*
X186209332Y-80731585D01*
X186203187Y-80727795D01*
X186204292Y-80726003D01*
X186159655Y-80686700D01*
X186140499Y-80620491D01*
X186140499Y-79924031D01*
X186160184Y-79856992D01*
X186191611Y-79823714D01*
X186278651Y-79760477D01*
X186430477Y-79608651D01*
X186556683Y-79434944D01*
X186654161Y-79243633D01*
X186720511Y-79039427D01*
X186754100Y-78827357D01*
X186754100Y-78612643D01*
X186720511Y-78400573D01*
X186687336Y-78298470D01*
X186654162Y-78196369D01*
X186654161Y-78196366D01*
X186570266Y-78031715D01*
X186556683Y-78005056D01*
X186430477Y-77831349D01*
X186278651Y-77679523D01*
X186278650Y-77679522D01*
X186191612Y-77616284D01*
X186148947Y-77560954D01*
X186140499Y-77515967D01*
X186140499Y-76223129D01*
X186140498Y-76223123D01*
X186140498Y-76223116D01*
X186134091Y-76163517D01*
X186134090Y-76163515D01*
X186134090Y-76163512D01*
X186132308Y-76155969D01*
X186134810Y-76155377D01*
X186130717Y-76098140D01*
X186164203Y-76036818D01*
X186225526Y-76003333D01*
X186251883Y-76000500D01*
X198234108Y-76000500D01*
X198297294Y-76000500D01*
X198302702Y-76000617D01*
X198686771Y-76017386D01*
X198697506Y-76018326D01*
X199075971Y-76068152D01*
X199086597Y-76070025D01*
X199459284Y-76152648D01*
X199469710Y-76155442D01*
X199833765Y-76270227D01*
X199843911Y-76273920D01*
X200196578Y-76420000D01*
X200206369Y-76424566D01*
X200544942Y-76600816D01*
X200554310Y-76606224D01*
X200876244Y-76811318D01*
X200885105Y-76817523D01*
X201187930Y-77049889D01*
X201196217Y-77056843D01*
X201477635Y-77314715D01*
X201485284Y-77322364D01*
X201743156Y-77603782D01*
X201750110Y-77612069D01*
X201982476Y-77914894D01*
X201988681Y-77923755D01*
X202193775Y-78245689D01*
X202199183Y-78255057D01*
X202375430Y-78593623D01*
X202380002Y-78603427D01*
X202526075Y-78956078D01*
X202529775Y-78966244D01*
X202644554Y-79330278D01*
X202647354Y-79340727D01*
X202729971Y-79713389D01*
X202731849Y-79724042D01*
X202781671Y-80102473D01*
X202782614Y-80113249D01*
X202799382Y-80497297D01*
X202799500Y-80502706D01*
X202799500Y-125897293D01*
X202799382Y-125902702D01*
X202782614Y-126286750D01*
X202781671Y-126297526D01*
X202731849Y-126675957D01*
X202729971Y-126686610D01*
X202647354Y-127059272D01*
X202644554Y-127069721D01*
X202529775Y-127433755D01*
X202526075Y-127443921D01*
X202380002Y-127796572D01*
X202375430Y-127806376D01*
X202199183Y-128144942D01*
X202193775Y-128154310D01*
X201988681Y-128476244D01*
X201982476Y-128485105D01*
X201750110Y-128787930D01*
X201743156Y-128796217D01*
X201485284Y-129077635D01*
X201477635Y-129085284D01*
X201196217Y-129343156D01*
X201187930Y-129350110D01*
X200885105Y-129582476D01*
X200876244Y-129588681D01*
X200554310Y-129793775D01*
X200544942Y-129799183D01*
X200206376Y-129975430D01*
X200196572Y-129980002D01*
X199843921Y-130126075D01*
X199833755Y-130129775D01*
X199469721Y-130244554D01*
X199459272Y-130247354D01*
X199086610Y-130329971D01*
X199075957Y-130331849D01*
X198697526Y-130381671D01*
X198686750Y-130382614D01*
X198302703Y-130399382D01*
X198297294Y-130399500D01*
X146302706Y-130399500D01*
X146297297Y-130399382D01*
X145913249Y-130382614D01*
X145902473Y-130381671D01*
X145524042Y-130331849D01*
X145513389Y-130329971D01*
X145140727Y-130247354D01*
X145130278Y-130244554D01*
X144766244Y-130129775D01*
X144756078Y-130126075D01*
X144403427Y-129980002D01*
X144393623Y-129975430D01*
X144055057Y-129799183D01*
X144045689Y-129793775D01*
X143723755Y-129588681D01*
X143714894Y-129582476D01*
X143412069Y-129350110D01*
X143403782Y-129343156D01*
X143122364Y-129085284D01*
X143114715Y-129077635D01*
X142856843Y-128796217D01*
X142849889Y-128787930D01*
X142617523Y-128485105D01*
X142611318Y-128476244D01*
X142478146Y-128267206D01*
X142406223Y-128154309D01*
X142400816Y-128144942D01*
X142396973Y-128137560D01*
X142224566Y-127806369D01*
X142219997Y-127796572D01*
X142073920Y-127443911D01*
X142070224Y-127433755D01*
X141955442Y-127069710D01*
X141952649Y-127059290D01*
X141911270Y-126872643D01*
X148465900Y-126872643D01*
X148465900Y-127087356D01*
X148499489Y-127299428D01*
X148565837Y-127503630D01*
X148565838Y-127503633D01*
X148649652Y-127668125D01*
X148663317Y-127694944D01*
X148789523Y-127868651D01*
X148941349Y-128020477D01*
X149028386Y-128083713D01*
X149071051Y-128139043D01*
X149079500Y-128184031D01*
X149079500Y-129478870D01*
X149079501Y-129478876D01*
X149085908Y-129538483D01*
X149136202Y-129673328D01*
X149136206Y-129673335D01*
X149222452Y-129788544D01*
X149222455Y-129788547D01*
X149337664Y-129874793D01*
X149337671Y-129874797D01*
X149366365Y-129885499D01*
X149472517Y-129925091D01*
X149532127Y-129931500D01*
X150127872Y-129931499D01*
X150187483Y-129925091D01*
X150322331Y-129874796D01*
X150437546Y-129788546D01*
X150523796Y-129673331D01*
X150574091Y-129538483D01*
X150580500Y-129478873D01*
X150580499Y-128184030D01*
X150600184Y-128116992D01*
X150631611Y-128083714D01*
X150718651Y-128020477D01*
X150870477Y-127868651D01*
X150996683Y-127694944D01*
X150996683Y-127694943D01*
X150999547Y-127691002D01*
X151001478Y-127692405D01*
X151045927Y-127652078D01*
X151114840Y-127640558D01*
X151179042Y-127668125D01*
X151199478Y-127691709D01*
X151200453Y-127691002D01*
X151203316Y-127694943D01*
X151203317Y-127694944D01*
X151329523Y-127868651D01*
X151481349Y-128020477D01*
X151568386Y-128083713D01*
X151611051Y-128139043D01*
X151619500Y-128184031D01*
X151619500Y-129478870D01*
X151619501Y-129478876D01*
X151625908Y-129538483D01*
X151676202Y-129673328D01*
X151676206Y-129673335D01*
X151762452Y-129788544D01*
X151762455Y-129788547D01*
X151877664Y-129874793D01*
X151877671Y-129874797D01*
X151906365Y-129885499D01*
X152012517Y-129925091D01*
X152072127Y-129931500D01*
X152667872Y-129931499D01*
X152727483Y-129925091D01*
X152862331Y-129874796D01*
X152977546Y-129788546D01*
X153063796Y-129673331D01*
X153114091Y-129538483D01*
X153120500Y-129478873D01*
X153120499Y-128184030D01*
X153140184Y-128116992D01*
X153171611Y-128083714D01*
X153258651Y-128020477D01*
X153410477Y-127868651D01*
X153536683Y-127694944D01*
X153536683Y-127694943D01*
X153539547Y-127691002D01*
X153541478Y-127692405D01*
X153585927Y-127652078D01*
X153654840Y-127640558D01*
X153719042Y-127668125D01*
X153739478Y-127691709D01*
X153740453Y-127691002D01*
X153743316Y-127694943D01*
X153743317Y-127694944D01*
X153869523Y-127868651D01*
X154021349Y-128020477D01*
X154108386Y-128083713D01*
X154151051Y-128139043D01*
X154159500Y-128184031D01*
X154159500Y-129478870D01*
X154159501Y-129478876D01*
X154165908Y-129538483D01*
X154216202Y-129673328D01*
X154216206Y-129673335D01*
X154302452Y-129788544D01*
X154302455Y-129788547D01*
X154417664Y-129874793D01*
X154417671Y-129874797D01*
X154446365Y-129885499D01*
X154552517Y-129925091D01*
X154612127Y-129931500D01*
X155207872Y-129931499D01*
X155267483Y-129925091D01*
X155402331Y-129874796D01*
X155517546Y-129788546D01*
X155603796Y-129673331D01*
X155654091Y-129538483D01*
X155660500Y-129478873D01*
X155660499Y-128184030D01*
X155680184Y-128116992D01*
X155711611Y-128083714D01*
X155798651Y-128020477D01*
X155950477Y-127868651D01*
X156076683Y-127694944D01*
X156076683Y-127694943D01*
X156079547Y-127691002D01*
X156081478Y-127692405D01*
X156125927Y-127652078D01*
X156194840Y-127640558D01*
X156259042Y-127668125D01*
X156279478Y-127691709D01*
X156280453Y-127691002D01*
X156283316Y-127694943D01*
X156283317Y-127694944D01*
X156409523Y-127868651D01*
X156561349Y-128020477D01*
X156648386Y-128083713D01*
X156691051Y-128139043D01*
X156699500Y-128184031D01*
X156699500Y-129478870D01*
X156699501Y-129478876D01*
X156705908Y-129538483D01*
X156756202Y-129673328D01*
X156756206Y-129673335D01*
X156842452Y-129788544D01*
X156842455Y-129788547D01*
X156957664Y-129874793D01*
X156957671Y-129874797D01*
X156986365Y-129885499D01*
X157092517Y-129925091D01*
X157152127Y-129931500D01*
X157747872Y-129931499D01*
X157807483Y-129925091D01*
X157942331Y-129874796D01*
X158057546Y-129788546D01*
X158143796Y-129673331D01*
X158194091Y-129538483D01*
X158200500Y-129478873D01*
X158200499Y-128184030D01*
X158220184Y-128116992D01*
X158251611Y-128083714D01*
X158338651Y-128020477D01*
X158490477Y-127868651D01*
X158616683Y-127694944D01*
X158616683Y-127694943D01*
X158619547Y-127691002D01*
X158621478Y-127692405D01*
X158665927Y-127652078D01*
X158734840Y-127640558D01*
X158799042Y-127668125D01*
X158819478Y-127691709D01*
X158820453Y-127691002D01*
X158823316Y-127694943D01*
X158823317Y-127694944D01*
X158949523Y-127868651D01*
X159101349Y-128020477D01*
X159188386Y-128083713D01*
X159231051Y-128139043D01*
X159239500Y-128184031D01*
X159239500Y-129478870D01*
X159239501Y-129478876D01*
X159245908Y-129538483D01*
X159296202Y-129673328D01*
X159296206Y-129673335D01*
X159382452Y-129788544D01*
X159382455Y-129788547D01*
X159497664Y-129874793D01*
X159497671Y-129874797D01*
X159526365Y-129885499D01*
X159632517Y-129925091D01*
X159692127Y-129931500D01*
X160287872Y-129931499D01*
X160347483Y-129925091D01*
X160482331Y-129874796D01*
X160597546Y-129788546D01*
X160683796Y-129673331D01*
X160734091Y-129538483D01*
X160740500Y-129478873D01*
X160740499Y-128184030D01*
X160760184Y-128116992D01*
X160791611Y-128083714D01*
X160878651Y-128020477D01*
X161030477Y-127868651D01*
X161156683Y-127694944D01*
X161156683Y-127694943D01*
X161159547Y-127691002D01*
X161161478Y-127692405D01*
X161205927Y-127652078D01*
X161274840Y-127640558D01*
X161339042Y-127668125D01*
X161359478Y-127691709D01*
X161360453Y-127691002D01*
X161363316Y-127694943D01*
X161363317Y-127694944D01*
X161489523Y-127868651D01*
X161641349Y-128020477D01*
X161728386Y-128083713D01*
X161771051Y-128139043D01*
X161779500Y-128184031D01*
X161779500Y-129478870D01*
X161779501Y-129478876D01*
X161785908Y-129538483D01*
X161836202Y-129673328D01*
X161836206Y-129673335D01*
X161922452Y-129788544D01*
X161922455Y-129788547D01*
X162037664Y-129874793D01*
X162037671Y-129874797D01*
X162066365Y-129885499D01*
X162172517Y-129925091D01*
X162232127Y-129931500D01*
X162827872Y-129931499D01*
X162887483Y-129925091D01*
X163022331Y-129874796D01*
X163137546Y-129788546D01*
X163223796Y-129673331D01*
X163274091Y-129538483D01*
X163280500Y-129478873D01*
X163280499Y-128184030D01*
X163300184Y-128116992D01*
X163331611Y-128083714D01*
X163418651Y-128020477D01*
X163570477Y-127868651D01*
X163696683Y-127694944D01*
X163696683Y-127694943D01*
X163699547Y-127691002D01*
X163701478Y-127692405D01*
X163745927Y-127652078D01*
X163814840Y-127640558D01*
X163879042Y-127668125D01*
X163899478Y-127691709D01*
X163900453Y-127691002D01*
X163903316Y-127694943D01*
X163903317Y-127694944D01*
X164029523Y-127868651D01*
X164181349Y-128020477D01*
X164268386Y-128083713D01*
X164311051Y-128139043D01*
X164319500Y-128184031D01*
X164319500Y-129478870D01*
X164319501Y-129478876D01*
X164325908Y-129538483D01*
X164376202Y-129673328D01*
X164376206Y-129673335D01*
X164462452Y-129788544D01*
X164462455Y-129788547D01*
X164577664Y-129874793D01*
X164577671Y-129874797D01*
X164606365Y-129885499D01*
X164712517Y-129925091D01*
X164772127Y-129931500D01*
X165367872Y-129931499D01*
X165427483Y-129925091D01*
X165562331Y-129874796D01*
X165677546Y-129788546D01*
X165763796Y-129673331D01*
X165814091Y-129538483D01*
X165820500Y-129478873D01*
X165820499Y-128184030D01*
X165840184Y-128116992D01*
X165871611Y-128083714D01*
X165958651Y-128020477D01*
X166110477Y-127868651D01*
X166236683Y-127694944D01*
X166236683Y-127694943D01*
X166239547Y-127691002D01*
X166241478Y-127692405D01*
X166285927Y-127652078D01*
X166354840Y-127640558D01*
X166419042Y-127668125D01*
X166439478Y-127691709D01*
X166440453Y-127691002D01*
X166443316Y-127694943D01*
X166443317Y-127694944D01*
X166569523Y-127868651D01*
X166721349Y-128020477D01*
X166808386Y-128083713D01*
X166851051Y-128139043D01*
X166859500Y-128184031D01*
X166859500Y-129478870D01*
X166859501Y-129478876D01*
X166865908Y-129538483D01*
X166916202Y-129673328D01*
X166916206Y-129673335D01*
X167002452Y-129788544D01*
X167002455Y-129788547D01*
X167117664Y-129874793D01*
X167117671Y-129874797D01*
X167146365Y-129885499D01*
X167252517Y-129925091D01*
X167312127Y-129931500D01*
X167907872Y-129931499D01*
X167967483Y-129925091D01*
X168102331Y-129874796D01*
X168217546Y-129788546D01*
X168303796Y-129673331D01*
X168354091Y-129538483D01*
X168360500Y-129478873D01*
X168360499Y-128184030D01*
X168380184Y-128116992D01*
X168411611Y-128083714D01*
X168498651Y-128020477D01*
X168650477Y-127868651D01*
X168776683Y-127694944D01*
X168874161Y-127503633D01*
X168940511Y-127299427D01*
X168974100Y-127087357D01*
X168974100Y-126872643D01*
X170309900Y-126872643D01*
X170309900Y-127087356D01*
X170343489Y-127299428D01*
X170409837Y-127503630D01*
X170409838Y-127503633D01*
X170493652Y-127668125D01*
X170507317Y-127694944D01*
X170633523Y-127868651D01*
X170785349Y-128020477D01*
X170872386Y-128083713D01*
X170915051Y-128139043D01*
X170923500Y-128184031D01*
X170923500Y-129478870D01*
X170923501Y-129478876D01*
X170929908Y-129538483D01*
X170980202Y-129673328D01*
X170980206Y-129673335D01*
X171066452Y-129788544D01*
X171066455Y-129788547D01*
X171181664Y-129874793D01*
X171181671Y-129874797D01*
X171210365Y-129885499D01*
X171316517Y-129925091D01*
X171376127Y-129931500D01*
X171971872Y-129931499D01*
X172031483Y-129925091D01*
X172166331Y-129874796D01*
X172281546Y-129788546D01*
X172367796Y-129673331D01*
X172418091Y-129538483D01*
X172424500Y-129478873D01*
X172424499Y-128184030D01*
X172444184Y-128116992D01*
X172475611Y-128083714D01*
X172562651Y-128020477D01*
X172714477Y-127868651D01*
X172840683Y-127694944D01*
X172840683Y-127694943D01*
X172843547Y-127691002D01*
X172845478Y-127692405D01*
X172889927Y-127652078D01*
X172958840Y-127640558D01*
X173023042Y-127668125D01*
X173043478Y-127691709D01*
X173044453Y-127691002D01*
X173047316Y-127694943D01*
X173047317Y-127694944D01*
X173173523Y-127868651D01*
X173325349Y-128020477D01*
X173412386Y-128083713D01*
X173455051Y-128139043D01*
X173463500Y-128184031D01*
X173463500Y-129478870D01*
X173463501Y-129478876D01*
X173469908Y-129538483D01*
X173520202Y-129673328D01*
X173520206Y-129673335D01*
X173606452Y-129788544D01*
X173606455Y-129788547D01*
X173721664Y-129874793D01*
X173721671Y-129874797D01*
X173750365Y-129885499D01*
X173856517Y-129925091D01*
X173916127Y-129931500D01*
X174511872Y-129931499D01*
X174571483Y-129925091D01*
X174706331Y-129874796D01*
X174821546Y-129788546D01*
X174907796Y-129673331D01*
X174958091Y-129538483D01*
X174964500Y-129478873D01*
X174964499Y-128184030D01*
X174984184Y-128116992D01*
X175015611Y-128083714D01*
X175102651Y-128020477D01*
X175254477Y-127868651D01*
X175380683Y-127694944D01*
X175380683Y-127694943D01*
X175383547Y-127691002D01*
X175385478Y-127692405D01*
X175429927Y-127652078D01*
X175498840Y-127640558D01*
X175563042Y-127668125D01*
X175583478Y-127691709D01*
X175584453Y-127691002D01*
X175587316Y-127694943D01*
X175587317Y-127694944D01*
X175713523Y-127868651D01*
X175865349Y-128020477D01*
X175952386Y-128083713D01*
X175995051Y-128139043D01*
X176003500Y-128184031D01*
X176003500Y-129478870D01*
X176003501Y-129478876D01*
X176009908Y-129538483D01*
X176060202Y-129673328D01*
X176060206Y-129673335D01*
X176146452Y-129788544D01*
X176146455Y-129788547D01*
X176261664Y-129874793D01*
X176261671Y-129874797D01*
X176290365Y-129885499D01*
X176396517Y-129925091D01*
X176456127Y-129931500D01*
X177051872Y-129931499D01*
X177111483Y-129925091D01*
X177246331Y-129874796D01*
X177361546Y-129788546D01*
X177447796Y-129673331D01*
X177498091Y-129538483D01*
X177504500Y-129478873D01*
X177504499Y-128184030D01*
X177524184Y-128116992D01*
X177555611Y-128083714D01*
X177642651Y-128020477D01*
X177794477Y-127868651D01*
X177920683Y-127694944D01*
X177920683Y-127694943D01*
X177923547Y-127691002D01*
X177925478Y-127692405D01*
X177969927Y-127652078D01*
X178038840Y-127640558D01*
X178103042Y-127668125D01*
X178123478Y-127691709D01*
X178124453Y-127691002D01*
X178127316Y-127694943D01*
X178127317Y-127694944D01*
X178253523Y-127868651D01*
X178405349Y-128020477D01*
X178492386Y-128083713D01*
X178535051Y-128139043D01*
X178543500Y-128184031D01*
X178543500Y-129478870D01*
X178543501Y-129478876D01*
X178549908Y-129538483D01*
X178600202Y-129673328D01*
X178600206Y-129673335D01*
X178686452Y-129788544D01*
X178686455Y-129788547D01*
X178801664Y-129874793D01*
X178801671Y-129874797D01*
X178830365Y-129885499D01*
X178936517Y-129925091D01*
X178996127Y-129931500D01*
X179591872Y-129931499D01*
X179651483Y-129925091D01*
X179786331Y-129874796D01*
X179901546Y-129788546D01*
X179987796Y-129673331D01*
X180038091Y-129538483D01*
X180044500Y-129478873D01*
X180044499Y-128184030D01*
X180064184Y-128116992D01*
X180095611Y-128083714D01*
X180182651Y-128020477D01*
X180334477Y-127868651D01*
X180460683Y-127694944D01*
X180460683Y-127694943D01*
X180463547Y-127691002D01*
X180465478Y-127692405D01*
X180509927Y-127652078D01*
X180578840Y-127640558D01*
X180643042Y-127668125D01*
X180663478Y-127691709D01*
X180664453Y-127691002D01*
X180667316Y-127694943D01*
X180667317Y-127694944D01*
X180793523Y-127868651D01*
X180945349Y-128020477D01*
X181032386Y-128083713D01*
X181075051Y-128139043D01*
X181083500Y-128184031D01*
X181083500Y-129478870D01*
X181083501Y-129478876D01*
X181089908Y-129538483D01*
X181140202Y-129673328D01*
X181140206Y-129673335D01*
X181226452Y-129788544D01*
X181226455Y-129788547D01*
X181341664Y-129874793D01*
X181341671Y-129874797D01*
X181370365Y-129885499D01*
X181476517Y-129925091D01*
X181536127Y-129931500D01*
X182131872Y-129931499D01*
X182191483Y-129925091D01*
X182326331Y-129874796D01*
X182441546Y-129788546D01*
X182527796Y-129673331D01*
X182578091Y-129538483D01*
X182584500Y-129478873D01*
X182584499Y-128184030D01*
X182604184Y-128116992D01*
X182635611Y-128083714D01*
X182722651Y-128020477D01*
X182874477Y-127868651D01*
X183000683Y-127694944D01*
X183000683Y-127694943D01*
X183003547Y-127691002D01*
X183005478Y-127692405D01*
X183049927Y-127652078D01*
X183118840Y-127640558D01*
X183183042Y-127668125D01*
X183203478Y-127691709D01*
X183204453Y-127691002D01*
X183207316Y-127694943D01*
X183207317Y-127694944D01*
X183333523Y-127868651D01*
X183485349Y-128020477D01*
X183572386Y-128083713D01*
X183615051Y-128139043D01*
X183623500Y-128184031D01*
X183623500Y-129478870D01*
X183623501Y-129478876D01*
X183629908Y-129538483D01*
X183680202Y-129673328D01*
X183680206Y-129673335D01*
X183766452Y-129788544D01*
X183766455Y-129788547D01*
X183881664Y-129874793D01*
X183881671Y-129874797D01*
X183910365Y-129885499D01*
X184016517Y-129925091D01*
X184076127Y-129931500D01*
X184671872Y-129931499D01*
X184731483Y-129925091D01*
X184866331Y-129874796D01*
X184981546Y-129788546D01*
X185067796Y-129673331D01*
X185118091Y-129538483D01*
X185124500Y-129478873D01*
X185124500Y-129478844D01*
X186164000Y-129478844D01*
X186170401Y-129538372D01*
X186170403Y-129538379D01*
X186220645Y-129673086D01*
X186220649Y-129673093D01*
X186306809Y-129788187D01*
X186306812Y-129788190D01*
X186421906Y-129874350D01*
X186421913Y-129874354D01*
X186556620Y-129924596D01*
X186556627Y-129924598D01*
X186616155Y-129930999D01*
X186616172Y-129931000D01*
X186664000Y-129931000D01*
X187164000Y-129931000D01*
X187211828Y-129931000D01*
X187211844Y-129930999D01*
X187271372Y-129924598D01*
X187271379Y-129924596D01*
X187406086Y-129874354D01*
X187406093Y-129874350D01*
X187521187Y-129788190D01*
X187521190Y-129788187D01*
X187607350Y-129673093D01*
X187607354Y-129673086D01*
X187657596Y-129538379D01*
X187657598Y-129538372D01*
X187663999Y-129478844D01*
X187664000Y-129478827D01*
X187664000Y-128756000D01*
X187164000Y-128756000D01*
X187164000Y-129931000D01*
X186664000Y-129931000D01*
X186664000Y-128756000D01*
X186164000Y-128756000D01*
X186164000Y-129478844D01*
X185124500Y-129478844D01*
X185124499Y-128184030D01*
X185144184Y-128116992D01*
X185175611Y-128083714D01*
X185262651Y-128020477D01*
X185359342Y-127923785D01*
X185420661Y-127890303D01*
X185490353Y-127895287D01*
X185546287Y-127937158D01*
X185563202Y-127968136D01*
X185607045Y-128085686D01*
X185607049Y-128085693D01*
X185693209Y-128200787D01*
X185693212Y-128200790D01*
X185808306Y-128286950D01*
X185808313Y-128286954D01*
X185943020Y-128337196D01*
X185943027Y-128337198D01*
X186002555Y-128343599D01*
X186002572Y-128343600D01*
X186034000Y-128343600D01*
X186049131Y-128328468D01*
X186053685Y-128312961D01*
X186106489Y-128267206D01*
X186158000Y-128256000D01*
X186664000Y-128256000D01*
X186664000Y-127422251D01*
X186717919Y-127453381D01*
X186847120Y-127488000D01*
X186980880Y-127488000D01*
X187110081Y-127453381D01*
X187164000Y-127422251D01*
X187164000Y-128256000D01*
X187670000Y-128256000D01*
X187737039Y-128275685D01*
X187782794Y-128328489D01*
X187783879Y-128333479D01*
X187794000Y-128343600D01*
X187825428Y-128343600D01*
X187825444Y-128343599D01*
X187884972Y-128337198D01*
X187884979Y-128337196D01*
X188019686Y-128286954D01*
X188019693Y-128286950D01*
X188134787Y-128200790D01*
X188134790Y-128200787D01*
X188220950Y-128085693D01*
X188220955Y-128085684D01*
X188264797Y-127968137D01*
X188306668Y-127912203D01*
X188372132Y-127887785D01*
X188440405Y-127902636D01*
X188468660Y-127923788D01*
X188565349Y-128020477D01*
X188652386Y-128083713D01*
X188695051Y-128139043D01*
X188703500Y-128184031D01*
X188703500Y-129478870D01*
X188703501Y-129478876D01*
X188709908Y-129538483D01*
X188760202Y-129673328D01*
X188760206Y-129673335D01*
X188846452Y-129788544D01*
X188846455Y-129788547D01*
X188961664Y-129874793D01*
X188961671Y-129874797D01*
X188990365Y-129885499D01*
X189096517Y-129925091D01*
X189156127Y-129931500D01*
X189751872Y-129931499D01*
X189811483Y-129925091D01*
X189946331Y-129874796D01*
X190061546Y-129788546D01*
X190147796Y-129673331D01*
X190198091Y-129538483D01*
X190204500Y-129478873D01*
X190204499Y-128184030D01*
X190224184Y-128116992D01*
X190255611Y-128083714D01*
X190342651Y-128020477D01*
X190494477Y-127868651D01*
X190620683Y-127694944D01*
X190620683Y-127694943D01*
X190623547Y-127691002D01*
X190625478Y-127692405D01*
X190669927Y-127652078D01*
X190738840Y-127640558D01*
X190803042Y-127668125D01*
X190823478Y-127691709D01*
X190824453Y-127691002D01*
X190827316Y-127694943D01*
X190827317Y-127694944D01*
X190953523Y-127868651D01*
X191105349Y-128020477D01*
X191192386Y-128083713D01*
X191235051Y-128139043D01*
X191243500Y-128184031D01*
X191243500Y-129478870D01*
X191243501Y-129478876D01*
X191249908Y-129538483D01*
X191300202Y-129673328D01*
X191300206Y-129673335D01*
X191386452Y-129788544D01*
X191386455Y-129788547D01*
X191501664Y-129874793D01*
X191501671Y-129874797D01*
X191530365Y-129885499D01*
X191636517Y-129925091D01*
X191696127Y-129931500D01*
X192291872Y-129931499D01*
X192351483Y-129925091D01*
X192486331Y-129874796D01*
X192601546Y-129788546D01*
X192687796Y-129673331D01*
X192738091Y-129538483D01*
X192744500Y-129478873D01*
X192744499Y-128184030D01*
X192764184Y-128116992D01*
X192795611Y-128083714D01*
X192882651Y-128020477D01*
X193034477Y-127868651D01*
X193160683Y-127694944D01*
X193160683Y-127694943D01*
X193163547Y-127691002D01*
X193165478Y-127692405D01*
X193209927Y-127652078D01*
X193278840Y-127640558D01*
X193343042Y-127668125D01*
X193363478Y-127691709D01*
X193364453Y-127691002D01*
X193367316Y-127694943D01*
X193367317Y-127694944D01*
X193493523Y-127868651D01*
X193645349Y-128020477D01*
X193755386Y-128100423D01*
X193798051Y-128155751D01*
X193806500Y-128200740D01*
X193806500Y-129432870D01*
X193806501Y-129432876D01*
X193812908Y-129492483D01*
X193863202Y-129627328D01*
X193863206Y-129627335D01*
X193949452Y-129742544D01*
X193949455Y-129742547D01*
X194064664Y-129828793D01*
X194064671Y-129828797D01*
X194109618Y-129845561D01*
X194199517Y-129879091D01*
X194259127Y-129885500D01*
X194854872Y-129885499D01*
X194914483Y-129879091D01*
X195049331Y-129828796D01*
X195164546Y-129742546D01*
X195250796Y-129627331D01*
X195301091Y-129492483D01*
X195307500Y-129432873D01*
X195307499Y-128167319D01*
X195327184Y-128100281D01*
X195358613Y-128067002D01*
X195422651Y-128020477D01*
X195574477Y-127868651D01*
X195700683Y-127694944D01*
X195798161Y-127503633D01*
X195864511Y-127299427D01*
X195898100Y-127087357D01*
X195898100Y-126872643D01*
X195864511Y-126660573D01*
X195804000Y-126474337D01*
X195798162Y-126456369D01*
X195798161Y-126456366D01*
X195717227Y-126297526D01*
X195700683Y-126265056D01*
X195574477Y-126091349D01*
X195422651Y-125939523D01*
X195358612Y-125892996D01*
X195315948Y-125837667D01*
X195307499Y-125792679D01*
X195307499Y-125089977D01*
X195327184Y-125022938D01*
X195379988Y-124977183D01*
X195392497Y-124972270D01*
X195394069Y-124971749D01*
X195404134Y-124968414D01*
X195553456Y-124876312D01*
X195677512Y-124752256D01*
X195769614Y-124602934D01*
X195824799Y-124436397D01*
X195835300Y-124333609D01*
X195835299Y-123733592D01*
X195824799Y-123630803D01*
X195769614Y-123464266D01*
X195677512Y-123314944D01*
X195553456Y-123190888D01*
X195404134Y-123098786D01*
X195270295Y-123054436D01*
X195212851Y-123014663D01*
X195186028Y-122950147D01*
X195185300Y-122936730D01*
X195185300Y-121603860D01*
X195185301Y-121603847D01*
X195185301Y-121435745D01*
X195185301Y-121435743D01*
X195144377Y-121283015D01*
X195065320Y-121146084D01*
X189866819Y-115947583D01*
X189833334Y-115886260D01*
X189830500Y-115859902D01*
X189830500Y-115585718D01*
X189850185Y-115518679D01*
X189898207Y-115475233D01*
X189937815Y-115455052D01*
X189937815Y-115455051D01*
X189937816Y-115455051D01*
X190029193Y-115388661D01*
X190109786Y-115330109D01*
X190109788Y-115330106D01*
X190109792Y-115330104D01*
X190260104Y-115179792D01*
X190260106Y-115179788D01*
X190260109Y-115179786D01*
X190385048Y-115007820D01*
X190385047Y-115007820D01*
X190385051Y-115007816D01*
X190389514Y-114999054D01*
X190437488Y-114948259D01*
X190505308Y-114931463D01*
X190571444Y-114953999D01*
X190610486Y-114999056D01*
X190614951Y-115007820D01*
X190739890Y-115179786D01*
X190890213Y-115330109D01*
X191062179Y-115455048D01*
X191062181Y-115455049D01*
X191062184Y-115455051D01*
X191251588Y-115551557D01*
X191453757Y-115617246D01*
X191663713Y-115650500D01*
X191663714Y-115650500D01*
X191876286Y-115650500D01*
X191876287Y-115650500D01*
X192086243Y-115617246D01*
X192288412Y-115551557D01*
X192477816Y-115455051D01*
X192564138Y-115392335D01*
X192649786Y-115330109D01*
X192649788Y-115330106D01*
X192649792Y-115330104D01*
X192800104Y-115179792D01*
X192800106Y-115179788D01*
X192800109Y-115179786D01*
X192925048Y-115007820D01*
X192925047Y-115007820D01*
X192925051Y-115007816D01*
X192929514Y-114999054D01*
X192977488Y-114948259D01*
X193045308Y-114931463D01*
X193111444Y-114953999D01*
X193150486Y-114999056D01*
X193154951Y-115007820D01*
X193279890Y-115179786D01*
X193430213Y-115330109D01*
X193602179Y-115455048D01*
X193602181Y-115455049D01*
X193602184Y-115455051D01*
X193791588Y-115551557D01*
X193993757Y-115617246D01*
X194203713Y-115650500D01*
X194203714Y-115650500D01*
X194416286Y-115650500D01*
X194416287Y-115650500D01*
X194626243Y-115617246D01*
X194828412Y-115551557D01*
X195017816Y-115455051D01*
X195104138Y-115392335D01*
X195189786Y-115330109D01*
X195189788Y-115330106D01*
X195189792Y-115330104D01*
X195340104Y-115179792D01*
X195340106Y-115179788D01*
X195340109Y-115179786D01*
X195465048Y-115007820D01*
X195465051Y-115007816D01*
X195469793Y-114998508D01*
X195517763Y-114947711D01*
X195585583Y-114930911D01*
X195651719Y-114953445D01*
X195690763Y-114998500D01*
X195695377Y-115007555D01*
X195820272Y-115179459D01*
X195820276Y-115179464D01*
X195970535Y-115329723D01*
X195970540Y-115329727D01*
X196142442Y-115454620D01*
X196331782Y-115551095D01*
X196533871Y-115616757D01*
X196600000Y-115627231D01*
X196600000Y-114733012D01*
X196657007Y-114765925D01*
X196784174Y-114800000D01*
X196915826Y-114800000D01*
X197042993Y-114765925D01*
X197100000Y-114733012D01*
X197100000Y-115627230D01*
X197166126Y-115616757D01*
X197166129Y-115616757D01*
X197368217Y-115551095D01*
X197557557Y-115454620D01*
X197729459Y-115329727D01*
X197729464Y-115329723D01*
X197879723Y-115179464D01*
X197879727Y-115179459D01*
X198004620Y-115007557D01*
X198101095Y-114818217D01*
X198166757Y-114616129D01*
X198166757Y-114616126D01*
X198177231Y-114550000D01*
X197283012Y-114550000D01*
X197315925Y-114492993D01*
X197350000Y-114365826D01*
X197350000Y-114234174D01*
X197315925Y-114107007D01*
X197283012Y-114050000D01*
X198177231Y-114050000D01*
X198166757Y-113983873D01*
X198166757Y-113983870D01*
X198101095Y-113781782D01*
X198004620Y-113592442D01*
X197879727Y-113420540D01*
X197879723Y-113420535D01*
X197729464Y-113270276D01*
X197729459Y-113270272D01*
X197557555Y-113145377D01*
X197548500Y-113140763D01*
X197497706Y-113092788D01*
X197480912Y-113024966D01*
X197503451Y-112958832D01*
X197548508Y-112919793D01*
X197557816Y-112915051D01*
X197696273Y-112814457D01*
X197729786Y-112790109D01*
X197729788Y-112790106D01*
X197729792Y-112790104D01*
X197880104Y-112639792D01*
X197880106Y-112639788D01*
X197880109Y-112639786D01*
X198005048Y-112467820D01*
X198005050Y-112467817D01*
X198005051Y-112467816D01*
X198101557Y-112278412D01*
X198167246Y-112076243D01*
X198200500Y-111866287D01*
X198200500Y-111653713D01*
X198167246Y-111443757D01*
X198101557Y-111241588D01*
X198005051Y-111052184D01*
X198005049Y-111052181D01*
X198005048Y-111052179D01*
X197880109Y-110880213D01*
X197729786Y-110729890D01*
X197557820Y-110604951D01*
X197368414Y-110508444D01*
X197368413Y-110508443D01*
X197368412Y-110508443D01*
X197166243Y-110442754D01*
X197166241Y-110442753D01*
X197166240Y-110442753D01*
X197004957Y-110417208D01*
X196956287Y-110409500D01*
X196743713Y-110409500D01*
X196695042Y-110417208D01*
X196533760Y-110442753D01*
X196331585Y-110508444D01*
X196142179Y-110604951D01*
X195970213Y-110729890D01*
X195819890Y-110880213D01*
X195694949Y-111052182D01*
X195690484Y-111060946D01*
X195642509Y-111111742D01*
X195574688Y-111128536D01*
X195508553Y-111105998D01*
X195469516Y-111060946D01*
X195465050Y-111052182D01*
X195340109Y-110880213D01*
X195189786Y-110729890D01*
X195017820Y-110604951D01*
X194828414Y-110508444D01*
X194828413Y-110508443D01*
X194828412Y-110508443D01*
X194626243Y-110442754D01*
X194626241Y-110442753D01*
X194626240Y-110442753D01*
X194464957Y-110417208D01*
X194416287Y-110409500D01*
X194203713Y-110409500D01*
X194155042Y-110417208D01*
X193993760Y-110442753D01*
X193791585Y-110508444D01*
X193602179Y-110604951D01*
X193430213Y-110729890D01*
X193279890Y-110880213D01*
X193154949Y-111052182D01*
X193150484Y-111060946D01*
X193102509Y-111111742D01*
X193034688Y-111128536D01*
X192968553Y-111105998D01*
X192929516Y-111060946D01*
X192925050Y-111052182D01*
X192800109Y-110880213D01*
X192649786Y-110729890D01*
X192477820Y-110604951D01*
X192288414Y-110508444D01*
X192288413Y-110508443D01*
X192288412Y-110508443D01*
X192086243Y-110442754D01*
X192086241Y-110442753D01*
X192086240Y-110442753D01*
X191924957Y-110417208D01*
X191876287Y-110409500D01*
X191663713Y-110409500D01*
X191615042Y-110417208D01*
X191453760Y-110442753D01*
X191251585Y-110508444D01*
X191062179Y-110604951D01*
X190890213Y-110729890D01*
X190739890Y-110880213D01*
X190614949Y-111052182D01*
X190610484Y-111060946D01*
X190562509Y-111111742D01*
X190494688Y-111128536D01*
X190428553Y-111105998D01*
X190389516Y-111060946D01*
X190385050Y-111052182D01*
X190260109Y-110880213D01*
X190109786Y-110729890D01*
X189937820Y-110604951D01*
X189748414Y-110508444D01*
X189748413Y-110508443D01*
X189748412Y-110508443D01*
X189546243Y-110442754D01*
X189546241Y-110442753D01*
X189546240Y-110442753D01*
X189384957Y-110417208D01*
X189336287Y-110409500D01*
X189123713Y-110409500D01*
X189084202Y-110415757D01*
X188913759Y-110442753D01*
X188732818Y-110501545D01*
X188662977Y-110503540D01*
X188603144Y-110467460D01*
X188572316Y-110404759D01*
X188570500Y-110383614D01*
X188570500Y-110079059D01*
X188570501Y-110079046D01*
X188570501Y-109910945D01*
X188570501Y-109910943D01*
X188529577Y-109758215D01*
X188500639Y-109708095D01*
X188450520Y-109621284D01*
X188338716Y-109509480D01*
X188338715Y-109509479D01*
X188334385Y-109505149D01*
X188334374Y-109505139D01*
X187577590Y-108748355D01*
X187577588Y-108748352D01*
X187458717Y-108629481D01*
X187458716Y-108629480D01*
X187371904Y-108579360D01*
X187371904Y-108579359D01*
X187371900Y-108579358D01*
X187321785Y-108550423D01*
X187169057Y-108509499D01*
X187010943Y-108509499D01*
X187003347Y-108509499D01*
X187003331Y-108509500D01*
X184816669Y-108509500D01*
X184816653Y-108509499D01*
X184809057Y-108509499D01*
X184650943Y-108509499D01*
X184543587Y-108538265D01*
X184498210Y-108550424D01*
X184498209Y-108550425D01*
X184448096Y-108579359D01*
X184448095Y-108579360D01*
X184404689Y-108604420D01*
X184361285Y-108629479D01*
X184361282Y-108629481D01*
X183669479Y-109321284D01*
X183641797Y-109369232D01*
X183630096Y-109389500D01*
X183590423Y-109458215D01*
X183549499Y-109610943D01*
X183549499Y-109610945D01*
X183549499Y-109779046D01*
X183549500Y-109779059D01*
X183549500Y-110474281D01*
X183529815Y-110541320D01*
X183481795Y-110584765D01*
X183442185Y-110604947D01*
X183442184Y-110604948D01*
X183270213Y-110729890D01*
X183119890Y-110880213D01*
X182994949Y-111052182D01*
X182990484Y-111060946D01*
X182942509Y-111111742D01*
X182874688Y-111128536D01*
X182808553Y-111105998D01*
X182769516Y-111060946D01*
X182765050Y-111052182D01*
X182640109Y-110880213D01*
X182489786Y-110729890D01*
X182317820Y-110604951D01*
X182128414Y-110508444D01*
X182128413Y-110508443D01*
X182128412Y-110508443D01*
X181926243Y-110442754D01*
X181926241Y-110442753D01*
X181926240Y-110442753D01*
X181764957Y-110417208D01*
X181716287Y-110409500D01*
X181503713Y-110409500D01*
X181455042Y-110417208D01*
X181293760Y-110442753D01*
X181091585Y-110508444D01*
X180902179Y-110604951D01*
X180730213Y-110729890D01*
X180579890Y-110880213D01*
X180454949Y-111052182D01*
X180450484Y-111060946D01*
X180402509Y-111111742D01*
X180334688Y-111128536D01*
X180268553Y-111105998D01*
X180229516Y-111060946D01*
X180225050Y-111052182D01*
X180100109Y-110880213D01*
X179949786Y-110729890D01*
X179777820Y-110604951D01*
X179588414Y-110508444D01*
X179588413Y-110508443D01*
X179588412Y-110508443D01*
X179386243Y-110442754D01*
X179386241Y-110442753D01*
X179386240Y-110442753D01*
X179224957Y-110417208D01*
X179176287Y-110409500D01*
X178963713Y-110409500D01*
X178915042Y-110417208D01*
X178753760Y-110442753D01*
X178551585Y-110508444D01*
X178362179Y-110604951D01*
X178190213Y-110729890D01*
X178039890Y-110880213D01*
X177914949Y-111052182D01*
X177910484Y-111060946D01*
X177862509Y-111111742D01*
X177794688Y-111128536D01*
X177728553Y-111105998D01*
X177689516Y-111060946D01*
X177685050Y-111052182D01*
X177560109Y-110880213D01*
X177409786Y-110729890D01*
X177237820Y-110604951D01*
X177048414Y-110508444D01*
X177048413Y-110508443D01*
X177048412Y-110508443D01*
X176846243Y-110442754D01*
X176846241Y-110442753D01*
X176846240Y-110442753D01*
X176684957Y-110417208D01*
X176636287Y-110409500D01*
X176423713Y-110409500D01*
X176375042Y-110417208D01*
X176213760Y-110442753D01*
X176011585Y-110508444D01*
X175822179Y-110604951D01*
X175650213Y-110729890D01*
X175499890Y-110880213D01*
X175374949Y-111052182D01*
X175370202Y-111061499D01*
X175322227Y-111112293D01*
X175254405Y-111129087D01*
X175188271Y-111106548D01*
X175149234Y-111061495D01*
X175144622Y-111052444D01*
X175019727Y-110880540D01*
X175019723Y-110880535D01*
X174869464Y-110730276D01*
X174869459Y-110730272D01*
X174697557Y-110605379D01*
X174508215Y-110508903D01*
X174306124Y-110443241D01*
X174240000Y-110432768D01*
X174240000Y-111326988D01*
X174182993Y-111294075D01*
X174055826Y-111260000D01*
X173924174Y-111260000D01*
X173797007Y-111294075D01*
X173740000Y-111326988D01*
X173740000Y-110432768D01*
X173739999Y-110432768D01*
X173673875Y-110443241D01*
X173471784Y-110508903D01*
X173282442Y-110605379D01*
X173110540Y-110730272D01*
X173110535Y-110730276D01*
X172960276Y-110880535D01*
X172960272Y-110880540D01*
X172835379Y-111052442D01*
X172738904Y-111241782D01*
X172673242Y-111443870D01*
X172673242Y-111443873D01*
X172662769Y-111510000D01*
X173556988Y-111510000D01*
X173524075Y-111567007D01*
X173490000Y-111694174D01*
X173490000Y-111825826D01*
X173524075Y-111952993D01*
X173556988Y-112010000D01*
X172662769Y-112010000D01*
X172673242Y-112076126D01*
X172673242Y-112076129D01*
X172738904Y-112278217D01*
X172835379Y-112467557D01*
X172960272Y-112639459D01*
X172960276Y-112639464D01*
X173073946Y-112753134D01*
X173107431Y-112814457D01*
X173102447Y-112884149D01*
X173060575Y-112940082D01*
X173029598Y-112956997D01*
X172897671Y-113006202D01*
X172897664Y-113006206D01*
X172782455Y-113092452D01*
X172782452Y-113092455D01*
X172696206Y-113207664D01*
X172696202Y-113207671D01*
X172645908Y-113342517D01*
X172639501Y-113402116D01*
X172639500Y-113402135D01*
X172639500Y-115197870D01*
X172639501Y-115197876D01*
X172645908Y-115257483D01*
X172696202Y-115392328D01*
X172696206Y-115392335D01*
X172782452Y-115507544D01*
X172782455Y-115507547D01*
X172897664Y-115593793D01*
X172897671Y-115593797D01*
X173032517Y-115644091D01*
X173032516Y-115644091D01*
X173039444Y-115644835D01*
X173092127Y-115650500D01*
X174887872Y-115650499D01*
X174947483Y-115644091D01*
X175082331Y-115593796D01*
X175197546Y-115507546D01*
X175283796Y-115392331D01*
X175332810Y-115260916D01*
X175374681Y-115204984D01*
X175440145Y-115180566D01*
X175508418Y-115195417D01*
X175536673Y-115216569D01*
X175650213Y-115330109D01*
X175822179Y-115455048D01*
X175822181Y-115455049D01*
X175822184Y-115455051D01*
X176011588Y-115551557D01*
X176213757Y-115617246D01*
X176423713Y-115650500D01*
X176423714Y-115650500D01*
X176636286Y-115650500D01*
X176636287Y-115650500D01*
X176846243Y-115617246D01*
X177048412Y-115551557D01*
X177237816Y-115455051D01*
X177324138Y-115392335D01*
X177409786Y-115330109D01*
X177409788Y-115330106D01*
X177409792Y-115330104D01*
X177560104Y-115179792D01*
X177560106Y-115179788D01*
X177560109Y-115179786D01*
X177685048Y-115007820D01*
X177685047Y-115007820D01*
X177685051Y-115007816D01*
X177689514Y-114999054D01*
X177737488Y-114948259D01*
X177805308Y-114931463D01*
X177871444Y-114953999D01*
X177910486Y-114999056D01*
X177914951Y-115007820D01*
X178039890Y-115179786D01*
X178190213Y-115330109D01*
X178362179Y-115455048D01*
X178362181Y-115455049D01*
X178362184Y-115455051D01*
X178551588Y-115551557D01*
X178753757Y-115617246D01*
X178963713Y-115650500D01*
X178963714Y-115650500D01*
X179176286Y-115650500D01*
X179176287Y-115650500D01*
X179386243Y-115617246D01*
X179588412Y-115551557D01*
X179777816Y-115455051D01*
X179864138Y-115392335D01*
X179949786Y-115330109D01*
X179949788Y-115330106D01*
X179949792Y-115330104D01*
X180100104Y-115179792D01*
X180100106Y-115179788D01*
X180100109Y-115179786D01*
X180225048Y-115007820D01*
X180225047Y-115007820D01*
X180225051Y-115007816D01*
X180229514Y-114999054D01*
X180277488Y-114948259D01*
X180345308Y-114931463D01*
X180411444Y-114953999D01*
X180450486Y-114999056D01*
X180454951Y-115007820D01*
X180579890Y-115179786D01*
X180730213Y-115330109D01*
X180902179Y-115455048D01*
X180902181Y-115455049D01*
X180902184Y-115455051D01*
X181091588Y-115551557D01*
X181293757Y-115617246D01*
X181503713Y-115650500D01*
X181503714Y-115650500D01*
X181716286Y-115650500D01*
X181716287Y-115650500D01*
X181926243Y-115617246D01*
X182128412Y-115551557D01*
X182317816Y-115455051D01*
X182404138Y-115392335D01*
X182489786Y-115330109D01*
X182489788Y-115330106D01*
X182489792Y-115330104D01*
X182640104Y-115179792D01*
X182640106Y-115179788D01*
X182640109Y-115179786D01*
X182765048Y-115007820D01*
X182765047Y-115007820D01*
X182765051Y-115007816D01*
X182769514Y-114999054D01*
X182817488Y-114948259D01*
X182885308Y-114931463D01*
X182951444Y-114953999D01*
X182990486Y-114999056D01*
X182994951Y-115007820D01*
X183119890Y-115179786D01*
X183270213Y-115330109D01*
X183442179Y-115455048D01*
X183442181Y-115455049D01*
X183442184Y-115455051D01*
X183481794Y-115475233D01*
X183532590Y-115523207D01*
X183549499Y-115585718D01*
X183549499Y-115739054D01*
X183549498Y-115739054D01*
X183590424Y-115891789D01*
X183590425Y-115891790D01*
X183601669Y-115911264D01*
X183611456Y-115928215D01*
X183669480Y-116028716D01*
X183743409Y-116102645D01*
X183748695Y-116109692D01*
X183757973Y-116134495D01*
X183770666Y-116157740D01*
X183772278Y-116172736D01*
X183773175Y-116175133D01*
X183772748Y-116177104D01*
X183773500Y-116184098D01*
X183773500Y-122936730D01*
X183753815Y-123003769D01*
X183701011Y-123049524D01*
X183688505Y-123054436D01*
X183554666Y-123098786D01*
X183554663Y-123098787D01*
X183405342Y-123190889D01*
X183281289Y-123314942D01*
X183209539Y-123431269D01*
X183157591Y-123477993D01*
X183088628Y-123489216D01*
X183024546Y-123461372D01*
X182998461Y-123431269D01*
X182926906Y-123315259D01*
X182926712Y-123314944D01*
X182802656Y-123190888D01*
X182653334Y-123098786D01*
X182519495Y-123054436D01*
X182462051Y-123014663D01*
X182435228Y-122950147D01*
X182434500Y-122936730D01*
X182434500Y-118633779D01*
X182454185Y-118566740D01*
X182455398Y-118564888D01*
X182539390Y-118439185D01*
X182539390Y-118439184D01*
X182539394Y-118439179D01*
X182599737Y-118293497D01*
X182630500Y-118138842D01*
X182630500Y-117981158D01*
X182630500Y-117981155D01*
X182630499Y-117981153D01*
X182610905Y-117882649D01*
X182599737Y-117826503D01*
X182594168Y-117813058D01*
X182539397Y-117680827D01*
X182539390Y-117680814D01*
X182451789Y-117549711D01*
X182451786Y-117549707D01*
X182340292Y-117438213D01*
X182340288Y-117438210D01*
X182209185Y-117350609D01*
X182209172Y-117350602D01*
X182063501Y-117290264D01*
X182063489Y-117290261D01*
X181908845Y-117259500D01*
X181908842Y-117259500D01*
X181751158Y-117259500D01*
X181751155Y-117259500D01*
X181596510Y-117290261D01*
X181596498Y-117290264D01*
X181450827Y-117350602D01*
X181450814Y-117350609D01*
X181319711Y-117438210D01*
X181319707Y-117438213D01*
X181208213Y-117549707D01*
X181208210Y-117549711D01*
X181120609Y-117680814D01*
X181120602Y-117680827D01*
X181060264Y-117826498D01*
X181060261Y-117826510D01*
X181029500Y-117981153D01*
X181029500Y-118138846D01*
X181060261Y-118293489D01*
X181060264Y-118293501D01*
X181120602Y-118439172D01*
X181120609Y-118439185D01*
X181211595Y-118575354D01*
X181209560Y-118576713D01*
X181232666Y-118631116D01*
X181233500Y-118645472D01*
X181233500Y-122936730D01*
X181213815Y-123003769D01*
X181161011Y-123049524D01*
X181148505Y-123054436D01*
X181014666Y-123098786D01*
X181014663Y-123098787D01*
X180865342Y-123190889D01*
X180741289Y-123314942D01*
X180669539Y-123431269D01*
X180617591Y-123477993D01*
X180548628Y-123489216D01*
X180484546Y-123461372D01*
X180458461Y-123431269D01*
X180386906Y-123315259D01*
X180386712Y-123314944D01*
X180262656Y-123190888D01*
X180113334Y-123098786D01*
X179979495Y-123054436D01*
X179922051Y-123014663D01*
X179895228Y-122950147D01*
X179894500Y-122936730D01*
X179894500Y-117597909D01*
X179914185Y-117530870D01*
X179920702Y-117521915D01*
X179921787Y-117520290D01*
X179921789Y-117520289D01*
X180009394Y-117389179D01*
X180012183Y-117382447D01*
X180031352Y-117336167D01*
X180069737Y-117243497D01*
X180100500Y-117088842D01*
X180100500Y-116931158D01*
X180100500Y-116931155D01*
X180100499Y-116931153D01*
X180069738Y-116776510D01*
X180069737Y-116776503D01*
X180013412Y-116640521D01*
X180009397Y-116630827D01*
X180009390Y-116630814D01*
X179921789Y-116499711D01*
X179921786Y-116499707D01*
X179810292Y-116388213D01*
X179810288Y-116388210D01*
X179679185Y-116300609D01*
X179679172Y-116300602D01*
X179533501Y-116240264D01*
X179533489Y-116240261D01*
X179378845Y-116209500D01*
X179378842Y-116209500D01*
X179221158Y-116209500D01*
X179221155Y-116209500D01*
X179066510Y-116240261D01*
X179066498Y-116240264D01*
X178920827Y-116300602D01*
X178920814Y-116300609D01*
X178789711Y-116388210D01*
X178789707Y-116388213D01*
X178678213Y-116499707D01*
X178678210Y-116499711D01*
X178590609Y-116630814D01*
X178590602Y-116630827D01*
X178530264Y-116776498D01*
X178530261Y-116776510D01*
X178499500Y-116931153D01*
X178499500Y-117088846D01*
X178530261Y-117243489D01*
X178530264Y-117243501D01*
X178590602Y-117389172D01*
X178590609Y-117389185D01*
X178672602Y-117511895D01*
X178693480Y-117578572D01*
X178693500Y-117580786D01*
X178693500Y-122936730D01*
X178673815Y-123003769D01*
X178621011Y-123049524D01*
X178608505Y-123054436D01*
X178474666Y-123098786D01*
X178474663Y-123098787D01*
X178325342Y-123190889D01*
X178201289Y-123314942D01*
X178129539Y-123431269D01*
X178077591Y-123477993D01*
X178008628Y-123489216D01*
X177944546Y-123461372D01*
X177918461Y-123431269D01*
X177846906Y-123315259D01*
X177846712Y-123314944D01*
X177722656Y-123190888D01*
X177573334Y-123098786D01*
X177406797Y-123043601D01*
X177406795Y-123043600D01*
X177304010Y-123033100D01*
X176203998Y-123033100D01*
X176203980Y-123033101D01*
X176101203Y-123043600D01*
X176101200Y-123043601D01*
X175934668Y-123098785D01*
X175934663Y-123098787D01*
X175785342Y-123190889D01*
X175661289Y-123314942D01*
X175589539Y-123431269D01*
X175537591Y-123477993D01*
X175468628Y-123489216D01*
X175404546Y-123461372D01*
X175378461Y-123431269D01*
X175306906Y-123315259D01*
X175306712Y-123314944D01*
X175182656Y-123190888D01*
X175033334Y-123098786D01*
X174866797Y-123043601D01*
X174866795Y-123043600D01*
X174764010Y-123033100D01*
X173663998Y-123033100D01*
X173663980Y-123033101D01*
X173561203Y-123043600D01*
X173561200Y-123043601D01*
X173394668Y-123098785D01*
X173394663Y-123098787D01*
X173245342Y-123190889D01*
X173121289Y-123314942D01*
X173049539Y-123431269D01*
X172997591Y-123477993D01*
X172928628Y-123489216D01*
X172864546Y-123461372D01*
X172838461Y-123431269D01*
X172766906Y-123315259D01*
X172766712Y-123314944D01*
X172642656Y-123190888D01*
X172493334Y-123098786D01*
X172326797Y-123043601D01*
X172326795Y-123043600D01*
X172224010Y-123033100D01*
X171123998Y-123033100D01*
X171123980Y-123033101D01*
X171021203Y-123043600D01*
X171021200Y-123043601D01*
X170854668Y-123098785D01*
X170854663Y-123098787D01*
X170705342Y-123190889D01*
X170581289Y-123314942D01*
X170489187Y-123464263D01*
X170489185Y-123464268D01*
X170480918Y-123489216D01*
X170434001Y-123630803D01*
X170434001Y-123630804D01*
X170434000Y-123630804D01*
X170423500Y-123733583D01*
X170423500Y-124333601D01*
X170423501Y-124333619D01*
X170434000Y-124436396D01*
X170434001Y-124436399D01*
X170489185Y-124602931D01*
X170489187Y-124602936D01*
X170524069Y-124659488D01*
X170581288Y-124752256D01*
X170705344Y-124876312D01*
X170854666Y-124968414D01*
X170854667Y-124968414D01*
X170860813Y-124972205D01*
X170859706Y-124973999D01*
X170904337Y-125013287D01*
X170923500Y-125079508D01*
X170923500Y-125775968D01*
X170903815Y-125843007D01*
X170872387Y-125876285D01*
X170785349Y-125939522D01*
X170633525Y-126091346D01*
X170633525Y-126091347D01*
X170633523Y-126091349D01*
X170607256Y-126127502D01*
X170507317Y-126265055D01*
X170409838Y-126456366D01*
X170409837Y-126456369D01*
X170343489Y-126660571D01*
X170309900Y-126872643D01*
X168974100Y-126872643D01*
X168940511Y-126660573D01*
X168880000Y-126474337D01*
X168874162Y-126456369D01*
X168874161Y-126456366D01*
X168793227Y-126297526D01*
X168776683Y-126265056D01*
X168650477Y-126091349D01*
X168498651Y-125939523D01*
X168498650Y-125939522D01*
X168411612Y-125876284D01*
X168368947Y-125820954D01*
X168360499Y-125775967D01*
X168360499Y-125079509D01*
X168380184Y-125012470D01*
X168424270Y-124973961D01*
X168423187Y-124972205D01*
X168429332Y-124968414D01*
X168429334Y-124968414D01*
X168578656Y-124876312D01*
X168702712Y-124752256D01*
X168794814Y-124602934D01*
X168849999Y-124436397D01*
X168860500Y-124333609D01*
X168860499Y-123733592D01*
X168849999Y-123630803D01*
X168794814Y-123464266D01*
X168702712Y-123314944D01*
X168578656Y-123190888D01*
X168429334Y-123098786D01*
X168295495Y-123054436D01*
X168238051Y-123014663D01*
X168211228Y-122950147D01*
X168210500Y-122936730D01*
X168210500Y-118539765D01*
X168230185Y-118472726D01*
X168231398Y-118470874D01*
X168319390Y-118339185D01*
X168319390Y-118339184D01*
X168319394Y-118339179D01*
X168379737Y-118193497D01*
X168410500Y-118038842D01*
X168410500Y-117881158D01*
X168410500Y-117881155D01*
X168410499Y-117881153D01*
X168390326Y-117779737D01*
X168379737Y-117726503D01*
X168360812Y-117680814D01*
X168319397Y-117580827D01*
X168319390Y-117580814D01*
X168231789Y-117449711D01*
X168231786Y-117449707D01*
X168120292Y-117338213D01*
X168120288Y-117338210D01*
X167989185Y-117250609D01*
X167989172Y-117250602D01*
X167843501Y-117190264D01*
X167843489Y-117190261D01*
X167688845Y-117159500D01*
X167688842Y-117159500D01*
X167531158Y-117159500D01*
X167531155Y-117159500D01*
X167376510Y-117190261D01*
X167376498Y-117190264D01*
X167230827Y-117250602D01*
X167230814Y-117250609D01*
X167099711Y-117338210D01*
X167099707Y-117338213D01*
X166988213Y-117449707D01*
X166988210Y-117449711D01*
X166900609Y-117580814D01*
X166900602Y-117580827D01*
X166840264Y-117726498D01*
X166840261Y-117726510D01*
X166809500Y-117881153D01*
X166809500Y-118038846D01*
X166840261Y-118193489D01*
X166840264Y-118193501D01*
X166900602Y-118339172D01*
X166900609Y-118339185D01*
X166988602Y-118470874D01*
X167009480Y-118537551D01*
X167009500Y-118539765D01*
X167009500Y-122936730D01*
X166989815Y-123003769D01*
X166937011Y-123049524D01*
X166924505Y-123054436D01*
X166790666Y-123098786D01*
X166790663Y-123098787D01*
X166641342Y-123190889D01*
X166517289Y-123314942D01*
X166445539Y-123431269D01*
X166393591Y-123477993D01*
X166324628Y-123489216D01*
X166260546Y-123461372D01*
X166234461Y-123431269D01*
X166162906Y-123315259D01*
X166162712Y-123314944D01*
X166038656Y-123190888D01*
X165889334Y-123098786D01*
X165722797Y-123043601D01*
X165722795Y-123043600D01*
X165620010Y-123033100D01*
X164519998Y-123033100D01*
X164519980Y-123033101D01*
X164417203Y-123043600D01*
X164417200Y-123043601D01*
X164250668Y-123098785D01*
X164250663Y-123098787D01*
X164101342Y-123190889D01*
X163977289Y-123314942D01*
X163905539Y-123431269D01*
X163853591Y-123477993D01*
X163784628Y-123489216D01*
X163720546Y-123461372D01*
X163694461Y-123431269D01*
X163622906Y-123315259D01*
X163622712Y-123314944D01*
X163498656Y-123190888D01*
X163349334Y-123098786D01*
X163215495Y-123054436D01*
X163158051Y-123014663D01*
X163131228Y-122950147D01*
X163130500Y-122936730D01*
X163130500Y-113402135D01*
X163749500Y-113402135D01*
X163749500Y-115197870D01*
X163749501Y-115197876D01*
X163755908Y-115257483D01*
X163806202Y-115392328D01*
X163806206Y-115392335D01*
X163892452Y-115507544D01*
X163892455Y-115507547D01*
X164007664Y-115593793D01*
X164007671Y-115593797D01*
X164142517Y-115644091D01*
X164142516Y-115644091D01*
X164149444Y-115644835D01*
X164202127Y-115650500D01*
X165997872Y-115650499D01*
X166057483Y-115644091D01*
X166192331Y-115593796D01*
X166307546Y-115507546D01*
X166393796Y-115392331D01*
X166442810Y-115260916D01*
X166484681Y-115204984D01*
X166550145Y-115180566D01*
X166618418Y-115195417D01*
X166646673Y-115216569D01*
X166760213Y-115330109D01*
X166932179Y-115455048D01*
X166932181Y-115455049D01*
X166932184Y-115455051D01*
X167121588Y-115551557D01*
X167323757Y-115617246D01*
X167533713Y-115650500D01*
X167533714Y-115650500D01*
X167746286Y-115650500D01*
X167746287Y-115650500D01*
X167956243Y-115617246D01*
X168158412Y-115551557D01*
X168347816Y-115455051D01*
X168434138Y-115392335D01*
X168519786Y-115330109D01*
X168519788Y-115330106D01*
X168519792Y-115330104D01*
X168670104Y-115179792D01*
X168670106Y-115179788D01*
X168670109Y-115179786D01*
X168795048Y-115007820D01*
X168795047Y-115007820D01*
X168795051Y-115007816D01*
X168891557Y-114818412D01*
X168957246Y-114616243D01*
X168990500Y-114406287D01*
X168990500Y-114193713D01*
X168957246Y-113983757D01*
X168891557Y-113781588D01*
X168795051Y-113592184D01*
X168795049Y-113592181D01*
X168795048Y-113592179D01*
X168670109Y-113420213D01*
X168519786Y-113269890D01*
X168347817Y-113144949D01*
X168338504Y-113140204D01*
X168287707Y-113092230D01*
X168270912Y-113024409D01*
X168293449Y-112958274D01*
X168338507Y-112919232D01*
X168347558Y-112914620D01*
X168519459Y-112789727D01*
X168519464Y-112789723D01*
X168669723Y-112639464D01*
X168669727Y-112639459D01*
X168794620Y-112467557D01*
X168891095Y-112278217D01*
X168956757Y-112076129D01*
X168956757Y-112076126D01*
X168967231Y-112010000D01*
X168073012Y-112010000D01*
X168105925Y-111952993D01*
X168140000Y-111825826D01*
X168140000Y-111694174D01*
X168105925Y-111567007D01*
X168073012Y-111510000D01*
X168967231Y-111510000D01*
X168956757Y-111443873D01*
X168956757Y-111443870D01*
X168891095Y-111241782D01*
X168794620Y-111052442D01*
X168669727Y-110880540D01*
X168669723Y-110880535D01*
X168519464Y-110730276D01*
X168519459Y-110730272D01*
X168347557Y-110605379D01*
X168158215Y-110508903D01*
X167956124Y-110443241D01*
X167890000Y-110432768D01*
X167890000Y-111326988D01*
X167832993Y-111294075D01*
X167705826Y-111260000D01*
X167574174Y-111260000D01*
X167447007Y-111294075D01*
X167390000Y-111326988D01*
X167390000Y-110432768D01*
X167389999Y-110432768D01*
X167323875Y-110443241D01*
X167121784Y-110508903D01*
X166932442Y-110605379D01*
X166760540Y-110730272D01*
X166760535Y-110730276D01*
X166610276Y-110880535D01*
X166610272Y-110880540D01*
X166485377Y-111052444D01*
X166480484Y-111062048D01*
X166432509Y-111112844D01*
X166364688Y-111129638D01*
X166298553Y-111107100D01*
X166259516Y-111062048D01*
X166254622Y-111052444D01*
X166129727Y-110880540D01*
X166129723Y-110880535D01*
X165979464Y-110730276D01*
X165979459Y-110730272D01*
X165807557Y-110605379D01*
X165618215Y-110508903D01*
X165416124Y-110443241D01*
X165350000Y-110432768D01*
X165350000Y-111326988D01*
X165292993Y-111294075D01*
X165165826Y-111260000D01*
X165034174Y-111260000D01*
X164907007Y-111294075D01*
X164850000Y-111326988D01*
X164850000Y-110432768D01*
X164849999Y-110432768D01*
X164783875Y-110443241D01*
X164581784Y-110508903D01*
X164392442Y-110605379D01*
X164220540Y-110730272D01*
X164220535Y-110730276D01*
X164070276Y-110880535D01*
X164070272Y-110880540D01*
X163945379Y-111052442D01*
X163848904Y-111241782D01*
X163783242Y-111443870D01*
X163783242Y-111443873D01*
X163772769Y-111510000D01*
X164666988Y-111510000D01*
X164634075Y-111567007D01*
X164600000Y-111694174D01*
X164600000Y-111825826D01*
X164634075Y-111952993D01*
X164666988Y-112010000D01*
X163772769Y-112010000D01*
X163783242Y-112076126D01*
X163783242Y-112076129D01*
X163848904Y-112278217D01*
X163945379Y-112467557D01*
X164070272Y-112639459D01*
X164070276Y-112639464D01*
X164183946Y-112753134D01*
X164217431Y-112814457D01*
X164212447Y-112884149D01*
X164170575Y-112940082D01*
X164139598Y-112956997D01*
X164007671Y-113006202D01*
X164007664Y-113006206D01*
X163892455Y-113092452D01*
X163892452Y-113092455D01*
X163806206Y-113207664D01*
X163806202Y-113207671D01*
X163755908Y-113342517D01*
X163749501Y-113402116D01*
X163749500Y-113402135D01*
X163130500Y-113402135D01*
X163130500Y-103961153D01*
X169459500Y-103961153D01*
X169459500Y-104118846D01*
X169490261Y-104273489D01*
X169490264Y-104273501D01*
X169550602Y-104419172D01*
X169550609Y-104419185D01*
X169638602Y-104550874D01*
X169659480Y-104617551D01*
X169659500Y-104619765D01*
X169659500Y-117380234D01*
X169639815Y-117447273D01*
X169638602Y-117449125D01*
X169550609Y-117580814D01*
X169550602Y-117580827D01*
X169490264Y-117726498D01*
X169490261Y-117726510D01*
X169459500Y-117881153D01*
X169459500Y-118038846D01*
X169490261Y-118193489D01*
X169490264Y-118193501D01*
X169550602Y-118339172D01*
X169550609Y-118339185D01*
X169638210Y-118470288D01*
X169638213Y-118470292D01*
X169749707Y-118581786D01*
X169749711Y-118581789D01*
X169880814Y-118669390D01*
X169880827Y-118669397D01*
X170026498Y-118729735D01*
X170026503Y-118729737D01*
X170181153Y-118760499D01*
X170181156Y-118760500D01*
X170181158Y-118760500D01*
X170338844Y-118760500D01*
X170338845Y-118760499D01*
X170493497Y-118729737D01*
X170639179Y-118669394D01*
X170770289Y-118581789D01*
X170881789Y-118470289D01*
X170969394Y-118339179D01*
X171029737Y-118193497D01*
X171060500Y-118038842D01*
X171060500Y-117881158D01*
X171060500Y-117881155D01*
X171060499Y-117881153D01*
X171040326Y-117779737D01*
X171029737Y-117726503D01*
X171010812Y-117680814D01*
X170969397Y-117580827D01*
X170969390Y-117580814D01*
X170881398Y-117449125D01*
X170860520Y-117382447D01*
X170860500Y-117380234D01*
X170860500Y-104619765D01*
X170880185Y-104552726D01*
X170881398Y-104550874D01*
X170969390Y-104419185D01*
X170969390Y-104419184D01*
X170969394Y-104419179D01*
X171029737Y-104273497D01*
X171060500Y-104118842D01*
X171060500Y-103961158D01*
X171060500Y-103961155D01*
X171060499Y-103961153D01*
X171029738Y-103806510D01*
X171029737Y-103806503D01*
X171029735Y-103806498D01*
X170969397Y-103660827D01*
X170969390Y-103660814D01*
X170881789Y-103529711D01*
X170881786Y-103529707D01*
X170770292Y-103418213D01*
X170770288Y-103418210D01*
X170639185Y-103330609D01*
X170639172Y-103330602D01*
X170493501Y-103270264D01*
X170493489Y-103270261D01*
X170338845Y-103239500D01*
X170338842Y-103239500D01*
X170181158Y-103239500D01*
X170181155Y-103239500D01*
X170026510Y-103270261D01*
X170026498Y-103270264D01*
X169880827Y-103330602D01*
X169880814Y-103330609D01*
X169749711Y-103418210D01*
X169749707Y-103418213D01*
X169638213Y-103529707D01*
X169638210Y-103529711D01*
X169550609Y-103660814D01*
X169550602Y-103660827D01*
X169490264Y-103806498D01*
X169490261Y-103806510D01*
X169459500Y-103961153D01*
X163130500Y-103961153D01*
X163130500Y-100702135D01*
X163749500Y-100702135D01*
X163749500Y-102497870D01*
X163749501Y-102497876D01*
X163755908Y-102557483D01*
X163806202Y-102692328D01*
X163806206Y-102692335D01*
X163892452Y-102807544D01*
X163892455Y-102807547D01*
X164007664Y-102893793D01*
X164007671Y-102893797D01*
X164142517Y-102944091D01*
X164142516Y-102944091D01*
X164149444Y-102944835D01*
X164202127Y-102950500D01*
X165997872Y-102950499D01*
X166057483Y-102944091D01*
X166192331Y-102893796D01*
X166307546Y-102807546D01*
X166393796Y-102692331D01*
X166442810Y-102560916D01*
X166484681Y-102504984D01*
X166550145Y-102480566D01*
X166618418Y-102495417D01*
X166646673Y-102516569D01*
X166760213Y-102630109D01*
X166932179Y-102755048D01*
X166932181Y-102755049D01*
X166932184Y-102755051D01*
X167121588Y-102851557D01*
X167323757Y-102917246D01*
X167533713Y-102950500D01*
X167533714Y-102950500D01*
X167746286Y-102950500D01*
X167746287Y-102950500D01*
X167956243Y-102917246D01*
X168158412Y-102851557D01*
X168347816Y-102755051D01*
X168434138Y-102692335D01*
X168519786Y-102630109D01*
X168519788Y-102630106D01*
X168519792Y-102630104D01*
X168670104Y-102479792D01*
X168670106Y-102479788D01*
X168670109Y-102479786D01*
X168795048Y-102307820D01*
X168795047Y-102307820D01*
X168795051Y-102307816D01*
X168891557Y-102118412D01*
X168957246Y-101916243D01*
X168990500Y-101706287D01*
X168990500Y-101493713D01*
X168957246Y-101283757D01*
X168891557Y-101081588D01*
X168795051Y-100892184D01*
X168795049Y-100892181D01*
X168795048Y-100892179D01*
X168670109Y-100720213D01*
X168519786Y-100569890D01*
X168347817Y-100444949D01*
X168338504Y-100440204D01*
X168287707Y-100392230D01*
X168270912Y-100324409D01*
X168293449Y-100258274D01*
X168338507Y-100219232D01*
X168347558Y-100214620D01*
X168519459Y-100089727D01*
X168519464Y-100089723D01*
X168669723Y-99939464D01*
X168669727Y-99939459D01*
X168794620Y-99767557D01*
X168891095Y-99578217D01*
X168956757Y-99376129D01*
X168956757Y-99376126D01*
X168967231Y-99310000D01*
X168073012Y-99310000D01*
X168105925Y-99252993D01*
X168140000Y-99125826D01*
X168140000Y-98994174D01*
X168105925Y-98867007D01*
X168073012Y-98810000D01*
X168967231Y-98810000D01*
X168956757Y-98743873D01*
X168956757Y-98743870D01*
X168891095Y-98541782D01*
X168794620Y-98352442D01*
X168669727Y-98180540D01*
X168669723Y-98180535D01*
X168519464Y-98030276D01*
X168519459Y-98030272D01*
X168347557Y-97905379D01*
X168158215Y-97808903D01*
X167956124Y-97743241D01*
X167890000Y-97732768D01*
X167890000Y-98626988D01*
X167832993Y-98594075D01*
X167705826Y-98560000D01*
X167574174Y-98560000D01*
X167447007Y-98594075D01*
X167390000Y-98626988D01*
X167390000Y-97732768D01*
X167389999Y-97732768D01*
X167323875Y-97743241D01*
X167121784Y-97808903D01*
X166932442Y-97905379D01*
X166760540Y-98030272D01*
X166760535Y-98030276D01*
X166610276Y-98180535D01*
X166610272Y-98180540D01*
X166485377Y-98352444D01*
X166480484Y-98362048D01*
X166432509Y-98412844D01*
X166364688Y-98429638D01*
X166298553Y-98407100D01*
X166259516Y-98362048D01*
X166254622Y-98352444D01*
X166129727Y-98180540D01*
X166129723Y-98180535D01*
X165979464Y-98030276D01*
X165979459Y-98030272D01*
X165807557Y-97905379D01*
X165618215Y-97808903D01*
X165416124Y-97743241D01*
X165350000Y-97732768D01*
X165350000Y-98626988D01*
X165292993Y-98594075D01*
X165165826Y-98560000D01*
X165034174Y-98560000D01*
X164907007Y-98594075D01*
X164850000Y-98626988D01*
X164850000Y-97732768D01*
X164849999Y-97732768D01*
X164783875Y-97743241D01*
X164581784Y-97808903D01*
X164392442Y-97905379D01*
X164220540Y-98030272D01*
X164220535Y-98030276D01*
X164070276Y-98180535D01*
X164070272Y-98180540D01*
X163945379Y-98352442D01*
X163848904Y-98541782D01*
X163783242Y-98743870D01*
X163783242Y-98743873D01*
X163772769Y-98810000D01*
X164666988Y-98810000D01*
X164634075Y-98867007D01*
X164600000Y-98994174D01*
X164600000Y-99125826D01*
X164634075Y-99252993D01*
X164666988Y-99310000D01*
X163772769Y-99310000D01*
X163783242Y-99376126D01*
X163783242Y-99376129D01*
X163848904Y-99578217D01*
X163945379Y-99767557D01*
X164070272Y-99939459D01*
X164070276Y-99939464D01*
X164183946Y-100053134D01*
X164217431Y-100114457D01*
X164212447Y-100184149D01*
X164170575Y-100240082D01*
X164139598Y-100256997D01*
X164007671Y-100306202D01*
X164007664Y-100306206D01*
X163892455Y-100392452D01*
X163892452Y-100392455D01*
X163806206Y-100507664D01*
X163806202Y-100507671D01*
X163755908Y-100642517D01*
X163749501Y-100702116D01*
X163749500Y-100702135D01*
X163130500Y-100702135D01*
X163130500Y-97259765D01*
X163150185Y-97192726D01*
X163151398Y-97190874D01*
X163239390Y-97059185D01*
X163239390Y-97059184D01*
X163239394Y-97059179D01*
X163299737Y-96913497D01*
X163330500Y-96758842D01*
X163330500Y-96601158D01*
X163330500Y-96601155D01*
X163330499Y-96601153D01*
X163299738Y-96446510D01*
X163299737Y-96446503D01*
X163260242Y-96351153D01*
X163239397Y-96300827D01*
X163239390Y-96300814D01*
X163151789Y-96169711D01*
X163151786Y-96169707D01*
X163040292Y-96058213D01*
X163040288Y-96058210D01*
X162909185Y-95970609D01*
X162909172Y-95970602D01*
X162763501Y-95910264D01*
X162763489Y-95910261D01*
X162608845Y-95879500D01*
X162608842Y-95879500D01*
X162451158Y-95879500D01*
X162451155Y-95879500D01*
X162296510Y-95910261D01*
X162296498Y-95910264D01*
X162150827Y-95970602D01*
X162150814Y-95970609D01*
X162019711Y-96058210D01*
X162019707Y-96058213D01*
X161908213Y-96169707D01*
X161908210Y-96169711D01*
X161820609Y-96300814D01*
X161820602Y-96300827D01*
X161760264Y-96446498D01*
X161760261Y-96446510D01*
X161729500Y-96601153D01*
X161729500Y-96758846D01*
X161760261Y-96913489D01*
X161760264Y-96913501D01*
X161820602Y-97059172D01*
X161820609Y-97059185D01*
X161908602Y-97190874D01*
X161929480Y-97257551D01*
X161929500Y-97259765D01*
X161929500Y-122936730D01*
X161909815Y-123003769D01*
X161857011Y-123049524D01*
X161844505Y-123054436D01*
X161710666Y-123098786D01*
X161710663Y-123098787D01*
X161561342Y-123190889D01*
X161437289Y-123314942D01*
X161365539Y-123431269D01*
X161313591Y-123477993D01*
X161244628Y-123489216D01*
X161180546Y-123461372D01*
X161154461Y-123431269D01*
X161082906Y-123315259D01*
X161082712Y-123314944D01*
X160958656Y-123190888D01*
X160809334Y-123098786D01*
X160675495Y-123054436D01*
X160618051Y-123014663D01*
X160591228Y-122950147D01*
X160590500Y-122936730D01*
X160590500Y-91759765D01*
X160610185Y-91692726D01*
X160611398Y-91690874D01*
X160699390Y-91559185D01*
X160699390Y-91559184D01*
X160699394Y-91559179D01*
X160759737Y-91413497D01*
X160790500Y-91258842D01*
X160790500Y-91101158D01*
X160790500Y-91101155D01*
X160790499Y-91101153D01*
X160776398Y-91030263D01*
X160759737Y-90946503D01*
X160759735Y-90946498D01*
X160699397Y-90800827D01*
X160699390Y-90800814D01*
X160611789Y-90669711D01*
X160611786Y-90669707D01*
X160500292Y-90558213D01*
X160500288Y-90558210D01*
X160369185Y-90470609D01*
X160369172Y-90470602D01*
X160223501Y-90410264D01*
X160223489Y-90410261D01*
X160068845Y-90379500D01*
X160068842Y-90379500D01*
X159911158Y-90379500D01*
X159911155Y-90379500D01*
X159756510Y-90410261D01*
X159756498Y-90410264D01*
X159610827Y-90470602D01*
X159610814Y-90470609D01*
X159479711Y-90558210D01*
X159479707Y-90558213D01*
X159368213Y-90669707D01*
X159368210Y-90669711D01*
X159280609Y-90800814D01*
X159280602Y-90800827D01*
X159220264Y-90946498D01*
X159220261Y-90946510D01*
X159189500Y-91101153D01*
X159189500Y-91258846D01*
X159220261Y-91413489D01*
X159220264Y-91413501D01*
X159280602Y-91559172D01*
X159280609Y-91559185D01*
X159368602Y-91690874D01*
X159389480Y-91757551D01*
X159389500Y-91759765D01*
X159389500Y-122936730D01*
X159369815Y-123003769D01*
X159317011Y-123049524D01*
X159304505Y-123054436D01*
X159170666Y-123098786D01*
X159170663Y-123098787D01*
X159021342Y-123190889D01*
X158897289Y-123314942D01*
X158825539Y-123431269D01*
X158773591Y-123477993D01*
X158704628Y-123489216D01*
X158640546Y-123461372D01*
X158614461Y-123431269D01*
X158542906Y-123315259D01*
X158542712Y-123314944D01*
X158418656Y-123190888D01*
X158269334Y-123098786D01*
X158135495Y-123054436D01*
X158078051Y-123014663D01*
X158051228Y-122950147D01*
X158050500Y-122936730D01*
X158050500Y-92364799D01*
X158070185Y-92297760D01*
X158071398Y-92295908D01*
X158149390Y-92179185D01*
X158149391Y-92179183D01*
X158149394Y-92179179D01*
X158209737Y-92033497D01*
X158240500Y-91878842D01*
X158240500Y-91721158D01*
X158240500Y-91721157D01*
X158240500Y-91721155D01*
X158240499Y-91721153D01*
X158234360Y-91690289D01*
X158209737Y-91566503D01*
X158206703Y-91559179D01*
X158149397Y-91420827D01*
X158149390Y-91420814D01*
X158061789Y-91289711D01*
X158061786Y-91289707D01*
X157950292Y-91178213D01*
X157950288Y-91178210D01*
X157819185Y-91090609D01*
X157819172Y-91090602D01*
X157673501Y-91030264D01*
X157673489Y-91030261D01*
X157518845Y-90999500D01*
X157518842Y-90999500D01*
X157361158Y-90999500D01*
X157361155Y-90999500D01*
X157206510Y-91030261D01*
X157206498Y-91030264D01*
X157060827Y-91090602D01*
X157060814Y-91090609D01*
X156929711Y-91178210D01*
X156929707Y-91178213D01*
X156818213Y-91289707D01*
X156818210Y-91289711D01*
X156730609Y-91420814D01*
X156730602Y-91420827D01*
X156670264Y-91566498D01*
X156670261Y-91566510D01*
X156639500Y-91721153D01*
X156639500Y-91878846D01*
X156670261Y-92033489D01*
X156670264Y-92033501D01*
X156730602Y-92179172D01*
X156730609Y-92179185D01*
X156818210Y-92310289D01*
X156821353Y-92314118D01*
X156848666Y-92378428D01*
X156849500Y-92392783D01*
X156849500Y-122936730D01*
X156829815Y-123003769D01*
X156777011Y-123049524D01*
X156764505Y-123054436D01*
X156630666Y-123098786D01*
X156630663Y-123098787D01*
X156481342Y-123190889D01*
X156357289Y-123314942D01*
X156285539Y-123431269D01*
X156233591Y-123477993D01*
X156164628Y-123489216D01*
X156100546Y-123461372D01*
X156074461Y-123431269D01*
X156002906Y-123315259D01*
X156002712Y-123314944D01*
X155878656Y-123190888D01*
X155729334Y-123098786D01*
X155562797Y-123043601D01*
X155562795Y-123043600D01*
X155460010Y-123033100D01*
X154359998Y-123033100D01*
X154359980Y-123033101D01*
X154257203Y-123043600D01*
X154257200Y-123043601D01*
X154090668Y-123098785D01*
X154090663Y-123098787D01*
X153941342Y-123190889D01*
X153817289Y-123314942D01*
X153745539Y-123431269D01*
X153693591Y-123477993D01*
X153624628Y-123489216D01*
X153560546Y-123461372D01*
X153534461Y-123431269D01*
X153462906Y-123315259D01*
X153462712Y-123314944D01*
X153338656Y-123190888D01*
X153189334Y-123098786D01*
X153022797Y-123043601D01*
X153022795Y-123043600D01*
X152920010Y-123033100D01*
X151819998Y-123033100D01*
X151819980Y-123033101D01*
X151717203Y-123043600D01*
X151717200Y-123043601D01*
X151550668Y-123098785D01*
X151550663Y-123098787D01*
X151401342Y-123190889D01*
X151277289Y-123314942D01*
X151205539Y-123431269D01*
X151153591Y-123477993D01*
X151084628Y-123489216D01*
X151020546Y-123461372D01*
X150994461Y-123431269D01*
X150922906Y-123315259D01*
X150922712Y-123314944D01*
X150798656Y-123190888D01*
X150649334Y-123098786D01*
X150482797Y-123043601D01*
X150482795Y-123043600D01*
X150380010Y-123033100D01*
X149279998Y-123033100D01*
X149279980Y-123033101D01*
X149177203Y-123043600D01*
X149177200Y-123043601D01*
X149010668Y-123098785D01*
X149010663Y-123098787D01*
X148861342Y-123190889D01*
X148737289Y-123314942D01*
X148645187Y-123464263D01*
X148645185Y-123464268D01*
X148636918Y-123489216D01*
X148590001Y-123630803D01*
X148590001Y-123630804D01*
X148590000Y-123630804D01*
X148579500Y-123733583D01*
X148579500Y-124333601D01*
X148579501Y-124333619D01*
X148590000Y-124436396D01*
X148590001Y-124436399D01*
X148645185Y-124602931D01*
X148645187Y-124602936D01*
X148680069Y-124659488D01*
X148737288Y-124752256D01*
X148861344Y-124876312D01*
X149010666Y-124968414D01*
X149010667Y-124968414D01*
X149016813Y-124972205D01*
X149015706Y-124973999D01*
X149060337Y-125013287D01*
X149079500Y-125079508D01*
X149079500Y-125775968D01*
X149059815Y-125843007D01*
X149028387Y-125876285D01*
X148941349Y-125939522D01*
X148789525Y-126091346D01*
X148789525Y-126091347D01*
X148789523Y-126091349D01*
X148763256Y-126127502D01*
X148663317Y-126265055D01*
X148565838Y-126456366D01*
X148565837Y-126456369D01*
X148499489Y-126660571D01*
X148465900Y-126872643D01*
X141911270Y-126872643D01*
X141870025Y-126686597D01*
X141868152Y-126675971D01*
X141818326Y-126297506D01*
X141817386Y-126286771D01*
X141800618Y-125902702D01*
X141800500Y-125897293D01*
X141800500Y-80502706D01*
X141800618Y-80497297D01*
X141803377Y-80434108D01*
X141817386Y-80113226D01*
X141818326Y-80102495D01*
X141868152Y-79724025D01*
X141870025Y-79713405D01*
X141952649Y-79340709D01*
X141955440Y-79330295D01*
X142070230Y-78966227D01*
X142073917Y-78956095D01*
X142220003Y-78603412D01*
X142224561Y-78593638D01*
X142400822Y-78255045D01*
X142406217Y-78245700D01*
X142611325Y-77923744D01*
X142617515Y-77914905D01*
X142849896Y-77612060D01*
X142856834Y-77603791D01*
X143114726Y-77322352D01*
X143122352Y-77314726D01*
X143403791Y-77056834D01*
X143412060Y-77049896D01*
X143714905Y-76817515D01*
X143723744Y-76811325D01*
X144045700Y-76606217D01*
X144055045Y-76600822D01*
X144393638Y-76424561D01*
X144403412Y-76420003D01*
X144756095Y-76273917D01*
X144766227Y-76270230D01*
X145130295Y-76155440D01*
X145140709Y-76152649D01*
X145513405Y-76070025D01*
X145524025Y-76068152D01*
X145902495Y-76018326D01*
X145913226Y-76017386D01*
X146297297Y-76000617D01*
X146302706Y-76000500D01*
X146365892Y-76000500D01*
X148968117Y-76000500D01*
X149035156Y-76020185D01*
G37*
%TD.AperFunction*%
%TA.AperFunction,Conductor*%
G36*
X167174075Y-86167007D02*
G01*
X167140000Y-86294174D01*
X167140000Y-86425826D01*
X167174075Y-86552993D01*
X167206988Y-86610000D01*
X165533012Y-86610000D01*
X165565925Y-86552993D01*
X165600000Y-86425826D01*
X165600000Y-86294174D01*
X165565925Y-86167007D01*
X165533012Y-86110000D01*
X167206988Y-86110000D01*
X167174075Y-86167007D01*
G37*
%TD.AperFunction*%
%TA.AperFunction,Conductor*%
G36*
X172940000Y-79996000D02*
G01*
X173446000Y-79996000D01*
X173513039Y-80015685D01*
X173558794Y-80068489D01*
X173559879Y-80073479D01*
X173570000Y-80083600D01*
X173601428Y-80083600D01*
X173601444Y-80083599D01*
X173660972Y-80077198D01*
X173660979Y-80077196D01*
X173795686Y-80026954D01*
X173795693Y-80026950D01*
X173910787Y-79940790D01*
X173910790Y-79940787D01*
X173996950Y-79825693D01*
X173996955Y-79825684D01*
X174040797Y-79708137D01*
X174082668Y-79652203D01*
X174148132Y-79627785D01*
X174216405Y-79642636D01*
X174244660Y-79663788D01*
X174341349Y-79760477D01*
X174428386Y-79823713D01*
X174471051Y-79879043D01*
X174479500Y-79924031D01*
X174479500Y-80620491D01*
X174459815Y-80687530D01*
X174415731Y-80726041D01*
X174416813Y-80727795D01*
X174410667Y-80731585D01*
X174410666Y-80731586D01*
X174312419Y-80792184D01*
X174261342Y-80823689D01*
X174137288Y-80947743D01*
X174137285Y-80947747D01*
X174065244Y-81064544D01*
X174013296Y-81111269D01*
X173944334Y-81122490D01*
X173880252Y-81094647D01*
X173854167Y-81064544D01*
X173782315Y-80948054D01*
X173658345Y-80824084D01*
X173502975Y-80728251D01*
X173504032Y-80726537D01*
X173459153Y-80687019D01*
X173440000Y-80620813D01*
X173440000Y-80496000D01*
X171940000Y-80496000D01*
X171940000Y-80620813D01*
X171920315Y-80687852D01*
X171875989Y-80726571D01*
X171877025Y-80728251D01*
X171721654Y-80824084D01*
X171597683Y-80948055D01*
X171597680Y-80948059D01*
X171525538Y-81065020D01*
X171473590Y-81111745D01*
X171404628Y-81122966D01*
X171340546Y-81095123D01*
X171314462Y-81065020D01*
X171242319Y-80948059D01*
X171242316Y-80948055D01*
X171118345Y-80824084D01*
X170962975Y-80728251D01*
X170964032Y-80726537D01*
X170919153Y-80687019D01*
X170900000Y-80620813D01*
X170900000Y-80496000D01*
X169400000Y-80496000D01*
X169400000Y-80620813D01*
X169380315Y-80687852D01*
X169335989Y-80726571D01*
X169337025Y-80728251D01*
X169181654Y-80824084D01*
X169057683Y-80948055D01*
X169057680Y-80948059D01*
X168985831Y-81064544D01*
X168933883Y-81111269D01*
X168864920Y-81122490D01*
X168800838Y-81094647D01*
X168774754Y-81064544D01*
X168702906Y-80948059D01*
X168702712Y-80947744D01*
X168578656Y-80823688D01*
X168429334Y-80731586D01*
X168429332Y-80731585D01*
X168423187Y-80727795D01*
X168424292Y-80726003D01*
X168379655Y-80686700D01*
X168360499Y-80620491D01*
X168360499Y-79924031D01*
X168380184Y-79856992D01*
X168411611Y-79823714D01*
X168498651Y-79760477D01*
X168595342Y-79663785D01*
X168656661Y-79630303D01*
X168726353Y-79635287D01*
X168782287Y-79677158D01*
X168799202Y-79708136D01*
X168843045Y-79825686D01*
X168843049Y-79825693D01*
X168929209Y-79940787D01*
X168929212Y-79940790D01*
X169044306Y-80026950D01*
X169044313Y-80026954D01*
X169179020Y-80077196D01*
X169179027Y-80077198D01*
X169238555Y-80083599D01*
X169238572Y-80083600D01*
X169270000Y-80083600D01*
X169285131Y-80068468D01*
X169289685Y-80052961D01*
X169342489Y-80007206D01*
X169394000Y-79996000D01*
X169900000Y-79996000D01*
X169900000Y-79162251D01*
X169953919Y-79193381D01*
X170083120Y-79228000D01*
X170216880Y-79228000D01*
X170346081Y-79193381D01*
X170400000Y-79162251D01*
X170400000Y-79996000D01*
X170906000Y-79996000D01*
X170973039Y-80015685D01*
X171018794Y-80068489D01*
X171019879Y-80073479D01*
X171030000Y-80083600D01*
X171061428Y-80083600D01*
X171061444Y-80083599D01*
X171120972Y-80077198D01*
X171120979Y-80077196D01*
X171255686Y-80026954D01*
X171255689Y-80026952D01*
X171345688Y-79959579D01*
X171411152Y-79935161D01*
X171479426Y-79950012D01*
X171494312Y-79959579D01*
X171584310Y-80026952D01*
X171584313Y-80026954D01*
X171719020Y-80077196D01*
X171719027Y-80077198D01*
X171778555Y-80083599D01*
X171778572Y-80083600D01*
X171810000Y-80083600D01*
X171825131Y-80068468D01*
X171829685Y-80052961D01*
X171882489Y-80007206D01*
X171934000Y-79996000D01*
X172440000Y-79996000D01*
X172440000Y-79162251D01*
X172493919Y-79193381D01*
X172623120Y-79228000D01*
X172756880Y-79228000D01*
X172886081Y-79193381D01*
X172940000Y-79162251D01*
X172940000Y-79996000D01*
G37*
%TD.AperFunction*%
%TA.AperFunction,Conductor*%
G36*
X172216619Y-78523919D02*
G01*
X172182000Y-78653120D01*
X172182000Y-78786880D01*
X172216619Y-78916081D01*
X172247749Y-78970000D01*
X170592251Y-78970000D01*
X170623381Y-78916081D01*
X170658000Y-78786880D01*
X170658000Y-78653120D01*
X170623381Y-78523919D01*
X170592251Y-78470000D01*
X172247749Y-78470000D01*
X172216619Y-78523919D01*
G37*
%TD.AperFunction*%
%TA.AperFunction,Conductor*%
G36*
X169355689Y-76020185D02*
G01*
X169401444Y-76072989D01*
X169411388Y-76142147D01*
X169407854Y-76155991D01*
X169408187Y-76156070D01*
X169406401Y-76163627D01*
X169400000Y-76223155D01*
X169400000Y-76946000D01*
X170900000Y-76946000D01*
X170900000Y-76223172D01*
X170899999Y-76223155D01*
X170893598Y-76163627D01*
X170891813Y-76156070D01*
X170894285Y-76155485D01*
X170890183Y-76098144D01*
X170923667Y-76036820D01*
X170984990Y-76003334D01*
X171011350Y-76000500D01*
X171828650Y-76000500D01*
X171895689Y-76020185D01*
X171941444Y-76072989D01*
X171951388Y-76142147D01*
X171947854Y-76155991D01*
X171948187Y-76156070D01*
X171946401Y-76163627D01*
X171940000Y-76223155D01*
X171940000Y-76946000D01*
X173440000Y-76946000D01*
X173440000Y-76223172D01*
X173439999Y-76223155D01*
X173433598Y-76163627D01*
X173431813Y-76156070D01*
X173434285Y-76155485D01*
X173430183Y-76098144D01*
X173463667Y-76036820D01*
X173524990Y-76003334D01*
X173551350Y-76000500D01*
X174368117Y-76000500D01*
X174435156Y-76020185D01*
X174480911Y-76072989D01*
X174490855Y-76142147D01*
X174487348Y-76155883D01*
X174487693Y-76155965D01*
X174485908Y-76163516D01*
X174479501Y-76223116D01*
X174479501Y-76223123D01*
X174479500Y-76223135D01*
X174479500Y-77515968D01*
X174459815Y-77583007D01*
X174428387Y-77616285D01*
X174341351Y-77679521D01*
X174244660Y-77776212D01*
X174183336Y-77809696D01*
X174113645Y-77804712D01*
X174057712Y-77762840D01*
X174040797Y-77731863D01*
X173996954Y-77614313D01*
X173996950Y-77614306D01*
X173910790Y-77499212D01*
X173910787Y-77499209D01*
X173795693Y-77413049D01*
X173795686Y-77413045D01*
X173660979Y-77362803D01*
X173660972Y-77362801D01*
X173601444Y-77356400D01*
X173570000Y-77356400D01*
X173555699Y-77370700D01*
X173550315Y-77389039D01*
X173497511Y-77434794D01*
X173446000Y-77446000D01*
X172940000Y-77446000D01*
X172940000Y-78277748D01*
X172886081Y-78246619D01*
X172756880Y-78212000D01*
X172623120Y-78212000D01*
X172493919Y-78246619D01*
X172440000Y-78277748D01*
X172440000Y-77446000D01*
X171934000Y-77446000D01*
X171866961Y-77426315D01*
X171821206Y-77373511D01*
X171819564Y-77365964D01*
X171810000Y-77356400D01*
X171778555Y-77356400D01*
X171719027Y-77362801D01*
X171719020Y-77362803D01*
X171584313Y-77413045D01*
X171584311Y-77413047D01*
X171494311Y-77480421D01*
X171428847Y-77504838D01*
X171360574Y-77489987D01*
X171345689Y-77480421D01*
X171255688Y-77413047D01*
X171255686Y-77413045D01*
X171120979Y-77362803D01*
X171120972Y-77362801D01*
X171061444Y-77356400D01*
X171030000Y-77356400D01*
X171015699Y-77370700D01*
X171010315Y-77389039D01*
X170957511Y-77434794D01*
X170906000Y-77446000D01*
X170400000Y-77446000D01*
X170400000Y-78277748D01*
X170346081Y-78246619D01*
X170216880Y-78212000D01*
X170083120Y-78212000D01*
X169953919Y-78246619D01*
X169900000Y-78277748D01*
X169900000Y-77446000D01*
X169394000Y-77446000D01*
X169326961Y-77426315D01*
X169281206Y-77373511D01*
X169279564Y-77365964D01*
X169270000Y-77356400D01*
X169238555Y-77356400D01*
X169179027Y-77362801D01*
X169179020Y-77362803D01*
X169044313Y-77413045D01*
X169044306Y-77413049D01*
X168929212Y-77499209D01*
X168929209Y-77499212D01*
X168843049Y-77614306D01*
X168843045Y-77614313D01*
X168799202Y-77731863D01*
X168757330Y-77787797D01*
X168691866Y-77812214D01*
X168623593Y-77797362D01*
X168595339Y-77776211D01*
X168498650Y-77679522D01*
X168411612Y-77616284D01*
X168368947Y-77560954D01*
X168360499Y-77515967D01*
X168360499Y-76223129D01*
X168360498Y-76223123D01*
X168360498Y-76223116D01*
X168354091Y-76163517D01*
X168354090Y-76163515D01*
X168354090Y-76163512D01*
X168352308Y-76155969D01*
X168354810Y-76155377D01*
X168350717Y-76098140D01*
X168384203Y-76036818D01*
X168445526Y-76003333D01*
X168471883Y-76000500D01*
X169288650Y-76000500D01*
X169355689Y-76020185D01*
G37*
%TD.AperFunction*%
%TD*%
M02*
