M48
; DRILL file {KiCad 9.0.0-9.0.0-2~ubuntu24.04.1} date 2025-03-03T15:41:30-0500
; FORMAT={-:-/ absolute / metric / decimal}
; #@! TF.CreationDate,2025-03-03T15:41:30-05:00
; #@! TF.GenerationSoftware,Kicad,Pcbnew,9.0.0-9.0.0-2~ubuntu24.04.1
; #@! TF.FileFunction,Plated,1,2,PTH
FMAT,2
METRIC
; #@! TA.AperFunction,Plated,PTH,ViaDrill
T1C0.300
; #@! TA.AperFunction,Plated,PTH,ComponentDrill
T2C0.500
; #@! TA.AperFunction,Plated,PTH,ComponentDrill
T3C1.000
; #@! TA.AperFunction,Plated,PTH,ComponentDrill
T4C1.016
%
G90
G05
T1
X145.0Y-77.5
X145.0Y-80.0
X145.0Y-82.5
X145.0Y-85.0
X145.0Y-87.5
X145.0Y-90.0
X145.0Y-117.5
X145.0Y-120.0
X145.0Y-122.5
X145.0Y-125.0
X145.0Y-127.5
X147.5Y-77.5
X147.5Y-80.0
X147.5Y-82.5
X147.5Y-85.0
X147.5Y-87.5
X147.5Y-90.0
X147.5Y-117.5
X147.5Y-120.0
X147.5Y-122.5
X147.5Y-125.0
X147.5Y-127.5
X150.0Y-117.5
X152.5Y-97.5
X152.5Y-100.0
X152.5Y-102.5
X152.5Y-105.0
X152.5Y-107.5
X152.5Y-110.0
X152.5Y-112.5
X152.5Y-115.0
X152.5Y-117.5
X154.92Y-119.25
X157.42Y-119.25
X160.0Y-97.5
X160.0Y-105.0
X160.0Y-107.5
X160.0Y-110.0
X160.0Y-112.5
X160.0Y-115.0
X161.73Y-104.4
X162.5Y-97.5
X162.5Y-100.0
X163.0Y-104.31
X165.0Y-77.5
X165.0Y-80.0
X165.0Y-82.5
X165.0Y-107.5
X165.0Y-117.5
X167.5Y-107.5
X167.5Y-117.5
X170.0Y-122.5
X170.0Y-125.0
X170.3Y-95.85
X170.32Y-95.0
X175.0Y-117.5
X175.0Y-120.0
X177.5Y-117.5
X182.5Y-92.5
X182.5Y-95.0
X185.0Y-92.5
X185.0Y-95.0
X187.5Y-77.5
X187.5Y-82.5
X187.5Y-92.5
X187.5Y-95.0
X190.0Y-77.5
X190.0Y-82.5
X190.0Y-92.5
X190.0Y-95.0
X190.0Y-117.5
X190.0Y-120.0
X192.5Y-82.5
X192.5Y-92.5
X192.5Y-95.0
X192.5Y-117.5
X192.5Y-120.0
X195.0Y-82.5
X195.0Y-92.5
X195.0Y-95.0
X197.5Y-82.5
X197.5Y-92.5
X197.5Y-95.0
X197.5Y-122.5
X197.5Y-125.0
X197.5Y-127.5
X200.0Y-82.5
X200.0Y-85.0
X200.0Y-87.5
X200.0Y-90.0
X200.0Y-92.5
X200.0Y-95.0
X200.0Y-97.5
X200.0Y-100.0
X200.0Y-102.5
X200.0Y-105.0
X200.0Y-122.5
X200.0Y-125.0
X200.0Y-127.5
T2
X149.83Y-81.666
X149.83Y-124.034
X152.37Y-81.666
X152.37Y-124.034
X154.91Y-81.666
X154.91Y-124.034
X157.45Y-81.666
X157.45Y-124.034
X159.99Y-81.666
X159.99Y-124.034
X162.53Y-81.666
X162.53Y-124.034
X165.07Y-124.034
X167.61Y-81.666
X167.61Y-124.034
X170.15Y-81.666
X171.674Y-124.034
X172.69Y-81.666
X174.214Y-124.034
X175.23Y-81.666
X176.754Y-124.034
X177.77Y-81.666
X179.294Y-124.034
X180.31Y-81.666
X181.834Y-124.034
X182.85Y-81.666
X184.374Y-124.034
X185.39Y-81.666
X186.914Y-124.034
X189.454Y-124.034
X191.994Y-124.034
X194.585Y-124.034
T3
X165.1Y-86.36
X165.1Y-88.9
X165.1Y-99.06
X165.1Y-101.6
X165.1Y-111.76
X165.1Y-114.3
X167.64Y-86.36
X167.64Y-88.9
X167.64Y-99.06
X167.64Y-101.6
X167.64Y-111.76
X167.64Y-114.3
X173.99Y-86.36
X173.99Y-88.9
X173.99Y-99.06
X173.99Y-101.6
X173.99Y-111.76
X173.99Y-114.3
X176.53Y-86.36
X176.53Y-88.9
X176.53Y-99.06
X176.53Y-101.6
X176.53Y-111.76
X176.53Y-114.3
X179.07Y-86.36
X179.07Y-88.9
X179.07Y-99.06
X179.07Y-101.6
X179.07Y-111.76
X179.07Y-114.3
X181.61Y-86.36
X181.61Y-88.9
X181.61Y-99.06
X181.61Y-101.6
X181.61Y-111.76
X181.61Y-114.3
X184.15Y-86.36
X184.15Y-88.9
X184.15Y-99.06
X184.15Y-101.6
X184.15Y-111.76
X184.15Y-114.3
X186.69Y-86.36
X186.69Y-88.9
X186.69Y-99.06
X186.69Y-101.6
X186.69Y-111.76
X186.69Y-114.3
X189.23Y-86.36
X189.23Y-88.9
X189.23Y-99.06
X189.23Y-101.6
X189.23Y-111.76
X189.23Y-114.3
X191.77Y-86.36
X191.77Y-88.9
X191.77Y-99.06
X191.77Y-101.6
X191.77Y-111.76
X191.77Y-114.3
X194.31Y-86.36
X194.31Y-88.9
X194.31Y-99.06
X194.31Y-101.6
X194.31Y-111.76
X194.31Y-114.3
X196.85Y-86.36
X196.85Y-88.9
X196.85Y-99.06
X196.85Y-101.6
X196.85Y-111.76
X196.85Y-114.3
T4
X149.83Y-78.72
X149.83Y-126.98
X152.37Y-78.72
X152.37Y-126.98
X154.91Y-78.72
X154.91Y-126.98
X157.45Y-78.72
X157.45Y-126.98
X159.99Y-78.72
X159.99Y-126.98
X162.53Y-78.72
X162.53Y-126.98
X165.07Y-126.98
X167.61Y-78.72
X167.61Y-126.98
X170.15Y-78.72
X171.674Y-126.98
X172.69Y-78.72
X174.214Y-126.98
X175.23Y-78.72
X176.754Y-126.98
X177.77Y-78.72
X179.294Y-126.98
X180.31Y-78.72
X181.834Y-126.98
X182.85Y-78.72
X184.374Y-126.98
X185.39Y-78.72
X186.914Y-126.98
X189.454Y-126.98
X191.994Y-126.98
X194.534Y-126.98
M30
